<?xml version="1.0" encoding="utf-8"?>
<!-- Generator: Adobe Illustrator 23.0.3, SVG Export Plug-In . SVG Version: 6.00 Build 0)  -->
<svg version="1.1" id="icon-toolbar-list-ordered" xmlns="http://www.w3.org/2000/svg" xmlns:xlink="http://www.w3.org/1999/xlink"
	 x="0px" y="0px" viewBox="0 0 24 24" style="enable-background:new 0 0 24 24;" xml:space="preserve">
<title>icon-toolbar-list-numbered</title>
<g>
	<path d="M17,16h-6c-0.6,0-1,0.4-1,1s0.4,1,1,1h6c0.6,0,1-0.4,1-1S17.6,16,17,16z"/>
	<path d="M11,8h6c0.6,0,1-0.4,1-1s-0.4-1-1-1h-6c-0.6,0-1,0.4-1,1S10.4,8,11,8z"/>
	<path d="M17,11h-6c-0.6,0-1,0.4-1,1s0.4,1,1,1h6c0.6,0,1-0.4,1-1S17.6,11,17,11z"/>
	<path d="M8.9,8.2H8.1V5.1H7.4C7.1,5.3,6.7,5.4,6.3,5.4V6h0.8v2.2h-1v0.7h2.8V8.2z"/>
	<path d="M7.3,10.8c0.4,0,0.6,0.2,0.6,0.6c0,0.5-0.7,1.2-1.8,2.1v0.5h2.9v-0.7H8c-0.2,0-0.5,0-0.7,0c0.7-0.6,1.4-1.3,1.4-2
		c0,0,0-0.1,0-0.1C8.6,10.5,8,10,7.4,10.1c-0.5,0-1,0.2-1.4,0.6l0.5,0.5C6.7,10.9,7,10.8,7.3,10.8z"/>
	<path d="M8.1,16.9L8.1,16.9c0.5-0.2,0.7-0.5,0.7-0.9c0-0.7-0.6-1-1.4-1c-0.5,0-0.9,0.2-1.3,0.5L6.6,16c0.2-0.2,0.5-0.3,0.8-0.3
		c0.3,0,0.6,0.2,0.6,0.4c0,0.3-0.3,0.5-1,0.5v0.6c0.9,0,1.1,0.2,1.1,0.5c0,0.3-0.3,0.5-0.7,0.5c-0.3,0-0.7-0.1-0.9-0.4L6,18.4
		C6.4,18.8,6.9,19,7.4,19c0.8,0,1.5-0.4,1.5-1.1C8.9,17.4,8.6,17,8.1,16.9z"/>
</g>
</svg>
