<?xml version="1.0" encoding="utf-8"?>
<!-- Generator: Adobe Illustrator 24.0.0, SVG Export Plug-In . SVG Version: 6.00 Build 0)  -->
<svg version="1.1" id="Layer_1" xmlns="http://www.w3.org/2000/svg" xmlns:xlink="http://www.w3.org/1999/xlink" x="0px" y="0px"
	 viewBox="0 0 12.3 10.7" style="enable-background:new 0 0 12.3 10.7;" xml:space="preserve">
<style type="text/css">
	.st0{fill:#404544;}
</style>
<title>Icon_Return</title>
<g id="return">
	<path class="st0" d="M3,6h7.3V1c0-0.6,0.4-1,1-1s1,0.4,1,1v6c0,0.6-0.4,1-1,1H3l0.1-0.1l1.2,1.2c0.2,0.2,0.3,0.4,0.3,0.7
		c0,0.2-0.1,0.5-0.3,0.6c-0.4,0.3-0.9,0.3-1.3,0L0.1,7.5C0,7.4,0,7.2,0,7.1c0-0.2,0.1-0.5,0.3-0.7L3,3.7c0.2-0.2,0.4-0.3,0.7-0.3
		c0.2,0,0.5,0.1,0.6,0.3c0.3,0.4,0.3,0.9,0,1.3L3.1,6.1L3,6z"/>
</g>
</svg>
