<?xml version="1.0" encoding="utf-8"?>
<!-- Generator: Adobe Illustrator 23.0.6, SVG Export Plug-In . SVG Version: 6.00 Build 0)  -->
<svg version="1.1" id="move-file" xmlns="http://www.w3.org/2000/svg" xmlns:xlink="http://www.w3.org/1999/xlink" x="0px" y="0px"
	 viewBox="0 0 24 24" style="enable-background:new 0 0 24 24;" xml:space="preserve">
<style type="text/css">
	.st0{fill:#231F20;}
</style>
<path id="document" d="M17,22L2,22V2l15,0v4c0,0.6-0.4,1-1,1s-1-0.4-1-1V4L4,4v16l11,0v-2c0-0.6,0.4-1,1-1s1,0.4,1,1V22z"/>
<path id="arrow" class="st0" d="M13.8,12c0,0.2,0.1,0.5,0.2,0.6c0.2,0.2,0.4,0.3,0.7,0.3c0.2,0,0.3,0,0.5,0h3.7l-1.2,1.2
	c-0.3,0.3-0.3,0.9,0,1.3c0.2,0.2,0.4,0.3,0.6,0.3c0.2,0,0.5-0.1,0.7-0.3l2.7-2.7c0.2-0.2,0.3-0.4,0.3-0.7c0-0.2,0-0.3-0.1-0.4
	L19,8.6c-0.3-0.3-0.9-0.3-1.3,0c-0.2,0.2-0.3,0.4-0.3,0.6c0,0.2,0.1,0.5,0.3,0.7l1.2,1.2h-4.2C14.2,11.1,13.8,11.5,13.8,12z"/>
</svg>
