<?xml version="1.0" encoding="utf-8"?>
<!-- Generator: Adobe Illustrator 22.1.0, SVG Export Plug-In . SVG Version: 6.00 Build 0)  -->
<svg version="1.1" id="globe-check" xmlns="http://www.w3.org/2000/svg" xmlns:xlink="http://www.w3.org/1999/xlink" x="0px"
	 y="0px" viewBox="0 0 24 24" style="enable-background:new 0 0 24 24;" xml:space="preserve">
<title>icon-globe-check</title>
<g>
	<path d="M17,12c-2.8,0-5,2.2-5,5s2.2,5,5,5s5-2.2,5-5C22,14.2,19.8,12,17,12z M17,21c-2.2,0-4-1.8-4-4s1.8-4,4-4s4,1.8,4,4
		S19.2,21,17,21z"/>
	<path d="M18.1,15.2l-1.7,2.5l-0.6-0.6c-0.2-0.2-0.5-0.2-0.7,0s-0.2,0.5,0,0.7l1,1c0.1,0.1,0.2,0.1,0.4,0.1c0,0,0,0,0,0
		c0.1,0,0.3-0.1,0.4-0.2l2-3c0.2-0.2,0.1-0.5-0.1-0.7C18.5,14.9,18.2,15,18.1,15.2z"/>
	<path d="M8.1,8.7l-1,3C6.9,12,7,12.3,7.2,12.6C7.4,12.8,7.7,13,8,13h1c0.3,0,0.5-0.1,0.7-0.3l1.7-1.7H14c0.3,0,0.5-0.1,0.7-0.3l2-2
		c0.3-0.3,0.4-0.8,0.2-1.2l-0.7-1.4l0.3-0.3c1.2,1.1,2.1,2.6,2.4,4.2c0.1,0.5,0.6,0.9,1.2,0.8c0.5-0.1,0.9-0.6,0.8-1.2
		c-0.7-3.9-3.8-7-7.7-7.7c-2.5-0.4-5,0.1-7.1,1.6C4,5.2,2.6,7.3,2.1,9.8c-0.4,2.5,0.1,5,1.6,7.1c1.4,2.1,3.6,3.5,6.1,3.9
		c0.1,0,0.1,0,0.2,0c0.5,0,0.9-0.3,1-0.8c0.1-0.5-0.3-1.1-0.8-1.2c-0.1,0-0.1,0-0.2,0V16c0-0.6-0.4-1-1-1H7c-0.3,0-0.5,0.1-0.7,0.3
		L5.5,16c-1.2-1.6-1.8-3.7-1.4-5.9c0.3-1.5,0.9-2.8,1.9-3.8c0.1,0.2,0.3,0.4,0.5,0.6l1.9,0.9L8.6,8L8.3,8.3C8.2,8.4,8.1,8.5,8.1,8.7
		z"/>
</g>
</svg>
