<?xml version="1.0" encoding="utf-8"?>
<!-- Generator: Adobe Illustrator 23.0.3, SVG Export Plug-In . SVG Version: 6.00 Build 0)  -->
<svg version="1.1" id="icon-toolbar-text-bold" xmlns="http://www.w3.org/2000/svg" xmlns:xlink="http://www.w3.org/1999/xlink"
	 x="0px" y="0px" viewBox="0 0 24 24" style="enable-background:new 0 0 24 24;" xml:space="preserve">
<title>icon-toolbar-text-bold</title>
<g id="Layer_92">
	<path d="M7.5,6h4c2.5,0,4.4,0.7,4.4,3c0,1.2-0.8,2.3-2.1,2.6v0.1c1.7,0.3,2.6,1.2,2.6,2.8c0,2.4-2,3.5-4.6,3.5H7.5V6z M11.4,10.8
		c1.3,0,1.9-0.6,1.9-1.5c0-0.9-0.6-1.2-1.8-1.2h-1.2v2.7H11.4z M11.7,15.9c1.5,0,2.2-0.5,2.2-1.6c0-1.1-0.7-1.5-2.2-1.5h-1.4v3.1
		L11.7,15.9z"/>
</g>
</svg>
