<?xml version="1.0" encoding="utf-8"?>
<!-- Generator: Adobe Illustrator 23.0.3, SVG Export Plug-In . SVG Version: 6.00 Build 0)  -->
<svg version="1.1" id="icon-toolbar-text-quote" xmlns="http://www.w3.org/2000/svg" xmlns:xlink="http://www.w3.org/1999/xlink"
	 x="0px" y="0px" viewBox="0 0 24 24" style="enable-background:new 0 0 24 24;" xml:space="preserve">
<title>icon-toolbar-quote</title>
<g id="Layer_92">
	<path d="M17.2,7.7L18,8.8c-1.9,0.6-2.8,1.3-2.8,2.2c0,0.6,0.2,0.8,1,1.1c0.8,0.3,1.4,1.1,1.4,1.9c0,1.3-1.1,2.3-2.4,2.3
		c0,0,0,0-0.1,0c-1.6,0-2.8-1.4-2.8-3.3C12.2,10.3,13.9,8.4,17.2,7.7z"/>
	<path d="M10.9,7.7l0.9,1.1C9.8,9.4,8.9,10.1,8.9,11c0,0.6,0.3,0.8,1,1.1c0.8,0.3,1.4,1.1,1.4,1.9c0,1.3-1.1,2.3-2.4,2.3
		c0,0,0,0-0.1,0C7.2,16.3,6,14.9,6,13C6,10.3,7.7,8.4,10.9,7.7z"/>
</g>
</svg>
