<?xml version="1.0" encoding="utf-8"?>
<!-- Generator: Adobe Illustrator 23.1.1, SVG Export Plug-In . SVG Version: 6.00 Build 0)  -->
<svg version="1.1" id="Layer_1" xmlns="http://www.w3.org/2000/svg" xmlns:xlink="http://www.w3.org/1999/xlink" x="0px" y="0px"
	 viewBox="0 0 24 24" style="enable-background:new 0 0 24 24;" xml:space="preserve">
<title>icon-color</title>
<g id="color">
	<g>
		<path d="M11.9,21.9c-1.9,0-3.8-0.8-5.2-2.2c-1.2-1.2-1.9-2.7-2.1-4.4c-0.2-1.7,0.2-3.5,1.2-5c1.6-2.5,3.3-5.1,4.9-7.6
			c0.2-0.3,0.4-0.5,0.8-0.7c0.4-0.1,0.7-0.1,1.1,0c0.3,0.1,0.5,0.3,0.7,0.6l4.9,7.5c0.8,1.2,1.2,2.7,1.2,4.1c0,3.4-2.2,6.3-5.5,7.2
			C13.3,21.8,12.6,21.9,11.9,21.9z M12,4.4c-1.5,2.3-3,4.7-4.5,7c-0.7,1.1-1,2.4-0.8,3.7c0.1,1.2,0.7,2.4,1.6,3.2
			c1.4,1.4,3.4,1.9,5.2,1.4c2.4-0.7,4-2.8,4-5.3v0c0-1.1-0.3-2.1-0.9-3L12,4.4z"/>
	</g>
</g>
</svg>
