<?xml version="1.0" encoding="utf-8"?>
<!-- Generator: Adobe Illustrator 23.0.3, SVG Export Plug-In . SVG Version: 6.00 Build 0)  -->
<svg version="1.1" id="icon-toolbar-link" xmlns="http://www.w3.org/2000/svg" xmlns:xlink="http://www.w3.org/1999/xlink" x="0px"
	 y="0px" viewBox="0 0 24 24" style="enable-background:new 0 0 24 24;" xml:space="preserve">
<title>icon-toolbar-link</title>
<g>
	<path d="M12,14.7L12,14.7l-0.7,0.7c-0.7,0.8-2,0.8-2.7,0c-0.8-0.7-0.8-2,0-2.7c0,0,0,0,0,0L9.3,12c0.4-0.4,0.4-1,0-1.4
		c-0.4-0.4-1-0.4-1.4,0l-0.7,0.7c-1.5,1.5-1.5,4,0,5.6c1.5,1.5,4,1.5,5.6,0l0.7-0.7c0.4-0.4,0.4-1,0-1.4C13,14.4,12.4,14.4,12,14.7z
		"/>
	<path d="M16.9,7.1c-1.5-1.5-4-1.5-5.6,0l-0.7,0.7c-0.4,0.4-0.4,1,0,1.4c0.4,0.4,1,0.4,1.4,0l0.7-0.7c0.7-0.8,2-0.8,2.7,0
		s0.8,2,0,2.7c0,0,0,0,0,0L14.7,12c-0.4,0.4-0.4,1,0,1.4c0.4,0.4,1,0.4,1.4,0l0.7-0.7C18.4,11.2,18.4,8.7,16.9,7.1z"/>
	<path d="M12.7,9.9l-2.8,2.8c-0.4,0.4-0.4,1,0,1.4c0.4,0.4,1,0.4,1.4,0l2.8-2.8c0.4-0.4,0.4-1,0-1.4C13.7,9.5,13.1,9.5,12.7,9.9z"/>
</g>
</svg>
