<?xml version="1.0" encoding="utf-8"?>
<!-- Generator: Adobe Illustrator 22.1.0, SVG Export Plug-In . SVG Version: 6.00 Build 0)  -->
<svg version="1.1" id="tag" xmlns="http://www.w3.org/2000/svg" xmlns:xlink="http://www.w3.org/1999/xlink" x="0px" y="0px"
	 viewBox="0 0 24 24" style="enable-background:new 0 0 24 24;" xml:space="preserve">
<title>icon-tag</title>
<g>
	<path d="M21.7,11.3l-9-9C12.5,2.1,12.3,2,12,2H5.6C5.3,2,5.1,2.1,4.9,2.3L2.3,4.9C2.1,5.1,2,5.3,2,5.6V12c0,0.3,0.1,0.5,0.3,0.7
		l9,9c0.2,0.2,0.4,0.3,0.7,0.3c0.3,0,0.5-0.1,0.7-0.3l9-9c0,0,0,0,0,0C22.1,12.3,22.1,11.7,21.7,11.3z M12,19.6l-8-8V6l2-2h5.6l8,8
		L12,19.6z"/>
	<circle cx="8" cy="8" r="2"/>
</g>
</svg>
