<?xml version="1.0" encoding="utf-8"?>
<!-- Generator: Adobe Illustrator 23.0.3, SVG Export Plug-In . SVG Version: 6.00 Build 0)  -->
<svg version="1.1" id="icon-toolbar-list-bulleted" xmlns="http://www.w3.org/2000/svg" xmlns:xlink="http://www.w3.org/1999/xlink"
	 x="0px" y="0px" viewBox="0 0 24 24" style="enable-background:new 0 0 24 24;" xml:space="preserve">
<title>icon-toolbar-list-bulleted</title>
<g id="Layer_92">
	<path d="M11,16h6c0.6,0,1,0.4,1,1l0,0c0,0.6-0.4,1-1,1h-6c-0.6,0-1-0.4-1-1l0,0C10,16.4,10.4,16,11,16z"/>
	<path d="M11,6h6c0.6,0,1,0.4,1,1l0,0c0,0.6-0.4,1-1,1h-6c-0.6,0-1-0.4-1-1l0,0C10,6.4,10.4,6,11,6z"/>
	<path d="M11,11h6c0.6,0,1,0.4,1,1l0,0c0,0.6-0.4,1-1,1h-6c-0.6,0-1-0.4-1-1l0,0C10,11.4,10.4,11,11,11z"/>
	<circle cx="7" cy="7" r="1"/>
	<circle cx="7" cy="12" r="1"/>
	<circle cx="7" cy="17" r="1"/>
</g>
</svg>
