<svg height='100px' width='100px'  fill="#000000" xmlns="http://www.w3.org/2000/svg" xmlns:xlink="http://www.w3.org/1999/xlink" version="1.1" x="0px" y="0px" viewBox="0 0 100 100" enable-background="new 0 0 100 100" xml:space="preserve"><path fill-rule="evenodd" clip-rule="evenodd" d="M50,82.998c-18.585,0-33.65-15.066-33.65-33.651c0-10,4.38-18.956,11.307-25.114  h-5.921c-1.665,0-3.014-1.35-3.014-3.014v-1.2c0-1.665,1.35-3.014,3.014-3.014h16.769c0.012,0,0.022-0.003,0.034-0.003h1.2  c0.833,0,1.588,0.339,2.133,0.885c0.546,0.546,0.884,1.299,0.884,2.132v1.2c0,0.01-0.003,0.019-0.003,0.028v16.775  c0,1.665-1.35,3.014-3.014,3.014h-1.2c-1.665,0-3.014-1.35-3.014-3.014V27.434c-7.157,4.728-11.892,12.822-11.892,22.042  c0,14.605,11.84,26.445,26.445,26.445c14.605,0,26.445-11.84,26.445-26.445c0-11.39-7.214-21.069-17.312-24.792  c0.071-0.064,0.132-0.14,0.201-0.208c-0.682-0.517-1.129-1.328-1.129-2.249V21.1c0-1.564,1.268-2.832,2.832-2.832H62.2  c0.015-0.079,0.034-0.158,0.049-0.237c0.319,0.125,0.626,0.275,0.94,0.409c0.122,0.043,0.238,0.094,0.351,0.153  c11.829,5.215,20.111,16.997,20.111,30.755C83.651,67.932,68.584,82.998,50,82.998z"></path></svg>