<?xml version="1.0" encoding="utf-8"?>
<!-- Generator: Adobe Illustrator 22.1.0, SVG Export Plug-In . SVG Version: 6.00 Build 0)  -->
<svg version="1.1" id="private-eye" xmlns="http://www.w3.org/2000/svg" xmlns:xlink="http://www.w3.org/1999/xlink" x="0px"
	 y="0px" viewBox="0 0 24 24" style="enable-background:new 0 0 24 24;" xml:space="preserve">
<title>icon-private-eye</title>
<path d="M18.5,6.9l3.2-3.2c0.4-0.4,0.4-1,0-1.4s-1-0.4-1.4,0l-3.3,3.3c-1.4-1-3-1.6-4.9-1.6C5.3,4,2,12,2,12s1.2,2.8,3.5,5.1
	l-3.2,3.2c-0.4,0.4-0.4,1,0,1.4C2.5,21.9,2.7,22,3,22s0.5-0.1,0.7-0.3l3.3-3.3c1.4,1,3,1.6,4.9,1.6c6.7,0,10-8,10-8
	S20.8,9.2,18.5,6.9z M4.2,12c0.9-1.8,3.6-6,7.8-6c1.3,0,2.5,0.4,3.5,1.1L14,8.6C13.4,8.2,12.7,8,12,8c-2.2,0-4,1.8-4,4
	c0,0.7,0.2,1.4,0.6,2l-1.7,1.7C5.6,14.4,4.7,12.9,4.2,12z M12,18c-1.3,0-2.5-0.4-3.5-1.1l1.5-1.5c0.6,0.4,1.3,0.6,2,0.6
	c2.2,0,4-1.8,4-4c0-0.7-0.2-1.4-0.6-2l1.7-1.7c1.3,1.3,2.2,2.8,2.7,3.7C18.8,13.8,16.2,18,12,18z"/>
</svg>
