<?xml version="1.0" encoding="utf-8"?>
<!-- Generator: Adobe Illustrator 25.2.0, SVG Export Plug-In . SVG Version: 6.00 Build 0)  -->
<svg version="1.1" id="Layer_1" xmlns="http://www.w3.org/2000/svg" xmlns:xlink="http://www.w3.org/1999/xlink" x="0px" y="0px"
	 viewBox="0 0 152.4 32" style="enable-background:new 0 0 152.4 32;" xml:space="preserve">
<style type="text/css">
	.st0{fill:#FFFFFF;}
</style>
<path class="st0" d="M12.4,7.1C10.8,6,8.9,5.4,6.9,5.5H0v17.8h2.5v-5.4h4.4c1.9,0.1,3.9-0.5,5.4-1.6c1.3-1.1,2.1-2.8,2-4.5
	C14.4,9.9,13.7,8.3,12.4,7.1z M10.5,14.6c-1.1,0.8-2.4,1.1-3.7,1H2.5v-8h4.3c1.3-0.1,2.6,0.3,3.7,1c0.9,0.7,1.3,1.8,1.3,3
	C11.9,12.8,11.4,13.9,10.5,14.6z M26.1,10.5c-1-0.6-2.2-0.9-3.4-0.9c-1.2,0-2.4,0.3-3.5,0.9c-1,0.6-1.8,1.4-2.4,2.4
	c-0.6,1.1-0.9,2.3-0.9,3.5c0,1.2,0.3,2.5,0.9,3.6c0.6,1,1.5,1.9,2.6,2.4c1.2,0.6,2.5,0.9,3.8,0.9c1,0,2.1-0.2,3-0.6
	c0.9-0.4,1.7-0.9,2.3-1.6l-1.3-1.6c-1,1.1-2.4,1.7-3.9,1.6c-1.2,0-2.4-0.3-3.3-1.1c-0.9-0.7-1.4-1.7-1.6-2.9h10.9c0-0.2,0-0.5,0-0.7
	c0-1.3-0.3-2.5-0.8-3.6C27.9,12,27.1,11.1,26.1,10.5L26.1,10.5z M18.4,15.6c0.1-1.1,0.6-2.1,1.4-2.8c0.8-0.7,1.9-1.1,2.9-1.1
	c1.1,0,2.1,0.4,2.9,1.1c0.8,0.7,1.3,1.7,1.4,2.8H18.4z M39,9.7c-1,0-2,0.2-2.9,0.6c-0.8,0.3-1.5,0.9-2,1.6v-2h-2.3v13.4h2.4v-6.9
	c-0.1-1.2,0.3-2.4,1.1-3.3c0.8-0.8,2-1.2,3.1-1.2c1-0.1,2,0.3,2.7,1c0.7,0.8,1,1.9,0.9,2.9v7.5h2.4v-7.7c0.1-1.6-0.4-3.2-1.5-4.3
	C42,10.1,40.5,9.6,39,9.7z M54.6,9.7c-1,0-2,0.2-2.9,0.6c-0.8,0.3-1.5,0.9-2,1.6v-2h-2.3v13.4h2.4v-6.9c-0.1-1.2,0.3-2.4,1.1-3.3
	c0.8-0.8,2-1.2,3.1-1.2c1-0.1,2,0.3,2.7,1c0.7,0.8,1,1.9,0.9,2.9v7.5h2.4v-7.7c0.1-1.6-0.4-3.2-1.5-4.3C57.6,10.1,56.1,9.6,54.6,9.7
	L54.6,9.7z M71.3,16.2c-0.9-0.3-1.7-0.5-2.6-0.6c-0.8-0.2-1.4-0.3-1.9-0.4c-0.4-0.1-0.8-0.3-1.1-0.6c-0.3-0.3-0.5-0.6-0.5-1
	c0-0.6,0.3-1.1,0.8-1.3c0.7-0.4,1.5-0.6,2.4-0.5c1.4,0,2.7,0.3,3.9,1.1l1-1.9c-0.7-0.4-1.4-0.7-2.2-0.9c-0.9-0.2-1.8-0.3-2.7-0.3
	c-1.4-0.1-2.9,0.3-4.1,1.1c-1,0.7-1.5,1.8-1.5,2.9c-0.1,0.8,0.2,1.6,0.7,2.2c0.5,0.5,1.1,0.9,1.8,1.1c0.9,0.3,1.8,0.5,2.7,0.6
	c0.8,0.1,1.4,0.3,1.8,0.4c0.4,0.1,0.8,0.3,1.1,0.5c0.3,0.2,0.4,0.6,0.4,1c0,1.2-1.1,1.8-3.2,1.8c-0.9,0-1.7-0.1-2.6-0.4
	c-0.8-0.2-1.5-0.6-2.2-1l-1,1.9c0.7,0.5,1.5,0.9,2.4,1.1c1,0.3,2.1,0.4,3.2,0.4c1.5,0.1,3-0.3,4.2-1.1c1-0.6,1.6-1.7,1.6-2.9
	c0-0.8-0.2-1.5-0.7-2.1C72.6,16.8,72,16.4,71.3,16.2z M76.6,23.2H79V9.8h-2.4L76.6,23.2z M77.8,4c-0.4,0-0.9,0.2-1.2,0.5
	c-0.3,0.3-0.5,0.7-0.5,1.1c0,0.4,0.2,0.8,0.5,1.1c0.3,0.3,0.7,0.5,1.2,0.5c0.4,0,0.9-0.2,1.2-0.5c0.3-0.3,0.5-0.7,0.5-1.2
	c0-0.4-0.2-0.8-0.5-1.1C78.7,4.2,78.3,4,77.8,4L77.8,4z M92,10.5c-1-0.6-2.2-0.9-3.4-0.9c-1.2,0-2.4,0.3-3.5,0.9
	c-1,0.6-1.8,1.4-2.4,2.4c-0.6,1.1-0.9,2.3-0.9,3.5c0,1.2,0.3,2.5,0.9,3.6c0.6,1,1.5,1.9,2.5,2.4c2.1,1,4.6,1.2,6.8,0.3
	c0.9-0.4,1.7-0.9,2.3-1.6L93,19.6c-1,1.1-2.4,1.7-3.9,1.6c-1.2,0-2.4-0.3-3.3-1.1c-0.9-0.7-1.4-1.7-1.6-2.9h10.9
	c0-0.2,0-0.5,0.1-0.7c0-1.3-0.3-2.5-0.8-3.6C93.8,12,93,11.1,92,10.5L92,10.5z M84.2,15.6c0.1-1.1,0.6-2.1,1.4-2.8
	c1.7-1.4,4.2-1.4,5.9,0c0.8,0.7,1.3,1.7,1.4,2.8H84.2z M103.2,20.6L98.6,9.8H96l5.9,13.4h2.5l5.9-13.4h-2.4L103.2,20.6z M124.5,16.6
	c0-1.3-0.3-2.5-0.8-3.6c-0.5-1-1.4-1.9-2.4-2.4c-1-0.6-2.2-0.9-3.4-0.9c-1.2,0-2.4,0.3-3.5,0.9c-1,0.6-1.8,1.4-2.4,2.4
	c-0.6,1.1-0.9,2.3-0.9,3.5c0,1.2,0.3,2.5,0.9,3.6c0.6,1,1.5,1.9,2.5,2.4c2.1,1,4.6,1.2,6.8,0.3c0.9-0.4,1.7-0.9,2.3-1.6l-1.3-1.6
	c-1,1.1-2.4,1.7-3.9,1.6c-1.2,0-2.4-0.3-3.3-1.1c-0.9-0.7-1.4-1.7-1.6-2.9h10.9C124.4,17.1,124.5,16.8,124.5,16.6z M113.5,15.6
	c0.1-1.1,0.6-2.1,1.4-2.8c1.7-1.4,4.2-1.4,5.9,0c0.8,0.7,1.3,1.7,1.4,2.8L113.5,15.6z"/>
<path class="st0" d="M140.4,0h-16l0.1,0.1c10,7.4,16,19,16.2,31.5L152.4,16L140.4,0z M124.4,32h14.3c0-5.1-1.1-10.2-3.1-14.9
	L124.4,32z"/>
</svg>
