<svg id="Ebene_1" data-name="Ebene 1" xmlns="http://www.w3.org/2000/svg" viewBox="0 0 600 110"><defs><style>.cls-1{fill:#3f3f3d;}.cls-2{fill:#777776;}</style></defs><title>DataCite-Logo</title><path class="cls-1" d="M172.08,95.17a1.32,1.32,0,0,1-.41-1V14.57a1.35,1.35,0,0,1,.41-1,1.37,1.37,0,0,1,1-.41h29.44A36.07,36.07,0,0,1,218,16.28a24.11,24.11,0,0,1,10.31,8.77A23.6,23.6,0,0,1,232,38.12v32.5a23.58,23.58,0,0,1-3.65,13.07A24,24,0,0,1,218,92.46a36.07,36.07,0,0,1-15.48,3.12H173.08A1.34,1.34,0,0,1,172.08,95.17Zm16.78-13.83h14.25a11.37,11.37,0,0,0,8.77-3.65c2.24-2.44,3.39-5.69,3.47-9.78V40.83q0-6.12-3.35-9.77a11.66,11.66,0,0,0-9-3.65H188.86a.52.52,0,0,0-.59.59V80.75A.52.52,0,0,0,188.86,81.34Z"/><path class="cls-1" d="M280.82,36.77A22.41,22.41,0,0,1,290.18,44a16.94,16.94,0,0,1,3.36,10.24V94.17a1.4,1.4,0,0,1-1.41,1.41H278.35a1.34,1.34,0,0,1-1-.41,1.32,1.32,0,0,1-.41-1V90.29a.48.48,0,0,0-.24-.48c-.16-.07-.31,0-.47.24q-5,6.48-15.9,6.48-9.18,0-14.83-4.48t-5.65-13.19q0-9.06,6.35-14.07t18.14-5h12a.52.52,0,0,0,.59-.59V56.61a7.84,7.84,0,0,0-2.36-6.06c-1.57-1.46-3.92-2.18-7.06-2.18a12.78,12.78,0,0,0-6.07,1.29,6.06,6.06,0,0,0-3.12,3.65,1.34,1.34,0,0,1-1.53,1.18l-14.25-1.88c-.94-.16-1.37-.51-1.29-1.06a15.68,15.68,0,0,1,3.94-8.95,23,23,0,0,1,9.19-6.24,34.74,34.74,0,0,1,12.77-2.24A33.43,33.43,0,0,1,280.82,36.77ZM273.4,81.45a8.36,8.36,0,0,0,3.54-6.94V70.27a.52.52,0,0,0-.59-.59h-8.48q-5.3,0-8.3,2a6.42,6.42,0,0,0-3,5.65,6.12,6.12,0,0,0,2.23,5,9.19,9.19,0,0,0,6,1.82A13.67,13.67,0,0,0,273.4,81.45Z"/><path class="cls-1" d="M335.87,48a1.36,1.36,0,0,1-1,.42h-11.3A.52.52,0,0,0,323,49v25q0,3.89,1.59,5.77c1.06,1.25,2.76,1.88,5.12,1.88h3.88A1.4,1.4,0,0,1,335,83V94.17a1.45,1.45,0,0,1-1.42,1.53c-3.29.16-5.65.24-7.06.24q-9.78,0-14.6-3.24t-5-12.19V49a.52.52,0,0,0-.59-.59h-6.71A1.42,1.42,0,0,1,298.25,47V36.47a1.4,1.4,0,0,1,1.41-1.41h6.71a.52.52,0,0,0,.59-.59v-14a1.42,1.42,0,0,1,1.42-1.41h13.18A1.4,1.4,0,0,1,323,20.46v14a.52.52,0,0,0,.59.59h11.3a1.4,1.4,0,0,1,1.41,1.41V47A1.36,1.36,0,0,1,335.87,48Z"/><path class="cls-1" d="M384.09,36.77A22.54,22.54,0,0,1,393.45,44a16.94,16.94,0,0,1,3.36,10.24V94.17a1.42,1.42,0,0,1-1.42,1.41H381.62a1.4,1.4,0,0,1-1.42-1.41V90.29a.5.5,0,0,0-.23-.48c-.16-.07-.32,0-.47.24q-5,6.48-15.9,6.48-9.18,0-14.84-4.48t-5.65-13.19q0-9.06,6.36-14.07t18.13-5h12a.52.52,0,0,0,.59-.59V56.61a7.84,7.84,0,0,0-2.35-6.06c-1.57-1.46-3.93-2.18-7.07-2.18a12.77,12.77,0,0,0-6.06,1.29,6.06,6.06,0,0,0-3.12,3.65,1.35,1.35,0,0,1-1.53,1.18l-14.25-1.88c-.94-.16-1.38-.51-1.3-1.06a15.69,15.69,0,0,1,4-8.95,23,23,0,0,1,9.18-6.24,34.83,34.83,0,0,1,12.78-2.24A33.49,33.49,0,0,1,384.09,36.77Zm-7.42,44.68a8.38,8.38,0,0,0,3.53-6.94V70.27a.52.52,0,0,0-.59-.59h-8.47c-3.54,0-6.3.67-8.31,2a6.42,6.42,0,0,0-3,5.65,6.13,6.13,0,0,0,2.24,5,9.18,9.18,0,0,0,6,1.82A13.7,13.7,0,0,0,376.67,81.45Z"/><path class="cls-2" d="M424,93.41a23.58,23.58,0,0,1-9.71-9.19,26.65,26.65,0,0,1-3.47-13.72V38.12a26.12,26.12,0,0,1,3.47-13.54A23.74,23.74,0,0,1,424,15.46a31,31,0,0,1,14.49-3.24A31.48,31.48,0,0,1,453,15.4a23.57,23.57,0,0,1,9.72,9,25.31,25.31,0,0,1,3.47,13.3,1.27,1.27,0,0,1-.35.94A1.13,1.13,0,0,1,465,39l-6,.35c-.79,0-1.18-.35-1.18-1.06v-.35q0-8.37-5.3-13.37t-14-5q-8.72,0-14,5.06t-5.3,13.31v33q0,8.24,5.3,13.3t14,5.07q8.72,0,14-5t5.3-13.36v-.24c0-.71.39-1.06,1.18-1.06l6,.35c.79,0,1.18.36,1.18,1.06a25.9,25.9,0,0,1-3.47,13.49,23.42,23.42,0,0,1-9.72,9,31.48,31.48,0,0,1-14.48,3.18A31,31,0,0,1,424,93.41Z"/><path class="cls-2" d="M478.29,23.29a6.39,6.39,0,0,1-1.89-4.71,6.33,6.33,0,0,1,1.89-4.77,7,7,0,0,1,9.42,0,6.36,6.36,0,0,1,1.88,4.77,6.66,6.66,0,0,1-11.3,4.71Zm.23,71V37.06a1,1,0,0,1,1.18-1.17h6a1,1,0,0,1,1.18,1.17V94.29a1,1,0,0,1-1.18,1.18h-6A1,1,0,0,1,478.52,94.29Z"/><path class="cls-2" d="M529.39,43H516.08a.42.42,0,0,0-.47.47V78.16c0,3.77.85,6.41,2.54,8s4.33,2.29,7.94,2.29H529a1,1,0,0,1,1.17,1.18v4.83A1,1,0,0,1,529,95.58c-.94.08-2.4.12-4.36.12q-8.48,0-12.83-3.18t-4.36-11.77V43.42A.42.42,0,0,0,507,43h-7.18a1,1,0,0,1-1.18-1.18V37.18A1,1,0,0,1,499.84,36H507a.41.41,0,0,0,.47-.47V21.87a1,1,0,0,1,1.18-1.17h5.77a1,1,0,0,1,1.17,1.17V35.53a.41.41,0,0,0,.47.47h13.31a1,1,0,0,1,1.18,1.18v4.59A1,1,0,0,1,529.39,43Z"/><path class="cls-2" d="M585.2,64V67.8A1,1,0,0,1,584,69H546a.42.42,0,0,0-.47.47,51.91,51.91,0,0,0,.71,8.36,14.06,14.06,0,0,0,5.53,8.36,18,18,0,0,0,10.84,3.07A16.76,16.76,0,0,0,571.31,87a15.43,15.43,0,0,0,5.89-6.36c.47-.71,1-.86,1.64-.47l4.6,2.71a1.18,1.18,0,0,1,.47,1.65,21.31,21.31,0,0,1-8.83,8.89,27.64,27.64,0,0,1-13.54,3.23,24.75,24.75,0,0,1-14-4,21.51,21.51,0,0,1-8.12-10.83q-2.11-5.66-2.12-16.25,0-5,.17-8.07a25.86,25.86,0,0,1,.89-5.59,21.81,21.81,0,0,1,8.06-12.25,23.6,23.6,0,0,1,14.66-4.59q10.73,0,16.49,5.42t7.18,15.3A60.66,60.66,0,0,1,585.2,64ZM551.47,45.36a14,14,0,0,0-5,8.07,38.48,38.48,0,0,0-.94,8,.42.42,0,0,0,.47.47h30.5a.42.42,0,0,0,.47-.47,52.28,52.28,0,0,0-.71-7.54A14.87,14.87,0,0,0,571,45.48a15.53,15.53,0,0,0-10-3.12A15.07,15.07,0,0,0,551.47,45.36Z"/><path class="cls-1" d="M14.8,76.92c.89.17,1.7.33,2.76.49,45.41,9,113-2.92,121.68-24.94C146.07,34.68,108,22.09,63.45,23.64a14.25,14.25,0,0,0-2.6.16c23.72,2.35,45.09,11.78,36.56,26.48C88.07,66.36,48.51,77.09,14.8,76.92"/><path class="cls-2" d="M114.22,79.17c-7.88,47.76-49.14,19.25-58.89-14C41.2,30.67,53.79-13.68,89.12,12.31,59.88-1.09,56.79,37.74,69.3,65.36c10.4,23.07,33,37.93,43.87,14.13.48-.16.89-.16,1-.32"/></svg>