<?xml version="1.0" encoding="utf-8"?>
<!-- Generator: Adobe Illustrator 16.0.0, SVG Export Plug-In . SVG Version: 6.00 Build 0)  -->
<!DOCTYPE svg PUBLIC "-//W3C//DTD SVG 1.1//EN" "http://www.w3.org/Graphics/SVG/1.1/DTD/svg11.dtd">
<svg version="1.1" id="Layer_1" xmlns="http://www.w3.org/2000/svg" xmlns:xlink="http://www.w3.org/1999/xlink" x="0px" y="0px"
	 width="542px" height="165.332px" viewBox="0 0 542 165.332" enable-background="new 0 0 542 165.332" xml:space="preserve">
<g>
	<rect x="297.864" y="12.22" fill="#A7A9AC" width="3.938" height="141.55"/>
	<g>
		<g>
			<path fill="#808285" d="M31.215,108.364c-2.366-1.252-4.51-1.836-6.764-1.836c-4.731,0-8.294,3.59-8.294,8.404
				c0,4.898,3.534,8.35,8.489,8.35c2.143,0,4.174-0.584,6.763-1.947v1.529c-2.198,1.17-4.536,1.781-6.735,1.781
				c-5.789,0-10.104-4.146-10.104-9.713c0-5.816,4.76-9.77,9.965-9.77c2.115,0,4.369,0.529,6.68,1.588V108.364z"/>
			<path fill="#808285" d="M39.589,124.646c-3.646,0-6.373-2.783-6.373-6.484c0-3.729,2.728-6.512,6.373-6.512
				c3.646,0,6.346,2.783,6.346,6.512C45.935,121.862,43.235,124.646,39.589,124.646z M39.589,112.956
				c-2.839,0-4.954,2.199-4.954,5.205c0,2.979,2.115,5.178,4.954,5.178c2.812,0,4.927-2.199,4.927-5.178
				S42.4,112.956,39.589,112.956z"/>
			<path fill="#808285" d="M50.091,114.069h0.056c1.169-1.752,2.31-2.42,4.119-2.42c2.672,0,4.647,1.752,4.647,5.121v7.625h-1.336
				v-7.125c0-2.811-1.196-4.314-3.395-4.314c-1.81,0-2.979,0.863-4.092,2.672v8.768h-1.336v-12.496h1.336V114.069z"/>
			<path fill="#808285" d="M63.685,114.069h0.057c1.168-1.752,2.31-2.42,4.119-2.42c2.672,0,4.647,1.752,4.647,5.121v7.625h-1.336
				v-7.125c0-2.811-1.196-4.314-3.396-4.314c-1.81,0-2.979,0.863-4.092,2.672v8.768h-1.336v-12.496h1.336V114.069z"/>
			<path fill="#808285" d="M76.675,117.688c-0.389,3.201,2.144,5.65,4.982,5.65c1.67,0,3.033-0.557,4.648-1.865v1.502
				c-1.476,1.143-3.006,1.67-4.815,1.67c-3.618,0-6.234-2.783-6.234-6.65c0-3.674,2.421-6.346,5.733-6.346
				c2.672,0,5.539,1.863,5.539,6.039H76.675z M84.941,116.603c-0.474-2.449-1.81-3.646-3.952-3.646c-2.06,0-3.674,1.365-4.147,3.646
				H84.941z"/>
			<path fill="#808285" d="M98.009,113.735c-1.447-0.611-2.198-0.779-3.256-0.779c-2.783,0-4.703,2.115-4.703,5.232
				c0,3.146,1.864,5.15,4.814,5.15c1.141,0,1.977-0.168,3.367-0.725v1.393c-1.419,0.473-2.31,0.639-3.479,0.639
				c-3.674,0-6.123-2.531-6.123-6.316c0-3.926,2.505-6.68,6.067-6.68c1.085,0,1.921,0.166,3.312,0.611V113.735z"/>
			<path fill="#808285" d="M104.044,111.899h3.508v1.086h-3.508v7.43c0,2.145,0.028,2.924,1.865,2.924
				c0.752,0,1.169-0.111,2.282-0.613v1.281c-0.251,0.139-0.668,0.277-1.142,0.416c-0.473,0.111-1.002,0.223-1.447,0.223
				c-1.391,0-2.895-0.779-2.895-2.672v-8.988h-3.367v-1.086h3.367v-2.979l0.919-1.168h0.417V111.899z"/>
			<path fill="#808285" d="M111.575,107.696h-1.336v-2.281h1.336V107.696z M111.575,124.396h-1.336v-12.496h1.336V124.396z"/>
			<path fill="#808285" d="M116.419,114.069h0.056c1.169-1.752,2.31-2.42,4.119-2.42c2.672,0,4.647,1.752,4.647,5.121v7.625h-1.336
				v-7.125c0-2.811-1.196-4.314-3.395-4.314c-1.81,0-2.979,0.863-4.092,2.672v8.768h-1.336v-12.496h1.336V114.069z"/>
			<path fill="#808285" d="M138.313,112.985h-2.839c1.197,1.113,1.726,2.059,1.726,3.311c0,5.596-7.097,3.758-7.097,6.18
				c0,2.727,8.182-0.613,8.182,4.676c0,2.281-2.087,3.646-5.594,3.646c-3.841,0-5.482-1.559-5.482-3.34
				c0-1.588,1.308-2.672,3.646-3.035v-0.055c-1.336-0.307-2.032-0.918-2.032-1.781c0-1.113,1.03-1.586,2.506-2.031v-0.057
				c-2.506-0.723-3.34-2.645-3.34-4.146c0-2.088,1.308-4.453,5.315-4.453h5.01V112.985z M133.024,125.063
				c-1.559,0-4.537,0.223-4.537,2.311c0,1.475,1.531,2.311,4.287,2.311c2.561,0,4.23-0.947,4.23-2.422
				C137.005,125.509,135.278,125.063,133.024,125.063z M132.552,113.013c-1.865,0-3.285,1.447-3.285,3.256
				c0,1.865,1.42,3.396,3.313,3.396c1.837,0,3.34-1.504,3.34-3.34C135.919,114.487,134.416,113.013,132.552,113.013z"/>
			<path fill="#808285" d="M153.396,105.415c4.647,0,6.289,2.365,6.289,4.898c0,2.197-1.197,3.729-3.617,4.619
				c0.891,0.473,1.642,1.559,2.532,2.895l4.286,6.568h-1.726l-3.312-5.205c-2.283-3.59-3.007-3.896-5.289-3.896h-2.561v9.102h-1.475
				v-18.98H153.396z M149.999,114.069h3.146c3.34,0,4.954-1.447,4.954-3.729c0-2.143-1.531-3.701-5.01-3.701h-3.09V114.069z"/>
			<path fill="#808285" d="M164.612,117.688c-0.39,3.201,2.143,5.65,4.982,5.65c1.67,0,3.033-0.557,4.647-1.865v1.502
				c-1.476,1.143-3.006,1.67-4.815,1.67c-3.617,0-6.234-2.783-6.234-6.65c0-3.674,2.422-6.346,5.734-6.346
				c2.672,0,5.538,1.863,5.538,6.039H164.612z M172.878,116.603c-0.473-2.449-1.809-3.646-3.951-3.646
				c-2.061,0-3.674,1.365-4.147,3.646H172.878z"/>
			<path fill="#808285" d="M183.897,114.153c-1.391-0.918-2.31-1.279-3.423-1.279c-1.503,0-2.672,0.918-2.672,2.115
				c0,3.006,6.485,1.863,6.485,6.205c0,1.949-1.781,3.451-4.092,3.451c-1.28,0-2.477-0.361-3.758-1.141v-1.309
				c1.643,0.836,2.729,1.143,3.924,1.143c1.531,0,2.645-0.891,2.645-2.172c0-2.979-6.484-2.088-6.484-6.096
				c0-1.92,1.781-3.422,4.035-3.422c1.086,0,2.088,0.334,3.34,1.057V114.153z"/>
			<path fill="#808285" d="M187.57,117.688c-0.39,3.201,2.144,5.65,4.981,5.65c1.67,0,3.034-0.557,4.648-1.865v1.502
				c-1.475,1.143-3.006,1.67-4.814,1.67c-3.619,0-6.234-2.783-6.234-6.65c0-3.674,2.421-6.346,5.732-6.346
				c2.672,0,5.539,1.863,5.539,6.039H187.57z M195.837,116.603c-0.475-2.449-1.81-3.646-3.953-3.646
				c-2.059,0-3.674,1.365-4.146,3.646H195.837z"/>
			<path fill="#808285" d="M210.046,123.339l-0.223,0.166c-1.253,0.947-1.781,1.141-2.311,1.141c-0.612,0-0.779-0.305-0.891-1.559
				c-1.392,1.086-2.588,1.559-3.924,1.559c-1.893,0-3.368-1.418-3.368-3.172c0-3.256,3.646-4.398,7.292-4.564v-1.586
				c0-1.67-0.918-2.561-2.783-2.561c-1.336,0-2.338,0.473-3.813,1.586v-1.363c1.53-0.947,2.672-1.336,4.035-1.336
				c1.559,0,3.896,0.639,3.896,3.256v7.793c0,0.5,0.084,0.641,0.307,0.641c0.306,0,1.113-0.586,1.781-1.113V123.339z
				 M206.622,118.022c-3.256-0.139-5.956,1.279-5.956,3.451c0,1.168,1.058,2.059,2.478,2.059c1.196,0,2.17-0.445,3.479-1.613
				V118.022z"/>
			<path fill="#808285" d="M219.888,114.376c-1.196-1.086-1.809-1.42-2.505-1.42c-1.224,0-2.644,1.281-4.007,3.592v7.848h-1.336
				v-12.496h1.336v3.283h0.055c1.476-2.338,2.979-3.533,4.37-3.533c0.862,0,1.642,0.389,2.866,1.475L219.888,114.376z"/>
			<path fill="#808285" d="M230.376,113.735c-1.447-0.611-2.198-0.779-3.256-0.779c-2.783,0-4.703,2.115-4.703,5.232
				c0,3.146,1.864,5.15,4.814,5.15c1.141,0,1.977-0.168,3.367-0.725v1.393c-1.419,0.473-2.31,0.639-3.479,0.639
				c-3.674,0-6.123-2.531-6.123-6.316c0-3.926,2.505-6.68,6.067-6.68c1.085,0,1.921,0.166,3.312,0.611V113.735z"/>
			<path fill="#808285" d="M234.241,114.069h0.055c1.17-1.752,2.311-2.42,4.119-2.42c2.672,0,4.648,1.752,4.648,5.092v7.654h-1.336
				v-7.125c0-2.699-1.002-4.314-3.396-4.314c-1.837,0-2.95,0.891-4.091,2.672v8.768h-1.336v-18.98h1.336V114.069z"/>
			<path fill="#808285" d="M24.924,152.714l-0.223,0.166c-1.252,0.947-1.781,1.141-2.31,1.141c-0.612,0-0.78-0.305-0.891-1.559
				c-1.392,1.086-2.589,1.559-3.925,1.559c-1.893,0-3.367-1.418-3.367-3.172c0-3.256,3.646-4.398,7.292-4.564v-1.586
				c0-1.67-0.919-2.561-2.783-2.561c-1.336,0-2.338,0.473-3.813,1.586v-1.363c1.531-0.947,2.672-1.336,4.036-1.336
				c1.559,0,3.896,0.639,3.896,3.256v7.793c0,0.5,0.083,0.641,0.306,0.641c0.307,0,1.113-0.586,1.781-1.113V152.714z
				 M21.501,147.397c-3.257-0.139-5.956,1.279-5.956,3.451c0,1.168,1.058,2.059,2.477,2.059c1.197,0,2.172-0.445,3.479-1.613
				V147.397z"/>
			<path fill="#808285" d="M28.24,143.444h0.056c1.169-1.752,2.31-2.42,4.119-2.42c2.672,0,4.647,1.752,4.647,5.121v7.625h-1.336
				v-7.125c0-2.811-1.197-4.314-3.395-4.314c-1.81,0-2.979,0.863-4.092,2.672v8.768h-1.336v-12.496h1.336V143.444z"/>
			<path fill="#808285" d="M51.177,153.771h-1.336v-0.975c-1.336,0.92-2.281,1.225-3.701,1.225c-3.563,0-6.318-2.838-6.318-6.512
				c0-3.73,2.672-6.484,6.318-6.484c1.28,0,2.171,0.25,3.701,1.002v-7.236h1.336V153.771z M49.841,143.501
				c-1.363-0.863-2.338-1.17-3.646-1.17c-2.895,0-4.954,2.115-4.954,5.094c0,3.033,2.227,5.289,5.232,5.289
				c1.252,0,2.088-0.279,3.367-1.143V143.501z"/>
			<path fill="#808285" d="M67.679,134.79c4.648,0,6.291,2.365,6.291,4.898c0,2.197-1.197,3.729-3.619,4.619
				c0.891,0.473,1.643,1.559,2.533,2.895l4.286,6.568h-1.726l-3.313-5.205c-2.281-3.59-3.006-3.896-5.287-3.896h-2.561v9.102h-1.476
				v-18.98H67.679z M64.284,143.444h3.145c3.34,0,4.954-1.447,4.954-3.729c0-2.143-1.53-3.701-5.01-3.701h-3.089V143.444z"/>
			<path fill="#808285" d="M78.896,147.063c-0.39,3.201,2.144,5.65,4.981,5.65c1.67,0,3.034-0.557,4.648-1.865v1.502
				c-1.475,1.143-3.006,1.67-4.814,1.67c-3.619,0-6.234-2.783-6.234-6.65c0-3.674,2.421-6.346,5.732-6.346
				c2.672,0,5.539,1.863,5.539,6.039H78.896z M87.163,145.978c-0.474-2.449-1.81-3.646-3.953-3.646
				c-2.059,0-3.674,1.365-4.146,3.646H87.163z"/>
			<path fill="#808285" d="M98.183,143.528c-1.393-0.918-2.311-1.279-3.424-1.279c-1.503,0-2.672,0.918-2.672,2.115
				c0,3.006,6.484,1.863,6.484,6.205c0,1.949-1.781,3.451-4.091,3.451c-1.28,0-2.478-0.361-3.757-1.141v-1.309
				c1.642,0.836,2.727,1.143,3.924,1.143c1.531,0,2.645-0.891,2.645-2.172c0-2.979-6.485-2.088-6.485-6.096
				c0-1.92,1.781-3.422,4.035-3.422c1.086,0,2.088,0.334,3.341,1.057V143.528z"/>
			<path fill="#808285" d="M101.854,147.063c-0.39,3.201,2.143,5.65,4.982,5.65c1.67,0,3.033-0.557,4.647-1.865v1.502
				c-1.476,1.143-3.006,1.67-4.815,1.67c-3.617,0-6.234-2.783-6.234-6.65c0-3.674,2.422-6.346,5.734-6.346
				c2.672,0,5.538,1.863,5.538,6.039H101.854z M110.12,145.978c-0.473-2.449-1.809-3.646-3.951-3.646
				c-2.061,0-3.674,1.365-4.147,3.646H110.12z"/>
			<path fill="#808285" d="M124.329,152.714l-0.223,0.166c-1.252,0.947-1.781,1.141-2.31,1.141c-0.612,0-0.779-0.305-0.891-1.559
				c-1.392,1.086-2.589,1.559-3.925,1.559c-1.893,0-3.367-1.418-3.367-3.172c0-3.256,3.646-4.398,7.292-4.564v-1.586
				c0-1.67-0.919-2.561-2.783-2.561c-1.336,0-2.338,0.473-3.813,1.586v-1.363c1.531-0.947,2.672-1.336,4.036-1.336
				c1.558,0,3.896,0.639,3.896,3.256v7.793c0,0.5,0.083,0.641,0.306,0.641c0.307,0,1.113-0.586,1.781-1.113V152.714z
				 M120.906,147.397c-3.257-0.139-5.956,1.279-5.956,3.451c0,1.168,1.058,2.059,2.477,2.059c1.197,0,2.172-0.445,3.479-1.613
				V147.397z"/>
			<path fill="#808285" d="M134.172,143.751c-1.196-1.086-1.81-1.42-2.505-1.42c-1.225,0-2.645,1.281-4.008,3.592v7.848h-1.336
				v-12.496h1.336v3.283h0.056c1.476-2.338,2.978-3.533,4.37-3.533c0.862,0,1.642,0.389,2.866,1.475L134.172,143.751z"/>
			<path fill="#808285" d="M144.661,143.11c-1.447-0.611-2.199-0.779-3.258-0.779c-2.782,0-4.703,2.115-4.703,5.232
				c0,3.146,1.865,5.15,4.815,5.15c1.142,0,1.976-0.168,3.367-0.725v1.393c-1.419,0.473-2.31,0.639-3.479,0.639
				c-3.673,0-6.122-2.531-6.122-6.316c0-3.926,2.505-6.68,6.067-6.68c1.086,0,1.92,0.166,3.313,0.611V143.11z"/>
			<path fill="#808285" d="M148.524,143.444h0.057c1.168-1.752,2.31-2.42,4.119-2.42c2.672,0,4.647,1.752,4.647,5.092v7.654h-1.336
				v-7.125c0-2.699-1.002-4.314-3.396-4.314c-1.837,0-2.95,0.891-4.092,2.672v8.768h-1.336v-18.98h1.336V143.444z"/>
			<path fill="#808285" d="M161.515,147.063c-0.389,3.201,2.144,5.65,4.982,5.65c1.67,0,3.033-0.557,4.648-1.865v1.502
				c-1.476,1.143-3.006,1.67-4.815,1.67c-3.618,0-6.234-2.783-6.234-6.65c0-3.674,2.421-6.346,5.733-6.346
				c2.672,0,5.539,1.863,5.539,6.039H161.515z M169.781,145.978c-0.474-2.449-1.81-3.646-3.952-3.646
				c-2.06,0-3.674,1.365-4.146,3.646H169.781z"/>
			<path fill="#808285" d="M181.973,143.751c-1.196-1.086-1.81-1.42-2.505-1.42c-1.225,0-2.645,1.281-4.008,3.592v7.848h-1.336
				v-12.496h1.336v3.283h0.056c1.476-2.338,2.978-3.533,4.37-3.533c0.862,0,1.642,0.389,2.866,1.475L181.973,143.751z"/>
			<path fill="#808285" d="M191.056,143.528c-1.392-0.918-2.311-1.279-3.424-1.279c-1.502,0-2.672,0.918-2.672,2.115
				c0,3.006,6.485,1.863,6.485,6.205c0,1.949-1.781,3.451-4.091,3.451c-1.281,0-2.478-0.361-3.758-1.141v-1.309
				c1.643,0.836,2.728,1.143,3.924,1.143c1.531,0,2.645-0.891,2.645-2.172c0-2.979-6.484-2.088-6.484-6.096
				c0-1.92,1.781-3.422,4.035-3.422c1.086,0,2.088,0.334,3.34,1.057V143.528z"/>
		</g>
		<g>
			<path fill="#A7A9AC" d="M46.263,23.811c19.611,0,31.989,13.947,31.989,30.508c0,16.038-12.028,30.507-32.163,30.507
				c-19.438,0-31.727-14.383-31.727-30.507C14.362,37.845,27,23.811,46.263,23.811z M46.263,76.979
				c13.337,0,23.186-9.675,23.186-22.661c0-13.074-9.849-22.663-23.186-22.663c-13.248,0-23.098,9.589-23.098,22.663
				C23.165,67.305,33.015,76.979,46.263,76.979z"/>
			<path fill="#A7A9AC" d="M102.878,24.597c12.027,0,19.523,6.361,19.523,16.647c0,6.886-3.573,12.028-9.937,14.555
				c5.404,3.574,8.717,9.065,13.249,16.476c2.527,4.096,4.01,6.102,8.105,11.766h-10.197l-7.845-12.203
				c-7.845-12.201-11.418-13.597-15.776-13.597h-3.574v25.8h-8.541V24.597H102.878z M96.427,50.569h5.491
				c9.153,0,11.767-4.706,11.681-9.674c-0.088-5.578-3.4-8.978-11.681-8.978h-5.491V50.569z"/>
			<path fill="#A7A9AC" d="M186.545,37.845c-7.322-4.271-13.598-6.189-20.483-6.189c-13.598,0-23.708,9.676-23.708,22.751
				c0,13.335,9.762,22.573,24.057,22.573c6.711,0,14.033-2.352,20.744-6.711v9.326c-5.84,3.051-12.202,5.23-21.528,5.23
				c-22.314,0-32.076-17.171-32.076-29.636c0-18.131,13.685-31.379,32.599-31.379c6.102,0,12.29,1.483,20.396,4.882V37.845z"/>
			<path fill="#A6CE39" d="M219.511,24.597h23.098c21.965,0,31.641,15.688,31.641,29.722c0,15.253-11.941,29.722-31.553,29.722
				h-23.186V24.597z M228.053,76.37h13.598c19.35,0,23.795-14.73,23.795-22.052c0-11.942-7.583-22.052-24.231-22.052h-13.161V76.37z
				"/>
			<g>
				<path fill="#A6CE39" d="M207.604,84.04h-8.543V24.597h8.543v33.09V84.04z"/>
				<path fill="#A6CE39" d="M208.933,12.221c0,3.08-2.521,5.6-5.601,5.6s-5.6-2.52-5.6-5.6s2.52-5.601,5.6-5.601
					S208.933,9.141,208.933,12.221z"/>
			</g>
		</g>
	</g>
	<g>
		<path fill="#A7A9AC" d="M348.036,47.54h3.652v27.285h-3.926v-21.23l-8.389,10.547h-0.723l-8.486-10.547v21.23h-3.906V47.54h3.699
			l9.066,11.206L348.036,47.54z"/>
		<path fill="#A7A9AC" d="M372.392,66.153h-12.637c0.092,1.719,0.668,3.086,1.729,4.102c1.063,1.016,2.432,1.523,4.111,1.523
			c2.344,0,4.506-0.729,6.484-2.188v3.477c-1.094,0.729-2.178,1.25-3.252,1.563s-2.334,0.469-3.779,0.469
			c-1.979,0-3.58-0.41-4.805-1.23c-1.223-0.82-2.203-1.924-2.939-3.311c-0.734-1.387-1.104-2.991-1.104-4.814
			c0-2.734,0.775-4.958,2.324-6.67c1.551-1.712,3.563-2.568,6.035-2.568c2.383,0,4.285,0.833,5.703,2.5
			c1.42,1.667,2.129,3.9,2.129,6.699V66.153z M359.833,64.024h9.043c-0.09-1.419-0.514-2.513-1.27-3.281
			c-0.754-0.768-1.77-1.152-3.047-1.152c-1.275,0-2.32,0.384-3.135,1.152C360.612,61.512,360.081,62.605,359.833,64.024z"/>
		<path fill="#A7A9AC" d="M390.966,61.778v13.047h-3.574v-10c0-1.992-0.266-3.382-0.801-4.17c-0.533-0.788-1.465-1.182-2.793-1.182
			c-0.742,0-1.422,0.169-2.041,0.508c-0.617,0.339-1.324,0.938-2.119,1.797v13.047h-3.555V56.856h3.555v2.363
			c1.811-1.81,3.582-2.715,5.313-2.715c2.279,0,4.043,1.081,5.293,3.242c1.902-2.188,3.887-3.281,5.957-3.281
			c1.746,0,3.182,0.638,4.307,1.914c1.127,1.276,1.689,3.223,1.689,5.84v10.605h-3.555V64.181c0-1.497-0.305-2.643-0.918-3.438
			c-0.611-0.794-1.49-1.191-2.637-1.191C393.616,59.552,392.243,60.294,390.966,61.778z"/>
		<path fill="#A7A9AC" d="M406.923,47.54h3.555v10.605c1.537-1.12,3.178-1.68,4.922-1.68c2.279,0,4.141,0.859,5.586,2.578
			s2.168,3.926,2.168,6.621c0,2.891-0.861,5.191-2.588,6.904c-1.725,1.713-4.033,2.568-6.924,2.568
			c-1.158,0-2.379-0.125-3.662-0.371c-1.281-0.248-2.301-0.561-3.057-0.938V47.54z M410.478,61.544v9.727
			c1.211,0.365,2.455,0.547,3.73,0.547c1.576,0,2.861-0.561,3.857-1.68s1.494-2.559,1.494-4.316c0-1.784-0.465-3.235-1.396-4.355
			c-0.93-1.12-2.145-1.68-3.643-1.68C413.192,59.786,411.845,60.372,410.478,61.544z"/>
		<path fill="#A7A9AC" d="M442.392,66.153h-12.637c0.092,1.719,0.668,3.086,1.729,4.102c1.063,1.016,2.432,1.523,4.111,1.523
			c2.344,0,4.506-0.729,6.484-2.188v3.477c-1.094,0.729-2.178,1.25-3.252,1.563s-2.334,0.469-3.779,0.469
			c-1.979,0-3.58-0.41-4.805-1.23c-1.223-0.82-2.203-1.924-2.939-3.311c-0.734-1.387-1.104-2.991-1.104-4.814
			c0-2.734,0.775-4.958,2.324-6.67c1.551-1.712,3.563-2.568,6.035-2.568c2.383,0,4.285,0.833,5.703,2.5
			c1.42,1.667,2.129,3.9,2.129,6.699V66.153z M429.833,64.024h9.043c-0.09-1.419-0.514-2.513-1.27-3.281
			c-0.754-0.768-1.77-1.152-3.047-1.152c-1.275,0-2.32,0.384-3.135,1.152C430.612,61.512,430.081,62.605,429.833,64.024z"/>
		<path fill="#A7A9AC" d="M450.048,56.856v4.121l0.195-0.313c1.719-2.773,3.438-4.16,5.156-4.16c1.342,0,2.742,0.677,4.199,2.031
			l-1.875,3.125c-1.236-1.172-2.383-1.758-3.438-1.758c-1.145,0-2.139,0.547-2.979,1.641s-1.26,2.39-1.26,3.887v9.395h-3.574V56.856
			H450.048z"/>
		<path fill="#A7A9AC" d="M339.726,95.149c4.217,0,7.727,1.334,10.531,4.004c2.803,2.67,4.205,6.016,4.205,10.039
			s-1.414,7.354-4.244,9.99s-6.398,3.955-10.707,3.955c-4.111,0-7.537-1.318-10.275-3.955c-2.74-2.637-4.109-5.941-4.109-9.912
			c0-4.076,1.379-7.447,4.139-10.117C332.022,96.483,335.511,95.149,339.726,95.149z M339.882,98.86
			c-3.121,0-5.688,0.977-7.697,2.93s-3.016,4.447-3.016,7.48c0,2.943,1.008,5.391,3.025,7.344c2.016,1.953,4.539,2.93,7.57,2.93
			c3.045,0,5.584-0.996,7.621-2.988c2.035-1.992,3.053-4.473,3.053-7.441c0-2.891-1.018-5.322-3.053-7.295
			C345.349,99.847,342.849,98.86,339.882,98.86z"/>
		<path fill="#A7A9AC" d="M362.587,104.856v4.121l0.195-0.313c1.719-2.773,3.438-4.16,5.156-4.16c1.342,0,2.742,0.678,4.199,2.031
			l-1.875,3.125c-1.236-1.172-2.383-1.758-3.438-1.758c-1.145,0-2.139,0.547-2.979,1.641s-1.26,2.389-1.26,3.887v9.395h-3.574
			v-17.969H362.587z"/>
		<path fill="#A7A9AC" d="M373.7,111.067c0-1.914,0.701-3.428,2.1-4.541c1.4-1.113,3.311-1.67,5.732-1.67h7.402v2.773h-3.633
			c0.703,0.717,1.191,1.367,1.465,1.953s0.41,1.256,0.41,2.012c0,0.938-0.266,1.859-0.801,2.764
			c-0.533,0.904-1.221,1.598-2.061,2.08s-2.217,0.865-4.131,1.152c-1.34,0.195-2.012,0.658-2.012,1.387
			c0,0.416,0.252,0.758,0.752,1.025c0.502,0.268,1.41,0.543,2.725,0.83c2.201,0.482,3.617,0.859,4.248,1.133
			c0.633,0.273,1.201,0.664,1.709,1.172c0.859,0.859,1.289,1.939,1.289,3.242c0,1.705-0.758,3.066-2.275,4.082
			c-1.516,1.016-3.545,1.523-6.084,1.523c-2.564,0-4.611-0.512-6.143-1.533c-1.529-1.023-2.295-2.393-2.295-4.111
			c0-2.436,1.504-4.004,4.512-4.707c-1.197-0.768-1.797-1.529-1.797-2.285c0-0.572,0.258-1.094,0.771-1.563
			c0.516-0.469,1.209-0.814,2.08-1.035C375.022,115.579,373.7,113.685,373.7,111.067z M379.54,123.665
			c-1.197,0-2.178,0.254-2.939,0.762s-1.143,1.158-1.143,1.953c0,1.848,1.668,2.773,5,2.773c1.576,0,2.797-0.232,3.662-0.693
			c0.867-0.463,1.299-1.117,1.299-1.963c0-0.834-0.547-1.514-1.641-2.041S381.272,123.665,379.54,123.665z M380.38,107.942
			c-0.963,0-1.783,0.326-2.461,0.977c-0.676,0.65-1.016,1.432-1.016,2.344c0,0.924,0.332,1.689,0.996,2.295s1.504,0.908,2.52,0.908
			c1.004,0,1.84-0.309,2.51-0.928c0.672-0.619,1.006-1.391,1.006-2.314c0-0.938-0.338-1.719-1.016-2.344
			C382.243,108.255,381.396,107.942,380.38,107.942z"/>
		<path fill="#A7A9AC" d="M402.978,112.024v7.637c0,0.611,0.209,0.918,0.625,0.918c0.43,0,1.102-0.318,2.012-0.957v2.168
			c-0.807,0.521-1.455,0.875-1.943,1.064c-0.488,0.188-0.998,0.283-1.533,0.283c-1.523,0-2.422-0.6-2.695-1.797
			c-1.51,1.172-3.117,1.758-4.824,1.758c-1.25,0-2.291-0.414-3.125-1.24c-0.832-0.826-1.25-1.865-1.25-3.115
			c0-1.133,0.408-2.145,1.221-3.037c0.814-0.893,1.971-1.598,3.467-2.119l4.551-1.563v-0.957c0-2.162-1.08-3.242-3.242-3.242
			c-1.939,0-3.828,1.002-5.664,3.008v-3.887c1.381-1.627,3.367-2.441,5.957-2.441c1.941,0,3.496,0.508,4.668,1.523
			c0.391,0.326,0.742,0.758,1.055,1.299s0.512,1.08,0.596,1.621C402.937,109.489,402.978,110.515,402.978,112.024z M399.481,119.271
			v-5.332l-2.383,0.918c-1.211,0.482-2.066,0.967-2.568,1.455c-0.5,0.488-0.752,1.098-0.752,1.826c0,0.742,0.238,1.348,0.713,1.816
			c0.477,0.469,1.092,0.703,1.846,0.703C397.47,120.657,398.519,120.194,399.481,119.271z"/>
		<path fill="#A7A9AC" d="M412.313,104.856v2.285c1.59-1.758,3.393-2.637,5.41-2.637c1.121,0,2.162,0.289,3.125,0.869
			c0.965,0.58,1.697,1.373,2.197,2.383c0.502,1.01,0.752,2.607,0.752,4.795v10.273h-3.555v-10.234c0-1.836-0.279-3.148-0.84-3.936
			c-0.559-0.787-1.496-1.182-2.813-1.182c-1.68,0-3.105,0.84-4.277,2.52v12.832h-3.633v-17.969H412.313z"/>
		<path fill="#A7A9AC" d="M430.595,97.298c0.586,0,1.088,0.201,1.504,0.605c0.418,0.404,0.625,0.898,0.625,1.484
			c0,0.572-0.207,1.068-0.625,1.484c-0.416,0.416-0.918,0.625-1.504,0.625c-0.547,0-1.027-0.211-1.445-0.635
			c-0.416-0.424-0.625-0.914-0.625-1.475c0-0.547,0.209-1.031,0.625-1.455C429.567,97.509,430.048,97.298,430.595,97.298z
			 M428.837,104.856h3.555v17.969h-3.555V104.856z"/>
		<path fill="#A7A9AC" d="M435.849,104.856H451.2l-9.516,14.648h9.516v3.32h-15.742l9.445-14.648h-9.055V104.856z"/>
		<path fill="#A7A9AC" d="M465.497,112.024v7.637c0,0.611,0.209,0.918,0.625,0.918c0.43,0,1.102-0.318,2.012-0.957v2.168
			c-0.807,0.521-1.455,0.875-1.943,1.064c-0.488,0.188-0.998,0.283-1.533,0.283c-1.523,0-2.422-0.6-2.695-1.797
			c-1.51,1.172-3.117,1.758-4.824,1.758c-1.25,0-2.291-0.414-3.125-1.24c-0.832-0.826-1.25-1.865-1.25-3.115
			c0-1.133,0.408-2.145,1.221-3.037c0.814-0.893,1.971-1.598,3.467-2.119l4.551-1.563v-0.957c0-2.162-1.08-3.242-3.242-3.242
			c-1.939,0-3.828,1.002-5.664,3.008v-3.887c1.381-1.627,3.367-2.441,5.957-2.441c1.941,0,3.496,0.508,4.668,1.523
			c0.391,0.326,0.742,0.758,1.055,1.299s0.512,1.08,0.596,1.621C465.456,109.489,465.497,110.515,465.497,112.024z M462.001,119.271
			v-5.332l-2.383,0.918c-1.211,0.482-2.066,0.967-2.568,1.455c-0.5,0.488-0.752,1.098-0.752,1.826c0,0.742,0.238,1.348,0.713,1.816
			c0.477,0.469,1.092,0.703,1.846,0.703C459.989,120.657,461.038,120.194,462.001,119.271z"/>
		<path fill="#A7A9AC" d="M468.759,107.708l6.68-6.563v3.711h5.684v3.203h-5.684v8.795c0,2.053,0.854,3.08,2.559,3.08
			c1.277,0,2.625-0.424,4.043-1.27v3.32c-1.367,0.768-2.857,1.152-4.473,1.152c-1.627,0-2.98-0.475-4.063-1.426
			c-0.338-0.287-0.617-0.609-0.84-0.967c-0.221-0.357-0.406-0.826-0.557-1.406c-0.148-0.58-0.225-1.684-0.225-3.311v-7.969h-3.125
			V107.708z"/>
		<path fill="#A7A9AC" d="M486.435,97.298c0.586,0,1.088,0.201,1.504,0.605c0.418,0.404,0.625,0.898,0.625,1.484
			c0,0.572-0.207,1.068-0.625,1.484c-0.416,0.416-0.918,0.625-1.504,0.625c-0.547,0-1.027-0.211-1.445-0.635
			c-0.416-0.424-0.625-0.914-0.625-1.475c0-0.547,0.209-1.031,0.625-1.455C485.407,97.509,485.888,97.298,486.435,97.298z
			 M484.677,104.856h3.555v17.969h-3.555V104.856z"/>
		<path fill="#A7A9AC" d="M501.962,104.817c2.734,0,5.008,0.883,6.816,2.646c1.811,1.764,2.715,3.98,2.715,6.65
			c0,2.592-0.918,4.742-2.754,6.455s-4.146,2.568-6.934,2.568c-2.695,0-4.947-0.869-6.758-2.607
			c-1.809-1.738-2.715-3.91-2.715-6.514c0-2.631,0.916-4.82,2.744-6.572C496.907,105.692,499.202,104.817,501.962,104.817z
			 M501.767,108.021c-1.705,0-3.105,0.561-4.199,1.68s-1.641,2.545-1.641,4.277c0,1.719,0.561,3.121,1.68,4.209
			c1.121,1.088,2.559,1.631,4.316,1.631c1.746,0,3.174-0.551,4.287-1.65s1.67-2.51,1.67-4.229c0-1.705-0.578-3.119-1.738-4.238
			C504.983,108.581,503.524,108.021,501.767,108.021z"/>
		<path fill="#A7A9AC" d="M518.993,104.856v2.285c1.59-1.758,3.393-2.637,5.41-2.637c1.121,0,2.162,0.289,3.125,0.869
			c0.965,0.58,1.697,1.373,2.197,2.383c0.502,1.01,0.752,2.607,0.752,4.795v10.273h-3.555v-10.234c0-1.836-0.279-3.148-0.84-3.936
			c-0.559-0.787-1.496-1.182-2.813-1.182c-1.68,0-3.105,0.84-4.277,2.52v12.832h-3.633v-17.969H518.993z"/>
	</g>
</g>
</svg>
