<svg enable-background="new 0 0 213 60" viewBox="0 0 213 60" xmlns="http://www.w3.org/2000/svg"><g fill="#011f5b"><path d="m53.9 1h10.1c3.3 0 5.9.7 7.8 2.2s2.9 3.3 2.9 5.6-.8 4.1-2.5 5.3-4.1 1.9-7.2 1.9c-1.2 0-2.6-.1-4.2-.3v7.8c0 1.7.2 2.8.7 3.5.4.6 1.3.9 2.5.9v.8h-10v-.9c1.2 0 2-.3 2.5-1 .4-.7.7-1.8.7-3.3v-17.3c0-1.7-.2-2.8-.7-3.4-.4-.6-1.3-1-2.5-1v-.8zm10.2 1h-3.4v12.4c.9.3 2.1.5 3.4.5 2.1 0 3.7-.5 4.9-1.6s1.8-2.5 1.8-4.4c0-2-.6-3.6-1.8-4.9-1.1-1.3-2.8-2-4.9-2z"/><path d="m92.1 24.2v1.2c-1 1.3-2.1 2.3-3.2 2.8-1.1.6-2.4.8-3.9.8-2.7 0-4.9-.8-6.6-2.5s-2.6-3.8-2.6-6.4.8-4.8 2.5-6.6 3.7-2.7 6.1-2.7c2 0 3.7.7 5.2 2s2.2 2.9 2.2 4.8v.4h-12.6v.2c0 1.9.3 3.5.9 4.9s1.4 2.5 2.5 3.3 2.2 1.2 3.4 1.2c1.1 0 2.1-.2 2.9-.7.8-.3 1.9-1.2 3.2-2.7zm-12.9-6.8h9.3v-.3c0-1.5-.4-2.7-1.3-3.6s-2-1.3-3.3-1.3c-1.4 0-2.5.5-3.3 1.4-.8.8-1.3 2.1-1.4 3.8z"/><path d="m99.5 11v3.8c1.6-1.4 2.8-2.3 3.7-2.9.9-.5 1.6-.8 2.2-.8 1.1 0 2.1.4 3.1 1.3l-1.3 3c-1.8-1-3.2-1.5-4.1-1.5-1 0-2.2.7-3.6 2.1v9.4c0 .9.2 1.6.6 1.9s1.1.5 2.3.5v.8h-9v-.8c1.2 0 2-.2 2.3-.6.4-.4.6-1.3.6-2.7v-9.3c0-1.2-.2-1.9-.6-2.3-.4-.3-1.4-.5-2.9-.5v-.8l6-.5z"/><path d="m126.7 24.2v1.2c-1 1.3-2.1 2.3-3.2 2.8-1.1.6-2.4.8-3.9.8-2.7 0-4.9-.8-6.6-2.5s-2.6-3.8-2.6-6.4.8-4.8 2.5-6.6 3.7-2.7 6.1-2.7c2 0 3.7.7 5.2 2s2.2 2.9 2.2 4.8v.4h-12.6v.2c0 1.9.3 3.5.9 4.9s1.4 2.5 2.5 3.3 2.2 1.2 3.4 1.2c1.1 0 2.1-.2 2.9-.7.8-.3 1.9-1.2 3.2-2.7zm-12.9-6.8h9.3v-.3c0-1.5-.4-2.7-1.3-3.6s-2-1.3-3.3-1.3c-1.4 0-2.5.5-3.3 1.4-.8.8-1.3 2.1-1.4 3.8z"/><path d="m137.5 27.8h.5v.8h-9.6v-.8h.9c.9 0 1.5-.2 1.8-.7s.5-1.3.5-2.5v-19.7c0-.9-.2-1.5-.5-1.8s-.9-.5-1.8-.5h-1.1v-.9l5.9-.6h.8v24.3c0 .9.2 1.6.6 1.9.3.4 1 .5 2 .5z"/><path d="m146 11v3.6h.1c.7-1.1 1.6-1.9 2.7-2.6 1.1-.6 2.2-1 3.4-1s2.3.3 3.3 1 1.7 1.6 2.1 2.8c1.8-2.6 3.9-3.8 6.3-3.8 1.7 0 3.1.5 4.2 1.5s1.7 2.4 1.7 4.2v8.6c0 .9.2 1.6.6 1.9s1.2.5 2.2.5v.8h-9.1v-.7c1.2 0 2-.2 2.4-.6.3-.4.5-1.3.5-2.7v-8.1c0-1.1-.3-2-1-2.6s-1.6-.9-2.7-.9c-1.8 0-3.4 1.1-4.8 3.3v9.2c0 1 .2 1.6.6 1.9s1.2.5 2.2.5v.8h-9v-.8c1.3 0 2.1-.2 2.4-.6s.5-1.3.5-2.7v-7.9c0-1.1-.3-2-1-2.7s-1.5-1-2.6-1c-.9 0-1.8.3-2.7.9s-1.6 1.4-2.2 2.4v9.3c0 .9.2 1.5.6 1.8s1.2.5 2.3.5v.8h-9.1v-.8c1.3 0 2.1-.2 2.4-.6s.5-1.1.5-2.2v-10.1c0-.9-.2-1.5-.6-1.9s-1-.6-1.8-.6h-1.1v-.8l5.9-.5h.8z"/><path d="m179.8 29.2c-1.3 0-2.5-.4-3.4-1.3-1-.9-1.4-2-1.4-3.2s.4-2.2 1.2-3 2.5-1.5 5-2.2c1.6-.4 2.7-.8 3.2-1.1v-1.3c0-1.2-.3-2.2-1-3s-1.6-1.1-2.8-1.1c-1.1 0-2 .3-2.8 1s-1.4 1.6-1.7 2.7l-.9-.2c.3-1.6 1.1-2.9 2.3-3.8 1.2-1 2.5-1.4 4.1-1.4 1.8 0 3.3.6 4.5 1.7 1.1 1.1 1.7 2.6 1.7 4.6v7.3c0 1 .1 1.7.2 2.1s.4.6.8.6c.3 0 .5-.1.6-.3s.3-.7.5-1.3h.8c-.1 1.1-.4 1.9-1 2.5s-1.4.9-2.3.9c-1.4 0-2.4-.8-2.9-2.4-.8.9-1.6 1.6-2.3 1.9-.7.1-1.5.3-2.4.3zm4.6-4v-5.8c-.5.2-1.2.5-2.1.8-1.7.6-2.8 1.2-3.3 1.7-.5.6-.7 1.3-.7 2.3 0 .8.3 1.6.8 2.2s1.1.9 1.8.9c.6 0 1.3-.2 2-.6s1.2-.9 1.5-1.5z"/><path d="m198.1 11v3.4c2-2.3 4.1-3.4 6.2-3.4 1.7 0 3 .6 4.1 1.7s1.7 2.6 1.7 4.5v7.7c0 1.2.2 2 .6 2.3.4.4 1.2.6 2.3.6v.8h-9.1v-.8c1.1 0 1.9-.1 2.3-.4s.6-.9.6-1.7v-9c0-1.2-.4-2.1-1.1-2.9s-1.6-1.1-2.7-1.1c-1.6 0-3.2 1.1-4.9 3.3v8.4c0 1.4.2 2.3.5 2.7.4.4 1.1.6 2.3.6v.8h-9v-.7c1.3 0 2.1-.2 2.4-.6s.4-1.3.4-2.7v-9.7c0-1-.2-1.7-.5-2-.4-.3-1.1-.5-2.3-.5v-.8l5.3-.5z"/><path d="m56 51.5c0 1.6.4 2.8 2.1 2.8 1.6 0 2.4-1 2.4-2.9v-3.2c0-.2 0-.4-.1-.6-.1-.4-.4-.6-1-.6v-.3h2.7v.3c-.5.1-.9.2-1 .6 0 .2-.1.4-.1.6v3.2c0 2.5-1.6 3.4-3 3.4-2.4 0-3.2-1.2-3.2-3.3v-3.4c0-1.1 0-1-1-1.1v-.3h3.1v.3c-1 .1-1 .1-1 1.1z"/><path d="m68.6 54.7c-1.4-1.7-2.8-3.4-4.3-5.1v3.9c0 .2 0 .3.1.5 0 .3.3.4.9.5v.2h-2.2v-.2c.4 0 .7-.2.8-.5 0-.1.1-.3.1-.5v-4.1c-.2-.3-.5-.6-1-.6v-.2h1.6c1.3 1.6 2.7 3.2 4 4.8v-3.6c0-.2 0-.3-.1-.5 0-.3-.3-.4-.9-.5v-.2h2.1v.2c-.4 0-.7.2-.8.5 0 .1-.1.3-.1.5v5z"/><path d="m73 53.6c0 .8 0 .8.8.9v.2h-2.4v-.2c.8-.1.8-.1.8-.9v-4c0-.8 0-.8-.8-.9v-.2h2.3v.3c-.8.1-.8.1-.8.9v3.9z"/><path d="m77.5 48.8c-.5 0-.8.1-.5 1 .3 1 .9 2.6 1.3 3.9.6-1.3 1.1-2.7 1.6-4 .2-.6 0-.8-.6-.8v-.2h1.9v.1c-.3 0-.5.1-.7.5-.7 1.8-1.5 3.6-2.2 5.4h-.5c-.5-1.5-1.1-3.2-1.7-4.7-.3-.9-.6-1.2-1-1.2v-.2h2.4z"/><path d="m82.6 54.5c.8-.1.8-.1.8-.9v-4c0-.8 0-.8-.8-.9v-.2h3.9v1.4h-.2c-.1-.7-.3-1.1-.9-1.1h-1.2v2.5h.7c.6 0 .8-.2.8-.8h.2v1.9h-.2c0-.5-.2-.8-.8-.8h-.7v2c0 .7.3.8 1.1.8 1.3 0 1.2-.4 1.6-1.3h.2l-.3 1.6h-4.3v-.2z"/><path d="m88.7 48.6h2.6c.9 0 1.8.5 1.8 1.5 0 .9-.6 1.5-1.2 1.8l.9 1.3c.4.6.9 1.3 1.2 1.4v.1h-.9c-.5 0-.8-1-1.9-2.7h-.8v1.6c0 .8 0 .8.8.9v.2h-2.5v-.2c.8-.1.8-.1.8-.9v-4c0-.8 0-.8-.8-1zm1.6 3.1h.7c.8 0 1.1-.6 1.1-1.6s-.5-1.3-1.2-1.3h-.7z"/><path d="m98.4 49.9c-.1-.6-.4-1.1-1.1-1.1-.5 0-1 .3-1 .9s.6 1 1.5 1.6c.9.7 1.2 1.1 1.2 1.9 0 1-1.1 1.6-2.1 1.6-.6 0-1-.1-1.5-.3l-.1-.1v-1.3h.2c.1 1 .7 1.4 1.4 1.4.6 0 1.1-.5 1.1-1.1s-.3-1-1.6-1.9c-.5-.3-1.1-.7-1.1-1.6 0-.8.9-1.4 1.9-1.4.4 0 .9 0 1.2.2.1 0 .1.1.1.1v1.2h-.1z"/><path d="m102.5 53.6c0 .8 0 .8.8.9v.2h-2.4v-.2c.8-.1.8-.1.8-.9v-4c0-.8 0-.8-.8-.9v-.2h2.4v.3c-.8.1-.8.1-.8.9z"/><path d="m107.7 53.6c0 .8 0 .8.8.9v.2h-2.4v-.2c.8-.1.8-.1.8-.9v-4.8h-.8c-.8 0-.9.5-1.2 1.1h-.2l.2-1.3h4.9l.2 1.3h-.3c-.3-.6-.5-1.1-1.2-1.1h-.8z"/><path d="m112.5 54.5c.8-.1.8-.1.8-.9v-1.4l-1.4-2.7c-.3-.6-.5-.8-.9-.8v-.2h2.2v.3c-.7 0-.6.3-.4.8l1.1 2.2 1.2-2.2c.3-.5 0-.8-.5-.8v-.2h1.8v.2c-.2 0-.5.1-.7.5l-1.5 2.7c-.1.2-.1.4-.1.6v1c0 .8 0 .8.8.9v.2h-2.4z"/><path d="m120.9 52.6c0-1.5 1.3-3.7 3.2-3.7 1.5 0 1.8 1 1.8 2.1 0 1.3-1 3.9-3.2 3.9-1.4 0-1.8-1.2-1.8-2.3zm4-2.2c0-1.2-.7-1.2-.9-1.2-1.2 0-2 2.2-2 3.7 0 .6.1 1.7.9 1.7 1.3-.1 2-2.2 2-4.2z"/><path d="m131.3 49.3-.3.2h-1.5c-.6 2.7-1.5 6.3-2.1 8.1h-.5l1.6-8.1h-1.1l.1-.5h1.1c.6-2.4 2.6-2.7 3.1-2.7.3 0 .8 0 1 .2l-.1.8-.3.1c-.2-.3-.5-.7-1-.7-.7 0-1.2.5-1.5 1.7l-.1.5h1.7z"/><path d="m138.1 53.3c0 1.1 0 1 1 1.1v.3h-3.1v-.3c1-.1 1-.1 1-1.1v-5.1c0-1.1 0-1-1-1.1v-.3h3c1.9 0 2.8.8 2.8 2.1 0 1.6-1.5 2.5-3.2 2.4v-.2c1.4 0 2.1-.8 2.1-2.1s-.6-1.9-1.9-1.9h-.7z"/><path d="m143.4 54.5c.8-.1.8-.1.8-.9v-4c0-.8 0-.8-.8-.9v-.2h3.9v1.4h-.2c-.1-.7-.3-1.1-.9-1.1h-1.2v2.5h.7c.6 0 .8-.2.8-.8h.2v1.9h-.2c0-.5-.2-.8-.8-.8h-.7v2c0 .7.3.8 1.1.8 1.3 0 1.2-.4 1.6-1.3h.2l-.3 1.6h-4.3z"/><path d="m154.9 54.7c-1.4-1.7-2.9-3.4-4.3-5.1v3.9c0 .2 0 .3.1.5 0 .3.3.4.9.5v.2h-2.2v-.2c.4 0 .7-.2.8-.5 0-.1.1-.3.1-.5v-4.1c-.2-.3-.5-.6-1-.6v-.2h1.6c1.3 1.6 2.7 3.2 4 4.8v-3.6c0-.2 0-.3-.1-.5 0-.3-.3-.4-.9-.5v-.2h2.2v.2c-.4 0-.7.2-.8.5 0 .1-.1.3-.1.5v5z"/><path d="m162.9 54.7c-1.4-1.7-2.9-3.4-4.3-5.1v3.9c0 .2 0 .3.1.5 0 .3.3.4.9.5v.2h-2.2v-.2c.4 0 .7-.2.8-.5 0-.1.1-.3.1-.5v-4.1c-.2-.3-.5-.6-1-.6v-.2h1.6c1.3 1.6 2.7 3.2 4 4.8v-3.6c0-.2 0-.3 0-.5 0-.3-.3-.4-.9-.5v-.2h2.2v.2c-.4 0-.7.2-.8.5 0 .1-.1.3-.1.5v5z"/><path d="m168.6 49.9c-.1-.6-.4-1.1-1.1-1.1-.5 0-1 .3-1 .9s.6 1 1.5 1.6c.9.7 1.2 1.1 1.2 1.9 0 1-1.1 1.6-2.1 1.6-.6 0-1-.1-1.5-.3l-.1-.1v-1.3h.2c.1 1 .7 1.4 1.4 1.4.6 0 1.1-.5 1.1-1.1s-.3-1-1.6-1.9c-.5-.3-1.1-.7-1.1-1.6 0-.8.9-1.4 1.9-1.4.4 0 .9 0 1.2.2.1 0 .1.1.1.1v1.2h-.1z"/><path d="m172.2 54.5c.8-.1.8-.1.8-.9v-1.4l-1.4-2.7c-.3-.6-.5-.8-.9-.8v-.2h2.2v.3c-.7 0-.6.3-.4.8l1.1 2.2 1.2-2.2c.3-.5 0-.8-.5-.8v-.2h1.8v.2c-.2 0-.5.1-.7.5l-1.5 2.7c-.1.2-.1.4-.1.6v1c0 .8 0 .8.8.9v.2h-2.4z"/><path d="m177.6 54.5c.8-.1.8-.1.8-.9v-4c0-.8 0-.8-.8-.9v-.2h2.4v.3c-.8.1-.8.1-.8.9v4.1c0 .6.3.7 1.1.7 1.3 0 1.2-.4 1.6-1.3h.2l-.3 1.6h-4.3v-.3z"/><path d="m184.8 48.8c-.5 0-.8.1-.5 1 .3 1 .9 2.6 1.3 3.9.6-1.3 1.1-2.7 1.6-4 .2-.6 0-.8-.6-.8v-.2h1.9v.1c-.3 0-.5.1-.7.5-.7 1.8-1.5 3.6-2.2 5.4h-.4c-.5-1.5-1.1-3.2-1.7-4.7-.3-.9-.6-1.2-1-1.2v-.2h2.4v.2z"/><path d="m190.1 52.7-.4 1.2c-.1.3.1.6.4.6v.2h-1.6v-.2c.2 0 .5-.1.6-.4.4-.8 1.4-3.7 2.1-5.6h.5c.6 1.8 1.5 4.5 1.8 5.3.2.5.3.8.7.8v.2h-2v-.2c.6 0 .6-.3.5-.7l-.4-1.1zm2.1-.3-.9-2.9-1 2.9z"/><path d="m200.9 54.7c-1.4-1.7-2.9-3.4-4.3-5.1v3.9c0 .2 0 .3.1.5 0 .3.3.4.9.5v.2h-2.2v-.2c.4 0 .7-.2.8-.5 0-.1.1-.3.1-.5v-4.1c-.2-.3-.5-.6-1-.6v-.2h1.6c1.3 1.6 2.7 3.2 4 4.8v-3.6c0-.2 0-.3-.1-.5 0-.3-.3-.4-.9-.5v-.2h2.2v.2c-.4 0-.7.2-.8.5 0 .1-.1.3-.1.5v5z"/><path d="m205.1 53.6c0 .8 0 .8.8.9v.2h-2.4v-.2c.8-.1.8-.1.8-.9v-4c0-.8 0-.8-.8-.9v-.2h2.4v.3c-.8.1-.8.1-.8.9z"/><path d="m208.7 52.7-.4 1.2c-.1.3.1.6.4.6v.2h-1.6v-.2c.2 0 .5-.1.6-.4.4-.8 1.4-3.7 2.1-5.6h.5c.6 1.8 1.5 4.5 1.8 5.3.2.5.3.8.7.8v.2h-2v-.2c.6 0 .6-.3.5-.7l-.4-1.1zm2.2-.3-.9-2.9-1 2.9z"/><path d="m53.9 42.8h159.1v.7h-159.1z"/><path d="m57.8 33.2c-.1-.8-.5-1.4-1.4-1.4-.7 0-1.3.3-1.3 1.2 0 .8.8 1.3 1.9 2.1 1.2.9 1.6 1.5 1.6 2.4 0 1.4-1.4 2.1-2.8 2.1-.7 0-1.4-.1-1.9-.4 0 0-.1-.1-.1-.2v-1.6h.3c.1 1.3 1 1.8 1.8 1.8s1.5-.6 1.5-1.4c0-.7-.4-1.3-2.1-2.5-.6-.4-1.4-.9-1.4-2.1 0-1 1.1-1.8 2.4-1.8.5 0 1.1.1 1.6.2.1 0 .1.1.1.1v1.5z"/><path d="m69.1 37.5-.4 1.4c0 .3-.2.3-.5.4-.4.1-1.2.3-2.2.3-2.3 0-4.4-1.1-4.4-4.2 0-1.8 1.5-4.1 4.6-4.1 1.1 0 1.6.2 2.2.4.3.1.4.3.4.4v1.5h-.3c0-.9-.6-1.9-2.4-1.9-2.1 0-3.2 1.5-3.2 3.6 0 2.3 1 3.9 3.4 3.9 1.5 0 2.2-.9 2.6-1.8z"/><path d="m73.8 38.1c0 1.1 0 1 1 1.1v.3h-3.1v-.3c1-.1 1-.1 1-1.1v-5.1c0-1.1 0-1-1-1.1v-.3h3.1v.2c-1 .1-1 .1-1 1.1v2h4v-2c0-1.1 0-1-1-1.1v-.3h3.1v.3c-1 .1-1 .1-1 1.1v5.1c0 1.1 0 1 1 1.1v.3h-3.1v-.3c1-.1 1-.1 1-1.1v-2.7h-4z"/><path d="m82.7 35.7c0-2.5 1.9-4.3 4.3-4.3 2.5 0 3.9 2.1 3.9 3.9 0 2.4-1.8 4.4-4.3 4.4-2.2-.1-3.9-1.8-3.9-4zm6.9-.1c0-2.7-1.5-3.8-2.9-3.8-1.9 0-2.7 1.7-2.7 3.3 0 2.8 1.4 4.2 2.9 4.2 2.1-.1 2.7-2.2 2.7-3.7z"/><path d="m93.8 35.7c0-2.5 1.9-4.3 4.3-4.3 2.5 0 3.9 2.1 3.9 3.9 0 2.4-1.8 4.4-4.3 4.4-2.2-.1-3.9-1.8-3.9-4zm6.9-.1c0-2.7-1.5-3.8-2.9-3.8-1.9 0-2.7 1.7-2.7 3.3 0 2.8 1.4 4.2 2.9 4.2 2.1-.1 2.7-2.2 2.7-3.7z"/><path d="m104.8 39.2c1-.1 1-.1 1-1.1v-5.1c0-1.1 0-1-1-1.1v-.3h3.1v.2c-1 .1-1 .1-1 1.1v5.3c0 .8.4.9 1.5.9 1.7 0 1.6-.5 2.1-1.7h.3l-.3 2.1h-5.6z"/><path d="m118.4 35.7c0-2.5 1.9-4.3 4.3-4.3 2.5 0 3.9 2.1 3.9 3.9 0 2.4-1.8 4.4-4.3 4.4-2.2-.1-3.9-1.8-3.9-4zm6.9-.1c0-2.7-1.5-3.8-2.9-3.8-1.9 0-2.7 1.7-2.7 3.3 0 2.8 1.4 4.2 2.9 4.2 2.1-.1 2.7-2.2 2.7-3.7z"/><path d="m131.5 35.4h1.1c.7 0 1-.3 1-1h.3v2.4h-.3c0-.7-.3-1.1-1-1.1h-1.1v2.3c0 1.1 0 1 1 1.1v.3h-3.1v-.3c1-.1 1-.1 1-1.1v-5.1c0-1.1 0-1-1-1.1v-.3h5.1v1.8h-.3c-.1-.8-.3-1.5-1.2-1.5h-1.5z"/><path d="m143.8 33.3v4.6c0 .2 0 .4.1.6.1.4.4.6 1 .6v.3h-2.6v-.3c.5-.1.9-.2 1-.6 0-.2.1-.4.1-.6v-5.1c-.2-.5-.8-1-1.3-1v-.3h2.2l3.2 6.4 3.3-6.4h1.8v.3c-.8 0-1.1.5-1.1 1.2v5.1c0 1.1 0 1 1 1.1v.3h-3.1v-.3c1-.1 1-.1 1-1.1v-4.8l-3.1 6.3h-.2z"/><path d="m155.1 39.2c1-.1 1-.1 1-1.1v-5.1c0-1.1 0-1-1-1.1v-.3h5.1v1.8h-.3c-.1-.8-.3-1.5-1.2-1.5h-1.5v3.3h1c.7 0 1-.3 1-1h.3v2.4h-.3c0-.7-.3-1.1-1-1.1h-1v2.6c0 1 .4 1 1.5 1 1.7 0 1.6-.5 2.1-1.7h.3l-.3 2.1h-5.6v-.3z"/><path d="m163.4 31.5h3.8c2.8 0 4.2 1.4 4.2 3.8 0 2.3-1.7 4.2-4.5 4.2h-3.5v-.3c1-.1 1-.1 1-1.1v-5.1c0-1.1 0-1-1-1.1zm2.1 6.4c0 1.2.3 1.3 1.4 1.3 1.8 0 3.2-1 3.2-3.8 0-2.2-1.2-3.4-3.4-3.4h-1.2z"/><path d="m176.3 38.1c0 1.1 0 1 1 1.1v.3h-3.1v-.3c1-.1 1-.1 1-1.1v-5.1c0-1.1 0-1-1-1.1v-.3h3.1v.2c-1 .1-1 .1-1 1.1z"/><path d="m187.7 37.5-.3 1.4c0 .3-.2.3-.5.4-.4.1-1.2.3-2.2.3-2.3 0-4.4-1.1-4.4-4.2 0-1.8 1.5-4.1 4.6-4.1 1.1 0 1.6.2 2.2.4.3.1.4.3.4.4v1.5h-.3c0-.9-.6-1.9-2.4-1.9-2.1 0-3.2 1.5-3.2 3.6 0 2.3 1 3.9 3.4 3.9 1.5 0 2.2-.9 2.7-1.7z"/><path d="m192.4 38.1c0 1.1 0 1 1 1.1v.3h-3.1v-.3c1-.1 1-.1 1-1.1v-5.1c0-1.1 0-1-1-1.1v-.3h3.1v.2c-1 .1-1 .1-1 1.1z"/><path d="m203.1 39.5c-1.8-2.1-3.7-4.4-5.6-6.6v5c0 .2 0 .4.1.6.1.4.4.6 1.2.6v.3h-2.8v-.3c.5-.1.9-.2 1-.6 0-.2.1-.4.1-.6v-5.4c-.3-.4-.7-.8-1.3-.8v-.3h2.1c1.7 2.1 3.5 4.2 5.2 6.2v-4.7c0-.2 0-.4-.1-.6-.1-.4-.4-.6-1.2-.6v-.3h2.8v.4c-.5.1-.9.2-1 .6 0 .2-.1.4-.1.6v6.4h-.4z"/><path d="m207 39.2c1-.1 1-.1 1-1.1v-5.1c0-1.1 0-1-1-1.1v-.3h5.1v1.8h-.3c-.1-.8-.3-1.5-1.2-1.5h-1.5v3.3h1c.7 0 1-.3 1-1h.3v2.4h-.3c0-.7-.3-1.1-1-1.1h-1v2.6c0 1 .4 1 1.5 1 1.7 0 1.6-.5 2.1-1.7h.3l-.3 2.1h-5.6v-.3z"/></g><path d="m48.8 0h-48.8v24.3c0 10.6 5.8 18.3 10.8 22.8 5.4 5 11.4 7.9 13.4 8.4l.2.1.2-.1c2-.4 8-3.3 13.4-8.4 4.9-4.6 10.8-12.2 10.8-22.8 0-.2 0-24.3 0-24.3z" fill="#fff"/><path d="m1.2 1.3s.1 14.1 0 14.1h46.4c0-6.6 0-14.1 0-14.1zm12.4 8.9.2.2c.1.1.1.2.1.3s0 .2-.1.3-.1.1-.2.2-.2.2-.2.3v.9h-5.1-5.1v-.9c0-.1-.1-.2-.2-.3s-.1-.1-.2-.2-.1-.2-.1-.3 0-.2.1-.3.1-.1.2-.2.2-.2.2-.3v-2.8c0-.1-.1-.2-.2-.3s-.2-.1-.2-.2c-.1-.1-.1-.2-.1-.3s0-.2.1-.3c0-.1.1-.1.2-.2s.2-.2.2-.3v-.9h.1c.6 0 1.1 0 1.5-.2.1-.1.3-.2.4-.2.3-.2.7-.4 1.2-.4.4 0 .8.2 1.2.3.2.1.5.2.7.2h.1c.2 0 .4-.1.7-.2.2-.2.6-.3 1.1-.3s.9.2 1.2.4c.1.1.3.2.4.2.4.2.9.2 1.5.2h.1v.9c0 .1.1.2.2.3l.2.2c.1.1.1.2.1.3s0 .2-.1.3c0 .1-.1.1-.2.2s-.2.2-.2.3v2.8c0 .2.1.2.2.3zm19.6 1.5c-.8 1.3-2.3 1.6-2.4 1.6-.3.1-.6.1-.9.1-1.6 0-3.1-.7-4.6-1.5-.2-.1-.4-.2-.6-.3-1-.5-2.3-1.3-3.4-1.3-.3 0-.6.1-.9.2v.1c0 .1 0 .3-.1.4-.2.5-.8 1-1.1 1.2-.7.5-1.5 1-2.5 1-.2 0-.3 0-.4-.1-.2-.1-.3-.2-.4-.3s-.1-.2-.1-.2c0-.1 0-.1-.1-.2v-.1h-.1c-.4-.1-.6-.4-.6-.7 0-.2.2-.4.3-.6.3-.3.5-.6.1-.9l-.1-.1c-.1 0-.1-.1-.1-.1-.3-.3-.1-1.1 0-1.5.1-.5.3-1 .6-1.5.4-.7.8-1.5 1.4-2s.1.1.2.3l.1.2.2-.3c.2-.5.4-.8.8-1s.8.1 1 .2l.1.1.1-.1c0-.2.2-.5.6-.5s.8.3.9.4l.1.1.1-.1c.2-.2.7-.5 1.2-.4s.6.5.7.6v.1h.1c.2-.1.6-.2 1 0 .3.2.3.4.3.6v.1h.1c.3-.1.8-.1 1.2.2.3.3.3.6.2.8v.1h.1c.3 0 .6 0 .8.3.1.2.1.5 0 .6v.1h.1c.2 0 .4.1.5.3s0 .4-.1.7v.1h.1c.1.1.4.2.5.4.1.3.1.6 0 .9v.1c.3.3.7.6 1 .8.7.5 1.7.8 2.5.2.3-.2.4-.6.3-1-.1-.3-.3-.6-.6-.6-.5-.1-1 .4-1.3.9 0 0 0 0-.1 0-.3-.8-.3-1.4 0-1.9.2-.4.7-.7 1.3-.8h.1v-.1c0-.9.2-1.6.7-2 .3-.2.8-.5 1.6-.4-.6 1.5-.5 2-.1 3.2 0 .1.1.2.1.3.1 1.5 0 2.5-.5 3.3zm12.6-1.5c.1.1.1.1.2.2s.1.2.1.3 0 .2-.1.3-.1.1-.2.2-.2.2-.2.3v.9h-5.1-5.1v-.9c0-.1-.1-.2-.2-.3s-.1-.1-.2-.2-.1-.2-.1-.3 0-.2.1-.3.1-.1.2-.2.2-.2.2-.3v-2.8c0-.1-.1-.2-.2-.3s-.1-.1-.2-.2-.1-.2-.1-.3 0-.2.1-.3.1-.1.2-.2.2-.2.2-.3v-.9h.1c.6 0 1.1 0 1.5-.2.1-.1.3-.2.4-.2.3-.2.6-.4 1.2-.4.4 0 .8.2 1.2.3.2.1.5.2.7.2h.1c.2 0 .4-.1.7-.2.2-.2.6-.3 1-.3.5 0 .9.2 1.2.4.1.1.3.2.4.2.4.2.9.2 1.5.2h.1v.9c0 .1.1.2.2.3s.1.1.2.2.1.2.1.3 0 .2-.1.3-.1.1-.2.2-.2.2-.2.3v2.8c.1.2.2.2.3.3z" fill="#900"/><path d="m17.2 9.6c.2 0 .3 0 .5.2.1 0 .1.1.1.1.1.1.1.3 0 .4s-.2.2-.3.2c-.2.1-.5.4-.7.2-.1-.1.1-.2 0-.6-.2-.4.1-.5.4-.5z" fill="#011f5b"/><path d="m29.9 13.5c-1.6 0-3.1-.7-4.6-1.5-.2-.1-.4-.2-.6-.3-1.2-.7-3.1-1.7-4.2-1 0 .2 0 .3-.1.4-.2.5-.8 1-1.1 1.2-.7.5-1.5 1-2.5 1-.2 0-.3 0-.4-.1-.2-.1-.4-.2-.5-.3s-.1-.2-.2-.3c0-.1-.1-.2-.1-.2-.4-.1-.7-.4-.7-.8 0-.3.2-.5.4-.7.3-.3.4-.5.1-.8l-.1-.1c-.1 0-.1-.1-.2-.1-.4-.4-.2-1.1 0-1.6.2-.5.4-1 .6-1.5.4-.7.8-1.5 1.4-2.1h.1s.1 0 .1.1c0 0 .3.4.5.9 1.1-.6 2.6-.7 2.8-.7 1 0 2.3.1 3.5 1 .7.6 1.3 1.3 1.9 1.9.2.2.3.4.5.5.9 1 1.8 1.8 2.6 2.4.7.5 1.7.7 2.4.2.2-.2.4-.6.3-.9s-.3-.5-.5-.6c-.5-.1-.9.4-1.2.9l-.1.1c-.1 0-.1 0-.1-.1-.3-.8-.3-1.5 0-2 .3-.4.8-.8 1.4-.8 0-.9.2-1.6.7-2.1.3-.3.8-.5 1.7-.4 0 0 .1 0 .1.1v.1c-.6 1.4-.4 2-.1 3.2 0 .1.1.2.1.3.3 1.2.2 2.2-.3 3-.8 1.3-2.4 1.6-2.4 1.6-.6 0-.9.1-1.2.1zm-8.5-3.4c1.2 0 2.5.7 3.5 1.3l.6.3c1.8.9 3.5 1.7 5.4 1.4 0 0 1.5-.3 2.2-1.5.5-.7.5-1.7.3-2.7 0-.1-.1-.2-.1-.3-.3-1.1-.5-1.8.1-3.2-.6 0-1 .2-1.2.4-.4.4-.6 1-.6 2-.1 0-.2 0-.3 0-.6.1-1.1.3-1.3.7s-.2.9 0 1.5c.3-.4.8-.9 1.4-.8.4.1.7.4.8.8.1.5 0 1-.4 1.2-.8.7-2 .4-2.7-.2-.9-.6-1.7-1.4-2.7-2.5-.2-.2-.3-.4-.5-.5-.6-.7-1.2-1.4-1.9-1.9-1.1-.9-2.4-1-3.3-1-.6 0-1.9.2-2.7.7.3.5.5 1.1.5 1.6v.3c.6-.4 1.3-.1 1.7.3.1.1.2.2.3.4.2.2.3.5.5.7v.1s0 .1-.1.1c0 0-.4.3-.9.7-.1.1-.2.1-.2.2l.5.1c.4-.1.7-.2 1.1-.2zm-4.2-5.1c-.5.5-.9 1.2-1.2 1.9-.3.5-.4 1-.6 1.4-.1.3-.3 1 0 1.3l.1.1.1.1c.5.5.2.9-.1 1.2-.1.2-.3.3-.3.5 0 .4.4.5.6.5.1 0 .1.1.1.1 0 .1 0 .2.1.3 0 .1.1.1.1.2.1.1.2.2.4.2.1 0 .2.1.3.1.9 0 1.7-.5 2.4-.9.4-.3.8-.7 1-1.1 0-.1.1-.2.1-.3l-.7-.1c-.1 0-.1-.1-.1-.1 0-.1.1-.2.3-.4.1 0 .1-.1.2-.1.3-.3.6-.5.8-.6-.2-.2-.3-.4-.5-.6-.1-.2-.2-.3-.3-.4-.3-.3-.9-.5-1.4-.3-.2.1-.4.3-.5.4s-.3.3-.5.4c-.1 0-.1 0-.2 0 0-.1 0-.1 0-.2 0 0 0 0 .1-.1.2-.2.7-.7.7-1 0-.7-.7-2-1-2.5z" fill="#011f5b"/><path d="m16.2 12.4c-.1 0-.3 0-.4 0s-.1-.1-.1-.2.1-.1.2-.1c.7.1 1.6 0 2.5-.9.1-.1.1-.1.2 0s.1.1 0 .2c-.7.7-1.5 1-2.4 1z" fill="#011f5b"/><path d="m28.1 10.2c-.1 0-.1 0 0 0-.1 0-.2-.1-.1-.2.2-.4.2-.6.1-.9-.2-.3-.5-.4-.5-.4s-.1 0-.1-.1v-.1c.1-.1.2-.5.1-.7s-.4-.2-.5-.3c0 0-.1 0-.1-.1v-.1c0-.1.1-.4 0-.6-.2-.3-.8-.2-.8-.2h-.1v-.1s.2-.5-.2-.9-1.2-.2-1.2-.2h-.1v-.1s.1-.4-.2-.6c-.5-.3-1 .1-1 .1h-.1l-.1-.1s-.1-.6-.6-.7-1.1.5-1.1.5h-.1s-.1 0-.1-.1c0 0-.4-.5-.9-.5s-.6.5-.6.5l-.1.1h-.1s-.5-.4-.9-.3c-.6.2-.7.9-.8 1.2 0 .1-.1.1-.2.1s-.1-.1-.1-.2c.1-.3.3-1.1 1-1.4.4-.2.9.1 1.1.2.1-.2.4-.5.8-.5.5 0 .8.3 1 .5.2-.2.7-.5 1.2-.5.4.1.7.4.8.7.2-.1.7-.3 1.1 0 .1.4.1.7.1.9.3-.1.9-.1 1.3.3.3.3.3.7.3.9.3 0 .7 0 .9.3.1.2.1.5 0 .7.2.1.5.2.5.5.1.2 0 .6-.1.8.2.1.4.2.5.5.2.3.1.7-.1 1.1z" fill="#011f5b"/><path d="m27.4 12.1c-.1 0-.1-.1-.1-.2.1-.5-.2-.6-.5-.7-.1 0-.1 0-.2-.1s-.2-.3-.2-.4c0-.2 0-.4-.2-.6-.3-.3-.8-.1-.8-.1h-.1s-.1-.1 0-.1c0 0 .1-.6-.2-.8s-.8-.2-1-.1h-.1s-.1-.1 0-.1c0-.3-.1-.6-.4-.8-.3-.3-.6-.3-.8-.2-.6.3-.8.3-1.4-.1-.2-.1-.4-.2-.6-.1s-.4.3-.6.6c0 .1-.1.1-.2.1s-.1-.1-.1-.2c.2-.4.5-.6.8-.7s.5 0 .8.2c.5.4.6.3 1.1.1.3-.2.7-.1 1 .1s.5.5.5.9c.3 0 .7 0 1 .2.3.3.3.6.3.9.2 0 .6-.1.9.2.2.2.2.5.2.8v.2h.1c.3.1.8.2.7 1z" fill="#011f5b"/><path d="m13.7 10.1c-.1-.1-.2-.1-.2-.2v-2.8c0-.1.1-.1.2-.2s.2-.1.2-.2c.1-.1.1-.2.1-.3s0-.2-.1-.3c-.1-.2-.1-.3-.2-.3-.1-.1-.2-.1-.2-.2v-1h-.2c-.5 0-1.1 0-1.5-.2-.1-.1-.3-.1-.4-.2-.3-.2-.7-.4-1.3-.4-.4 0-.9.2-1.2.3-.2 0-.4.1-.6.1-.2 0-.4-.1-.6-.2-.4-.1-.8-.3-1.3-.3-.6 0-.9.2-1.3.4-.1.1-.2.2-.3.3-.4.1-1 .1-1.5.1h-.2v1c0 .1-.1.1-.2.2s-.2.2-.2.3c-.1.1-.1.2-.1.3s0 .2.1.3c0 .1.1.2.2.2.1.1.2.1.2.2v2.8c0 .1-.1.1-.2.2-.1.2-.2.3-.2.4-.1.1-.1.2-.1.3s0 .2.1.3.1.2.2.2c.1.1.2.1.2.2v.9h5.2 5.2v-.9c0-.1.1-.1.2-.2s.2-.1.2-.2c.1-.1.1-.2.1-.3s0-.2-.1-.3-.1-.2-.2-.3zm-4.6-5.8c.3-.1.7-.3 1.1-.3.5 0 .8.2 1.1.4.1.1.3.2.5.3 0 0 .2.1.3.1v6c-.2 0-.5 0-.8 0-.4 0-.9 0-1.3-.1-.1 0-.3-.1-.4-.1-.4-.1-.8-.3-1.1-.3v-5.8c.2 0 .4-.1.6-.2zm-4.2.4c.2-.1.3-.2.5-.3.3-.2.6-.4 1-.4s.8.2 1.1.3c.2.1.5.2.6.2v5.7c-.3 0-.7.1-1.1.3-.1 0-.3.1-.4.1-.5.2-.9.2-1.3.2-.3 0-.6 0-.8 0v-6c.1 0 .3-.1.4-.1zm8.8 6v.2c0 .1-.1.1-.2.1-.1.1-.3.2-.3.5v.6h-4.9-4.9v-.6c0-.2-.2-.4-.3-.5-.1 0-.1-.1-.2-.1 0-.1-.1-.1 0-.2 0-.1 0-.1 0-.2s.1-.1.2-.1c.1-.1.3-.2.3-.5v-2.8c0-.2-.2-.4-.3-.5-.1 0-.1-.1-.2-.1 0-.1-.1-.1 0-.2 0-.1 0-.1 0-.2s.1-.1.2-.1c.1-.1.3-.2.3-.5v-.6h.7v6.5h3.6c.1.2.3.4.6.4s.5-.2.6-.4h3.6v-6.6h.7v.7c0 .2.2.4.3.5.1 0 .1.1.2.1 0 .1.1.1 0 .2v.2c0 .1-.1.1-.2.1-.1.1-.3.2-.3.5v2.8c0 .2.2.4.3.5.1 0 .1.1.2.1z" fill="#011f5b"/><path d="m45.8 10.1c-.1 0-.1-.1-.1-.2v-2.8c0-.1 0-.2.1-.3s.2-.1.2-.2c.1-.1.1-.2.1-.3s0-.2-.1-.3c0-.1-.1-.2-.2-.2-.1-.1-.1-.2-.1-.3v-1h-.2c-.5 0-1.1 0-1.5-.2-.1-.1-.3-.1-.4-.2-.3-.2-.7-.4-1.3-.4-.4 0-.9.2-1.2.3-.2.1-.5.2-.6.2-.2 0-.4-.1-.6-.2-.4-.1-.8-.3-1.2-.3-.6 0-.9.2-1.3.4-.1.1-.3.2-.4.2-.4.2-.9.2-1.5.2h-.2v1c0 .1-.1.1-.2.2s-.2.1-.2.2c-.1.2-.2.3-.2.4s0 .2.1.3.2.2.3.2c.1.1.2.1.2.2v2.8c0 .1-.1.1-.2.2s-.2.1-.2.2c-.1.1-.1.2-.1.3s0 .2.1.3.1.2.2.2c.1.1.2.1.2.2v.9h5.2 5.2v-.9c0-.1.1-.1.2-.2s.2-.1.2-.2c.1-.1.1-.2.1-.3s0-.2-.1-.3c-.1.1-.2 0-.3-.1zm-4.6-5.8c.3-.1.7-.3 1.1-.3.5 0 .8.2 1.1.4.1.1.3.2.5.3.1 0 .2.1.4.1v6c-.2 0-.5 0-.8 0-.4 0-.9 0-1.3-.1-.1 0-.3-.1-.4-.1-.4-.1-.8-.3-1.1-.3v-5.8c.1 0 .3-.1.5-.2zm-4.2.4c.2-.1.3-.2.5-.3.3-.2.6-.4 1.1-.4.4 0 .8.2 1.1.3.2.1.4.2.6.2v5.7c-.3 0-.7.1-1.1.3-.1 0-.3.1-.4.1-.5.2-1 .2-1.4.2-.3 0-.6 0-.8 0v-6c.2 0 .3-.1.4-.1zm8.9 6v.2c0 .1-.1.1-.2.1-.1.1-.3.2-.3.5v.6h-4.9-4.9v-.6c0-.2-.2-.4-.3-.5-.1 0-.1-.1-.2-.1 0-.1-.1-.1 0-.2 0-.1 0-.1 0-.2s.1-.1.2-.1c.1-.1.3-.2.3-.5v-2.8c0-.2-.2-.4-.3-.5-.1 0-.1-.1-.2-.1 0-.1-.1-.1 0-.2 0-.1 0-.1 0-.2s.1-.1.2-.1c.1-.1.3-.2.3-.5v-.6h.7v6.5h3.6c.1.3.3.4.6.4s.5-.2.6-.4h3.6v-6.6h.7v.7c0 .2.2.4.3.5.1 0 .1.1.2.1 0 .1.1.1 0 .2v.2c0 .1-.1.1-.2.1-.1.1-.3.2-.3.5v2.8c0 .2.2.4.3.5.1 0 .1.1.2.1-.1.1 0 .1 0 .2z" fill="#011f5b"/><path d="m47.9 1h-47v23.4c0 10.3 5.7 17.7 10.5 22.2 5.2 4.8 11.1 7.7 13 8.1 1.8-.4 7.7-3.3 13-8.1 4.8-4.4 10.5-11.9 10.5-22.2 0-.3 0-23.4 0-23.4zm-.7.6v13.5h-45.7c0-5.6 0-12 0-13.5zm-36.6 36.3c-1.6-1.6-1.6-4.1 0-5.7s4.1-1.6 5.7 0 1.6 4.1 0 5.7-4.1 1.6-5.7 0zm26.3 8.2c-5.4 5-11.1 7.6-12.6 8-1.5-.4-7.1-2.9-12.6-8-.1-.1-.3-.2-.4-.4l13-13.8 13 13.8c-.1.1-.2.2-.4.4zm-16.6-21c0-2.2 1.8-4 4-4s4 1.8 4 4-1.8 4-4 4-4-1.8-4-4zm17.8 12.8c-1.6 1.6-4.1 1.6-5.7 0s-1.6-4.1 0-5.7 4.1-1.6 5.7 0 1.6 4.1 0 5.7zm6.5-2-20.2-19.6-20.3 19.6c-1.6-3.3-2.6-7.1-2.6-11.5 0-.1 0-4.1 0-8.7h45.7v8.7c0 4.3-1 8.2-2.6 11.5z" fill="#011f5b"/></svg>