<svg id="Layer_1" data-name="Layer 1" xmlns="http://www.w3.org/2000/svg" viewBox="0 0 100 80"><circle cx="34" cy="46" r="34" style="fill:#eeebfe"/><circle cx="75" cy="25" r="25" style="fill:#5039f7"/><path d="M35,15.5a7.322,7.322,0,1,1,7.322-7.322A7.331,7.331,0,0,1,35,15.5ZM35,1.856a6.322,6.322,0,1,0,6.322,6.322A6.329,6.329,0,0,0,35,1.856Z" style="fill:#5039f7"/><path d="M51.389,16.783A25,25,0,0,0,67.864,48.961C67.948,47.984,68,47,68,46A33.98,33.98,0,0,0,51.389,16.783Z" style="fill:#3a26cb"/><path d="M19.653,66.109a1,1,0,0,1-.641-1.767L82.6,11.205a1,1,0,0,1,1.283,1.535L20.294,65.877A1,1,0,0,1,19.653,66.109Z" style="fill:#231f20"/><circle cx="24.221" cy="53.416" r="2.029"/><circle cx="33.234" cy="44.009" r="2.029"/><circle cx="56.115" cy="51.238" r="2.029"/><circle cx="46.251" cy="33.96" r="2.029"/><circle cx="39.49" cy="41.378" r="2.029"/><circle cx="26.978" cy="38.541" r="2.029"/><circle cx="52.808" cy="15.779" r="2.029"/><circle cx="71.2" cy="33.96" r="2.029"/><circle cx="70.975" cy="11.972" r="2.029"/><circle cx="78.751" cy="2.917" r="2.029"/><circle cx="64.117" cy="10.447" r="2.029"/><circle cx="66.398" cy="44.009" r="2.029"/><circle cx="62.663" cy="17.809" r="2.029"/><circle cx="35.253" cy="26.926" r="2.029"/><path d="M33.894,65.411A3.911,3.911,0,1,1,37.805,61.5,3.916,3.916,0,0,1,33.894,65.411Zm0-6.822A2.911,2.911,0,1,0,36.805,61.5,2.914,2.914,0,0,0,33.894,58.589Z" style="fill:#5039f7"/><path d="M77.046,38.882a2.206,2.206,0,1,1,2.2-2.2A2.207,2.207,0,0,1,77.046,38.882Zm0-3.411a1.206,1.206,0,1,0,1.2,1.206A1.207,1.207,0,0,0,77.046,35.471Z" style="fill:#eeebfe"/><path d="M57.957,60.994a2.206,2.206,0,1,1,2.206-2.2A2.207,2.207,0,0,1,57.957,60.994Zm0-3.411a1.206,1.206,0,1,0,1.206,1.206A1.207,1.207,0,0,0,57.957,57.583Z" style="fill:#5039f7"/><path d="M83.432,27.426a2.206,2.206,0,1,1,2.206-2.206A2.208,2.208,0,0,1,83.432,27.426Zm0-3.411a1.206,1.206,0,1,0,1.206,1.2A1.207,1.207,0,0,0,83.432,24.015Z" style="fill:#eeebfe"/><path d="M66.4,59.289a2.206,2.206,0,1,1,2.2-2.206A2.208,2.208,0,0,1,66.4,59.289Zm0-3.411a1.206,1.206,0,1,0,1.2,1.2A1.207,1.207,0,0,0,66.4,55.878Z" style="fill:#5039f7"/><path d="M40.341,59.289a2.206,2.206,0,1,1,2.2-2.206A2.208,2.208,0,0,1,40.341,59.289Zm0-3.411a1.206,1.206,0,1,0,1.2,1.2A1.207,1.207,0,0,0,40.341,55.878Z" style="fill:#5039f7"/><path d="M43.251,26.387a2.206,2.206,0,1,1,2.206-2.205A2.207,2.207,0,0,1,43.251,26.387Zm0-3.411a1.206,1.206,0,1,0,1.206,1.206A1.207,1.207,0,0,0,43.251,22.976Z" style="fill:#5039f7"/><path d="M32.123,22.593a2.206,2.206,0,1,1,2.206-2.206A2.208,2.208,0,0,1,32.123,22.593Zm0-3.411a1.206,1.206,0,1,0,1.206,1.205A1.207,1.207,0,0,0,32.123,19.182Z" style="fill:#5039f7"/><path d="M83.432,56.5a2.206,2.206,0,1,1,2.206-2.2A2.208,2.208,0,0,1,83.432,56.5Zm0-3.411A1.206,1.206,0,1,0,84.638,54.3,1.207,1.207,0,0,0,83.432,53.089Z" style="fill:#5039f7"/><path d="M77.46,26.674a2.206,2.206,0,1,1,2.205-2.206A2.208,2.208,0,0,1,77.46,26.674Zm0-3.411a1.206,1.206,0,1,0,1.205,1.2A1.207,1.207,0,0,0,77.46,23.263Z" style="fill:#eeebfe"/><path d="M57.705,29.5a2.206,2.206,0,1,1,2.206-2.206A2.208,2.208,0,0,1,57.705,29.5Zm0-3.411a1.206,1.206,0,1,0,1.206,1.205A1.207,1.207,0,0,0,57.705,26.089Z" style="fill:#eeebfe"/><path d="M32.123,35.978a2.206,2.206,0,1,1,2.206-2.206A2.209,2.209,0,0,1,32.123,35.978Zm0-3.412a1.206,1.206,0,1,0,1.206,1.206A1.207,1.207,0,0,0,32.123,32.566Z" style="fill:#5039f7"/><path d="M60.705,40.5a2.206,2.206,0,1,1,2.206-2.2A2.207,2.207,0,0,1,60.705,40.5Zm0-3.411A1.206,1.206,0,1,0,61.911,38.3,1.207,1.207,0,0,0,60.705,37.089Z" style="fill:#eeebfe"/><path d="M49.755,57.327c-.033,0-.067,0-.1,0A2.2,2.2,0,0,1,48.262,53.5a2.205,2.205,0,1,1,1.493,3.831Zm-.005-3.411a1.206,1.206,0,0,0-1.2,1.153h0A1.2,1.2,0,0,0,49.7,56.325a1.167,1.167,0,0,0,.867-.314,1.205,1.205,0,0,0-.762-2.093Z" style="fill:#5039f7"/><path d="M49.2,50.554a2.206,2.206,0,1,1,2.2-2.205A2.208,2.208,0,0,1,49.2,50.554Zm0-3.411a1.206,1.206,0,1,0,1.2,1.206A1.207,1.207,0,0,0,49.2,47.143Z" style="fill:#5039f7"/><path d="M95,71H10.277a1,1,0,0,1-1-1V10a1,1,0,0,1,2,0V69H95a1,1,0,0,1,0,2Z" style="fill:#231f20"/></svg>