<svg id="Layer_1" data-name="Layer 1" xmlns="http://www.w3.org/2000/svg" viewBox="0 0 100 80"><circle cx="10" cy="10" r="2" style="fill:#5039f7"/><circle cx="37" cy="40" r="34" style="fill:#eeebfe"/><circle cx="74.5" cy="40.5" r="21.5" style="fill:#5039f7"/><path d="M53,40.5A21.482,21.482,0,0,0,64.744,59.642a33.981,33.981,0,0,0,.523-38.536A21.48,21.48,0,0,0,53,40.5Z" style="fill:#3a26cb"/><path d="M70,14a7,7,0,1,1,7-7A7.008,7.008,0,0,1,70,14ZM70,2a5,5,0,1,0,5,5A5.006,5.006,0,0,0,70,2Z" style="fill:#5039f7"/><path d="M60.314,72.167a1,1,0,0,1-.99-.866L53.041,24.584A16.938,16.938,0,0,0,45.168,12.3a18.717,18.717,0,0,0-9.907-2.465c-7.338,0-19.756,2.271-19.756,10.783A29.171,29.171,0,0,1,12.03,34.4l-.882,1.64a1.227,1.227,0,0,0,.511,1.671,6.545,6.545,0,0,1,3.495,5.934c-.075,2.72.354,6.5,2.823,9.034,1.832,1.883,4.575,2.838,8.154,2.838a1,1,0,0,1,0,2c-4.139,0-7.365-1.159-9.587-3.444-2.957-3.038-3.475-7.378-3.389-10.483a4.533,4.533,0,0,0-2.424-4.107A3.228,3.228,0,0,1,9.387,35.09l.883-1.639a27.173,27.173,0,0,0,3.235-12.835c0-4.667,2.952-8.3,8.535-10.5A39.136,39.136,0,0,1,35.261,7.833a20.668,20.668,0,0,1,10.952,2.76,18.927,18.927,0,0,1,8.81,13.725l6.284,46.715a1,1,0,0,1-.858,1.125A1.043,1.043,0,0,1,60.314,72.167Z" style="fill:#221f20"/><path d="M77.883,69.429a1,1,0,0,1,0-2c2.62,0,4.621-.693,5.948-2.058,1.8-1.847,2.105-4.616,2.048-6.613a5.159,5.159,0,0,1,2.759-4.675.674.674,0,0,0,.281-.917l-.664-1.233a22.164,22.164,0,0,1-2.639-10.47c0-7.762-14-7.851-14.591-7.851a13.827,13.827,0,0,0-7.311,1.815,11.793,11.793,0,0,0-5.559,11.442l.194,2.182a1,1,0,0,1-1.993.178l-.193-2.182a13.782,13.782,0,0,1,6.506-13.325,15.775,15.775,0,0,1,8.356-2.11,29.669,29.669,0,0,1,10.022,1.733c4.3,1.7,6.569,4.5,6.569,8.118a20.147,20.147,0,0,0,2.4,9.522l.663,1.233a2.674,2.674,0,0,1-1.114,3.636A3.146,3.146,0,0,0,87.878,58.7c.068,2.383-.331,5.716-2.613,8.065C83.547,68.532,81.064,69.429,77.883,69.429Z" style="fill:#221f20"/><path d="M36.728,48.885a12.456,12.456,0,0,1-7.695-2.32c-4.359-3.282-4.646-8.787-4.656-9.02a1,1,0,0,1,.95-1.043A48.646,48.646,0,0,0,40.851,32.23a9.916,9.916,0,0,1,8.6-.176c5.828,2.792,8.1,11.11,8.192,11.463a1,1,0,0,1-.739,1.23L42.334,48.155A23.966,23.966,0,0,1,36.728,48.885ZM26.5,38.406a10.55,10.55,0,0,0,3.755,6.573c2.7,2.025,6.612,2.439,11.62,1.231L55.4,43.046c-.753-2.171-2.9-7.317-6.815-9.19a8.008,8.008,0,0,0-6.923.2h0A53.046,53.046,0,0,1,26.5,38.406Zm14.759-5.262h0Z" style="fill:#221f20"/></svg>