<svg id="Layer_1" data-name="Layer 1" xmlns="http://www.w3.org/2000/svg" viewBox="0 0 100 80"><path d="M91.5,79.5a8,8,0,1,1,8-8A8.009,8.009,0,0,1,91.5,79.5Zm0-15a7,7,0,1,0,7,7A7.008,7.008,0,0,0,91.5,64.5Z" style="fill:#3a26cb"/><circle cx="50" cy="40" r="40" style="fill:#eeebfe"/><path d="M12,24A12,12,0,1,1,24,12,12.013,12.013,0,0,1,12,24ZM12,2A10,10,0,1,0,22,12,10.011,10.011,0,0,0,12,2Z" style="fill:#5039f7"/><path d="M90,74H10a1,1,0,0,1-1-1V7a1,1,0,0,1,1-1H90a1,1,0,0,1,1,1V73A1,1,0,0,1,90,74ZM11,72H89V8H11Z" style="fill:#231f20"/><path d="M84,68H31a1,1,0,0,1-1-1V13a1,1,0,0,1,1-1H84a1,1,0,0,1,1,1V67A1,1,0,0,1,84,68ZM32,66H83V14H32Z" style="fill:#231f20"/><rect x="15" y="25.19" width="10" height="10" rx="1" style="fill:#5039f7"/><path d="M22.084,44H15a1,1,0,0,1,0-2h7.084a1,1,0,1,1,0,2Z" style="fill:#231f20"/><path d="M22.084,60H15a1,1,0,0,1,0-2h7.084a1,1,0,1,1,0,2Z" style="fill:#231f20"/><path d="M18.208,68H15a1,1,0,0,1,0-2h3.208a1,1,0,0,1,0,2Z" style="fill:#231f20"/><path d="M22.084,52H15a1,1,0,0,1,0-2h7.084a1,1,0,1,1,0,2Z" style="fill:#231f20"/><path d="M65.939,61.683h-.011a1,1,0,0,1-.958-.754L56.6,27.9,50.07,50.254a1,1,0,0,1-.949.72H49.11a1,1,0,0,1-.953-.7L44.051,37.318l-2.375,5.845a1,1,0,0,1-.926.624H31a1,1,0,0,1,0-2h9.077L43.241,34a1,1,0,0,1,1.88.074l3.95,12.467,6.634-22.726a1,1,0,0,1,1.929.035l8.349,32.938,5.379-19.378a1,1,0,0,1,1.875-.144l1.889,4.18H84a1,1,0,0,1,0,2H74.481a1,1,0,0,1-.911-.588L72.551,40.6,66.9,60.95A1,1,0,0,1,65.939,61.683Z" style="fill:#231f20"/><circle cx="95.5" cy="42.5" r="2.5" style="fill:#5039f7"/></svg>