<svg id="Layer_1" data-name="Layer 1" xmlns="http://www.w3.org/2000/svg" viewBox="0 0 100 80"><circle cx="16.331" cy="10.082" r="2.029"/><circle cx="84.679" cy="71.347" r="2.029"/><circle cx="52.027" cy="39.829" r="38.158" style="fill:#eeebfe"/><rect x="59.552" y="45.214" width="2" height="28.527" transform="translate(-19.497 31.26) rotate(-25.069)"/><rect x="65.247" y="38.358" width="2" height="17.596" transform="translate(-8.635 78.858) rotate(-58.39)"/><rect x="59.722" y="30.363" width="18.019" height="2" transform="translate(-5.615 17.936) rotate(-14.291)"/><rect x="49.235" y="16.938" width="19.853" height="2" transform="translate(15.646 61.85) rotate(-62.127)"/><rect x="41.098" y="16.565" width="2" height="10.767" transform="translate(-5.345 20.17) rotate(-25.389)"/><rect x="27.116" y="20.076" width="2" height="21.828" transform="translate(-9.341 49.641) rotate(-74.254)"/><rect x="21.898" y="48.783" width="20.693" height="2" transform="translate(-23.74 30.192) rotate(-37.782)"/><rect x="40.91" y="52.143" width="11.303" height="2" transform="translate(-14.67 88.399) rotate(-78.709)"/><path d="M49.649,48.994q-.378,0-.759-.023A12.392,12.392,0,1,1,62,37.343h0A12.4,12.4,0,0,1,49.649,48.994Zm-.024-22.786a10.4,10.4,0,1,0,.629.019C50.043,26.214,49.834,26.208,49.625,26.208ZM61,37.283h0Z" style="fill:#231f20"/><circle cx="64.348" cy="7.031" r="5.506" style="fill:#5039f7"/><circle cx="15.569" cy="27.245" r="4.392" style="fill:#5039f7"/><circle cx="44.691" cy="61.565" r="4.392" style="fill:#3a26cb"/><circle cx="74.092" cy="51.681" r="4.392" style="fill:#3a26cb"/><circle cx="67.217" cy="73.948" r="4.961" style="fill:#5039f7"/><path d="M85.022,35.356q-.242,0-.486-.015a7.916,7.916,0,1,1,.486.015ZM85,20.459a6.949,6.949,0,1,0,6.945,7.365h0a6.948,6.948,0,0,0-6.52-7.352C85.285,20.464,85.143,20.459,85,20.459Z" style="fill:#3a26cb"/><path d="M36.855,18.054c-.16,0-.32,0-.481-.014a7.952,7.952,0,1,1,.481.014Zm-.015-14.9a6.93,6.93,0,1,0,.426.012Q37.053,3.158,36.84,3.158Z" style="fill:#3a26cb"/><path d="M17.259,71.79c-.2,0-.4-.006-.605-.019a9.833,9.833,0,1,1,.605.019ZM17.24,54.015a7.887,7.887,0,1,0,7.879,8.359h0a7.887,7.887,0,0,0-7.4-8.345C17.558,54.02,17.4,54.015,17.24,54.015Z" style="fill:#5039f7"/><path d="M67.521,69a4.953,4.953,0,0,0-4.6,7.408A38,38,0,0,0,71.928,72.4,4.956,4.956,0,0,0,67.521,69Z" style="fill:#3a26cb"/><path d="M15.29,31.632a4.387,4.387,0,0,0,2.293-8.271,37.828,37.828,0,0,0-2.817,8.186A4.272,4.272,0,0,0,15.29,31.632Z" style="fill:#3a26cb"/><path d="M58.847,6.705a5.506,5.506,0,1,0,10.907-.66,37.933,37.933,0,0,0-8.832-3.317A5.488,5.488,0,0,0,58.847,6.705Z" style="fill:#3a26cb"/><circle cx="84.498" cy="43.929" r="2.029"/></svg>