<svg id="Layer_1" data-name="Layer 1" xmlns="http://www.w3.org/2000/svg" viewBox="0 0 100 80"><circle cx="50" cy="41" r="33" style="fill:#eeebfe"/><circle cx="72.5" cy="62.5" r="17.5" style="fill:#5039f7"/><path d="M82.256,47.971A17.486,17.486,0,0,0,58.451,72.9,33.044,33.044,0,0,0,82.256,47.971Z" style="fill:#3a26cb"/><path d="M50,78a1,1,0,0,1-.287-.042C49.406,77.865,19,68.335,19,33V15a1,1,0,0,1,1-1C37.362,14,49.148,1.449,49.265,1.322A1,1,0,0,1,50,1h0a1,1,0,0,1,.735.321C50.852,1.448,62.67,14,80,14a1,1,0,0,1,1,1V33c0,18.452-8.341,29.693-15.338,35.874a45.313,45.313,0,0,1-15.375,9.084A1,1,0,0,1,50,78ZM21,15.987V33c0,14.184,4.912,25.73,14.6,34.319A44.923,44.923,0,0,0,50,75.947C53.036,74.9,79,65,79,33V15.987C63.616,15.592,52.85,6.2,50,3.424,47.151,6.2,36.384,15.592,21,15.987Z" style="fill:#221f20"/><polygon points="54 50 46 50 48 38 52 38 54 50"/><circle cx="14" cy="35" r="2" style="fill:#5039f7"/><circle cx="8" cy="35" r="2" style="fill:#5039f7"/><circle cx="2" cy="35" r="2" style="fill:#5039f7"/><circle cx="50" cy="35" r="5"/></svg>