<svg id="Layer_1" data-name="Layer 1" xmlns="http://www.w3.org/2000/svg" viewBox="0 0 100 80"><path d="M10,35a7,7,0,1,1,7-7A7.008,7.008,0,0,1,10,35Zm0-12a5,5,0,1,0,5,5A5.006,5.006,0,0,0,10,23Z" style="fill:#5039f7"/><circle cx="50" cy="28" r="27" style="fill:#eeebfe"/><path d="M91,72a9,9,0,1,1,9-9A9.01,9.01,0,0,1,91,72Zm0-16a7,7,0,1,0,7,7A7.008,7.008,0,0,0,91,56Z" style="fill:#5039f7"/><path d="M70,22H30A11,11,0,0,1,30,0H70a11,11,0,0,1,0,22ZM30,2a9,9,0,0,0,0,18H70A9,9,0,0,0,70,2Z" style="fill:#221f20"/><path d="M70,56H30a11,11,0,0,1,0-22H70a11,11,0,0,1,0,22ZM30,36a9,9,0,0,0,0,18H70a9,9,0,0,0,0-18Z" style="fill:#221f20"/><path d="M57,80H43a1,1,0,0,1-1-1V71a1,1,0,0,1,1-1H57a1,1,0,0,1,1,1v8A1,1,0,0,1,57,80ZM44,78H56V72H44Z" style="fill:#221f20"/><path d="M90,76H57a1,1,0,1,1,0-2H90a1,1,0,0,1,0,2Z" style="fill:#221f20"/><path d="M43,76H10a1,1,0,0,1,0-2H43a1,1,0,0,1,0,2Z" style="fill:#221f20"/><path d="M50,72a1,1,0,0,1-1-1V55a1,1,0,0,1,2,0V71A1,1,0,0,1,50,72Z" style="fill:#221f20"/><path d="M50,36a1,1,0,0,1-1-1V21a1,1,0,0,1,2,0V35A1,1,0,0,1,50,36Z" style="fill:#221f20"/><circle cx="27" cy="11" r="2" style="fill:#5039f7"/><circle cx="33" cy="11" r="2" style="fill:#5039f7"/><circle cx="27" cy="45" r="2" style="fill:#5039f7"/><circle cx="33" cy="45" r="2" style="fill:#5039f7"/><rect x="59" y="43" width="16" height="4" rx="2" style="fill:#5039f7"/><rect x="59" y="9" width="16" height="4" rx="2" style="fill:#5039f7"/></svg>