<svg id="export" width="24" height="24" xmlns="http://www.w3.org/2000/svg" xmlns:xlink="http://www.w3.org/1999/xlink" viewBox="0 0 24 24"><defs><style>.cls-1{fill:#2760ff;}.cls-2{fill:url(#icon_gradient);}</style><linearGradient id="icon_gradient" x1="2.06" y1="11.48" x2="22.06" y2="11.48" gradientUnits="userSpaceOnUse"><stop offset="0.02" stop-color="#fff" stop-opacity="0.2"/><stop offset="0.32" stop-color="#f2f3f4" stop-opacity="0.19"/><stop offset="0.58" stop-color="#cacdd1" stop-opacity="0.15"/><stop offset="0.81" stop-color="#878d96" stop-opacity="0.08"/><stop offset="1" stop-color="#3b4554" stop-opacity="0.01"/></linearGradient></defs><title>icon-time_series</title><g id="_time_series_" data-name="&lt;time_series&gt;"><path id="_artwork_" data-name="&lt;artwork&gt;" class="cls-1" d="M16.06,18A1.49,1.49,0,0,1,14.6,17L11.53,6.54,8.41,15H2.56a.51.51,0,0,1-.5-.5.5.5,0,0,1,.5-.5H7.72l3.17-8.59a.7.7,0,0,1,.67-.45h0a.7.7,0,0,1,.67.47l3.33,11.29h0v0h0a.48.48,0,0,0,.5.33.58.58,0,0,0,.39-.14C19.09,14,19.53,14,19.75,14h1.81a.5.5,0,0,1,.5.5.5.5,0,0,1-.5.5H19.82a22.2,22.2,0,0,0-2.64,2.61l-.12-.11.12.11A1.58,1.58,0,0,1,16.06,18ZM11.83,5.73Z"/><path id="_gradient_" data-name="&lt;gradient&gt;" class="cls-2" d="M16.06,18A1.49,1.49,0,0,1,14.6,17L11.53,6.54,8.41,15H2.56a.51.51,0,0,1-.5-.5.5.5,0,0,1,.5-.5H7.71l3.18-8.59a.7.7,0,0,1,.67-.45h0a.71.71,0,0,1,.66.46l3.33,11.3h0v0h0a.48.48,0,0,0,.5.33.58.58,0,0,0,.39-.14C19.09,14,19.53,14,19.75,14h1.81a.5.5,0,0,1,.5.5.5.5,0,0,1-.5.5H19.83a21.33,21.33,0,0,0-2.65,2.61l-.1-.1.1.1A1.58,1.58,0,0,1,16.06,18Z"/></g></svg>