<svg id="artwork" xmlns="http://www.w3.org/2000/svg" viewBox="0 0 24 24"><polygon points="22 21.996 2 21.996 2 1.996 16 1.996 22 7.965 22 21.996" style="fill:#dadada"/><path d="M16,2V6.5A1.5,1.5,0,0,0,17.5,8H22Z" style="fill:#71747c"/><rect x="7" y="11.996" width="15" height="6" style="fill:#063aff"/><path d="M8.806,13h.9v1.541H10.8V13h.9v4h-.9V15.328H9.708V17h-.9Z" style="fill:#fff"/><path d="M12.986,13h1.1a1.753,1.753,0,0,1,1.926,1.982A1.767,1.767,0,0,1,14.145,17H12.986Zm1.055,3.27c.625,0,1.049-.331,1.049-1.288s-.424-1.252-1.049-1.252h-.147v2.54Z" style="fill:#fff"/><path d="M17.344,13H20v.761H18.245v.926h1.5v.761h-1.5V17h-.9Z" style="fill:#fff"/></svg>