<svg id="artwork" xmlns="http://www.w3.org/2000/svg" viewBox="0 0 24 24"><rect x="8.751" y="11.247" width="18.5" height="1" transform="translate(6.254 29.748) rotate(-90)" style="fill:#dadada"/><rect x="5.751" y="11.247" width="18.5" height="1" transform="translate(3.254 26.748) rotate(-90)" style="fill:#dadada"/><rect x="2.751" y="11.247" width="18.5" height="1" transform="translate(0.254 23.748) rotate(-90)" style="fill:#dadada"/><rect x="-0.249" y="11.247" width="18.5" height="1" transform="translate(-2.746 20.748) rotate(-90)" style="fill:#dadada"/><rect x="-3.249" y="11.247" width="18.5" height="1" transform="translate(-5.746 17.748) rotate(-90)" style="fill:#dadada"/><rect x="3.001" y="16.997" width="18" height="1" style="fill:#dadada"/><rect x="3.001" y="13.997" width="18" height="1" style="fill:#dadada"/><rect x="3.001" y="10.997" width="18" height="1" style="fill:#dadada"/><rect x="3.001" y="7.997" width="18" height="1" style="fill:#dadada"/><rect x="3.001" y="4.997" width="18" height="1" style="fill:#dadada"/><polyline points="17.074 18.5 18.503 18.497 18.496 17.094" style="fill:none;stroke:#2760ff;stroke-linecap:round;stroke-miterlimit:10"/><polyline points="6.922 18.494 5.499 18.502 5.499 17.088" style="fill:none;stroke:#17bb62;stroke-linecap:round;stroke-miterlimit:10"/><polyline points="11.001 6.722 12.001 5.711 13.001 6.711" style="fill:none;stroke:#e94b4b;stroke-linecap:round;stroke-miterlimit:10"/><polyline points="6.001 17.997 6.001 17.997 12.003 11.997 12.001 5.748" style="fill:none;stroke:#17bb62;stroke-linecap:round;stroke-miterlimit:10"/><line x1="12.003" y1="11.997" x2="12.001" y2="5.748" style="fill:none;stroke:#e94b4b;stroke-linecap:round;stroke-miterlimit:10"/><line x1="12.003" y1="11.997" x2="18.002" y2="17.997" style="fill:none;stroke:#2760ff;stroke-linecap:round;stroke-miterlimit:10"/><rect x="2.501" y="2.497" width="19" height="19" style="fill:none;stroke:#dadada;stroke-linecap:round;stroke-miterlimit:10"/></svg>