<svg id="artwork" xmlns="http://www.w3.org/2000/svg" viewBox="0 0 24 24"><rect x="5" y="6.997" width="2" height="2" style="fill:#066da5"/><rect x="3" y="9.997" width="2" height="2" style="fill:#066da5"/><rect x="6" y="9.997" width="2" height="2" style="fill:#066da5"/><rect x="9" y="9.997" width="2" height="2" style="fill:#066da5"/><rect x="12" y="9.997" width="2" height="2" style="fill:#066da5"/><rect x="8" y="6.997" width="2" height="2" style="fill:#066da5"/><rect x="11" y="6.997" width="2" height="2" style="fill:#066da5"/><rect x="11" y="3.997" width="2" height="2" style="fill:#066da5"/><path d="M17.517,12.45A2.816,2.816,0,0,1,17.8,9a3.339,3.339,0,0,1,1.552,2.21A3.151,3.151,0,0,1,22,11.644a8.234,8.234,0,0,1-.545.784,2.6,2.6,0,0,1-1.718.821,6.546,6.546,0,0,1-.781.032c-.08,0-.094.045-.116.1a10.574,10.574,0,0,1-1.267,2.215,9.7,9.7,0,0,1-5.16,3.531A12.222,12.222,0,0,1,10,19.58a12.973,12.973,0,0,1-2.067.049,6.734,6.734,0,0,1-4.237-1.717,5.214,5.214,0,0,1-1.666-3.3C1.991,14.191,2,13.761,2,13.333a2.22,2.22,0,0,1,.058-.365H13.208c.842,0,1.683.008,2.525-.009A3.624,3.624,0,0,0,17.517,12.45ZM6,14.79a1.037,1.037,0,0,0-1.084,1A1.06,1.06,0,0,0,6,16.847a1.073,1.073,0,0,0,1.074-1.022A1.04,1.04,0,0,0,6,14.79Z" style="fill:#066da5"/></svg>