<svg id="artwork" xmlns="http://www.w3.org/2000/svg" viewBox="0 0 24 24"><path d="M21.663,14.816c-.592-.634-1.8-1-3.52-1a17.117,17.117,0,0,0-3.133.309,16.809,16.809,0,0,1-1.922-2.271A19.661,19.661,0,0,1,11.9,9.944a17.858,17.858,0,0,0,1.005-5.092c0-1.4-.5-2.852-1.95-2.852a1.357,1.357,0,0,0-1.124.668c-.653,1.175-.359,3.75.764,6.294-.419,1.269-.863,2.482-1.417,3.844-.482,1.149-1.036,2.332-1.6,3.419C4.327,17.547,2.222,19.092,2.024,20.3A1.349,1.349,0,0,0,2.4,21.513a1.872,1.872,0,0,0,1.233.454c2.159,0,4.433-3.572,5.589-5.726.888-.3,1.775-.573,2.661-.847.973-.27,1.95-.487,2.837-.639a7.97,7.97,0,0,0,5.3,2.421c1.243,0,1.686-.515,1.836-.937a1.447,1.447,0,0,0-.21-1.452l.016.033Zm-1.154.88a1.061,1.061,0,0,1-1.155.756,3.013,3.013,0,0,1-.5-.06A7.715,7.715,0,0,1,15.6,14.634a14.713,14.713,0,0,1,2.483-.209,6.587,6.587,0,0,1,1.508.121c.409.088,1.059.363.913,1.152h.016ZM14.24,14.271c-.767.159-1.6.346-2.453.578-.68.187-1.388.4-2.1.643.386-.753.712-1.481,1.007-2.173.356-.851.65-1.728.945-2.542.292.509.617,1.026.942,1.486a23.042,23.042,0,0,0,1.65,2.02v-.017ZM10.365,3.014a.648.648,0,0,1,.565-.364c.621,0,.739.725.739,1.3a16.238,16.238,0,0,1-.8,4.146c-.884-2.354-.945-4.324-.5-5.084ZM7.114,17.119c-1.508,2.54-2.956,4.118-3.844,4.118a.726.726,0,0,1-.442-.153.651.651,0,0,1-.206-.634c.177-.91,1.863-2.181,4.493-3.331Z" style="fill:#ee3f24"/></svg>