<svg id="artwork" xmlns="http://www.w3.org/2000/svg" xmlns:xlink="http://www.w3.org/1999/xlink" viewBox="0 0 24 24"><defs><linearGradient id="linear-gradient" x1="284.516" y1="-312.005" x2="284.516" y2="-317.734" gradientTransform="translate(-279 320.739)" gradientUnits="userSpaceOnUse"><stop offset="0.016" stop-color="#fff" stop-opacity="0.6"/><stop offset="0.515" stop-color="#3b4554" stop-opacity="0.6"/></linearGradient></defs><rect x="2.016" y="3.005" width="7" height="3.639" style="fill:#9ab5ff"/><path d="M2.091,3.005H8.94a.075.075,0,0,1,.075.075V8.734a0,0,0,0,1,0,0h-7a0,0,0,0,1,0,0V3.08A.075.075,0,0,1,2.091,3.005Z" transform="translate(11.031 11.739) rotate(180)" style="opacity:0.31;fill:url(#linear-gradient)"/><path d="M2.007,6H22a.012.012,0,0,1,.012.012V20.987A.012.012,0,0,1,22,21H2.019a.012.012,0,0,1-.012-.012V6A0,0,0,0,1,2.007,6Z" style="fill:#9ab5ff"/></svg>