<svg id="artwork" xmlns="http://www.w3.org/2000/svg" viewBox="0 0 24 24"><polygon points="21.997 22.001 1.997 22.001 1.997 2.001 15.997 2.001 21.997 7.97 21.997 22.001" style="fill:#f1f1f3"/><path d="M16,2V6.5A1.5,1.5,0,0,0,17.5,8H22Z" style="fill:#2760ff"/><path d="M16.2,11.346l-1.463-1.063a.6.6,0,0,0-.708.975l1.463,1.063a1.794,1.794,0,1,1-2.11,2.9l-1.463-1.062a.6.6,0,1,0-.708.975L12.671,16.2A3,3,0,1,0,16.2,11.346Z" style="fill:#2760ff"/><path d="M9.967,12.745,8.5,11.682a1.795,1.795,0,1,1,2.11-2.9l1.462,1.063a.6.6,0,0,0,.709-.975L11.322,7.8A3,3,0,1,0,7.8,12.657L9.258,13.72a.6.6,0,0,0,.709-.975Z" style="fill:#2760ff"/><path d="M9.592,10.246a.6.6,0,0,0,.133.842l3.816,2.772a.6.6,0,1,0,.709-.975l-3.816-2.773A.6.6,0,0,0,9.592,10.246Z" style="fill:#2760ff"/></svg>