<svg id="artwork" xmlns="http://www.w3.org/2000/svg" viewBox="0 0 24 24"><path d="M21.733,12.075c.151,2.472-1.332,2.935-1.332,2.935a1.688,1.688,0,0,1-.3,1.52,1.864,1.864,0,0,1-2.262.618s-.151,2.163-1.659,2.472a2.049,2.049,0,0,1-2.086-1.082l-.453,1.983h-.9a23.871,23.871,0,0,0-1.358-3.682,3.913,3.913,0,0,0-1.483-.618,3.752,3.752,0,0,1-1.96-.927,1.271,1.271,0,0,1,0-1.674,23.51,23.51,0,0,1-2.992-.309c-2.111-.464-1.508-1.854-1.508-1.854s-.452.154-.905-.464a2.7,2.7,0,0,1,0-2.446A4.881,4.881,0,0,1,3.887,7.156s-.3-.309.452-.927A1.825,1.825,0,0,1,5.4,5.92a1.838,1.838,0,0,1,1.03-1.056,2.462,2.462,0,0,1,1.81-.154,2.131,2.131,0,0,1,1.056-.927,2.024,2.024,0,0,1,1.634.154,2.879,2.879,0,0,1,1.659-.463,1.428,1.428,0,0,1,1.357.618,1.723,1.723,0,0,1,1.357,0,1.5,1.5,0,0,1,.88.927,1.654,1.654,0,0,1,1.207-.155A2.007,2.007,0,0,1,18.44,5.92a2.555,2.555,0,0,1,1.056.309,1.551,1.551,0,0,1,.3.927,1.415,1.415,0,0,1,.88.927,1.3,1.3,0,0,1-.151,1.236A3.7,3.7,0,0,1,21.733,12.075Z" style="fill:#404554"/></svg>