<svg id="icon-hdf" xmlns="http://www.w3.org/2000/svg" viewBox="0 0 24 24"><polygon points="22 22 2 22 2 2 16 2 22 7.96 22 22" fill="#dadada"/><path d="M16,2V6.5A1.5,1.5,0,0,0,17.5,8H22Z" fill="#71747c"/><rect x="7" y="12" width="15" height="6" fill="#063aff"/><path d="M8.81,13h.9v1.54H10.8V13h.9v4h-.9V15.33H9.71V17h-.9Z" fill="#fff"/><path d="M13,13h1.1A1.75,1.75,0,0,1,16,14.57,2,2,0,0,1,16,15a1.77,1.77,0,0,1-1.52,2,2.17,2.17,0,0,1-.36,0H13Zm1,3.27c.63,0,1.05-.33,1.05-1.29s-.42-1.25-1.05-1.25h-.15v2.54Z" fill="#fff"/><path d="M17.34,13H20v.76H18.24v.92h1.5v.76h-1.5V17h-.9Z" fill="#fff"/></svg>