<svg id="artwork" xmlns="http://www.w3.org/2000/svg" viewBox="0 0 24 24"><path d="M21.437,8.384a8.967,8.967,0,0,0-2.258-1.741,13.089,13.089,0,0,0-4.192-1.454,21.819,21.819,0,0,0-2.369-.238,14.531,14.531,0,0,0-3.5.227A12.523,12.523,0,0,0,3.668,7.462c-.342.262-.654.563-.979.847a10.092,10.092,0,0,1,18.748.075Z" style="fill:#f07737"/><path d="M2.7,15.659a10.194,10.194,0,0,0,1.842,1.455A12.641,12.641,0,0,0,7.989,18.55,15.458,15.458,0,0,0,10.8,19a16.038,16.038,0,0,0,6.22-.714,10.8,10.8,0,0,0,4.126-2.378c.105-.1.2-.212.3-.327A10.081,10.081,0,0,1,2.7,15.659Z" style="fill:#f07737"/></svg>