<svg id="artwork" xmlns="http://www.w3.org/2000/svg" xmlns:xlink="http://www.w3.org/1999/xlink" viewBox="0 0 24 24"><defs><linearGradient id="linear-gradient" x1="-252.667" y1="360.079" x2="-252.639" y2="360.052" gradientTransform="matrix(721.094, 0, 0, -482.937, 182198.33, 173899.991)" gradientUnits="userSpaceOnUse"><stop offset="0" stop-color="#cbced0"/><stop offset="1" stop-color="#84838b"/></linearGradient><linearGradient id="linear-gradient-2" x1="-253.108" y1="360.264" x2="-253.08" y2="360.237" gradientTransform="matrix(398, 0, 0, -406.124, 100746.522, 146321.118)" gradientUnits="userSpaceOnUse"><stop offset="0" stop-color="#276dc3"/><stop offset="1" stop-color="#165caa"/></linearGradient></defs><path d="M12,17.683c-5.523,0-10-3-10-6.7s4.477-6.7,10-6.7,10,3,10,6.7S17.523,17.683,12,17.683ZM13.531,6.907c-4.2,0-7.6,2.05-7.6,4.579s3.4,4.578,7.6,4.578,7.3-1.4,7.3-4.578S17.729,6.907,13.531,6.907Z" style="fill:url(#linear-gradient)"/><path d="M17.23,14.662a7.452,7.452,0,0,1,.956.36,1.851,1.851,0,0,1,.486.347,1.31,1.31,0,0,1,.222.319l2.385,4.022H17.424l-1.8-3.385a4.362,4.362,0,0,0-.6-.818.627.627,0,0,0-.458-.208h-.916v4.409H10.24V8.447h6.851s3.12.057,3.12,3.025A3.185,3.185,0,0,1,17.23,14.662ZM15.746,10.89H13.68V12.8h2.067a.945.945,0,0,0,.957-.975A.892.892,0,0,0,15.746,10.89Z" style="fill:url(#linear-gradient-2)"/></svg>