<svg id="artwork" xmlns="http://www.w3.org/2000/svg" xmlns:xlink="http://www.w3.org/1999/xlink" viewBox="0 0 24 24"><defs><linearGradient id="linear-gradient" x1="196.24" y1="-425.869" x2="215.64" y2="-442.56" gradientTransform="matrix(0.563, 0, 0, -0.568, -108.702, -239.265)" gradientUnits="userSpaceOnUse"><stop offset="0" stop-color="#5a9fd4"/><stop offset="1" stop-color="#306998"/></linearGradient><linearGradient id="linear-gradient-2" x1="223.14" y1="-452.662" x2="216.212" y2="-442.861" gradientTransform="matrix(0.563, 0, 0, -0.568, -108.702, -239.265)" gradientUnits="userSpaceOnUse"><stop offset="0" stop-color="#ffd43b"/><stop offset="1" stop-color="#ffe873"/></linearGradient></defs><path id="path1948" d="M11.949,2.047a13.667,13.667,0,0,0-2.28.195c-2.019.357-2.386,1.1-2.386,2.48V6.541h4.772v.606H5.492a2.979,2.979,0,0,0-2.98,2.419,8.914,8.914,0,0,0,0,4.849c.339,1.413,1.149,2.419,2.536,2.419h1.64v-2.18A3.032,3.032,0,0,1,9.669,11.69h4.766A2.4,2.4,0,0,0,16.82,9.265V4.722a2.663,2.663,0,0,0-2.385-2.48A14.8,14.8,0,0,0,11.949,2.047ZM9.369,3.51a.909.909,0,1,1-.9.912A.906.906,0,0,1,9.369,3.51Z" style="fill:url(#linear-gradient)"/><path id="path1950" d="M17.415,7.147V9.265a3.06,3.06,0,0,1-2.98,3.026H9.669a2.434,2.434,0,0,0-2.386,2.424v4.544c0,1.293,1.125,2.053,2.386,2.424a7.979,7.979,0,0,0,4.766,0c1.2-.348,2.385-1.047,2.385-2.424V17.44H12.055v-.606h7.151c1.387,0,1.9-.967,2.386-2.419a8.189,8.189,0,0,0,0-4.849c-.343-1.381-1-2.419-2.386-2.419Zm-2.68,11.505a.91.91,0,1,1-.895.907A.9.9,0,0,1,14.735,18.652Z" style="fill:url(#linear-gradient-2)"/></svg>