<svg id="artwork" xmlns="http://www.w3.org/2000/svg" viewBox="0 0 24 24"><rect x="6.987" y="17" width="5" height="1" rx="0.5" transform="translate(-8.013 26.987) rotate(-90)" style="fill:#2760ff"/><rect x="5.987" y="15" width="7" height="1" rx="0.5" style="fill:#2760ff"/><rect x="4.987" y="18" width="14" height="2" rx="0.5" style="fill:#2760ff"/><rect x="11.749" y="10.09" width="2.085" height="2.292" transform="translate(-4.198 12.335) rotate(-45)" style="fill:#2760ff"/><rect x="17.244" y="4.491" width="2.292" height="2.292" transform="translate(1.401 14.655) rotate(-45)" style="fill:#2760ff"/><rect x="12.689" y="6.181" width="5.73" height="4.584" transform="translate(-1.435 13.48) rotate(-45)" style="fill:#2760ff"/><path d="M15.628,8a7.371,7.371,0,0,1,1.406,4.31,7.706,7.706,0,0,1-3.35,6.245h0c-.174.126-.362.235-.542.354" style="fill:none;stroke:#71747c;stroke-miterlimit:10"/><path d="M15.628,8a7.371,7.371,0,0,1,1.406,4.31,7.706,7.706,0,0,1-3.35,6.245h0c-.174.126-.362.235-.542.354" style="fill:none;stroke:#2760ff;stroke-miterlimit:10"/></svg>