<svg id="Layer_1" data-name="Layer 1" xmlns="http://www.w3.org/2000/svg" xmlns:xlink="http://www.w3.org/1999/xlink" viewBox="0 0 100 80"><defs><mask id="mask" x="89" y="58.998" width="4" height="4" maskUnits="userSpaceOnUse"><g id="mask-2"><polygon id="path-1" points="89 58.998 93 58.998 93 62.998 89 62.998 89 58.998" style="fill:#fff"/></g></mask></defs><g id="Oval-Copy-14"><circle cx="86" cy="17" r="10" style="fill:#eeebfe"/></g><g id="Oval-Copy-15"><circle cx="25" cy="55" r="25" style="fill:#eeebfe"/></g><g id="_-copy-7" data-name="?-copy-7" style="isolation:isolate"><g style="isolation:isolate"><path d="M60.164,27.633c2.063,0,3.453,1.226,3.453,2.9a2.989,2.989,0,0,1-1.64,2.68c-1.008.594-1.3,1.008-1.3,1.812V35.5H59.062l-.007-.625a2.535,2.535,0,0,1,1.507-2.445c.946-.571,1.282-1.024,1.282-1.828a1.583,1.583,0,0,0-1.766-1.532,1.71,1.71,0,0,0-1.844,1.68H56.617C56.687,28.977,57.9,27.633,60.164,27.633ZM58.758,38.008a1.208,1.208,0,1,1,1.211,1.164A1.13,1.13,0,0,1,58.758,38.008Z" style="fill:#5039f7"/></g></g><g id="_-copy-16" data-name="?-copy-16" style="isolation:isolate"><g style="isolation:isolate"><path d="M72.164,38.633c2.063,0,3.453,1.226,3.453,2.9a2.989,2.989,0,0,1-1.64,2.68c-1.008.594-1.3,1.008-1.3,1.812V46.5H71.062l-.007-.625a2.535,2.535,0,0,1,1.507-2.445c.946-.571,1.282-1.024,1.282-1.828a1.583,1.583,0,0,0-1.766-1.532,1.71,1.71,0,0,0-1.844,1.68H68.617C68.687,39.977,69.9,38.633,72.164,38.633ZM70.758,49.008a1.208,1.208,0,1,1,1.211,1.164A1.13,1.13,0,0,1,70.758,49.008Z" style="fill:#5039f7"/></g></g><g id="_-copy-17" data-name="?-copy-17" style="isolation:isolate"><g style="isolation:isolate"><path d="M64.164,12.633c2.063,0,3.453,1.226,3.453,2.9a2.989,2.989,0,0,1-1.64,2.68c-1.008.594-1.3,1.008-1.3,1.812V20.5H63.062l-.007-.625a2.535,2.535,0,0,1,1.507-2.445c.946-.571,1.282-1.024,1.282-1.828a1.583,1.583,0,0,0-1.766-1.532,1.71,1.71,0,0,0-1.844,1.68H60.617C60.687,13.977,61.9,12.633,64.164,12.633ZM62.758,23.008a1.208,1.208,0,1,1,1.211,1.164A1.13,1.13,0,0,1,62.758,23.008Z" style="fill:#5039f7"/></g></g><g id="Shape-Copy-3"><path d="M17.005,20a8.568,8.568,0,0,1-2-.24,7.872,7.872,0,0,1-4.886-3.681A8.073,8.073,0,0,1,9.235,10a7.865,7.865,0,0,1,3.684-4.881,8.1,8.1,0,0,1,6.088-.881,7.873,7.873,0,0,1,4.886,3.682,8.032,8.032,0,0,1-2.8,10.964A8.259,8.259,0,0,1,17.005,20Zm0-14.4a6.411,6.411,0,0,0-6.168,4.8,6.889,6.889,0,0,0,.641,4.881A6.427,6.427,0,0,0,22.532,8.716,6.478,6.478,0,0,0,17.005,5.6Z" style="fill:#5039f7"/></g><g id="Shape-Copy-7"><path d="M65.325,74.262a4,4,0,1,1,4-4A4.012,4.012,0,0,1,65.325,74.262Zm0-7a3,3,0,1,0,3,3A2.946,2.946,0,0,0,65.325,67.262Z" style="fill:#5039f7"/></g><g id="bf-dots-copy-4"><g id="Fill-27-Copy"><path d="M84,59H71a2,2,0,0,0,0,4H84a2,2,0,0,0,0-4" style="fill:#5039f7"/></g><g id="Group-31-Copy"><g style="mask:url(#mask)"><g id="Fill-29"><path d="M93,61a2,2,0,1,1-2-2,2,2,0,0,1,2,2" style="fill:#5039f7"/></g></g></g></g><g id="Oval-3-Copy-6"><path d="M30,79A25.044,25.044,0,1,1,55,53.956,25.05,25.05,0,0,1,30,79Zm0-48.087A23.044,23.044,0,1,0,53,53.956,23.048,23.048,0,0,0,30,30.913Z"/></g><g id="Oval-3-Copy-7"><path d="M89.027,20.918a10,10,0,1,1,10-10A10.011,10.011,0,0,1,89.027,20.918Zm0-18a8,8,0,1,0,8,8A8.009,8.009,0,0,0,89.027,2.918Z"/></g></svg>