<?xml version="1.0" encoding="utf-8"?>
<!-- Generator: Adobe Illustrator 22.1.0, SVG Export Plug-In . SVG Version: 6.00 Build 0)  -->
<svg version="1.1" id="Layer_1" xmlns="http://www.w3.org/2000/svg" xmlns:xlink="http://www.w3.org/1999/xlink" x="0px" y="0px"
	 viewBox="0 0 217 96" style="enable-background:new 0 0 217 96;" xml:space="preserve">
<style type="text/css">
	.st0{fill:#DADADA;}
	.st1{fill:#DAE0F0;}
	.st2{fill:#F1F1F3;}
</style>
<title>emptystate - dataset over time</title>
<g id="dataset_over_time">
	<g id="_vertical-lines_">
		<rect x="8" y="0.5" class="st0" width="1" height="1"/>
		<rect x="8" y="19.5" class="st0" width="1" height="2"/>
		<rect x="8" y="23.5" class="st0" width="1" height="2"/>
		<rect x="8" y="75.5" class="st0" width="1" height="2"/>
		<rect x="8" y="31.5" class="st0" width="1" height="2"/>
		<rect x="8" y="7.5" class="st0" width="1" height="2"/>
		<rect x="8" y="15.5" class="st0" width="1" height="2"/>
		<rect x="8" y="3.5" class="st0" width="1" height="2"/>
		<rect x="8" y="11.5" class="st0" width="1" height="2"/>
		<rect x="8" y="35.5" class="st0" width="1" height="2"/>
		<rect x="8" y="59.5" class="st0" width="1" height="2"/>
		<rect x="8" y="67.5" class="st0" width="1" height="2"/>
		<rect x="8" y="39.5" class="st0" width="1" height="2"/>
		<rect x="8" y="71.5" class="st0" width="1" height="2"/>
		<rect x="8" y="63.5" class="st0" width="1" height="2"/>
		<rect x="8" y="43.5" class="st0" width="1" height="2"/>
		<rect x="8" y="47.5" class="st0" width="1" height="2"/>
		<rect x="8" y="51.5" class="st0" width="1" height="2"/>
		<rect x="8" y="55.5" class="st0" width="1" height="2"/>
		<rect x="8" y="27.5" class="st0" width="1" height="2"/>
		<rect x="8" y="79.5" class="st0" width="1" height="1"/>
		<rect x="72" y="0.5" class="st0" width="1" height="1"/>
		<rect x="72" y="23.5" class="st0" width="1" height="2"/>
		<rect x="72" y="31.5" class="st0" width="1" height="2"/>
		<rect x="72" y="27.5" class="st0" width="1" height="2"/>
		<rect x="72" y="35.5" class="st0" width="1" height="2"/>
		<rect x="72" y="39.5" class="st0" width="1" height="2"/>
		<rect x="72" y="15.5" class="st0" width="1" height="2"/>
		<rect x="72" y="19.5" class="st0" width="1" height="2"/>
		<rect x="72" y="7.5" class="st0" width="1" height="2"/>
		<rect x="72" y="11.5" class="st0" width="1" height="2"/>
		<rect x="72" y="43.5" class="st0" width="1" height="2"/>
		<rect x="72" y="71.5" class="st0" width="1" height="2"/>
		<rect x="72" y="3.5" class="st0" width="1" height="2"/>
		<rect x="72" y="67.5" class="st0" width="1" height="2"/>
		<rect x="72" y="75.5" class="st0" width="1" height="2"/>
		<rect x="72" y="63.5" class="st0" width="1" height="2"/>
		<rect x="72" y="47.5" class="st0" width="1" height="2"/>
		<rect x="72" y="51.5" class="st0" width="1" height="2"/>
		<rect x="72" y="59.5" class="st0" width="1" height="2"/>
		<rect x="72" y="55.5" class="st0" width="1" height="2"/>
		<rect x="72" y="79.5" class="st0" width="1" height="1"/>
		<rect x="138" y="0.5" class="st0" width="1" height="1"/>
		<rect x="138" y="71.5" class="st0" width="1" height="2"/>
		<rect x="138" y="23.5" class="st0" width="1" height="2"/>
		<rect x="138" y="31.5" class="st0" width="1" height="2"/>
		<rect x="138" y="27.5" class="st0" width="1" height="2"/>
		<rect x="138" y="35.5" class="st0" width="1" height="2"/>
		<rect x="138" y="11.5" class="st0" width="1" height="2"/>
		<rect x="138" y="39.5" class="st0" width="1" height="2"/>
		<rect x="138" y="7.5" class="st0" width="1" height="2"/>
		<rect x="138" y="19.5" class="st0" width="1" height="2"/>
		<rect x="138" y="15.5" class="st0" width="1" height="2"/>
		<rect x="138" y="47.5" class="st0" width="1" height="2"/>
		<rect x="138" y="67.5" class="st0" width="1" height="2"/>
		<rect x="138" y="63.5" class="st0" width="1" height="2"/>
		<rect x="138" y="59.5" class="st0" width="1" height="2"/>
		<rect x="138" y="75.5" class="st0" width="1" height="2"/>
		<rect x="138" y="51.5" class="st0" width="1" height="2"/>
		<rect x="138" y="55.5" class="st0" width="1" height="2"/>
		<rect x="138" y="3.5" class="st0" width="1" height="2"/>
		<rect x="138" y="43.5" class="st0" width="1" height="2"/>
		<rect x="138" y="79.5" class="st0" width="1" height="1"/>
		<rect x="204" y="79.5" class="st0" width="1" height="1"/>
		<rect x="204" y="23.5" class="st0" width="1" height="2"/>
		<rect x="204" y="19.5" class="st0" width="1" height="2"/>
		<rect x="204" y="31.5" class="st0" width="1" height="2"/>
		<rect x="204" y="27.5" class="st0" width="1" height="2"/>
		<rect x="204" y="15.5" class="st0" width="1" height="2"/>
		<rect x="204" y="7.5" class="st0" width="1" height="2"/>
		<rect x="204" y="35.5" class="st0" width="1" height="2"/>
		<rect x="204" y="3.5" class="st0" width="1" height="2"/>
		<rect x="204" y="11.5" class="st0" width="1" height="2"/>
		<rect x="204" y="55.5" class="st0" width="1" height="2"/>
		<rect x="204" y="39.5" class="st0" width="1" height="2"/>
		<rect x="204" y="71.5" class="st0" width="1" height="2"/>
		<rect x="204" y="75.5" class="st0" width="1" height="2"/>
		<rect x="204" y="63.5" class="st0" width="1" height="2"/>
		<rect x="204" y="67.5" class="st0" width="1" height="2"/>
		<rect x="204" y="43.5" class="st0" width="1" height="2"/>
		<rect x="204" y="47.5" class="st0" width="1" height="2"/>
		<rect x="204" y="59.5" class="st0" width="1" height="2"/>
		<rect x="204" y="51.5" class="st0" width="1" height="2"/>
		<rect x="204" y="0.5" class="st0" width="1" height="1"/>
	</g>
	<rect x="8" y="79.8" transform="matrix(1 -3.839715e-03 3.839715e-03 1 -0.3074 0.4095)" class="st0" width="197" height="1"/>
	<path class="st1" d="M11,79c-0.6,0-1.1-0.4-1.4-0.9c-0.3-0.7,0-1.6,0.7-2c0,0,0,0,0.1,0l61.4-25.6l32.1-21.7
		c0.4-0.3,0.9-0.3,1.3-0.2l33.2,10.8l49.7-26.7c0.7-0.4,1.6-0.2,2.1,0.5c0.4,0.7,0.2,1.6-0.5,2.1c0,0-0.1,0-0.1,0.1l-50.3,27
		c-0.4,0.2-0.8,0.2-1.2,0.1L105,31.6L73.3,53c-0.1,0.1-0.2,0.1-0.3,0.1L11.6,78.8C11.4,78.9,11.2,79,11,79z"/>
	<g id="_skel-text-group_">
		<path class="st2" d="M129.2,86.8h16.9c1.7,0,3,1.3,3,3V92c0,1.7-1.3,3-3,3h-16.9c-1.7,0-3-1.3-3-3v-2.2
			C126.2,88.2,127.5,86.8,129.2,86.8z"/>
		<path class="st2" d="M4,86.8h17c1.7,0,3,1.3,3,3V92c0,1.7-1.3,3-3,3H4c-1.7,0-3-1.3-3-3v-2.2C1,88.2,2.3,86.8,4,86.8z"/>
		<path class="st2" d="M208.2,86.8h-20.3c-1.5,0.2-2.6,1.5-2.5,3V92c-0.1,1.5,1,2.8,2.5,3h20.3c1.5-0.2,2.6-1.5,2.5-3v-2.2
			C210.8,88.3,209.7,87,208.2,86.8z"/>
		<path class="st2" d="M54.4,86.8h33c1.7,0,3,1.3,3,3V92c0,1.7-1.3,3-3,3h-33c-1.7,0-3-1.3-3-3v-2.2C51.4,88.2,52.8,86.8,54.4,86.8z
			"/>
	</g>
</g>
</svg>
