<svg id="Layer_1" data-name="Layer 1" xmlns="http://www.w3.org/2000/svg" xmlns:xlink="http://www.w3.org/1999/xlink" viewBox="0 0 120 80"><defs><mask id="mask" x="20.083" y="44.998" width="4" height="4" maskUnits="userSpaceOnUse"><g id="mask-2"><polygon id="path-1" points="20.083 44.998 24.083 44.998 24.083 48.998 20.083 48.998 20.083 44.998" style="fill:#fff"/></g></mask><mask id="mask-2-2" x="77.083" y="56" width="23" height="24" maskUnits="userSpaceOnUse"><g id="mask-4"><polygon id="path-3" points="77.083 56 100.083 56 100.083 80 77.083 80 77.083 56" style="fill:#fff"/></g></mask></defs><g id="Shape"><path d="M22.856,18.569a9.4,9.4,0,0,1-2.194-.263,8.634,8.634,0,0,1-5.356-4.043,8.88,8.88,0,0,1-.965-6.678,8.638,8.638,0,0,1,4.038-5.361,8.861,8.861,0,0,1,6.672-.967A8.638,8.638,0,0,1,30.407,5.3a8.83,8.83,0,0,1-3.073,12.039A9.033,9.033,0,0,1,22.856,18.569Zm0-15.818A7.031,7.031,0,0,0,16.1,8.024a7.584,7.584,0,0,0,.7,5.361A7.048,7.048,0,1,0,28.914,6.179,7.1,7.1,0,0,0,22.856,2.751Z" style="fill:#5039f7"/></g><g id="Oval"><ellipse cx="23.083" cy="46.284" rx="18.266" ry="18.284" style="fill:#eeebfe"/></g><g id="Fill-3-Copy"><path d="M118.083,46.5A27.5,27.5,0,1,1,90.583,19a27.5,27.5,0,0,1,27.5,27.5" style="fill:#eeebfe"/></g><g id="document"><path d="M88.039,11.917c0-.022,0-.022-.022-.044a1.4,1.4,0,0,1-.044-.154c0-.022-.022-.044-.022-.066a.451.451,0,0,0-.066-.109c-.021-.022-.021-.044-.043-.066s-.044-.066-.088-.088l-.022-.022L76.037,1.264c-.022-.022-.044-.022-.044-.044-.022-.022-.044-.044-.066-.044a.167.167,0,0,0-.088-.044c-.022-.022-.044-.022-.066-.044-.044-.022-.066-.022-.11-.044-.022,0-.044-.022-.066-.022A.609.609,0,0,0,75.4,1H38.073a.985.985,0,0,0-.99.988V72.147a.985.985,0,0,0,.99.988H87.094a.984.984,0,0,0,.989-.988V12.137C88.061,12.049,88.061,11.983,88.039,11.917ZM76.367,4.185l8.045,6.963H76.367ZM39.062,71.2V3.021H74.41v9.116a.985.985,0,0,0,.989.988H86.105V71.2Z"/></g><g id="Shape-2" data-name="Shape"><path d="M25.579,80a4.5,4.5,0,1,1,4.5-4.5A4.5,4.5,0,0,1,25.579,80Zm0-8.211A3.711,3.711,0,1,0,29.286,75.5,3.7,3.7,0,0,0,25.579,71.789Z" style="fill:#5039f7"/></g><g id="Fill-27-Copy"><path d="M15.083,45h-13a2,2,0,1,0,0,4h13a2,2,0,0,0,0-4" style="fill:#5039f7"/></g><g id="Group-31-Copy"><g style="mask:url(#mask)"><g id="Fill-29"><path d="M24.083,47a2,2,0,1,1-2-2,2,2,0,0,1,2,2" style="fill:#5039f7"/></g></g></g><g id="Shape-3" data-name="Shape"><path d="M107.909,13.658a3.829,3.829,0,1,1,3.825-3.829A3.839,3.839,0,0,1,107.909,13.658Zm0-6.7a2.872,2.872,0,1,0,2.869,2.872A2.82,2.82,0,0,0,107.909,6.957Z" style="fill:#5039f7"/></g><g id="icon-add-template"><g id="_circle_" data-name=" circle "><g id="Shape-4" data-name="Shape"><path d="M80.03,41.1a16.273,16.273,0,0,0,.2-2.6.925.925,0,0,1,.925-.925A18.12,18.12,0,0,0,80.8,34.8a.774.774,0,0,1-.2,0,.925.925,0,0,1-.925-.684,15.438,15.438,0,0,0-.879-2.461.925.925,0,0,1,.435-1.193,17.344,17.344,0,0,0-1.461-2.34.881.881,0,0,1-1.231-.149,17.373,17.373,0,0,0-1.85-1.85.925.925,0,0,1-.092-1.276A17.218,17.218,0,0,0,72.315,23.3a.916.916,0,0,1-1.221.37,16.515,16.515,0,0,0-2.414-.99.924.924,0,0,1-.6-1.119,17.825,17.825,0,0,0-2.71-.509.927.927,0,0,1-.925.852,17.6,17.6,0,0,0-2.618.074h-.093a.926.926,0,0,1-.925-.787,18.58,18.58,0,0,0-2.682.639A.925.925,0,0,1,57.589,23a17.216,17.216,0,0,0-2.331,1.1.906.906,0,0,1-1.239-.3,16.872,16.872,0,0,0-2.211,1.692.926.926,0,0,1,0,1.268,17.305,17.305,0,0,0-1.72,1.988.927.927,0,0,1-.75.389.917.917,0,0,1-.508-.167A18,18,0,0,0,47.516,31.4a.925.925,0,0,1,.509,1.165,16.235,16.235,0,0,0-.74,2.507.925.925,0,0,1-.925.74h-.139a17.594,17.594,0,0,0-.213,2.692.925.925,0,0,1,.925.925,16.26,16.26,0,0,0,.343,2.59.925.925,0,0,1-.676,1.073,16.7,16.7,0,0,0,.925,2.6.924.924,0,0,1,1.258.4,17.674,17.674,0,0,0,1.369,2.22.924.924,0,0,1-.2,1.3,16.2,16.2,0,0,0,1.905,1.989.925.925,0,0,1,1.268-.139,16.16,16.16,0,0,0,2.136,1.48.925.925,0,0,1,.352,1.23,17.548,17.548,0,0,0,2.544,1.055.924.924,0,0,1,1.119-.629,14.97,14.97,0,0,0,2.571.471.926.926,0,0,1,.814,1.018h.925a17.319,17.319,0,0,0,1.85-.1.926.926,0,0,1,.768-1.027,17.1,17.1,0,0,0,2.544-.61.926.926,0,0,1,1.138.555,17.6,17.6,0,0,0,2.488-1.184.925.925,0,0,1,.287-1.249,16.44,16.44,0,0,0,2.072-1.591.924.924,0,0,1,1.285.056,16.858,16.858,0,0,0,1.776-2.109.925.925,0,0,1-.24-1.249A16.689,16.689,0,0,0,78.8,45.271a.924.924,0,0,1,1.174-.481,16.047,16.047,0,0,0,.8-2.59.924.924,0,0,1-.74-1.1Z" style="fill:#f9f9f8"/></g><g id="Shape-5" data-name="Shape"><path d="M81.158,37.575a.925.925,0,0,0-.925.925,16.273,16.273,0,0,1-.2,2.6.925.925,0,0,0,.74,1.055h.176a.926.926,0,0,0,.925-.786,18.729,18.729,0,0,0,.212-2.868v-.074A.924.924,0,0,0,81.158,37.575Z" style="fill:#eeebfe"/></g><g id="Shape-6" data-name="Shape"><path d="M61.863,55.057a14.982,14.982,0,0,1-2.572-.471.913.913,0,1,0-.462,1.767,17.3,17.3,0,0,0,2.849.517h.055a.924.924,0,0,0,.925-.832h0A.925.925,0,0,0,61.863,55.057Z" style="fill:#eeebfe"/></g><g id="Shape-7" data-name="Shape"><path d="M50.125,48.305a17.627,17.627,0,0,1-1.342-2.22.9.9,0,1,0-1.6.823,18.311,18.311,0,0,0,1.526,2.47.888.888,0,1,0,1.416-1.073Z" style="fill:#eeebfe"/></g><g id="Shape-8" data-name="Shape"><path d="M47.3,42a16.4,16.4,0,0,1-.37-2.572.9.9,0,1,0-1.8,0,17.64,17.64,0,0,0,.379,2.877.924.924,0,0,0,.925.73.631.631,0,0,0,.194,0A.923.923,0,0,0,47.3,42Z" style="fill:#eeebfe"/></g><g id="Shape-9" data-name="Shape"><path d="M68.745,54.336a17.1,17.1,0,0,1-2.544.61.912.912,0,0,0,.157,1.813H66.5a17.418,17.418,0,0,0,2.821-.684.916.916,0,1,0-.573-1.739Z" style="fill:#eeebfe"/></g><g id="Shape-10" data-name="Shape"><path d="M78.8,45.271a16.689,16.689,0,0,1-1.249,2.294.907.907,0,1,0,1.526.98,19.019,19.019,0,0,0,1.388-2.552.926.926,0,0,0-.472-1.222h-.046A.925.925,0,0,0,78.8,45.271Z" style="fill:#eeebfe"/></g><g id="Shape-11" data-name="Shape"><path d="M74.73,50.867a16.44,16.44,0,0,1-2.072,1.591.906.906,0,1,0,.989,1.517,18.421,18.421,0,0,0,2.3-1.767.907.907,0,1,0-1.221-1.341Z" style="fill:#eeebfe"/></g><g id="Shape-12" data-name="Shape"><path d="M55.258,52.93a16.16,16.16,0,0,1-2.136-1.48.908.908,0,1,0-1.138,1.415,19.29,19.29,0,0,0,2.349,1.675.929.929,0,1,0,.925-1.61Z" style="fill:#eeebfe"/></g><g id="Shape-13" data-name="Shape"><path d="M74.683,26.087a17.189,17.189,0,0,1,1.85,1.85A.9.9,0,1,0,77.921,26.8a18.788,18.788,0,0,0-2.007-2.1.928.928,0,1,0-1.231,1.388Z" style="fill:#eeebfe"/></g><g id="Shape-14" data-name="Shape"><path d="M78.772,31.664a15.637,15.637,0,0,1,.879,2.461.924.924,0,0,0,.925.684.767.767,0,0,0,.2,0,.925.925,0,0,0,.648-1.128,18.9,18.9,0,0,0-.925-2.775.945.945,0,0,0-1.73.758Z" style="fill:#eeebfe"/></g><g id="Shape-15" data-name="Shape"><path d="M68.68,22.645a16.515,16.515,0,0,1,2.414.99.915.915,0,0,0,1.291-1.1.92.92,0,0,0-.477-.551,17.741,17.741,0,0,0-2.664-1.064.905.905,0,1,0-.564,1.72Z" style="fill:#eeebfe"/></g><g id="Shape-16" data-name="Shape"><path d="M54.759,24.227a.917.917,0,0,0,.462-.129,17.08,17.08,0,0,1,2.35-1.129.887.887,0,1,0-.657-1.646A20.051,20.051,0,0,0,54.333,22.5a.93.93,0,0,0,.426,1.73Z" style="fill:#eeebfe"/></g><g id="Shape-17" data-name="Shape"><path d="M50.088,28.741a17.333,17.333,0,0,1,1.692-1.988.926.926,0,0,0,0-1.268h0a.926.926,0,0,0-1.313,0,19.346,19.346,0,0,0-1.85,2.211.9.9,0,1,0,1.471,1.045Z" style="fill:#eeebfe"/></g><g id="Shape-18" data-name="Shape"><path d="M61.733,21.952h.093a17.655,17.655,0,0,1,2.581-.1A.925.925,0,0,0,65.332,21h0a.925.925,0,0,0-.925-.925,19.054,19.054,0,0,0-2.9.083.925.925,0,0,0-.7.962.124.124,0,0,1,0,.047A.925.925,0,0,0,61.733,21.952Z" style="fill:#eeebfe"/></g><g id="Shape-19" data-name="Shape"><path d="M47.285,35.068a16.235,16.235,0,0,1,.74-2.507.907.907,0,0,0-1.7-.629,19.438,19.438,0,0,0-.823,2.776.922.922,0,0,0,.721,1.1h.185A.926.926,0,0,0,47.285,35.068Z" style="fill:#eeebfe"/></g></g><g id="_plus_" data-name=" plus "><path d="M70.672,37.588H65.5V32.412a1.412,1.412,0,1,0-2.823,0v5.176H57.5a1.412,1.412,0,0,0,0,2.824h5.177v5.176a1.412,1.412,0,1,0,2.823,0V40.412h5.177a1.412,1.412,0,0,0,0-2.824Z" style="fill:#5039f7"/></g></g><g id="Group-3-Copy"><g style="mask:url(#mask-2-2)"><g id="Fill-1"><path d="M97.5,63.8l-18.9-7.715a1.076,1.076,0,0,0-1.456,1.3l6.273,19a1.1,1.1,0,0,0,1.973.213L87.5,73.1a1.1,1.1,0,0,1,1.739-.179l6.349,6.738a1.108,1.108,0,0,0,1.537.064l2.6-2.326a1.04,1.04,0,0,0,.066-1.5L93.448,69.16a1.044,1.044,0,0,1,.331-1.671l3.766-1.756A1.049,1.049,0,0,0,97.5,63.8" style="fill:#5039f7"/></g></g></g></svg>