<?xml version="1.0" encoding="utf-8"?>
<!-- Generator: Adobe Illustrator 22.0.1, SVG Export Plug-In . SVG Version: 6.00 Build 0)  -->
<svg version="1.1" id="Layer_1" xmlns="http://www.w3.org/2000/svg" xmlns:xlink="http://www.w3.org/1999/xlink" x="0px" y="0px"
	 viewBox="0 0 720 720" style="enable-background:new 0 0 720 720;" xml:space="preserve">
<style type="text/css">
	.st0{fill:#E5C6E2;}
	.st1{fill:#2760FF;}
	.st2{fill:#E9DBFF;}
	.st3{fill:#DBB7FD;}
	.st4{fill:#071640;}
</style>
<title>clinical-trial</title>
<path class="st0" d="M562.3,398.1c-4.9,0-8.9,4-8.9,8.9c0,1.4,0.3,2.8,1,4L360.8,563.9l-78.9-115.8c-0.3-0.4-0.9-0.6-1.4-0.3
	L168,519c-0.5,0.3-0.6,0.9-0.3,1.4s0.9,0.6,1.4,0.3L280.8,450l79,115.9c0.2,0.2,0.4,0.4,0.7,0.4c0.1,0,0.1,0,0.2,0
	c0.2,0,0.4-0.1,0.6-0.2l194.2-153.5c1.6,2,4.1,3.2,6.9,3.2c4.9,0,8.9-4,8.9-8.9C571.3,402.1,567.3,398.1,562.3,398.1z M562.3,413.9
	c-3.8,0-6.9-3.1-6.9-6.9s3.1-6.9,6.9-6.9s6.9,3.1,6.9,6.9S566.2,413.9,562.3,413.9z"/>
<circle class="st1" cx="523.8" cy="345.7" r="17.7"/>
<path class="st1" d="M572.2,267.3c-9.8,0-17.7,7.9-17.7,17.7c0,4.3,1.5,8.3,4.1,11.4l-34.4,42.9l-39.6-32.9c1.1-2.3,1.7-4.8,1.7-7.5
	c0-9.8-7.9-17.7-17.7-17.7c-9.8,0-17.7,7.9-17.7,17.7c0,2.5,0.5,4.8,1.4,7L423,334.1c-2.9-2.1-6.4-3.3-10.2-3.3
	c-9.8,0-17.7,7.9-17.7,17.7c0,9.8,7.9,17.7,17.7,17.7c9.8,0,17.7-7.9,17.7-17.7c0-2.7-0.6-5.2-1.7-7.5l29-28c3,2.3,6.7,3.6,10.7,3.6
	c3.8,0,7.4-1.2,10.3-3.3l43.2,35.8c0.9,0.8,2.1,1.1,3.3,1s2.3-0.7,3.1-1.7l37.6-46.8c1.9,0.7,4.1,1.2,6.3,1.2
	c9.8,0,17.7-7.9,17.7-17.7C589.9,275.3,582,267.3,572.2,267.3z"/>
<circle class="st2" cx="441.7" cy="173.8" r="38.2"/>
<circle class="st2" cx="116.6" cy="365.8" r="29.1"/>
<circle class="st2" cx="494.1" cy="551.8" r="13.5"/>
<path class="st0" d="M158,540.7c-7.1,0-12.8-5.8-12.8-12.8S150.9,515,158,515s12.8,5.8,12.8,12.8S165,540.7,158,540.7z M158,517
	c-6,0-10.8,4.9-10.8,10.8s4.9,10.8,10.8,10.8c6,0,10.8-4.9,10.8-10.8S163.9,517,158,517z"/>
<path class="st0" d="M292.9,190.4c-8.5,0-15.4-6.9-15.4-15.4s6.9-15.4,15.4-15.4s15.4,6.9,15.4,15.4S301.4,190.4,292.9,190.4z
	 M292.9,161.6c-7.4,0-13.4,6-13.4,13.4s6,13.4,13.4,13.4s13.4-6,13.4-13.4S300.3,161.6,292.9,161.6z"/>
<path class="st0" d="M135.7,213.1h-7.1c-0.6,0-1-0.4-1-1V205c0-0.6,0.4-1,1-1h7.1c0.6,0,1,0.4,1,1v7.1
	C136.7,212.6,136.2,213.1,135.7,213.1z M129.6,211.1h5.1V206h-5.1V211.1z"/>
<path class="st0" d="M135.7,220.5h-7.1c-0.6,0-1-0.4-1-1s0.4-1,1-1h7.1c0.6,0,1,0.4,1,1S136.2,220.5,135.7,220.5z"/>
<path class="st0" d="M135.7,236.2h-7.1c-0.6,0-1-0.4-1-1s0.4-1,1-1h7.1c0.6,0,1,0.4,1,1S136.2,236.2,135.7,236.2z"/>
<path class="st0" d="M131.8,244.1h-3.2c-0.6,0-1-0.4-1-1s0.4-1,1-1h3.2c0.6,0,1,0.4,1,1S132.4,244.1,131.8,244.1z"/>
<path class="st0" d="M135.7,228.4h-7.1c-0.6,0-1-0.4-1-1s0.4-1,1-1h7.1c0.6,0,1,0.4,1,1S136.2,228.4,135.7,228.4z"/>
<g>
	<path class="st0" d="M583.5,541.5c-4.7,0-8.8,2.1-11.6,5.4L171.2,249.1c-0.2-0.1-0.4-0.2-0.6-0.2h-47.2v-64.2H195v64.2h-15.6
		c-0.6,0-1,0.4-1,1s0.4,1,1,1H196c0.6,0,1-0.4,1-1v-66.2c0-0.6-0.4-1-1-1h-73.6c-0.6,0-1,0.4-1,1v66.2c0,0.6,0.4,1,1,1h47.9
		l400.5,297.7c-1.5,2.3-2.4,5.1-2.4,8.1c0,8.3,6.8,15.1,15.1,15.1s15.1-6.8,15.1-15.1S591.8,541.5,583.5,541.5z M583.5,569.8
		c-7.2,0-13.1-5.9-13.1-13.1c0-2.5,0.7-4.9,2-6.9l5.4,4c0.2,0.1,0.4,0.2,0.6,0.2c-0.4,0.8-0.7,1.7-0.7,2.7c0,3.2,2.6,5.8,5.8,5.8
		s5.8-2.6,5.8-5.8s-2.6-5.8-5.8-5.8c-1.7,0-3.2,0.7-4.2,1.8c-0.1-0.2-0.2-0.3-0.3-0.5l-5.4-4c2.4-2.8,6-4.6,10-4.6
		c7.2,0,13.1,5.9,13.1,13.1S590.7,569.8,583.5,569.8z M579.7,556.6c0-2.1,1.7-3.8,3.8-3.8s3.8,1.7,3.8,3.8s-1.7,3.8-3.8,3.8
		S579.7,558.7,579.7,556.6z"/>
	<path class="st0" d="M190.4,243.1v-52.6c0-0.6-0.4-1-1-1h-47.3c-0.6,0-1,0.4-1,1v52.6c0,0.6,0.4,1,1,1h47.3
		C189.9,244.1,190.4,243.6,190.4,243.1z M188.4,242.1h-45.3v-21.8c0.2,0.1,0.3,0.2,0.6,0.2h5.8c0.4,0,0.8-0.2,0.9-0.6l2.4-5.8
		l4.1,13c0.1,0.4,0.6,0.7,1,0.7s0.8-0.3,0.9-0.7l6.5-22.4l8.4,33c0.1,0.4,0.5,0.7,1,0.8l0,0c0.4,0,0.8-0.3,1-0.7l5.6-20.4l1,2.3
		c0.2,0.4,0.5,0.6,0.9,0.6h3.6c0.6,0,1-0.4,1-1s-0.4-1-1-1h-3l-1.9-4.2c-0.2-0.4-0.6-0.6-1-0.6s-0.8,0.3-0.9,0.7l-5.4,19.4
		l-8.4-32.9c-0.1-0.4-0.5-0.7-1-0.8c-0.4,0-0.9,0.3-1,0.7l-6.6,22.7l-4-12.5c-0.1-0.4-0.5-0.7-0.9-0.7s-0.8,0.2-1,0.6l-3.2,7.8h-5.1
		c-0.2,0-0.4,0.1-0.6,0.2v-27.2h45.3v50.6H188.4z"/>
</g>
<circle class="st2" cx="360.6" cy="565.3" r="19"/>
<path class="st3" d="M376.1,554.4c-0.4-0.5-0.8-1.1-1.2-1.6l-14.1,11.1l-10.1-14.8c-0.6,0.3-1.1,0.7-1.7,1.1l10.7,15.7
	c0.2,0.2,0.4,0.4,0.7,0.4c0.1,0,0.1,0,0.2,0c0.2,0,0.4-0.1,0.6-0.2L376.1,554.4z"/>
<path class="st0" d="M212.8,379.6c-4.5,0-8.1-3.6-8.1-8.1s3.6-8.1,8.1-8.1s8.1,3.6,8.1,8.1C220.9,376,217.2,379.6,212.8,379.6z
	 M212.8,365.4c-3.4,0-6.1,2.8-6.1,6.1c0,3.4,2.8,6.1,6.1,6.1s6.1-2.8,6.1-6.1C218.9,368.1,216.1,365.4,212.8,365.4z"/>
<path class="st0" d="M526.4,235.6c-8.9,0-16.1-7.2-16.1-16.1s7.2-16.1,16.1-16.1s16.1,7.2,16.1,16.1S535.3,235.6,526.4,235.6z
	 M526.4,205.4c-7.8,0-14.1,6.3-14.1,14.1s6.3,14.1,14.1,14.1s14.1-6.3,14.1-14.1S534.1,205.4,526.4,205.4z"/>
<path class="st0" d="M533.7,215.8c-1.4-2.7-4-4.4-7-4.5l0.1-2c3.7,0.1,7.1,2.2,8.7,5.5L533.7,215.8z"/>
<rect x="202.7" y="297.2" transform="matrix(0.9034 -0.4288 0.4288 0.9034 -92.4705 185.8581)" class="st0" width="327.1" height="2"/>
<g id="_x3C_clipboard_x3E_">
	<path class="st4" d="M295.1,421.6c0,2.5,2,4.5,4.5,4.5h121.7c2.5,0,4.5-2,4.5-4.5s-2-4.5-4.5-4.5H299.6
		C297.1,417.1,295.1,419.1,295.1,421.6z"/>
	<path class="st4" d="M299.6,465.8h121.7c2.5,0,4.5-2,4.5-4.5s-2-4.5-4.5-4.5H299.6c-2.5,0-4.5,2-4.5,4.5S297.1,465.8,299.6,465.8z"
		/>
	<path class="st4" d="M413.1,247.3v-22.2h-27.4v-0.6c0-14.1-11.5-25.5-25.5-25.5s-25.5,11.5-25.5,25.5v0.6h-27.8v22.2h-55.6V521
		h44.4c2.5,0,4.5-2,4.5-4.5s-2-4.5-4.5-4.5h-35.4V256.3h46.6v18.5h106.3v-18.5H460V512H339.1c-2.5,0-4.5,2-4.5,4.5s2,4.5,4.5,4.5
		h129.8V247.3H413.1z M404.1,265.8h-88.3v-31.7h27.8v-9.6c0-9.1,7.4-16.5,16.5-16.5s16.5,7.4,16.5,16.5v9.6H404v31.7H404.1z"/>
	<path class="st4" d="M404.9,383.9c-2.5,0-4.5,2-4.5,4.5s2,4.5,4.5,4.5h12.6c2.5,0,4.5-2,4.5-4.5v-88.6c0-2.5-2-4.5-4.5-4.5H303.6
		c-2.5,0-4.5,2-4.5,4.5v88.6c0,2.5,2,4.5,4.5,4.5h84.8c1.3,0,2.5-0.6,3.4-1.5c0.9-1,1.2-2.3,1.1-3.6l-6.7-50
		c-0.9-7.1-4.9-13.4-11-17.1l-0.1-0.1c-4.1-2.4-8.8-3.5-13.5-3.4c-2.1,0-9.1,0.2-15.3,2.7c-9.8,3.9-11.3,10.7-11.3,14.4
		c0,4.2-1.1,8.4-3.1,12.1l-0.9,1.7c0,0-0.1,0.1-0.1,0.2c-0.8,1.6-1,3.5-0.5,5.2c0.5,1.8,1.7,3.2,3.4,4.1c0.5,0.2,0.8,0.7,0.7,1.3
		c-0.1,4,0.6,9.6,4.6,13.7c3,3.1,7.3,4.7,12.7,4.7c2.5,0,4.5-2,4.5-4.5s-2-4.5-4.5-4.5c-2.9,0-5-0.7-6.3-2c-1.9-2-2.1-5.3-2-7.2
		c0.1-3.2-1.4-6.3-3.8-8.3v-0.1c2.7-5,4.1-10.7,4.1-16.4c0-6.6,12.8-8.1,17.7-8.1h0.1c3.1-0.1,6.1,0.7,8.7,2.2
		c3.8,2.4,6.2,6.2,6.8,10.6l6,44.9H308v-79.6h105v79.6L404.9,383.9L404.9,383.9z"/>
</g>
<circle class="st2" cx="562.3" cy="407" r="19.8"/>
<path class="st3" d="M562.3,398.1c-4.9,0-8.9,4-8.9,8.9c0,1.4,0.3,2.8,1,4l-8.6,6.8c0.4,0.6,0.8,1.1,1.2,1.6l8.5-6.7
	c1.6,2,4.1,3.2,6.9,3.2c4.9,0,8.9-4,8.9-8.9C571.3,402.1,567.3,398.1,562.3,398.1z M562.3,413.9c-3.8,0-6.9-3.1-6.9-6.9
	s3.1-6.9,6.9-6.9s6.9,3.1,6.9,6.9S566.2,413.9,562.3,413.9z"/>
</svg>
