<?xml version="1.0" encoding="utf-8"?>
<!-- Generator: Adobe Illustrator 21.1.0, SVG Export Plug-In . SVG Version: 6.00 Build 0)  -->
<svg version="1.1" id="research-platform" xmlns="http://www.w3.org/2000/svg" xmlns:xlink="http://www.w3.org/1999/xlink" x="0px"
	 y="0px" viewBox="0 0 543.6 466.1" style="enable-background:new 0 0 543.6 466.1;" xml:space="preserve">
<style type="text/css">
	.st0{fill:#E5C6E2;}
	.st1{fill:#2760FF;}
	.st2{fill:#1251FF;}
	.st3{fill:#E9DBFF;}
	.st4{fill:#DBB7FD;}
	.st5{fill:#071640;}
</style>
<g id="lines">
	<path class="st0" d="M535.8,178.8l0.1-0.5c0.3-1.3,0-2.7-0.7-3.9c-0.8-1.1-1.9-1.9-3.3-2.2l-30.2-6.3c-4.3-0.9-8.6-0.1-12.3,2.3
		c-3.2,2.1-5.5,5.1-6.6,8.7c-3.2-0.7-6.4-1.2-9.6-1.7v-38.4c0-5.4-4.4-9.8-9.8-9.8h-90l33.5-57.2c0.9,0.3,1.9,0.5,3,0.5
		c4.9,0,8.9-4,8.9-8.9s-4-8.9-8.9-8.9s-8.9,4-8.9,8.9c0,3.2,1.7,5.9,4.2,7.5l-34,58h-16.9v2h15.8l-32.8,55.8l-77-160.6
		c2.4-1.6,3.9-4.3,3.9-7.4c0-4.9-4-8.9-8.9-8.9s-8.9,4-8.9,8.9s4,8.9,8.9,8.9c1.1,0,2.2-0.2,3.2-0.6L336,186.7L320.2,214l-96.6-52.6
		l11.4-84c0.6,0.1,1.2,0.2,1.9,0.2c4.9,0,8.9-4,8.9-8.9s-4-8.9-8.9-8.9s-8.9,4-8.9,8.9c0,3.4,1.9,6.3,4.7,7.8L181,127h-20.4
		L83.3,85.1c1-2.1,1.6-4.5,1.6-7c0-8.9-7.2-16.1-16.1-16.1c-8.9,0-16.1,7.2-16.1,16.1c0,8.9,7.2,16.1,16.1,16.1
		c5.7,0,10.6-2.9,13.5-7.4l73.9,40.2h-63c-5.4,0-9.8,4.4-9.8,9.8v85.3l-28.1,27.5H3.4l25.4-26.7h42.4v-2H59.1v-12.2c0-0.6-0.4-1-1-1
		H29l-4.3-4.3c-0.2-0.2-0.4-0.3-0.7-0.3H8.9c-0.6,0-1,0.4-1,1v4.1H1c-0.6,0-1,0.4-1,1v41.4c0,0.6,0.4,1,1,1h54.7
		c0.3,0,0.5-0.1,0.7-0.3l27.1-26.4v98c-7.5-0.2-15-0.9-22.4-2.2c0.3-1.3,0.4-2.7,0.4-4.1c-0.2-4.3-2-8.3-5.2-11.2
		c-3.2-2.9-7.3-4.4-11.6-4.3c-8.9,0.4-15.9,7.9-15.5,16.8c0.2,4.3,2,8.3,5.2,11.2c3,2.8,6.9,4.3,10.9,4.3c0.2,0,0.4,0,0.7,0
		c6.8-0.3,12.4-4.7,14.6-10.7c7.7,1.3,15.4,2,22.9,2.2v33.4h111.3l-12.3,90.3c-0.7-0.2-1.5-0.3-2.3-0.3c-4.9,0-8.9,4-8.9,8.9
		s4,8.9,8.9,8.9s8.9-4,8.9-8.9c0-3.4-1.9-6.3-4.6-7.8l57.7-98.4l13.9,38.8l25.6-84.7l29.9,108.6l25.6-71.9l8.4,16.5h72.7l5.9,12.2
		L404,381l0.9,1.8l20.1-10.4l2.5,5.3l-20,10.4l0.9,1.8l19.9-10.4c0.9,1.9,1.6,3.8,2.1,5.9v-0.1l-17.8,9.2l0.9,1.8l17.4-9
		c0.4,2.1,0.5,4.3,0.4,6.5l-12.2,6.3l0.9,1.8l11.1-5.8c-0.4,3.5-1.2,7-2.7,10.5c-10.7-2.3-19.1-8.4-23.5-17.1l-6.7-13l-1.8,0.9
		l6.7,13c4.6,9,13.5,15.5,24.5,18c-4.4,10.4-4.3,21.4,0.3,30.4l7.1,13.8l1.8-0.9l-3.3-6.3l20.6-10.4l-0.9-1.8l-20.6,10.4l-2.7-5.3
		l20.6-10.4l-0.9-1.8L429,436.5c-0.8-1.9-1.5-3.8-1.9-5.8l18.5-9.3l-0.9-1.8l-18,9c-0.4-2.3-0.5-4.7-0.3-7.2l0.2,0.5l12.3-6.1
		L438,414l-11.4,5.7c0.4-3.6,1.4-7.3,3-10.9c10.2,2.5,18.2,8.4,22.5,16.8l7.4,14.4l1.8-0.9l-7.4-14.4c-4.5-8.7-13-15.1-23.5-17.8
		c4-10.1,3.8-20.8-0.7-29.5l-9.3-19.4h52.7v-58.9l42.2,22.9c-0.3,0.9-0.5,1.9-0.5,3c0,4.9,4,8.9,8.9,8.9s8.9-4,8.9-8.9
		s-4-8.9-8.9-8.9c-3.2,0-5.9,1.7-7.5,4.2l-43-23.4V177.3c3,0.5,6.1,1,9.1,1.6c-1.6,8.7,4,17.2,12.7,19l30.2,6.3
		c0.4,0.1,0.7,0.1,1.1,0.1c1,0,2-0.3,2.8-0.8c1.1-0.8,1.9-1.9,2.2-3.3l0.1-0.5l2.1,0.4l0.9-4.2c0.4-1.7-0.8-3.4-2.5-3.7l0,0
		c-0.8-0.2-1.7,0-2.4,0.5s-1.2,1.2-1.4,2l-0.9,4.2l2.1,0.4l-0.1,0.5c-0.2,0.8-0.6,1.5-1.3,2s-1.5,0.6-2.4,0.4l-30.2-6.3
		c-7.8-1.6-12.8-9.2-11.1-17c0.8-3.8,3-7,6.2-9.1c2.8-1.8,6.1-2.6,9.3-2.3l-5.2,25.2l2,0.4l5.2-25.3l29.7,6.2c0.8,0.2,1.5,0.6,2,1.3
		c0.5,0.7,0.6,1.5,0.4,2.4l-0.1,0.5l-2.1-0.4l-0.9,4.2c-0.2,0.8,0,1.7,0.5,2.4c0.5,0.7,1.2,1.2,2,1.4c0.2,0,0.4,0.1,0.6,0.1
		c1.5,0,2.8-1,3.1-2.5l0.9-4.2L535.8,178.8z M402.9,61.5c0-3.8,3.1-6.9,6.9-6.9s6.9,3.1,6.9,6.9c0,3.8-3.1,6.9-6.9,6.9
		S402.9,65.3,402.9,61.5z M248.4,16.8c0-3.8,3.1-6.9,6.9-6.9s6.9,3.1,6.9,6.9c0,3.8-3.1,6.9-6.9,6.9S248.4,20.6,248.4,16.8z
		 M229.9,68.7c0-3.8,3.1-6.9,6.9-6.9s6.9,3.1,6.9,6.9s-3.1,6.9-6.9,6.9S229.9,72.5,229.9,68.7z M68.9,92.2
		c-7.8,0-14.1-6.3-14.1-14.1S61.1,64,68.9,64S83,70.3,83,78.1S76.6,92.2,68.9,92.2z M8.9,210.3c0.6,0,1-0.4,1-1v-4.1h13.6l4.3,4.3
		c0.2,0.2,0.4,0.3,0.7,0.3H57V221H28.3c-0.3,0-0.5,0.1-0.7,0.3L2,248.2v-37.9H8.9z M45.9,331.5c-3.8,0.1-7.4-1.2-10.2-3.7
		c-2.8-2.6-4.4-6.1-4.6-9.8c-0.3-7.8,5.8-14.4,13.6-14.7c0.2,0,0.4,0,0.6,0c3.6,0,7,1.3,9.6,3.8c2.8,2.6,4.4,6.1,4.6,9.8
		C59.8,324.5,53.7,331.1,45.9,331.5z M187,457.3c0,3.8-3.1,6.9-6.9,6.9s-6.9-3.1-6.9-6.9s3.1-6.9,6.9-6.9
		C183.9,450.4,187,453.5,187,457.3z M523.8,318.5c3.8,0,6.9,3.1,6.9,6.9s-3.1,6.9-6.9,6.9s-6.9-3.1-6.9-6.9S519.9,318.5,523.8,318.5
		z M372.2,129.1h91.1c4.3,0,7.8,3.5,7.8,7.8v19.5h-98.8v2h98.8V175c-45.1-6.3-86.6,6.2-126,26.2l-6.8-14.3L372.2,129.1z
		 M343.4,202.1c-6.9,3.5-13.7,7.3-20.5,11.2l14.2-24.2L343.4,202.1z M344.2,203.8l15.1,31.4L323,215.4
		C330,211.4,337.1,207.5,344.2,203.8z M318.9,215.6c-17.7,10.4-35,21.7-52.2,33c-19.6,12.9-39.7,26-60.1,37.5l16.7-122.6
		L318.9,215.6z M317.3,218.8l-74.8,127.6l-8-22.3l-13.7,32.3H197l9.2-67.9c20.9-11.7,41.3-25.1,61.5-38.3
		C284,239.6,300.6,228.8,317.3,218.8z M232.7,79.2l-11,81.1l-46.3-25.2l6.3-6.1H215v-2h-31.2L232.7,79.2z M178.8,129.1l-5.3,5.1
		l-9.4-5.1H178.8z M93.3,129.1H160l12.1,6.6l-21.2,20.7H85.5v-19.5C85.4,132.6,88.9,129.1,93.3,129.1z M85.4,158.4h63.3l-63.3,61.8
		V158.4z M85.4,223l66.2-64.6h44.6v-2h-42.5l20.2-19.7l47.5,25.8l-17,124.8c-12.2,6.8-24.5,13.1-37,18.3
		c-28.7,12.1-55.7,17.9-82,17.4V223z M85.4,356.4V325c0.9,0,1.8,0,2.7,0c41,0,79.2-15,115.9-35.3l-9.1,66.7L85.4,356.4L85.4,356.4z
		 M185,444.6l11.7-86.2h25.4l12.2-28.8l6.9,19.1L185,444.6z M346.8,356.4l-9.9-19.6l-25,70.3L281.8,298l-25.9,85.5l-12.5-34.7
		l77.4-132.2c0,0,0.1,0,0.1-0.1l39.8,21.7l56.6,118.1h-70.5V356.4z M471.2,356.4h-51.6L363.8,240l107.4,58.4V356.4z M471.2,296.1
		l-108.9-59.2l-16.3-34c8.1-4.1,16.3-7.9,24.5-11.3c35.3-14.4,68.4-19.3,100.7-14.7V296.1z M530.2,195.1c0.1-0.3,0.2-0.6,0.5-0.7
		c0.3-0.2,0.6-0.2,0.9-0.2c0.6,0.1,1,0.8,0.9,1.4l-0.5,2.3l-2.3-0.5L530.2,195.1z M535.1,183c-0.1,0.6-0.8,1-1.4,0.9
		c-0.3-0.1-0.6-0.2-0.7-0.5s-0.2-0.6-0.2-0.9l0.5-2.3l2.3,0.5L535.1,183z"/>
	<path class="st0" d="M99.1,147.8c2.5,0,4.5-2,4.5-4.5s-2-4.5-4.5-4.5s-4.5,2-4.5,4.5S96.7,147.8,99.1,147.8z M99.1,140.9
		c1.4,0,2.5,1.1,2.5,2.5s-1.1,2.5-2.5,2.5s-2.5-1.1-2.5-2.5C96.7,142,97.8,140.9,99.1,140.9z"/>
	<path class="st0" d="M113.5,147.8c2.5,0,4.5-2,4.5-4.5s-2-4.5-4.5-4.5s-4.5,2-4.5,4.5S111,147.8,113.5,147.8z M113.5,140.9
		c1.4,0,2.5,1.1,2.5,2.5s-1.1,2.5-2.5,2.5s-2.5-1.1-2.5-2.5S112.1,140.9,113.5,140.9z"/>
	<path class="st0" d="M127.8,147.8c2.5,0,4.5-2,4.5-4.5s-2-4.5-4.5-4.5c-2.5,0-4.5,2-4.5,4.5S125.3,147.8,127.8,147.8z M127.8,140.9
		c1.4,0,2.5,1.1,2.5,2.5s-1.1,2.5-2.5,2.5c-1.4,0-2.5-1.1-2.5-2.5S126.4,140.9,127.8,140.9z"/>
	<polygon class="st0" points="452.2,148.1 455.5,144.7 458.9,148.1 460.3,146.7 457,143.3 460.3,140 458.9,138.5 455.5,141.9 
		452.2,138.5 450.8,140 454.1,143.3 450.8,146.7 	"/>
	<path class="st0" d="M59.9,73.2l1.8,1c1.4-2.6,4.2-4.2,7.2-4.2l0,0v-2l0,0C65.1,67.9,61.7,70,59.9,73.2z"/>
	<path class="st0" d="M45,309.2c-4.5,0.2-7.9,4-7.8,8.4c0.2,4.4,3.8,7.8,8.1,7.8c0.1,0,0.2,0,0.3,0c4.5-0.2,7.9-4,7.8-8.4
		C53.2,312.5,49.5,309,45,309.2z M45.6,323.4c-3.4,0.1-6.2-2.5-6.3-5.9s2.5-6.2,5.9-6.3c3.4-0.1,6.2,2.5,6.3,5.9
		C51.6,320.4,48.9,323.3,45.6,323.4z"/>
</g>
<g id="highlights">
	<g>
		<circle class="st1" cx="281.6" cy="209.9" r="52.7"/>
		<path class="st2" d="M323,215.5c3.7-2.2,7.5-4.3,11.3-6.4c0-0.7,0-1.5-0.1-2.2c-3.8,2-7.5,4.1-11.3,6.3l9.7-16.5
			c-0.2-0.9-0.5-1.8-0.8-2.7l-11.6,20l-75.9-41.3c-0.5,0.5-1,1-1.4,1.5l76,41.3c-17.7,10.4-35,21.7-52.2,33
			c-3.7,2.4-7.4,4.8-11.1,7.2c0.7,0.4,1.3,0.7,2,1.1c3.4-2.2,6.8-4.4,10.1-6.6c16.2-10.6,32.8-21.4,49.5-31.4l-25,42.7
			c0.9-0.2,1.8-0.4,2.7-0.6l25.9-44.2c0,0,0.1,0,0.1-0.1l11.7,6.3c0.2-0.7,0.3-1.3,0.5-2L323,215.5z"/>
	</g>
	<path class="st1" d="M281.6,463.8c10.1,0,18.4-8.2,18.4-18.4c0-7.7-10.6-25.8-15.7-34c-0.9-1.5-2.8-1.9-4.3-1c-0.4,0.3-0.8,0.6-1,1
		c-5.1,8.2-15.7,26.3-15.7,34C263.2,455.6,271.5,463.8,281.6,463.8z"/>
</g>
<g id="bubbles">
	<circle class="st3" cx="356.7" cy="401.1" r="15.6"/>
	<circle class="st3" cx="98" cy="388.6" r="19"/>
	<circle class="st3" cx="171.3" cy="88.5" r="7.8"/>
	<g>
		<circle class="st3" cx="255.3" cy="16.8" r="16.8"/>
		<path class="st4" d="M255.3,25.7c1.1,0,2.2-0.2,3.2-0.6l3.4,7.1c0.6-0.3,1.2-0.6,1.8-0.9l-3.4-7.1c2.4-1.6,3.9-4.3,3.9-7.4
			c0-4.9-4-8.9-8.9-8.9s-8.9,4-8.9,8.9S250.4,25.7,255.3,25.7z M255.3,9.8c3.8,0,6.9,3.1,6.9,6.9c0,3.8-3.1,6.9-6.9,6.9
			s-6.9-3.1-6.9-6.9C248.4,13,251.5,9.8,255.3,9.8z"/>
	</g>
	<g>
		<circle class="st3" cx="523.8" cy="325.4" r="19.8"/>
		<path class="st4" d="M523.8,316.5c-3.2,0-5.9,1.7-7.5,4.2l-9.5-5.2c-0.3,0.6-0.6,1.2-0.9,1.8l9.6,5.2c-0.3,0.9-0.5,1.9-0.5,3
			c0,4.9,4,8.9,8.9,8.9s8.9-4,8.9-8.9S528.7,316.5,523.8,316.5z M523.8,332.3c-3.8,0-6.9-3.1-6.9-6.9s3.1-6.9,6.9-6.9
			s6.9,3.1,6.9,6.9S527.6,332.3,523.8,332.3z"/>
	</g>
	<g>
		<path class="st3" d="M409.9,34.5c-19.8,0-36.7,17.2-42.7,24.1c-1.4,1.6-1.4,4.1,0,5.7c6,7,22.9,24.1,42.7,24.1
			s36.7-17.2,42.7-24.1c1.4-1.6,1.4-4.1,0-5.7C446.6,51.7,429.7,34.5,409.9,34.5z M409.9,75.9c-8,0-14.4-6.5-14.4-14.4
			c0-8,6.5-14.4,14.4-14.4s14.4,6.5,14.4,14.4l0,0C424.3,69.5,417.9,75.9,409.9,75.9z"/>
		<path class="st4" d="M397.3,86.3l6.8-11.6c-0.6-0.3-1.2-0.6-1.8-0.9l-6.9,11.8C396,85.8,396.7,86.1,397.3,86.3z"/>
	</g>
</g>
<path id="person" class="st5" d="M393.1,229.7c1.8,3.5,2.2,7.5,1,11.2s-3.7,6.8-7.2,8.6c-6.9,3.6-11.3,11-11.1,18.8
	c0.4,14.1-2,33.9-15.4,47.8c-10.1,10.4-24.8,15.7-43.7,15.7c-2.5,0-4.5-2-4.5-4.5s2-4.5,4.5-4.5c16.3,0,28.9-4.4,37.2-13
	c11.3-11.6,13.2-28.8,12.9-41.3c-0.3-11.2,6-21.8,15.9-27c2.8-1.4,3.8-4.9,2.4-7.7l-4.1-7.5c-10.4-19.2-15.8-41-15.8-62.8
	c0-38.9-56.7-49.3-90.2-49.3c-17.8,0-33,3.8-45.2,11.3c-19.7,12.1-32.8,32.5-35.9,56.1l-30,227.2c-0.3,2.3-2.2,3.9-4.5,3.9
	c-0.2,0-0.4,0-0.6,0c-2.5-0.3-4.2-2.6-3.9-5l30-227.2c3.5-26.3,18.2-49.1,40.2-62.6c13.6-8.4,30.4-12.6,49.9-12.6
	c7.9,0,35.8,0.8,60.3,10.4c25.4,10,38.9,26.6,38.9,47.8c0,20.4,5.1,40.6,14.8,58.6L393.1,229.7"/>
</svg>
