<?xml version="1.0" encoding="utf-8"?>
<!-- Generator: Adobe Illustrator 22.0.1, SVG Export Plug-In . SVG Version: 6.00 Build 0)  -->
<svg version="1.1" id="data-model" xmlns="http://www.w3.org/2000/svg" xmlns:xlink="http://www.w3.org/1999/xlink" x="0px" y="0px"
	 viewBox="0 0 720 720" style="enable-background:new 0 0 720 720;" xml:space="preserve">
<style type="text/css">
	.st0{fill:#E9DBFF;}
	.st1{fill:#E5C6E2;}
	.st2{fill:#DBB7FD;}
	.st3{fill:#2760FF;}
	.st4{fill:#1251FF;}
	.st5{fill:#071640;}
</style>
<title>data-model</title>
<circle class="st0" cx="388.6" cy="213.3" r="10.8"/>
<path class="st1" d="M626.7,367.3c-4.4,0-8,3.6-8,8c0,1.1,0.2,2.1,0.6,3l-0.3-0.7l-112.2,56.6V214.5L452.9,168h-50.5l8-19
	c1.6,0.8,3.4,1.3,5.3,1.3c6.3,0,11.4-5.1,11.4-11.4c0-6.3-5.1-11.4-11.4-11.4c-6.3,0-11.4,5.1-11.4,11.4c0,3.6,1.7,6.8,4.3,8.9
	L384.9,168H281.8v29.9h-34.5v87.8l-32.1,27.5v-78h31.5v-2h-33.5v81.7l-110.6,94.6c-1.6-1.1-3.5-1.7-5.6-1.7c-5.5,0-10,4.5-10,10
	s4.5,10,10,10s10-4.5,10-10c0-2.7-1.1-5.2-2.9-7l109.1-93.3V552h25.5l-9.2,21.9c-1.5-0.9-3.2-1.4-5-1.4c-5.5,0-10,4.5-10,10
	s4.5,10,10,10s10-4.5,10-10c0-2.8-1.2-5.4-3.1-7.2l46.3-23.3h164.8v-31.2h36.1v-31.4h28.2v-52.9l113.1-57l0-0.1
	c1.4,2.4,4,3.9,6.9,3.9c4.4,0,8-3.6,8-8C634.7,370.9,631.1,367.3,626.7,367.3z M406.4,138.9c0-5.2,4.2-9.4,9.4-9.4s9.4,4.2,9.4,9.4
	c0,5.2-4.2,9.4-9.4,9.4S406.4,144.1,406.4,138.9z M105,417.8c0,4.4-3.6,8-8,8s-8-3.6-8-8s3.6-8,8-8S105,413.4,105,417.8z
	 M232.5,582.5c0,4.4-3.6,8-8,8s-8-3.6-8-8s3.6-8,8-8S232.5,578.1,232.5,582.5z M453.6,171.2l49.5,42.8h-49.5V171.2z M451.6,170v46
	h53.2v219.2l-103.4,52.1H283.8V450l117.8-280H451.6z M254.9,518.8l27-64v34.7h115.6l-58.3,29.4H254.9z M335.2,520.8l-58,29.2h-35.5
	l12.3-29.2H335.2z M249.3,286.6l32.5-27.8v190.7l-29.1,69.2h-3.3V286.6z M283.8,257.1L385.7,170h13.8L283.8,444.8V257.1z
	 M407.2,151.6l-6.9,16.4H388L407.2,151.6z M382.6,170l-98.8,84.5V170H382.6z M249.3,199.9h32.5v56.3L249.3,284V199.9z M215.2,550
	V315.8l32.1-27.5v232.4h4.5L239.5,550H215.2z M232.2,572.7l8.7-20.7h32.3L232.2,572.7z M440.5,550H281.6l58-29.2h100.9V550z
	 M476.6,518.8h-133l58.3-29.4h74.7V518.8z M504.8,487.4h-99l99-49.9V487.4z M626.7,381.3c-3.3,0-6-2.7-6-6s2.7-6,6-6s6,2.7,6,6
	S630,381.3,626.7,381.3z"/>
<ellipse transform="matrix(0.1602 -0.9871 0.9871 0.1602 47.6646 406.323)" class="st0" cx="262.6" cy="175.1" rx="38.2" ry="38.2"/>
<path class="st2" d="M385.6,202.9l-6.5,15.5c0.4,0.7,0.8,1.3,1.4,1.9l7.5-17.8C387.1,202.6,386.3,202.7,385.6,202.9z"/>
<path class="st2" d="M247.3,210.1c0.7,0.3,1.3,0.6,2,0.8v-11.1h32.5v8.3c0.7-0.4,1.3-0.8,2-1.2V170h16.6c-0.1-0.7-0.2-1.3-0.3-2
	h-18.3v29.9h-34.5V210.1z"/>
<g>
	<path class="st1" d="M566,597.4c-8.3,0-15.1,6.8-15.1,15.1s6.8,15.1,15.1,15.1s15.1-6.8,15.1-15.1S574.3,597.4,566,597.4z
		 M566,625.7c-7.2,0-13.1-5.9-13.1-13.1s5.9-13.1,13.1-13.1s13.1,5.9,13.1,13.1S573.2,625.7,566,625.7z"/>
	<path class="st1" d="M566,606.8c-3.2,0-5.8,2.6-5.8,5.8s2.6,5.8,5.8,5.8s5.8-2.6,5.8-5.8S569.2,606.8,566,606.8z M566,616.4
		c-2.1,0-3.8-1.7-3.8-3.8s1.7-3.8,3.8-3.8s3.8,1.7,3.8,3.8S568.1,616.4,566,616.4z"/>
	<path class="st1" d="M555.9,601.2l1.6-1.2L303.5,283c1.5-1.4,2.4-3.4,2.4-5.6c0-4.3-3.5-7.8-7.8-7.8c-4.3,0-7.8,3.5-7.8,7.8
		c0,4.3,3.5,7.8,7.8,7.8c1.3,0,2.6-0.3,3.7-1L555.9,601.2z M292.4,277.4c0-3.2,2.6-5.8,5.8-5.8c3.2,0,5.8,2.6,5.8,5.8
		s-2.6,5.8-5.8,5.8C295,283.1,292.4,280.6,292.4,277.4z"/>
</g>
<circle class="st0" cx="505.8" cy="582.5" r="12.7"/>
<path class="st1" d="M535.2,172.4c-8.5,0-15.4-6.9-15.4-15.4s6.9-15.4,15.4-15.4c8.5,0,15.4,6.9,15.4,15.4S543.7,172.4,535.2,172.4z
	 M535.2,143.6c-7.4,0-13.4,6-13.4,13.4s6,13.4,13.4,13.4s13.4-6,13.4-13.4S542.6,143.6,535.2,143.6z"/>
<circle class="st0" cx="97.3" cy="417.8" r="16.8"/>
<path class="st2" d="M108,404.8l-5.5,4.7c-1.6-1.1-3.5-1.7-5.6-1.7c-5.5,0-10,4.5-10,10s4.5,10,10,10s10-4.5,10-10
	c0-2.7-1.1-5.2-2.9-7l5.4-4.6C109,405.7,108.6,405.2,108,404.8z M105,417.8c0,4.4-3.6,8-8,8s-8-3.6-8-8s3.6-8,8-8
	S105,413.4,105,417.8z"/>
<circle class="st0" cx="320.2" cy="591.5" r="15.3"/>
<path class="st3" d="M557,376.3c-2.7-10.1-8.3-19.1-16.1-26l-10.5,9.9l-13.4-7.1l2.5-14.2c-10.1-2.7-20.7-2.4-30.5,1l3.3,14l-12.9,8
	l-11.1-9.2c-7.3,7.4-12.4,16.7-14.4,26.9l13.8,4.1l0.5,15.1l-13.6,5c2.7,10.1,8.3,19.1,16.1,26l10.5-9.9l13.4,7.2l-2.5,14.2
	c10.1,2.7,20.7,2.4,30.5-0.9l-3.3-14.1l12.9-8l11.1,9.2c7.4-7.4,12.4-16.7,14.4-26.9l-13.8-4.1l-0.5-15.1L557,376.3z M513.8,403
	c-7.1,4.4-16.4,2.2-20.9-4.9c-4.4-7.1-2.2-16.4,4.9-20.9c7.1-4.4,16.4-2.2,20.9,4.9C523.1,389.3,520.9,398.6,513.8,403z"/>
<g id="_x3C_intersect-gear_x3E_">
	<path class="st4" d="M554.9,410l-20.4,10.3l1.7,1.4l17.4-8.8C554.1,411.9,554.5,410.9,554.9,410z"/>
	<path class="st4" d="M519.6,427.7l-12.9,6.5v-29c-0.7,0-1.3,0-2,0v30l-12.2,6.2c1,0.3,2,0.5,3.1,0.7l9.2-4.6v5.6c0.7,0,1.3,0,2,0
		v-6.6l13.3-6.7L519.6,427.7z"/>
	<path class="st4" d="M504.8,337.1V375c0.7,0,1.3,0,2,0v-37.9C506.1,337.1,505.4,337.1,504.8,337.1z"/>
</g>
<path id="_x3C_graph_x3E_" class="st5" d="M448.9,243.4c-42.2,0-76.6,34.4-76.6,76.6c0,20.6,8.1,39.2,21.4,53l-80.9,61.6
	c-9-13.4-24.2-22.3-41.6-22.3c-2.6,0-5.2,0.2-7.7,0.6l-24.8-143c11.8-4.7,20.2-16.3,20.2-29.9c0-17.7-14.4-32.2-32.2-32.2
	c-17.7,0-32.2,14.4-32.2,32.2c0,17.7,14.4,32.2,32.2,32.2c0.4,0,0.8,0,1.2,0l24.9,143.6c-18.5,7.3-31.6,25.4-31.6,46.4
	c0,27.5,22.4,49.9,49.9,49.9s49.9-22.4,49.9-49.9c0-6.2-1.2-12.2-3.3-17.7l84.1-64c13,10.1,29.3,16.1,46.9,16.1
	c42.2,0,76.6-34.4,76.6-76.6C525.5,277.8,491.1,243.4,448.9,243.4z M205.5,240c0-11.7,9.5-21.2,21.2-21.2c11.7,0,21.2,9.5,21.2,21.2
	c0,11.7-9.5,21.2-21.2,21.2C215,261.2,205.5,251.7,205.5,240z M271.1,501.2c-21.5,0-38.9-17.5-38.9-38.9s17.5-38.9,38.9-38.9
	s38.9,17.5,38.9,38.9S292.6,501.2,271.1,501.2z M448.9,385.6c-36.2,0-65.6-29.4-65.6-65.6c0-36.2,29.4-65.6,65.6-65.6
	s65.6,29.4,65.6,65.6C514.5,356.2,485.1,385.6,448.9,385.6z"/>
</svg>
