<svg xmlns="http://www.w3.org/2000/svg" viewBox="0 0 720 720"><defs><style>.cls-1{isolation:isolate;}.cls-2{fill:#dcc7dd;}.cls-3{fill:none;}.cls-4{fill:#dad0f4;}.cls-5{fill:#bf97df;}.cls-6{fill:#2760ff;}.cls-7{fill:#211bff;}.cls-8{fill:#e2dff4;}.cls-9{mix-blend-mode:overlay;}.cls-10{fill:#454d9f;}.cls-11{fill:#071640;}</style></defs><title>Artboard 1</title><g class="cls-1"><g id="Layer_1" data-name="Layer 1"><path class="cls-2" d="M570.81,289.73H471a.75.75,0,0,1,0-1.5h99.83a.75.75,0,0,1,0,1.5Z"/><path class="cls-2" d="M197.73,279.13a4.2,4.2,0,1,1,4.2-4.2A4.21,4.21,0,0,1,197.73,279.13Zm0-6.91a2.7,2.7,0,1,0,2.7,2.7A2.71,2.71,0,0,0,197.73,272.23Z"/><path class="cls-2" d="M212.07,279.13a4.2,4.2,0,1,1,4.2-4.2A4.21,4.21,0,0,1,212.07,279.13Zm0-6.91a2.7,2.7,0,1,0,2.7,2.7A2.71,2.71,0,0,0,212.07,272.23Z"/><path class="cls-2" d="M226.4,279.13a4.2,4.2,0,1,1,4.2-4.2A4.21,4.21,0,0,1,226.4,279.13Zm0-6.91a2.7,2.7,0,1,0,2.7,2.7A2.71,2.71,0,0,0,226.4,272.23Z"/><path class="cls-2" d="M550.09,279.75a.75.75,0,0,1-.53-1.28l8.13-8.13a.75.75,0,1,1,1.06,1.06l-8.13,8.13A.75.75,0,0,1,550.09,279.75Z"/><path class="cls-2" d="M558.22,279.75a.75.75,0,0,1-.53-.22l-8.13-8.13a.75.75,0,1,1,1.06-1.06l8.13,8.13a.75.75,0,0,1-.53,1.28Z"/><path class="cls-2" d="M167.48,225.58a15.84,15.84,0,1,1,15.84-15.84A15.86,15.86,0,0,1,167.48,225.58Zm0-30.17a14.34,14.34,0,1,0,14.34,14.34A14.35,14.35,0,0,0,167.48,195.41Z"/><path class="cls-2" d="M159.42,206.06a.75.75,0,0,1-.66-1.11,10,10,0,0,1,8.71-5.15.75.75,0,0,1,0,1.5,8.45,8.45,0,0,0-7.4,4.37A.75.75,0,0,1,159.42,206.06Z"/><path class="cls-2" d="M143.91,464.85A15.92,15.92,0,0,1,128,449.58h0a15.92,15.92,0,1,1,16.55,15.26Zm-14.39-15.33a14.41,14.41,0,1,0,13.82-15,14.43,14.43,0,0,0-13.82,15Z"/><path class="cls-2" d="M143.92,456.79a7.85,7.85,0,1,1,.33,0Zm0-14.21h-.26a6.34,6.34,0,1,0,.26,0Z"/><path class="cls-2" d="M335.48,209a8.68,8.68,0,1,1,8.68-8.68A8.69,8.69,0,0,1,335.48,209Zm0-15.86a7.18,7.18,0,1,0,7.18,7.18A7.19,7.19,0,0,0,335.48,193.14Z"/><path class="cls-2" d="M278.72,597.64A8.68,8.68,0,1,1,287.4,589,8.69,8.69,0,0,1,278.72,597.64Zm0-15.86A7.18,7.18,0,1,0,285.9,589,7.19,7.19,0,0,0,278.72,581.78Z"/><path class="cls-2" d="M353.93,157.07a8.68,8.68,0,1,1,8.68-8.68A8.69,8.69,0,0,1,353.93,157.07Zm0-15.86a7.18,7.18,0,1,0,7.18,7.18A7.19,7.19,0,0,0,353.93,141.21Z"/><path class="cls-2" d="M508.49,201.79a8.68,8.68,0,1,1,8.68-8.68A8.69,8.69,0,0,1,508.49,201.79Zm0-15.86a7.18,7.18,0,1,0,7.18,7.18A7.19,7.19,0,0,0,508.49,185.93Z"/><path class="cls-2" d="M622.38,465.71a8.68,8.68,0,1,1,8.68-8.68A8.69,8.69,0,0,1,622.38,465.71Zm0-15.86a7.18,7.18,0,1,0,7.18,7.18A7.19,7.19,0,0,0,622.38,449.85Z"/><path class="cls-2" d="M614.75,454.09a.75.75,0,0,1-.36-.09L180.46,217.92a.75.75,0,0,1,.72-1.32L615.11,452.68a.75.75,0,0,1-.36,1.41Z"/><path class="cls-2" d="M186.79,456.41A166.66,166.66,0,0,1,158.35,454a.75.75,0,0,1,.26-1.48c34.3,5.93,69.48,1,107.55-15,34-14.34,67.2-36.07,99.3-57.08C432,336.81,500.74,291.79,581.57,308.9a.75.75,0,1,1-.31,1.47c-36-7.62-72.69-3.47-112.25,12.68-35.33,14.42-69.6,36.86-102.75,58.56C310,418.46,252,456.4,186.79,456.41Z"/><path class="cls-2" d="M99.64,383a.75.75,0,0,1-.54-1.27l27.35-28.67a.75.75,0,0,1,.54-.23h42.78a.75.75,0,0,1,0,1.5H127.31l-27.12,28.44A.75.75,0,0,1,99.64,383Z"/><path class="cls-2" d="M282,581.78a.75.75,0,0,1-.74-.85l50.44-370.76L154.83,382.79a.75.75,0,0,1-.52.21H99.64a.75.75,0,0,1-.75-.75V340.89a.75.75,0,0,1,.75-.75h7.13v-4.39a.75.75,0,0,1,.75-.75h15.05a.75.75,0,0,1,.53.22l4.38,4.38H156.7a.75.75,0,0,1,.75.75v13.22a.75.75,0,0,1-1.5,0V341.1H127.17a.75.75,0,0,1-.53-.22l-4.38-4.38h-14v4.39a.75.75,0,0,1-.75.75h-7.13V381.5H154L332.18,207.57a.75.75,0,0,1,1.27.64L283.22,577.42,504.45,199.89a.75.75,0,0,1,1.29.76L282.61,581.41A.75.75,0,0,1,282,581.78Z"/><path class="cls-2" d="M410.34,542.85h0a.75.75,0,0,1-.7-.55l-29.3-106.39-25,82.64a.75.75,0,0,1-1.42,0L333,460.53,320.81,489.3a.75.75,0,0,1-.69.46H183.06a.75.75,0,0,1-.75-.75V268.48a9.57,9.57,0,0,1,9.56-9.56H313.55a.75.75,0,0,1,0,1.5H191.86a8.07,8.07,0,0,0-8.06,8.06V488.26H319.62l12.74-30.08a.75.75,0,0,1,1.4,0l20.77,57.73,25.1-83a.75.75,0,0,1,1.44,0l29.36,106.59,24.48-68.89a.75.75,0,0,1,1.38-.09l8.95,17.63H570.06V268.48a8.07,8.07,0,0,0-8.06-8.06H452.77a.75.75,0,0,1,0-1.5H562a9.57,9.57,0,0,1,9.56,9.56V489a.75.75,0,0,1-.75.75h-126a.75.75,0,0,1-.67-.41l-8.37-16.49L411,542.35A.75.75,0,0,1,410.34,542.85Z"/><path class="cls-2" d="M294.82,289.73H183.06a.75.75,0,0,1,0-1.5H294.82a.75.75,0,0,1,0,1.5Z"/><path class="cls-2" d="M624.9,335.71a4.9,4.9,0,0,1-1-.1l-30.22-6.26a16.11,16.11,0,1,1,6.53-31.55l30.22,6.26a4.89,4.89,0,0,1,3.79,5.77L634,311a.75.75,0,1,1-1.47-.3l.23-1.12a3.39,3.39,0,0,0-2.63-4l-30.22-6.26A14.61,14.61,0,1,0,594,327.88l30.22,6.26a3.38,3.38,0,0,0,4-2.63l.23-1.12a.75.75,0,1,1,1.47.3l-.23,1.12A4.89,4.89,0,0,1,624.9,335.71Z"/><path class="cls-2" d="M632.55,317.33a2.93,2.93,0,0,1-.59-.06h0a2.93,2.93,0,0,1-2.27-3.45l.67-3.24a.75.75,0,0,1,.89-.58l4.25.88a.75.75,0,0,1,.58.89l-.67,3.24A2.93,2.93,0,0,1,632.55,317.33Zm-.29-1.53a1.42,1.42,0,0,0,1.68-1.1l.52-2.5-2.79-.58-.52,2.5A1.43,1.43,0,0,0,632.26,315.8Z"/><path class="cls-2" d="M631.4,331.39l-.15,0-4.25-.88a.75.75,0,0,1-.58-.89l.67-3.24a2.92,2.92,0,0,1,3.45-2.27h0a2.93,2.93,0,0,1,2.27,3.45l-.67,3.24A.75.75,0,0,1,631.4,331.39ZM628,329.17l2.79.58.52-2.5a1.42,1.42,0,0,0-1.1-1.68h0a1.42,1.42,0,0,0-1.68,1.1Z"/><path class="cls-2" d="M594.17,325.45l-.15,0a.75.75,0,0,1-.58-.89l5.44-26.26a.75.75,0,0,1,1.47.3l-5.44,26.26A.75.75,0,0,1,594.17,325.45Z"/><path class="cls-2" d="M534.66,584.78a.75.75,0,0,1-.67-.41l-7.08-13.81c-4.67-9.11-4.68-20.36,0-30.85,4.53-10.23,4.53-20.73,0-29.56L357.12,156a.75.75,0,1,1,1.35-.65l169.74,354.1c4.66,9.09,4.68,20.34,0,30.84-4.53,10.23-4.53,20.73,0,29.56l7.08,13.81a.75.75,0,0,1-.67,1.09Z"/><path class="cls-2" d="M559.15,572.22a.75.75,0,0,1-.67-.41L551.1,557.4c-4.53-8.83-13.05-15-24-17.26-11.23-2.36-20.36-8.93-25-18l-6.67-13a.75.75,0,1,1,1.33-.68l6.67,13c4.53,8.83,13.05,15,24,17.26,11.23,2.36,20.36,8.93,25,18l7.39,14.41a.75.75,0,0,1-.67,1.09Z"/><path class="cls-2" d="M503.09,514.3a.75.75,0,0,1-.34-1.42l20.85-10.77a.75.75,0,0,1,.69,1.33l-20.85,10.77A.75.75,0,0,1,503.09,514.3Z"/><path class="cls-2" d="M506.73,521.41a.75.75,0,0,1-.35-1.42l20.81-10.86a.75.75,0,0,1,.69,1.33l-20.81,10.86A.75.75,0,0,1,506.73,521.41Z"/><path class="cls-2" d="M511.74,527.82a.75.75,0,0,1-.35-1.42l17.84-9.23a.75.75,0,0,1,.69,1.33l-17.84,9.23A.75.75,0,0,1,511.74,527.82Z"/><path class="cls-2" d="M518.29,533.43a.75.75,0,0,1-.35-1.42l12.62-6.55a.75.75,0,0,1,.69,1.33l-12.62,6.55A.74.74,0,0,1,518.29,533.43Z"/><path class="cls-2" d="M530.95,577.54a.75.75,0,0,1-.34-1.42l21.48-10.82a.75.75,0,1,1,.67,1.34l-21.48,10.82A.75.75,0,0,1,530.95,577.54Z"/><path class="cls-2" d="M527.3,570.43A.75.75,0,0,1,527,569l21.48-10.82a.75.75,0,1,1,.67,1.34l-21.48,10.82A.75.75,0,0,1,527.3,570.43Z"/><path class="cls-2" d="M525.31,562.48a.75.75,0,0,1-.34-1.42l18.62-9.35a.75.75,0,1,1,.67,1.34l-18.62,9.35A.75.75,0,0,1,525.31,562.48Z"/><path class="cls-2" d="M525,553.68a.75.75,0,0,1-.33-1.42l12.26-6.09a.75.75,0,1,1,.67,1.34L525.3,553.6A.74.74,0,0,1,525,553.68Z"/><circle class="cls-3" cx="226.4" cy="274.93" r="2.7"/><polygon class="cls-3" points="183.81 289.73 183.81 352.4 248.01 289.73 183.81 289.73"/><path class="cls-3" d="M471,289.73a.75.75,0,0,1,0-1.5h99.08V268.48a8.07,8.07,0,0,0-8.06-8.06H470.71l-34,58.09,7,14.61c39.59-20,81.12-32.68,126.39-26.25V289.73Zm78.57-18.33a.75.75,0,1,1,1.06-1.06l3.54,3.54,3.54-3.54a.75.75,0,1,1,1.06,1.06l-3.54,3.54,3.54,3.54a.75.75,0,1,1-1.06,1.06L554.15,276l-3.54,3.54a.75.75,0,1,1-1.06-1.06l3.54-3.54Z"/><polygon class="cls-3" points="278.03 260.42 261.73 260.42 272.2 266.12 278.03 260.42"/><circle class="cls-3" cx="212.07" cy="274.93" r="2.7"/><circle class="cls-3" cx="197.73" cy="274.93" r="2.7"/><path class="cls-3" d="M266.15,437.44a374.11,374.11,0,0,0,37.1-18.38l17-125.08-47.81-26L251.7,288.23h43.12a.75.75,0,0,1,0,1.5H250.16L183.81,354.5V454.87C210.18,455.35,237.34,449.59,266.15,437.44Z"/><path class="cls-3" d="M431.3,354.38a52.75,52.75,0,0,1-38,38.21l-51.5,87.88,12.76,35.47,25.1-83a.75.75,0,0,1,1.44,0l29.36,106.59,24.48-68.89a.75.75,0,0,1,1.38-.09l8.95,17.63h71.15l-56.8-118.49Z"/><polygon class="cls-3" points="518.04 488.26 570.06 488.26 570.06 429.88 461.83 371 518.04 488.26"/><path class="cls-3" d="M469,323.05c-8.29,3.39-16.53,7.23-24.71,11.38l16.42,34.25,109.34,59.48V308.39C537.66,303.75,504.48,308.57,469,323.05Z"/><path class="cls-3" d="M380.22,394.22a52.41,52.41,0,0,1-24.21-5.9c-16.89,11-34,21.9-51.37,31.64l-9.29,68.3h24.28l12.74-30.08a.75.75,0,0,1,1.4,0l7.35,20.42,50.15-85.58A52.84,52.84,0,0,1,380.22,394.22Z"/><path class="cls-3" d="M186.79,456.41c-1,0-2,0-3,0v31.88h110L303,420.88C266.22,441.29,228,456.4,186.79,456.41Z"/><path class="cls-3" d="M320.81,489.3a.75.75,0,0,1-.69.46h-25l-11.92,87.66,56.9-97.09L333,460.53Z"/><path class="cls-3" d="M271.07,267.22l-12.49-6.79H191.86a8.07,8.07,0,0,0-8.06,8.06v19.75h65.74Zm-73.35,11.92a4.2,4.2,0,1,1,4.2-4.2A4.21,4.21,0,0,1,197.73,279.13Zm14.34,0a4.2,4.2,0,1,1,4.2-4.2A4.21,4.21,0,0,1,212.07,279.13Zm14.34,0a4.2,4.2,0,1,1,4.2-4.2A4.21,4.21,0,0,1,226.4,279.13Z"/><path class="cls-3" d="M143.94,442.58h-.26a6.34,6.34,0,1,0,.26,0Z"/><circle class="cls-3" cx="278.72" cy="588.96" r="7.18"/><path class="cls-3" d="M153.7,438.34a14.42,14.42,0,1,0,4.63,10A14.3,14.3,0,0,0,153.7,438.34Zm-4,15.92a7.8,7.8,0,0,1-5.46,2.52h-.33a7.85,7.85,0,1,1,5.78-2.53Z"/><path class="cls-3" d="M127,352.83h29V341.1H127.17a.75.75,0,0,1-.53-.22l-4.38-4.38h-14v4.39a.75.75,0,0,1-.75.75h-7.13v38.74l26.05-27.32A.75.75,0,0,1,127,352.83Z"/><circle class="cls-3" cx="622.38" cy="457.03" r="7.18"/><path class="cls-3" d="M631.34,327.25a1.42,1.42,0,0,0-1.1-1.68h0a1.42,1.42,0,0,0-1.68,1.1l-.52,2.5,2.79.58Z"/><path class="cls-3" d="M167.48,195.41a14.34,14.34,0,1,0,14.34,14.34A14.35,14.35,0,0,0,167.48,195.41Zm0,5.9a8.45,8.45,0,0,0-7.4,4.37.75.75,0,1,1-1.31-.72,10,10,0,0,1,8.71-5.15.75.75,0,0,1,0,1.5Z"/><path class="cls-3" d="M431.65,352.87l26.83,14.6L443,335.11c-3.38,1.74-6.75,3.54-10.12,5.38,0,.36,0,.71,0,1.07A52.82,52.82,0,0,1,431.65,352.87Z"/><circle class="cls-3" cx="508.49" cy="193.11" r="7.18"/><path class="cls-3" d="M354.5,387.51a52.64,52.64,0,0,1-12.79-81.87l-20-10.9-16.79,123.4C321.67,408.67,338.22,398.12,354.5,387.51Z"/><path class="cls-3" d="M442.34,333.8l-6.58-13.73L431.11,328a52.56,52.56,0,0,1,1.7,10.82Q437.56,336.25,442.34,333.8Z"/><circle class="cls-3" cx="335.48" cy="200.32" r="7.18"/><circle class="cls-3" cx="353.93" cy="148.39" r="7.18"/><path class="cls-3" d="M320.48,292.39l11.18-82.22-49.95,48.75h31.83a.75.75,0,0,1,0,1.5H280.18l-6.61,6.45Z"/><path class="cls-3" d="M631.15,314.11a1.42,1.42,0,1,0,2.79.58l.52-2.5-2.79-.58Z"/><path class="cls-2" d="M470.23,289a.75.75,0,0,0,.75.75h99.08v-1.5H471A.75.75,0,0,0,470.23,289Z"/><path class="cls-2" d="M197.73,270.73a4.2,4.2,0,1,0,4.2,4.2A4.21,4.21,0,0,0,197.73,270.73Zm0,6.91a2.7,2.7,0,1,1,2.7-2.7A2.71,2.71,0,0,1,197.73,277.63Z"/><path class="cls-2" d="M212.07,270.73a4.2,4.2,0,1,0,4.2,4.2A4.21,4.21,0,0,0,212.07,270.73Zm0,6.91a2.7,2.7,0,1,1,2.7-2.7A2.71,2.71,0,0,1,212.07,277.63Z"/><path class="cls-2" d="M226.4,270.73a4.2,4.2,0,1,0,4.2,4.2A4.21,4.21,0,0,0,226.4,270.73Zm0,6.91a2.7,2.7,0,1,1,2.7-2.7A2.71,2.71,0,0,1,226.4,277.63Z"/><path class="cls-2" d="M558.75,271.39a.75.75,0,1,0-1.06-1.06l-3.54,3.54,1.06,1.06Z"/><path class="cls-2" d="M549.56,279.53a.75.75,0,0,0,1.06,0l3.54-3.54-1.06-1.06-3.54,3.54A.75.75,0,0,0,549.56,279.53Z"/><path class="cls-2" d="M557.69,279.53a.75.75,0,1,0,1.06-1.06l-3.54-3.54L554.15,276Z"/><path class="cls-2" d="M550.62,270.33a.75.75,0,1,0-1.06,1.06l3.54,3.54,1.06-1.06Z"/><rect class="cls-2" x="553.4" y="274.18" width="1.5" height="1.5" transform="translate(-32.1 472.37) rotate(-45)"/><path class="cls-2" d="M180.16,216.9a.75.75,0,0,1,1-.3l.45.24a15.9,15.9,0,1,0-.74,1.31l-.42-.23A.75.75,0,0,1,180.16,216.9Zm-12.68,7.19a14.34,14.34,0,1,1,14.34-14.34A14.35,14.35,0,0,1,167.48,224.08Z"/><path class="cls-2" d="M167.48,199.81a10,10,0,0,0-8.71,5.15.75.75,0,0,0,1.31.72,8.45,8.45,0,0,1,7.4-4.37.75.75,0,0,0,0-1.5Z"/><path class="cls-2" d="M157.74,453.1a.75.75,0,0,1,.87-.61l.8.13a16,16,0,0,0,.43-4.33,15.92,15.92,0,1,0-15.92,16.56h.66A15.89,15.89,0,0,0,159,454.07l-.64-.1A.75.75,0,0,1,157.74,453.1Zm-3.21,5.61a14.42,14.42,0,1,1,3.81-10.36A14.32,14.32,0,0,1,154.53,458.7Z"/><path class="cls-2" d="M143.61,441.08a7.85,7.85,0,0,0,.31,15.7h.33a7.85,7.85,0,1,0-.64-15.69Zm.57,14.2a6.35,6.35,0,1,1-.51-12.7h.26a6.35,6.35,0,0,1,.25,12.7Z"/><path class="cls-2" d="M333,207.44a.75.75,0,0,1,.41.77l-.07.52a8.69,8.69,0,1,0-1.73-.64l.54-.52A.75.75,0,0,1,333,207.44Zm-4.74-7.12a7.18,7.18,0,1,1,7.18,7.18A7.19,7.19,0,0,1,328.3,200.32Z"/><path class="cls-2" d="M282,581.78a.75.75,0,0,1-.74-.85l0-.27a8.74,8.74,0,1,0,1.44.6l-.09.15A.75.75,0,0,1,282,581.78ZM285.9,589a7.18,7.18,0,1,1-7.18-7.18A7.19,7.19,0,0,1,285.9,589Z"/><path class="cls-2" d="M357.48,155a.75.75,0,0,1,1,.35l.15.31a8.51,8.51,0,1,0-1.32.71l-.18-.37A.75.75,0,0,1,357.48,155Zm-10.72-6.63a7.18,7.18,0,1,1,7.18,7.18A7.19,7.19,0,0,1,346.75,148.39Z"/><path class="cls-2" d="M505.48,199.62a.75.75,0,0,1,.27,1l-.33.57a8.71,8.71,0,1,0-1.35-.66l.39-.67A.75.75,0,0,1,505.48,199.62Zm-4.16-6.51a7.18,7.18,0,1,1,7.18,7.18A7.19,7.19,0,0,1,501.31,193.11Z"/><path class="cls-2" d="M431.65,352.87c-.11.51-.22,1-.35,1.52l28.28,15.39-1.11-2.31Z"/><polygon class="cls-2" points="272.45 267.97 320.26 293.98 320.48 292.39 273.58 266.87 272.45 267.97"/><polygon class="cls-2" points="272.2 266.12 261.73 260.42 258.59 260.42 271.07 267.21 272.2 266.12"/><path class="cls-2" d="M181.62,216.84q-.34.67-.74,1.31l74.95,40.78H259Z"/><path class="cls-2" d="M341.71,305.65c.35-.38.71-.76,1.07-1.12l-20.9-11.37-.22,1.59Z"/><polygon class="cls-2" points="461.83 371 570.06 429.88 570.06 428.17 460.73 368.69 461.83 371"/><path class="cls-2" d="M181.17,216.6a.75.75,0,0,0-.72,1.32l.42.23q.4-.63.74-1.31Z"/><circle class="cls-4" cx="622.38" cy="457.03" r="7.18"/><path class="cls-4" d="M622.38,437.27a19.73,19.73,0,0,0-17.17,10l9.73,5.29a8.71,8.71,0,1,1-.66,1.35l-9.76-5.31a19.74,19.74,0,1,0,17.86-11.35Z"/><path class="cls-2" d="M571.56,429v1.71l33,17.93c.21-.45.44-.9.68-1.34Z"/><path class="cls-5" d="M613.69,457a8.71,8.71,0,1,0,1.24-4.45l-9.73-5.29c-.25.43-.47.88-.68,1.34l9.76,5.31A8.62,8.62,0,0,0,613.69,457Zm8.68-7.18a7.18,7.18,0,1,1-7.18,7.18A7.19,7.19,0,0,1,622.38,449.85Z"/><path class="cls-2" d="M159.41,452.62q-.17.74-.42,1.45a166.63,166.63,0,0,0,23.32,2.27v-1.5A165.34,165.34,0,0,1,159.41,452.62Z"/><path class="cls-2" d="M442.34,333.8q-4.78,2.44-9.53,5c0,.55,0,1.11,0,1.66,3.36-1.84,6.73-3.64,10.12-5.38Z"/><path class="cls-2" d="M581.55,308.9c-3.35-.71-6.67-1.3-10-1.8v1.51q4.81.73,9.61,1.74v0C581.28,309.83,581.41,309.36,581.55,308.9Z"/><path class="cls-2" d="M304.88,418.14l-.25,1.82c17.4-9.74,34.48-20.63,51.37-31.64-.51-.26-1-.53-1.51-.81C338.22,398.12,321.67,408.67,304.88,418.14Z"/><path class="cls-2" d="M443.68,333.12l.63,1.32c8.18-4.16,16.41-8,24.71-11.38,35.47-14.48,68.64-19.3,101.05-14.66v-1.52C524.8,300.44,483.26,313.08,443.68,333.12Z"/><path class="cls-2" d="M303,420.88l.25-1.82a374.11,374.11,0,0,1-37.1,18.38c-28.81,12.15-56,17.92-82.34,17.44v1.5c1,0,2,0,3,0C228,456.4,266.22,441.29,303,420.88Z"/><path class="cls-2" d="M158.6,452.48a.75.75,0,0,0-.26,1.48l.64.1q.24-.71.42-1.45Z"/><path class="cls-2" d="M155.95,353.58v-.75H127a.75.75,0,0,0-.54.23l-26.05,27.32v1.12h1l25.92-27.17H156.7A.75.75,0,0,1,155.95,353.58Z"/><path class="cls-2" d="M156.7,354.33h13.07a.75.75,0,0,0,0-1.5H157.45v.75A.75.75,0,0,1,156.7,354.33Z"/><path class="cls-2" d="M100.39,380.38V341.64h7.13a.75.75,0,0,0,.75-.75V336.5h14l4.38,4.38a.75.75,0,0,0,.53.22h28.78v11.72h1.5V340.35a.75.75,0,0,0-.75-.75H127.48l-4.38-4.38a.75.75,0,0,0-.53-.22H107.52a.75.75,0,0,0-.75.75v4.39H99.64a.75.75,0,0,0-.75.75v41.36h0a.75.75,0,0,1,.21-.53Z"/><path class="cls-2" d="M304.88,418.14l16.79-123.4-1.41-.77-17,125.08Z"/><path class="cls-2" d="M391.25,393.05,341.1,478.64l.66,1.84,51.5-87.88C392.6,392.76,391.93,392.91,391.25,393.05Z"/><path class="cls-2" d="M435.76,320.07l-.78-1.63L430.54,326c.2.66.39,1.33.57,2Z"/><polygon class="cls-2" points="470.71 260.42 468.98 260.42 435.89 316.88 436.67 318.51 470.71 260.42"/><path class="cls-2" d="M331.66,210.17l-11.18,82.22,1.41.77,11.48-84.42a8.6,8.6,0,0,1-1.73-.64l-52.07,50.83h2.15Z"/><path class="cls-2" d="M154,381.5h-52.6l-1.21,1.27a.75.75,0,0,1-.54.23H154.3a.75.75,0,0,0,.52-.21L182.31,356v-2.1Z"/><path class="cls-2" d="M303,420.88l-9.17,67.38h1.51l9.29-68.3Z"/><path class="cls-2" d="M283.22,577.42l11.92-87.66h-1.51l-12.37,90.9a8.62,8.62,0,0,1,1.44.6l58.07-99.1-.66-1.84Z"/><polygon class="cls-2" points="273.58 266.87 280.18 260.42 278.03 260.42 272.2 266.12 273.58 266.87"/><polygon class="cls-2" points="248.01 289.73 183.81 352.4 183.81 354.5 250.16 289.73 248.01 289.73"/><polygon class="cls-2" points="249.55 288.23 251.7 288.23 272.45 267.97 271.07 267.21 249.55 288.23"/><path class="cls-2" d="M333.44,208.21a.75.75,0,0,0-1.27-.64l-.54.52a8.6,8.6,0,0,0,1.73.64Z"/><path class="cls-2" d="M281.22,580.93a.75.75,0,0,0,1.39.48l.09-.15a8.62,8.62,0,0,0-1.44-.6Z"/><path class="cls-2" d="M505.74,200.65a.75.75,0,0,0-1.29-.76l-.39.67a8.64,8.64,0,0,0,1.35.66Z"/><polygon class="cls-2" points="272.2 266.12 271.07 267.21 272.45 267.97 273.58 266.87 272.2 266.12"/><polygon class="cls-2" points="320.26 293.98 321.67 294.74 321.89 293.15 320.48 292.39 320.26 293.98"/><path class="cls-2" d="M303.25,419.06l-.25,1.82,1.64-.92.25-1.82Z"/><path class="cls-2" d="M155.95,353.58a.75.75,0,0,0,1.5,0v-.75h-1.5Z"/><path class="cls-2" d="M562,260.42a8.07,8.07,0,0,1,8.06,8.06v19.75h.75a.75.75,0,0,1,.75.75v-20.5a9.57,9.57,0,0,0-9.56-9.56H471.59l-.88,1.5Z"/><path class="cls-2" d="M570.81,289.73h-.75v17.14l1.5.23V289A.75.75,0,0,1,570.81,289.73Z"/><path class="cls-2" d="M333.07,457.72a.74.74,0,0,0-.71.46l-12.74,30.08H295.35l-.2,1.5h25a.75.75,0,0,0,.69-.46L333,460.53l7.12,19.79,1-1.69-7.35-20.42A.75.75,0,0,0,333.07,457.72Z"/><path class="cls-2" d="M445.23,488.26l-8.95-17.63a.75.75,0,0,0-1.38.09l-24.48,68.89L381.07,433a.75.75,0,0,0-1.44,0l-25.1,83-12.76-35.47-1,1.69,13.1,36.43a.75.75,0,0,0,1.42,0l25-82.64,29.3,106.39a.75.75,0,0,0,.7.55h0a.75.75,0,0,0,.71-.5l24.69-69.49,8.37,16.49a.75.75,0,0,0,.67.41H517.1l-.72-1.5Z"/><path class="cls-2" d="M452.77,258.92a.75.75,0,0,0,0,1.5H469l.88-1.5Z"/><path class="cls-2" d="M183.81,354.5l-1.5,1.46v98.88l1.5,0Z"/><path class="cls-2" d="M183.06,288.23h.75V268.48a8.07,8.07,0,0,1,8.06-8.06h66.72l-2.76-1.5h-64a9.57,9.57,0,0,0-9.56,9.56V289A.75.75,0,0,1,183.06,288.23Z"/><path class="cls-2" d="M570.06,488.26H518l.72,1.5h52.05a.75.75,0,0,0,.75-.75V430.69l-1.5-.82Z"/><path class="cls-2" d="M183.81,488.26V456.37l-1.5,0V489a.75.75,0,0,0,.75.75H293.63l.2-1.5Z"/><path class="cls-2" d="M314.3,259.67a.75.75,0,0,0-.75-.75H281.72l-1.54,1.5h33.37A.75.75,0,0,0,314.3,259.67Z"/><polygon class="cls-2" points="278.03 260.42 279.57 258.92 258.97 258.92 261.73 260.42 278.03 260.42"/><path class="cls-2" d="M570.06,428.17l1.5.82V308.61l-1.5-.22Z"/><path class="cls-2" d="M183.81,289.73h-.75a.75.75,0,0,1-.75-.75v64.89l1.5-1.46Z"/><path class="cls-2" d="M570.81,288.23h-.75v1.5h.75a.75.75,0,0,0,0-1.5Z"/><polygon class="cls-2" points="261.73 260.42 258.97 258.92 255.83 258.92 258.59 260.42 261.73 260.42"/><polygon class="cls-2" points="570.06 429.88 571.56 430.69 571.56 428.99 570.06 428.17 570.06 429.88"/><path class="cls-2" d="M570.06,306.87v1.52l1.5.22V307.1Z"/><path class="cls-2" d="M183.81,454.87l-1.5,0v1.5l1.5,0Z"/><polygon class="cls-2" points="471.59 258.92 469.85 258.92 468.98 260.42 470.71 260.42 471.59 258.92"/><polygon class="cls-2" points="280.18 260.42 281.72 258.92 279.57 258.92 278.03 260.42 280.18 260.42"/><polygon class="cls-2" points="183.81 352.4 182.31 353.87 182.31 355.96 183.81 354.5 183.81 352.4"/><polygon class="cls-2" points="341.1 478.64 340.11 480.32 340.77 482.16 341.76 480.47 341.1 478.64"/><polygon class="cls-2" points="295.35 488.26 293.83 488.26 293.63 489.76 295.14 489.76 295.35 488.26"/><path class="cls-2" d="M294.82,289.73a.75.75,0,0,0,0-1.5H251.7l-1.54,1.5Z"/><polygon class="cls-2" points="249.55 288.23 183.81 288.23 183.81 289.73 248.01 289.73 249.55 288.23"/><polygon class="cls-2" points="248.01 289.73 250.16 289.73 251.7 288.23 249.55 288.23 248.01 289.73"/><path class="cls-2" d="M183.06,289.73h.75v-1.5h-.75a.75.75,0,0,0,0,1.5Z"/><path class="cls-2" d="M599.59,297.71a16.12,16.12,0,0,0-18,11.19h0a.75.75,0,1,1-.31,1.47l-.09,0a16.13,16.13,0,0,0,12.51,19l30.22,6.26a4.88,4.88,0,0,0,5.77-3.79l.15-.74-1.47-.3-.15.74a3.38,3.38,0,0,1-4,2.63L594,327.88a14.6,14.6,0,0,1,4.71-28.8l.16-.79A.74.74,0,0,1,599.59,297.71Z"/><path class="cls-2" d="M634.24,309.84a4.89,4.89,0,0,0-3.79-5.77l-30.22-6.26-.37-.06a.74.74,0,0,1,.49.85l-.15.73,30,6.2a3.39,3.39,0,0,1,2.63,4l-.15.74,1.47.3Z"/><path class="cls-2" d="M582.15,309.79a.75.75,0,0,0-.58-.89h0c-.14.46-.27.93-.37,1.42v0l.09,0A.75.75,0,0,0,582.15,309.79Z"/><path class="cls-2" d="M635.5,310.87l-1.41-.29L634,311a.75.75,0,0,1-1.47-.3l.08-.38-1.37-.28a.75.75,0,0,0-.89.58l-.67,3.24a2.93,2.93,0,0,0,2.27,3.45h0a2.92,2.92,0,0,0,3.45-2.27l.67-3.24A.75.75,0,0,0,635.5,310.87Zm-1.56,3.82a1.42,1.42,0,1,1-2.79-.58l.52-2.5,2.79.58Z"/><path class="cls-2" d="M633.12,311.54A.76.76,0,0,0,634,311l.08-.38-1.47-.3-.08.38A.75.75,0,0,0,633.12,311.54Z"/><path class="cls-2" d="M629.33,329.82a.75.75,0,0,1,.58.89l-.08.38,1.41.29.15,0a.75.75,0,0,0,.73-.6l.67-3.24a2.93,2.93,0,0,0-2.27-3.45h0a2.92,2.92,0,0,0-3.45,2.27l-.67,3.24a.75.75,0,0,0,.58.89l1.37.28.08-.38A.75.75,0,0,1,629.33,329.82Zm-.78-3.15a1.42,1.42,0,0,1,1.68-1.1h0a1.42,1.42,0,0,1,1.1,1.68l-.52,2.5-2.79-.58Z"/><path class="cls-2" d="M629.91,330.7a.75.75,0,0,0-1.47-.3l-.08.38,1.47.3Z"/><path class="cls-2" d="M599.75,297.71a.71.71,0,0,0-.16,0l.25,0Z"/><path class="cls-2" d="M598.7,299.09l-5.27,25.46a.75.75,0,0,0,.58.89l.15,0a.75.75,0,0,0,.73-.6l5.29-25.52-.27-.06C599.51,299.19,599.11,299.14,598.7,299.09Z"/><path class="cls-2" d="M599.84,297.75l-.25,0a.74.74,0,0,0-.72.58l-.16.79c.4,0,.81.1,1.21.19l.27.06.15-.73A.74.74,0,0,0,599.84,297.75Z"/><path class="cls-2" d="M458.48,367.46l2.25,1.22-16.42-34.25-1.34.67Z"/><path class="cls-2" d="M358.62,155.69a8.65,8.65,0,0,1-1.32.71l77.68,162,.91-1.56Z"/><path class="cls-2" d="M523.13,502.35l.46-.24a.75.75,0,0,1,.69,1.33l-.5.26,2.77,5.77.64-.34a.75.75,0,0,1,.69,1.33l-.69.36a30.6,30.6,0,0,1,2.24,6.29.74.74,0,0,1,.81.38.75.75,0,0,1-.32,1l-.18.09a32.29,32.29,0,0,1,.5,7l.33-.17a.75.75,0,0,1,.69,1.33l-1.13.59a38.49,38.49,0,0,1-2.81,11.27l.1,0c.47.1.92.21,1.38.33,4.08-10.12,3.9-20.81-.57-29.52l-9.45-19.72H517.1Z"/><path class="cls-2" d="M443.68,333.12l-7-14.61-.91,1.56,6.58,13.73Z"/><path class="cls-2" d="M526.73,540.06c-4.39,10.15-4.42,21-.12,29.86a.74.74,0,0,1,.36-.9l.7-.35a30.6,30.6,0,0,1-2.08-6.24.74.74,0,0,1-.61-1.36l.32-.16a32.52,32.52,0,0,1-.38-7.23.75.75,0,0,1-.27-1.41l.41-.2a39.08,39.08,0,0,1,3.16-11.65l-1.11-.26Z"/><polygon class="cls-2" points="459.58 369.77 516.38 488.26 518.04 488.26 461.83 371 459.58 369.77"/><path class="cls-2" d="M527.3,570.43a.74.74,0,0,1-.63-.37c.08.16.15.33.24.5L534,584.37a.75.75,0,0,0,1.33-.68L532,577.12l-.67.34a.75.75,0,1,1-.67-1.34l.67-.34-3-5.77-.67.34A.75.75,0,0,1,527.3,570.43Z"/><path class="cls-2" d="M358.48,155.38a.75.75,0,1,0-1.35.65l.18.37a8.65,8.65,0,0,0,1.32-.71Z"/><polygon class="cls-2" points="459.58 369.77 461.83 371 460.73 368.69 458.48 367.46 459.58 369.77"/><path class="cls-2" d="M443,335.11l1.34-.67-.63-1.32-1.34.68Z"/><polygon class="cls-2" points="436.67 318.51 435.89 316.88 434.98 318.44 435.76 320.07 436.67 318.51"/><polygon class="cls-2" points="516.38 488.26 517.1 489.76 518.76 489.76 518.04 488.26 516.38 488.26"/><path class="cls-2" d="M527.31,538.65c-10.9-2.31-19.39-8.43-23.9-17.24l-6.67-13a.75.75,0,1,0-1.33.68l6.67,13c4.62,9,13.6,15.53,24.66,18l.14-.35C527,539.35,527.16,539,527.31,538.65Z"/><path class="cls-2" d="M528.21,540.4c10.41,2.47,18.52,8.47,22.89,17l7.39,14.41a.75.75,0,0,0,1.33-.68l-7.39-14.41c-4.48-8.73-13-15.13-23.65-17.72-.18.44-.35.88-.54,1.31Z"/><path class="cls-2" d="M527.31,538.65c-.14.35-.28.7-.44,1.05l-.14.35.37.09,1.11.26,0-.09c.19-.44.37-.87.54-1.31-.46-.11-.92-.23-1.38-.33Z"/><path class="cls-2" d="M502.74,512.88a.75.75,0,0,0,.69,1.33l20.35-10.52-.65-1.35Z"/><path class="cls-2" d="M524.6,502.43a.75.75,0,0,0-1-.32l-.46.24.65,1.35.5-.26A.75.75,0,0,0,524.6,502.43Z"/><path class="cls-2" d="M526.55,509.47,506.38,520a.75.75,0,0,0,.69,1.33l20.12-10.5c-.11-.23-.21-.46-.32-.68Z"/><path class="cls-2" d="M528.2,509.45a.75.75,0,0,0-1-.32l-.64.34.32.67c.12.23.21.46.32.68l.69-.36A.75.75,0,0,0,528.2,509.45Z"/><path class="cls-2" d="M529.23,517.17l-17.84,9.23a.75.75,0,1,0,.69,1.33l17.66-9.14c-.09-.5-.19-1-.31-1.48A.73.73,0,0,0,529.23,517.17Z"/><path class="cls-2" d="M530.24,517.49a.74.74,0,0,0-.81-.38c.12.49.21,1,.31,1.48l.18-.09A.75.75,0,0,0,530.24,517.49Z"/><path class="cls-2" d="M517.94,532a.75.75,0,1,0,.69,1.33l11.49-6q.08-.88.11-1.75Z"/><path class="cls-2" d="M531.57,525.78a.75.75,0,0,0-1-.32l-.33.17q0,.87-.11,1.75l1.13-.59A.75.75,0,0,0,531.57,525.78Z"/><path class="cls-2" d="M552.77,566.63a.75.75,0,1,0-.67-1.34l-20.82,10.49.68,1.34Z"/><path class="cls-2" d="M530.28,577.12a.75.75,0,0,0,1,.33l.67-.34-.68-1.34-.67.34A.75.75,0,0,0,530.28,577.12Z"/><path class="cls-2" d="M528.31,570l20.81-10.48a.75.75,0,1,0-.67-1.34l-20.78,10.47c.19.41.37.82.58,1.22Z"/><path class="cls-2" d="M526.63,570l0,0-.07-.15A.71.71,0,0,0,526.63,570Z"/><path class="cls-2" d="M526.6,569.91l.07.15a.74.74,0,0,0,.63.37.75.75,0,0,0,.34-.08l.67-.34-.07-.13c-.21-.4-.39-.81-.58-1.22l-.7.35A.74.74,0,0,0,526.6,569.91Z"/><path class="cls-2" d="M525.65,562.4l18.62-9.35a.75.75,0,1,0-.67-1.34l-18.31,9.19c.08.51.19,1,.3,1.51Z"/><path class="cls-2" d="M524.64,562.06a.71.71,0,0,0,.95.35c-.11-.5-.21-1-.3-1.51l-.32.16A.75.75,0,0,0,524.64,562.06Z"/><path class="cls-2" d="M525,553.68a.74.74,0,0,0,.33-.08l12.26-6.09a.75.75,0,0,0-.67-1.34L525,552.05c-.06.54-.1,1.08-.14,1.62Z"/><path class="cls-2" d="M524.3,553.26a.74.74,0,0,0,.61.41c0-.54.08-1.08.14-1.62l-.41.2A.75.75,0,0,0,524.3,553.26Z"/><path class="cls-6" d="M432.88,341.56c0-.36,0-.71,0-1.07q-5.9,3.23-11.77,6.63l10.56,5.75A52.82,52.82,0,0,0,432.88,341.56Z"/><path class="cls-6" d="M419.3,348.16l-26,44.43a52.75,52.75,0,0,0,38-38.21L419.57,348Z"/><path class="cls-6" d="M354.5,387.51l10.95-7.15C382.76,369,400.24,357.58,418,347.17l-76.32-41.52a52.64,52.64,0,0,0,12.79,81.87Z"/><path class="cls-6" d="M431.11,328l-10.28,17.53q6-3.44,12-6.72A52.56,52.56,0,0,0,431.11,328Z"/><path class="cls-6" d="M366.27,381.61,356,388.32a52.66,52.66,0,0,0,35.25,4.73l25.4-43.35C399.59,359.8,382.79,370.8,366.27,381.61Z"/><path class="cls-6" d="M430.54,326a52.67,52.67,0,0,0-87.76-21.49l76.09,41.4Z"/><path class="cls-6" d="M419.57,348l-.13-.07-.13.23Z"/><path class="cls-7" d="M432.85,340.49c0-.55,0-1.11,0-1.66q-6,3.27-12,6.72L431.11,328c-.18-.67-.36-1.34-.57-2l-11.67,19.91-76.09-41.4c-.36.37-.72.75-1.07,1.12L418,347.17c-17.8,10.42-35.27,21.85-52.59,33.19l-10.95,7.15c.5.28,1,.55,1.51.81l10.26-6.71c16.52-10.81,33.32-21.81,50.39-31.91l-25.4,43.35c.67-.14,1.35-.29,2-.46l26-44.43.13-.23.13.07,11.73,6.38c.13-.5.24-1,.35-1.52l-10.56-5.75Q426.95,343.72,432.85,340.49Z"/><circle class="cls-8" cx="353.93" cy="148.39" r="16.79"/><circle class="cls-8" cx="455.33" cy="532.68" r="15.55"/><g class="cls-9"><circle class="cls-10" cx="196.58" cy="520.27" r="19.03"/></g><circle class="cls-4" cx="196.58" cy="520.27" r="19.03"/><circle class="cls-8" cx="269.92" cy="220.13" r="7.78"/><path class="cls-11" d="M258,544.36a4.5,4.5,0,0,1-4.47-5.09l30-227.19c3.54-26.3,18.17-49.1,40.16-62.58,13.63-8.35,30.42-12.58,49.93-12.58,7.94,0,35.77.75,60.29,10.42,25.45,10,38.9,26.57,38.9,47.84a124,124,0,0,0,14.77,58.57l4,7.48a14.67,14.67,0,0,1-6.11,20A20.73,20.73,0,0,0,474.42,400c.39,14.15-2,33.93-15.44,47.78-10.13,10.41-24.83,15.69-43.69,15.69a4.5,4.5,0,0,1,0-9c16.34,0,28.87-4.36,37.24-13,11.28-11.6,13.24-28.83,12.89-41.25a29.79,29.79,0,0,1,15.91-27,5.67,5.67,0,0,0,2.36-7.71l-4-7.48a133,133,0,0,1-15.84-62.84c0-38.88-56.69-49.25-90.18-49.25-17.82,0-33,3.79-45.22,11.26-19.67,12.05-32.77,32.5-35.94,56.09l-30,227.18A4.5,4.5,0,0,1,258,544.36Z"/><path class="cls-6" d="M380.21,595.4A18.38,18.38,0,0,0,398.59,577c0-7.72-10.64-25.81-15.73-34a3.11,3.11,0,0,0-5.29,0c-5.09,8.2-15.73,26.28-15.73,34A18.38,18.38,0,0,0,380.21,595.4Z"/><path class="cls-3" d="M505.41,201.21l-2.93,5a14.49,14.49,0,1,0-1.33-.7l2.91-5A8.64,8.64,0,0,0,505.41,201.21Z"/><path class="cls-4" d="M551.18,190.24c-6-7-22.85-24.15-42.69-24.15s-36.69,17.19-42.69,24.15a4.39,4.39,0,0,0,0,5.75c4.5,5.21,15.08,16.16,28.44,21.33l6.91-11.79a14.43,14.43,0,1,1,1.33.7l-6.81,11.62a38.76,38.76,0,0,0,12.82,2.29c19.84,0,36.69-17.19,42.69-24.15A4.39,4.39,0,0,0,551.18,190.24Z"/><path class="cls-2" d="M505.41,201.21a8.64,8.64,0,0,1-1.35-.66l-2.91,5a14.35,14.35,0,0,0,1.33.7Z"/><path class="cls-2" d="M469.85,258.92h1.74l24.08-41.09c-.48-.17-1-.34-1.43-.52Z"/><path class="cls-5" d="M501.15,205.52l-6.91,11.79c.47.18,1,.36,1.43.52l6.81-11.62A14.35,14.35,0,0,1,501.15,205.52Z"/></g></g></svg>