<svg id="Layer_1" data-name="Layer 1" xmlns="http://www.w3.org/2000/svg" xmlns:xlink="http://www.w3.org/1999/xlink" viewBox="0 0 100 80"><defs><mask id="mask" x="90" y="59.998" width="4" height="4" maskUnits="userSpaceOnUse"><g id="mask-2"><polygon id="path-1" points="90 59.998 94 59.998 94 63.998 90 63.998 90 59.998" style="fill:#fff"/></g></mask></defs><g id="_-copy-11" data-name="?-copy-11" style="isolation:isolate"><g style="isolation:isolate"><path d="M64.63,7.917c2.063,0,3.453,1.226,3.453,2.922a2.985,2.985,0,0,1-1.64,2.671c-1.008.594-1.3,1.008-1.3,1.8v.469H63.529l-.008-.594a2.545,2.545,0,0,1,1.508-2.468c.945-.571,1.281-1.016,1.281-1.8a1.563,1.563,0,0,0-1.766-1.485A1.691,1.691,0,0,0,62.7,11.057H61.083C61.154,9.26,62.365,7.917,64.63,7.917ZM63.224,18.276a1.207,1.207,0,1,1,1.211,1.188A1.142,1.142,0,0,1,63.224,18.276Z" style="fill:#5039f7"/></g></g><g id="Oval-Copy-5"><ellipse cx="78.266" cy="23.284" rx="18.266" ry="18.284" style="fill:#eeebfe"/></g><g id="Oval-Copy-6"><ellipse cx="16.268" cy="25.284" rx="16.268" ry="16.284" style="fill:#eeebfe"/></g><g id="_-copy-4" data-name="?-copy-4" style="isolation:isolate"><g style="isolation:isolate"><path d="M86.9,4.917c2.5,0,4.186,1.487,4.186,3.542a3.622,3.622,0,0,1-1.989,3.24c-1.222.72-1.572,1.222-1.572,2.178v.569H85.561l-.009-.72a3.086,3.086,0,0,1,1.828-2.993c1.146-.692,1.553-1.232,1.553-2.188a1.9,1.9,0,0,0-2.141-1.8,2.051,2.051,0,0,0-2.235,1.98H82.6C82.681,6.546,84.15,4.917,86.9,4.917Zm-1.705,12.56a1.464,1.464,0,1,1,1.468,1.44A1.384,1.384,0,0,1,85.192,17.477Z" style="fill:#5039f7"/></g></g><g id="_-copy-10" data-name="?-copy-10" style="isolation:isolate"><g style="isolation:isolate"><path d="M93.63,25.917c2.063,0,3.453,1.226,3.453,2.922a2.985,2.985,0,0,1-1.64,2.671c-1.008.594-1.3,1.008-1.3,1.8v.469H92.529l-.008-.594a2.545,2.545,0,0,1,1.508-2.468c.945-.571,1.281-1.016,1.281-1.8a1.563,1.563,0,0,0-1.766-1.485A1.691,1.691,0,0,0,91.7,29.057H90.083C90.154,27.26,91.365,25.917,93.63,25.917ZM92.224,36.276a1.207,1.207,0,1,1,1.211,1.188A1.142,1.142,0,0,1,92.224,36.276Z" style="fill:#5039f7"/></g></g><g id="_-copy-11-2" data-name="?-copy-11" style="isolation:isolate"><g style="isolation:isolate"><path d="M64.63,7.917c2.063,0,3.453,1.226,3.453,2.922a2.985,2.985,0,0,1-1.64,2.671c-1.008.594-1.3,1.008-1.3,1.8v.469H63.529l-.008-.594a2.545,2.545,0,0,1,1.508-2.468c.945-.571,1.281-1.016,1.281-1.8a1.563,1.563,0,0,0-1.766-1.485A1.691,1.691,0,0,0,62.7,11.057H61.083C61.154,9.26,62.365,7.917,64.63,7.917ZM63.224,18.276a1.207,1.207,0,1,1,1.211,1.188A1.142,1.142,0,0,1,63.224,18.276Z" style="fill:#5039f7"/></g></g><g id="Line-2-Copy-3"><path d="M76.064,31.554a44.621,44.621,0,0,1-7.785,7.139,23.112,23.112,0,0,1-6.017,2.918,48.858,48.858,0,0,1-5.376,1.159l-.121-1.063a46.924,46.924,0,0,0,5.168-1.114,21.982,21.982,0,0,0,5.739-2.782A43.455,43.455,0,0,0,75.217,30.9l-3.352-2.6,9.7-4.662L79.476,34.2Z" style="fill:#5039f7"/></g><g id="Shape"><path d="M10.773,19.569a9.414,9.414,0,0,1-2.2-.263,8.632,8.632,0,0,1-5.355-4.043,8.88,8.88,0,0,1-.966-6.678A8.639,8.639,0,0,1,6.3,3.224a8.86,8.86,0,0,1,6.672-.967A8.636,8.636,0,0,1,18.323,6.3,8.829,8.829,0,0,1,15.25,18.339,9.029,9.029,0,0,1,10.773,19.569Zm0-15.818a7.029,7.029,0,0,0-6.76,5.273,7.584,7.584,0,0,0,.7,5.361A7.048,7.048,0,1,0,16.831,7.179,7.1,7.1,0,0,0,10.773,3.751Z" style="fill:#5039f7"/></g><g id="Shape-Copy-4"><path d="M59.825,72.658a3.829,3.829,0,1,1,3.826-3.829A3.838,3.838,0,0,1,59.825,72.658Zm0-6.7a2.872,2.872,0,1,0,2.869,2.872A2.819,2.819,0,0,0,59.825,65.957Z" style="fill:#5039f7"/></g><g id="bf-dots-copy"><g id="Fill-27-Copy"><path d="M85,60H72a2,2,0,0,0,0,4H85a2,2,0,0,0,0-4" style="fill:#5039f7"/></g><g id="Group-31-Copy"><g style="mask:url(#mask)"><g id="Fill-29"><path d="M94,62a2,2,0,1,1-2-2,2,2,0,0,1,2,2" style="fill:#5039f7"/></g></g></g></g><g id="Oval-3"><path d="M30,77A29,29,0,1,1,59,48,29.033,29.033,0,0,1,30,77Zm0-56A27,27,0,1,0,57,48,27.03,27.03,0,0,0,30,21Z"/></g><g id="Oval"><circle cx="30" cy="48" r="20" style="fill:#f9f9f8"/></g><g id="Shape-2" data-name="Shape"><path d="M27.9,68.988h-.1a19.7,19.7,0,0,1-3.233-.589,1.055,1.055,0,0,1,.535-2.041,17.025,17.025,0,0,0,2.919.537A1.053,1.053,0,0,1,27.9,69Zm5.25-.137a1.055,1.055,0,0,1-.168-2.1,19.615,19.615,0,0,0,2.888-.694,1.051,1.051,0,1,1,.64,1.988,19.8,19.8,0,0,1-3.213.768ZM20.057,66.432a1.05,1.05,0,0,1-.525-.137,22,22,0,0,1-2.719-1.872,1.051,1.051,0,0,1,1.312-1.641,18.343,18.343,0,0,0,2.426,1.683,1.052,1.052,0,0,1-.525,1.967Zm20.832-.568a1.053,1.053,0,0,1-.578-1.936,18.557,18.557,0,0,0,2.352-1.809,1.053,1.053,0,0,1,1.407,1.567,20.926,20.926,0,0,1-2.614,2.009,1.049,1.049,0,0,1-.578.169ZM13.873,60.878a1.052,1.052,0,0,1-.84-.431A20.87,20.87,0,0,1,11.3,57.638a1.064,1.064,0,1,1,1.9-.957,19.975,19.975,0,0,0,1.554,2.524,1.054,1.054,0,0,1-.263,1.473A1.044,1.044,0,0,1,13.873,60.878Zm32.864-.894a1.052,1.052,0,0,1-.882-1.62,18.954,18.954,0,0,0,1.418-2.609,1.051,1.051,0,1,1,1.921.852,21.411,21.411,0,0,1-1.575,2.9A1.051,1.051,0,0,1,46.737,59.984ZM10.492,53.315a1.051,1.051,0,0,1-1.05-.831A20.078,20.078,0,0,1,9,49.191a1.051,1.051,0,1,1,2.1-.084,18.5,18.5,0,0,0,.388,2.946,1.051,1.051,0,0,1-.777,1.262A.81.81,0,0,1,10.492,53.315Zm39.217-1.052h-.158a1.051,1.051,0,0,1-.882-1.21,18.462,18.462,0,0,0,.231-3,1.05,1.05,0,1,1,2.1,0,21.206,21.206,0,0,1-.252,3.282A1.051,1.051,0,0,1,49.709,52.263ZM10.471,44.994h-.21a1.05,1.05,0,0,1-.819-1.251,22.325,22.325,0,0,1,.934-3.156,1.051,1.051,0,1,1,1.964.747,18.482,18.482,0,0,0-.84,2.85A1.05,1.05,0,0,1,10.471,44.994Zm38.786-1.146a1.05,1.05,0,0,1-1.05-.779,17.847,17.847,0,0,0-1-2.8,1.053,1.053,0,1,1,1.921-.862,21.468,21.468,0,0,1,1.05,3.156,1.052,1.052,0,0,1-.651,1.283A.892.892,0,0,1,49.257,43.848ZM13.831,37.4a1.056,1.056,0,0,1-.872-1.673,22.131,22.131,0,0,1,2.1-2.514A1.052,1.052,0,1,1,16.55,34.7a19.731,19.731,0,0,0-1.869,2.261A1.049,1.049,0,0,1,13.831,37.4Zm31.625-.915a1.049,1.049,0,0,1-.756-.4,19.771,19.771,0,0,0-2.1-2.1A1.051,1.051,0,0,1,44,32.414a21.211,21.211,0,0,1,2.278,2.346,1.065,1.065,0,0,1-.819,1.725Zm-25.472-4.66a1.052,1.052,0,0,1-.483-1.967,22.543,22.543,0,0,1,2.971-1.431,1.054,1.054,0,0,1,.756,1.967,19.351,19.351,0,0,0-2.677,1.284A1.048,1.048,0,0,1,19.984,31.825ZM39,31.225a1.051,1.051,0,0,1-.473-.115,18.715,18.715,0,0,0-2.74-1.126,1.011,1.011,0,1,1,.64-1.914,20.18,20.18,0,0,1,3.024,1.209A1.052,1.052,0,0,1,39,31.225ZM27.9,29.237a1.054,1.054,0,0,1-.115-2.1,21.454,21.454,0,0,1,3.265-.115A1.078,1.078,0,1,1,31,29.174a20.206,20.206,0,0,0-2.972.084Z" style="fill:#eeebfe"/></g><g id="Shape-3" data-name="Shape"><path d="M37.412,46.412H31.588V40.588a1.588,1.588,0,1,0-3.176,0v5.824H22.588a1.588,1.588,0,1,0,0,3.176h5.824v5.824a1.588,1.588,0,1,0,3.176,0V49.588h5.824a1.588,1.588,0,1,0,0-3.176Z" style="fill:#5039f7"/></g><path d="M66.31,10.909c0,.789-.336,1.234-1.281,1.8a2.545,2.545,0,0,0-1.508,2.468l.008.594h1.617v-.469c0-.789.289-1.2,1.3-1.8a2.985,2.985,0,0,0,1.64-2.671,2.7,2.7,0,0,0-.913-2.055q-.678.521-1.3,1.1A1.368,1.368,0,0,1,66.31,10.909Z" style="fill:#3a26cb"/><path d="M64.435,17.073a1.2,1.2,0,1,0,1.2,1.2A1.142,1.142,0,0,0,64.435,17.073Z" style="fill:#3a26cb"/><path d="M88.924,8.456c0,.03.009.058.009.089,0,.956-.407,1.5-1.553,2.188a3.086,3.086,0,0,0-1.828,2.993l.009.72h1.961v-.569c0-.956.35-1.458,1.572-2.178A4.054,4.054,0,0,0,90.76,9.971,18.254,18.254,0,0,0,88.924,8.456Z" style="fill:#3a26cb"/><path d="M86.168,6.819a18,18,0,0,0-2.275-.925,3.806,3.806,0,0,0-1.3,2.831h1.961A1.98,1.98,0,0,1,86.168,6.819Z" style="fill:#3a26cb"/><path d="M86.66,18.917a1.45,1.45,0,1,0-1.468-1.44A1.373,1.373,0,0,0,86.66,18.917Z" style="fill:#3a26cb"/><path d="M93.63,25.917c-2.265,0-3.476,1.343-3.547,3.14H91.7a1.691,1.691,0,0,1,1.843-1.633,1.563,1.563,0,0,1,1.766,1.485c0,.789-.336,1.234-1.281,1.8a2.545,2.545,0,0,0-1.508,2.468l.008.594h.682A18.177,18.177,0,0,0,96.187,26.8,3.747,3.747,0,0,0,93.63,25.917Z" style="fill:#3a26cb"/><path d="M75.217,30.9a43.455,43.455,0,0,1-7.545,6.914c-.082.057-.169.1-.252.16.308.228.619.453.942.662a44.8,44.8,0,0,0,7.7-7.079L79.476,34.2l2.092-10.559-9.7,4.662Z" style="fill:#3a26cb"/><path d="M14.373,16.845a7,7,0,0,1-9.658-2.46c-.063-.122-.117-.246-.174-.369a16.385,16.385,0,0,0-1.208,1.421,8.652,8.652,0,0,0,5.245,3.869,9.414,9.414,0,0,0,2.2.263,9.036,9.036,0,0,0,4.478-1.23,8.807,8.807,0,0,0,4.154-9.03,16.109,16.109,0,0,0-1.8-.241A6.971,6.971,0,0,1,14.373,16.845Z" style="fill:#3a26cb"/></svg>