<?xml version="1.0" encoding="utf-8"?>
<!-- Generator: Adobe Illustrator 21.1.0, SVG Export Plug-In . SVG Version: 6.00 Build 0)  -->
<svg version="1.1" id="file-viewer" xmlns="http://www.w3.org/2000/svg" xmlns:xlink="http://www.w3.org/1999/xlink" x="0px"
	 y="0px" viewBox="0 0 480.7 465.8" style="enable-background:new 0 0 480.7 465.8;" xml:space="preserve">
<style type="text/css">
	.st0{fill:#E9DBFF;}
	.st1{fill:#DBB7FD;}
	.st2{fill:#E5C6E2;}
	.st3{fill:#071640;}
	.st4{fill:#2760FF;}
	.st5{fill:#1251FF;}
</style>
<g id="bubbles">
	<circle class="st0" cx="15.6" cy="318.4" r="15.6"/>
	<circle class="st0" cx="465.1" cy="254.6" r="15.6"/>
	<g>
		<circle class="st0" cx="91.4" cy="121.1" r="38.2"/>
		<path class="st1" d="M84.9,83.5l35.1,38.1v24.7c0.7-0.8,1.4-1.6,2-2.5v-20l6.3,6.8c0.2-0.8,0.4-1.6,0.5-2.4l-5.6-6.1h6.3
			c0-0.3,0-0.7,0-1s0-0.7,0-1h-8.1l-34-37C86.5,83.2,85.7,83.4,84.9,83.5z"/>
	</g>
	<g>
		<circle class="st0" cx="291.2" cy="388.7" r="29.1"/>
		<g>
			<path class="st1" d="M316.5,374.4h-50.6c-0.4,0.7-0.7,1.3-1,2h52.7C317.2,375.7,316.8,375,316.5,374.4z"/>
			<path class="st1" d="M269.2,407.7h44c0.6-0.6,1.1-1.3,1.6-2h-47.2C268.1,406.4,268.6,407.1,269.2,407.7z"/>
		</g>
	</g>
</g>
<g id="lines">
	<path class="st2" d="M425.3,439.3c-2.8,0-5.5,0.9-7.6,2.5l-32.2-35v-30.4h28.2V101.5L361,56l20.8-23.6c0.9,0.7,1.9,1.3,3,1.7
		c1.9,0.8,4,1.3,6,1.3c1.9,0,3.7-0.4,5.5-1.1c3.8-1.5,6.7-4.3,8.3-8s1.7-7.8,0.2-11.6s-4.3-6.7-8-8.3c-3.7-1.6-7.8-1.7-11.6-0.2
		c-3.8,1.5-6.7,4.3-8.3,8c-1.6,3.7-1.7,7.8-0.2,11.6c0.8,2,2,3.8,3.5,5.3L359.1,55H188.7v29.9h-34.5v70.9l-31-33.6h30.3v-2h-32.1
		L71.9,66.4c1.4-1.4,2.3-3.4,2.3-5.6c0-4.4-3.6-8-8-8s-8,3.6-8,8s3.6,8,8,8c1.5,0,2.9-0.4,4.1-1.2l49.8,54v204.1l-55.9,63.4
		c-2.1-1.6-5-2.1-7.6-1.1c-4,1.6-6,6.1-4.4,10.1c1.2,3.1,4.1,4.9,7.3,4.9c0.9,0,1.9-0.2,2.8-0.5c4-1.6,6-6.1,4.4-10.1
		c-0.3-0.7-0.6-1.3-1.1-1.9l54.5-61.7V439h229.2v-31.2h34.3l32.5,35.3c-2.5,2.4-4,5.8-4,9.5c0,7.3,5.9,13.2,13.2,13.2
		s13.2-5.9,13.2-13.2S432.6,439.3,425.3,439.3z M378.6,25c-1.3-3.3-1.2-6.8,0.2-10s4-5.7,7.2-7c1.6-0.6,3.2-0.9,4.8-0.9
		c1.8,0,3.6,0.4,5.2,1.1c3.2,1.4,5.7,4,7,7.2c1.3,3.3,1.2,6.8-0.2,10s-4,5.7-7.2,7c-3.3,1.3-6.8,1.2-10-0.2
		C382.4,30.9,379.9,28.3,378.6,25z M61.5,400.6c-3,1.2-6.3-0.3-7.5-3.3s0.3-6.3,3.3-7.5c0.7-0.3,1.4-0.4,2.1-0.4
		c2.3,0,4.5,1.4,5.4,3.7C65.9,396.1,64.5,399.5,61.5,400.6z M383.4,404.6l-26-28.2h26V404.6z M355.6,374.4L246.1,255.5
		c9.1-8.5,14.8-20.6,14.8-34c0-13.8-6-26.1-15.5-34.7l113-128v44.1h53.2v271.4h-56V374.4z M190.7,261.6c6.9,4.1,15,6.5,23.7,6.5
		c11.6,0,22.2-4.3,30.3-11.3l108.2,117.5H190.7V261.6z M169.7,221.5c0-12.4,5.1-23.6,13.2-31.7l5.7,6.2v52l-5.1,5.7
		C175,245.7,169.7,234.2,169.7,221.5z M182.3,255.3l-26.1,29.5v-124l25.4,27.6c-8.6,8.5-13.9,20.2-13.9,33.1
		C167.7,234.8,173.3,246.8,182.3,255.3z M244.8,254.1l-30-32.6l29.3-33.2c9.1,8.2,14.8,20,14.8,33.2
		C258.9,234.3,253.5,245.9,244.8,254.1z M213.4,220l-22.8-24.7v-11.6c6.9-4.3,15-6.8,23.7-6.8c10.7,0,20.5,3.8,28.2,10.1L213.4,220z
		 M212.1,221.5l-21.4,24.3v-47.5L212.1,221.5z M188.7,193.1l-4.3-4.6c1.4-1.2,2.8-2.4,4.3-3.4V193.1z M188.7,251.1v6.9
		c-1.2-0.9-2.4-1.8-3.6-2.8L188.7,251.1z M190.7,248.8l22.8-25.8l29.8,32.4c-7.8,6.7-17.9,10.7-29,10.7c-8.7,0-16.8-2.5-23.7-6.8
		v-10.5H190.7z M360.4,58.2l49.5,42.8h-49.5L360.4,58.2L360.4,58.2z M357.4,57L243.9,185.5c-8.1-6.6-18.4-10.6-29.6-10.6
		c-8.6,0-16.7,2.4-23.7,6.5V57H357.4z M156.2,86.9h32.5v95.8c-2,1.3-3.9,2.8-5.6,4.4l-26.9-29.2V86.9z M60.1,60.7c0-3.3,2.7-6,6-6
		s6,2.7,6,6c0,3.3-2.7,6-6,6C62.8,66.8,60.1,64.1,60.1,60.7z M122.1,123.8l32.1,34.9v128.4l-32.1,36.4L122.1,123.8L122.1,123.8z
		 M347.3,437H122.1V326.5l32.1-36.4v117.6h193.1V437z M156.2,405.7V287.9l27.6-31.2c1.6,1.4,3.2,2.6,4.9,3.7v116h166.1l27.1,29.4
		H156.2V405.7z M425.3,463.7c-6.2,0-11.2-5-11.2-11.2s5-11.2,11.2-11.2s11.2,5,11.2,11.2S431.5,463.7,425.3,463.7z"/>
	<path class="st2" d="M31.2,174.8c-6.3,0-11.4,5.1-11.4,11.4s5.1,11.4,11.4,11.4c6.3,0,11.4-5.1,11.4-11.4S37.5,174.8,31.2,174.8z
		 M31.2,195.6c-5.2,0-9.4-4.2-9.4-9.4s4.2-9.4,9.4-9.4s9.4,4.2,9.4,9.4S36.4,195.6,31.2,195.6z"/>
	<path class="st2" d="M368.4,317.4c-5.5,0-10,4.5-10,10s4.5,10,10,10s10-4.5,10-10S373.9,317.4,368.4,317.4z M368.4,335.4
		c-4.4,0-8-3.6-8-8s3.6-8,8-8s8,3.6,8,8S372.8,335.4,368.4,335.4z"/>
	<path class="st2" d="M442.5,194.8c-4.4,0-8,3.6-8,8s3.6,8,8,8s8-3.6,8-8S447,194.8,442.5,194.8z M442.5,208.8c-3.3,0-6-2.7-6-6
		s2.7-6,6-6s6,2.7,6,6C448.6,206.1,445.9,208.8,442.5,208.8z"/>
	<path class="st2" d="M388.5,25.6c0.7,0.3,1.5,0.5,2.3,0.5c0.7,0,1.4-0.1,2.1-0.4c3-1.2,4.5-4.6,3.3-7.6s-4.6-4.5-7.5-3.3l0,0
		c-1.4,0.6-2.6,1.7-3.2,3.1c-0.6,1.4-0.7,3-0.1,4.5C386,23.8,387.1,25,388.5,25.6z M387.3,18.7c0.4-0.9,1.2-1.7,2.1-2
		c2-0.8,4.2,0.2,5,2.2s-0.2,4.2-2.2,5c-1,0.4-2,0.4-2.9-0.1c-0.9-0.4-1.7-1.2-2-2.1S386.9,19.7,387.3,18.7z"/>
	<path class="st2" d="M141.7,19.7c0.8,0.2,1.7,0.3,2.5,0.3c1.8,0,3.5-0.5,5.1-1.4c4.8-2.8,6.3-8.9,3.5-13.7
		c-1.4-2.3-3.5-3.9-6.1-4.6s-5.3-0.3-7.6,1.1c-2.3,1.4-3.9,3.5-4.6,6.1c-0.7,2.6-0.3,5.3,1.1,7.6C136.9,17.4,139.1,19,141.7,19.7z
		 M136.4,8c0.5-2.1,1.8-3.8,3.7-4.9c1.3-0.7,2.7-1.1,4-1.1c2.7,0,5.4,1.4,6.9,3.9c2.2,3.8,1,8.7-2.8,11c-3.8,2.2-8.7,1-11-2.8
		C136.2,12.2,135.9,10,136.4,8z"/>
</g>
<g id="eyeball">
	<g id="eye">
		<path class="st3" d="M210.3,107c-2.5,0-4.5-2-4.5-4.5V50.6c0-2.5,2-4.5,4.5-4.5s4.5,2,4.5,4.5v51.9C214.8,105,212.8,107,210.3,107
			z"/>
		<path class="st3" d="M157.5,125.6c-1.3,0-2.6-0.6-3.5-1.7l-30.4-37.5c-1.6-1.9-1.3-4.8,0.7-6.3c1.9-1.6,4.8-1.3,6.3,0.7l30.4,37.5
			c1.6,1.9,1.3,4.8-0.7,6.3C159.5,125.3,158.5,125.6,157.5,125.6z"/>
		<path class="st3" d="M263.1,125.6c-1,0-2-0.3-2.8-1c-1.9-1.6-2.2-4.4-0.7-6.3L290,80.8c1.6-1.9,4.4-2.2,6.3-0.7
			c1.9,1.6,2.2,4.4,0.7,6.3l-30.4,37.5C265.7,125,264.4,125.6,263.1,125.6z"/>
		<path class="st3" d="M213.3,316.8c-35.2,0-73.2-16.1-109.9-46.4c-27.5-22.8-44.3-45.2-45.1-46.2c-1.2-1.6-1.2-3.8,0-5.4
			c0.7-0.9,17.6-23.4,45.1-46.2c36.6-30.4,74.6-46.4,109.9-46.4c35.2,0,73.2,16.1,109.9,46.4c27.5,22.8,44.3,45.2,45.1,46.2
			c1.2,1.6,1.2,3.8,0,5.4c-0.7,0.9-17.6,23.4-45.1,46.2C286.5,300.7,248.5,316.8,213.3,316.8z M67.7,221.5
			c5.3,6.6,20.4,24.4,41.6,42.1c24.4,20.2,62.2,44.2,104,44.2s79.6-24,104-44.2c21.3-17.6,36.3-35.4,41.6-42.1
			c-5.3-6.6-20.4-24.4-41.6-42.1c-24.4-20.2-62.2-44.2-104-44.2C140.9,135.2,79.7,206.6,67.7,221.5z"/>
	</g>
	<g>
		<circle id="highlights" class="st4" cx="214.3" cy="221.5" r="73.9"/>
		<g>
			<path class="st5" d="M188.7,152.2v30.5c-2,1.3-3.9,2.8-5.6,4.4l-18.6-20.2c-0.5,0.4-1,0.9-1.4,1.4l18.5,20.1
				c-8.6,8.5-13.9,20.2-13.9,33.1c0,13.3,5.6,25.3,14.6,33.8l-18.1,20.5c0.5,0.5,1,0.9,1.5,1.3l18.1-20.5c1.6,1.4,3.2,2.6,4.9,3.7
				v30.6c0.7,0.2,1.3,0.5,2,0.7v-29.9c6.9,4.1,15,6.5,23.7,6.5c11.6,0,22.2-4.3,30.3-11.3l18.5,20.1c0.5-0.4,1-0.9,1.5-1.3
				l-18.5-20.1c9.1-8.5,14.8-20.6,14.8-34c0-13.8-6-26.1-15.5-34.7l18.1-20.5c-0.5-0.4-1-0.9-1.5-1.3L244,185.6
				c-8.2-6.7-18.5-10.7-29.7-10.7c-8.6,0-16.7,2.4-23.7,6.5v-29.9C190,151.7,189.3,151.9,188.7,152.2z M188.7,258
				c-1.2-0.9-2.4-1.8-3.6-2.8l3.6-4.1V258z M188.7,248.1l-5.1,5.7c-8.5-8.1-13.9-19.6-13.9-32.3c0-12.4,5.1-23.6,13.2-31.7l5.7,6.2
				L188.7,248.1L188.7,248.1z M188.7,193.1l-4.3-4.6c1.4-1.2,2.8-2.4,4.3-3.4V193.1z M190.7,198.3l21.4,23.3l-21.4,24.3V198.3z
				 M214.3,266.1c-8.7,0-16.8-2.5-23.7-6.8v-10.5l22.8-25.8l29.8,32.4C235.5,262.1,225.4,266.1,214.3,266.1z M244.1,188.3
				c9.1,8.2,14.8,20,14.8,33.2c0,12.8-5.4,24.4-14.1,32.5l-30-32.6L244.1,188.3z M214.3,176.9c10.7,0,20.5,3.8,28.2,10.1l-29.1,33
				l-22.8-24.7v-11.6C197.5,179.4,205.6,176.9,214.3,176.9z"/>
			<path class="st5" d="M154.2,264.5c0.6,0.9,1.3,1.8,2,2.7v-91.3c-0.7,0.9-1.4,1.8-2,2.7V264.5z"/>
		</g>
	</g>
</g>
</svg>
