<svg id="Layer_1" data-name="Layer 1" xmlns="http://www.w3.org/2000/svg" viewBox="0 0 120 80"><path d="M14.483,75.986a9.509,9.509,0,1,1,3.064-.508A9.474,9.474,0,0,1,14.483,75.986Zm0-17.006a7.5,7.5,0,1,0,7.109,5.089A7.452,7.452,0,0,0,14.485,58.98Z" style="fill:#5039f7"/><g id="Oval"><ellipse cx="26.49" cy="29.457" rx="22.5" ry="22.522" style="fill:#eeebfe"/></g><g id="Oval-2" data-name="Oval"><circle cx="95.99" cy="63.979" r="7" style="fill:#5039f7"/></g><path d="M16.99,22.981h13a2,2,0,1,1,0,4h-13a2,2,0,1,1,0-4Z" style="fill:#5039f7"/><circle cx="9.99" cy="24.979" r="2" style="fill:#5039f7"/><path d="M100.477,15.98a6.5,6.5,0,1,1,.808-.049A6.662,6.662,0,0,1,100.477,15.98Zm.018-11a4.5,4.5,0,1,0,2.764.951A4.5,4.5,0,0,0,100.5,4.981Z" style="fill:#5039f7"/><g style="opacity:0.97"><path d="M37.99,60.614H23.028V2.453H81.686V18.979a1,1,0,0,1-2,0V4.453H25.028V58.614H37.99a1,1,0,0,1,0,2Z"/></g><path d="M96.141,76.4H37.979V18.234H96.141Zm-56.162-2H94.141V20.234H39.979Z"/><g id="icon-add-template"><g id="_circle_" data-name=" circle "><g id="Shape"><path d="M83.06,49.894a16.033,16.033,0,0,0,.2-2.542.9.9,0,0,1,.9-.9,17.837,17.837,0,0,0-.351-2.714.737.737,0,0,1-.2,0,.9.9,0,0,1-.9-.669,15.335,15.335,0,0,0-.856-2.406.905.905,0,0,1,.424-1.166A17.081,17.081,0,0,0,80.852,37.2a.857.857,0,0,1-1.2-.144,16.819,16.819,0,0,0-1.8-1.809A.907.907,0,0,1,77.761,34a16.857,16.857,0,0,0-2.217-1.511.9.9,0,0,1-.784.461.878.878,0,0,1-.405-.1A16.153,16.153,0,0,0,72,31.886a.9.9,0,0,1-.586-1.094,17.181,17.181,0,0,0-2.64-.5.9.9,0,0,1-.9.832,17.249,17.249,0,0,0-2.551.073h-.09a.9.9,0,0,1-.9-.769,18.026,18.026,0,0,0-2.613.624.906.906,0,0,1-.523,1.14,16.581,16.581,0,0,0-2.27,1.076.879.879,0,0,1-1.208-.3,16.426,16.426,0,0,0-2.154,1.655.907.907,0,0,1,0,1.239A16.868,16.868,0,0,0,53.89,37.81a.9.9,0,0,1-.73.38.89.89,0,0,1-.495-.163,17.737,17.737,0,0,0-1.28,2.379.906.906,0,0,1,.5,1.14A15.833,15.833,0,0,0,51.16,44a.9.9,0,0,1-.9.723h-.135a17.19,17.19,0,0,0-.208,2.632.9.9,0,0,1,.9.905,16,16,0,0,0,.334,2.532.905.905,0,0,1-.658,1.049,16.337,16.337,0,0,0,.9,2.542.9.9,0,0,1,.694-.064.907.907,0,0,1,.532.453,17.22,17.22,0,0,0,1.333,2.17.908.908,0,0,1-.2,1.267,15.792,15.792,0,0,0,1.856,1.944.9.9,0,0,1,1.235-.135,15.821,15.821,0,0,0,2.082,1.447.907.907,0,0,1,.342,1.2A17.084,17.084,0,0,0,61.748,63.7a.9.9,0,0,1,1.09-.615,14.6,14.6,0,0,0,2.506.461.9.9,0,0,1,.793,1h.9a16.959,16.959,0,0,0,1.8-.1.9.9,0,0,1,.748-1,16.62,16.62,0,0,0,2.478-.6.9.9,0,0,1,1.108.543A17.1,17.1,0,0,0,75.6,62.221.906.906,0,0,1,75.878,61,16,16,0,0,0,77.9,59.445a.9.9,0,0,1,1.253.054,16.543,16.543,0,0,0,1.73-2.062.905.905,0,0,1-.234-1.221,16.354,16.354,0,0,0,1.216-2.243.9.9,0,0,1,1.145-.471,15.82,15.82,0,0,0,.775-2.532.9.9,0,0,1-.721-1.076Z" style="fill:#f9f9f8"/></g><g id="Shape-2" data-name="Shape"><path d="M84.159,46.448a.9.9,0,0,0-.9.9,16.033,16.033,0,0,1-.2,2.542.9.9,0,0,0,.721,1.031h.171a.9.9,0,0,0,.9-.769,18.273,18.273,0,0,0,.207-2.8V47.28A.9.9,0,0,0,84.159,46.448Z" style="fill:#eeebfe"/></g><g id="Shape-3" data-name="Shape"><path d="M65.362,63.542a14.6,14.6,0,0,1-2.506-.461.9.9,0,0,0-1.09.615.909.909,0,0,0,.089.69,11.667,11.667,0,0,0,3.326.929h.054a.9.9,0,0,0,.9-.814h0A.9.9,0,0,0,65.362,63.542Z" style="fill:#eeebfe"/></g><g id="Shape-4" data-name="Shape"><path d="M53.926,56.939a17.291,17.291,0,0,1-1.306-2.17.878.878,0,1,0-1.559.8,17.915,17.915,0,0,0,1.487,2.415.84.84,0,0,0,1.18.217.908.908,0,0,0,.2-1.267Z" style="fill:#eeebfe"/></g><g id="Shape-5" data-name="Shape"><path d="M51.178,50.771a16.029,16.029,0,0,1-.361-2.514.879.879,0,1,0-1.757,0,17.308,17.308,0,0,0,.37,2.813.9.9,0,0,0,.9.714.665.665,0,0,0,.189,0A.9.9,0,0,0,51.178,50.771Z" style="fill:#eeebfe"/></g><g id="Shape-6" data-name="Shape"><path d="M72.066,62.836a16.62,16.62,0,0,1-2.478.6.892.892,0,0,0,.153,1.773h.135a16.98,16.98,0,0,0,2.749-.669.9.9,0,1,0-.559-1.7Z" style="fill:#eeebfe"/></g><g id="Shape-7" data-name="Shape"><path d="M81.861,53.973a16.354,16.354,0,0,1-1.216,2.243.884.884,0,1,0,1.486.959,18.45,18.45,0,0,0,1.352-2.5.906.906,0,0,0-.459-1.194h-.045A.9.9,0,0,0,81.861,53.973Z" style="fill:#eeebfe"/></g><g id="Shape-8" data-name="Shape"><path d="M77.9,59.445A16,16,0,0,1,75.878,61a.885.885,0,1,0,.964,1.484,18.045,18.045,0,0,0,2.244-1.728.886.886,0,1,0-1.19-1.311Z" style="fill:#eeebfe"/></g><g id="Shape-9" data-name="Shape"><path d="M58.928,61.462a15.821,15.821,0,0,1-2.082-1.447A.886.886,0,0,0,55.738,61.4a18.675,18.675,0,0,0,2.288,1.637.9.9,0,0,0,1.253-.307.906.906,0,0,0-.351-1.266Z" style="fill:#eeebfe"/></g><g id="Shape-10" data-name="Shape"><path d="M77.851,35.215a16.9,16.9,0,0,1,1.8,1.808.876.876,0,1,0,1.352-1.112,18.329,18.329,0,0,0-1.955-2.053.905.905,0,0,0-1.2,1.357Z" style="fill:#eeebfe"/></g><g id="Shape-11" data-name="Shape"><path d="M81.834,40.668a15.335,15.335,0,0,1,.856,2.406.9.9,0,0,0,.9.67.828.828,0,0,0,.2,0,.905.905,0,0,0,.63-1.1,18.474,18.474,0,0,0-.9-2.713.928.928,0,0,0-1.691.042A.91.91,0,0,0,81.834,40.668Z" style="fill:#eeebfe"/></g><g id="Shape-12" data-name="Shape"><path d="M72,31.85a16.153,16.153,0,0,1,2.352.968.9.9,0,1,0,.793-1.61,17.349,17.349,0,0,0-2.595-1.04A.885.885,0,1,0,72,31.85Z" style="fill:#eeebfe"/></g><g id="Shape-13" data-name="Shape"><path d="M58.441,33.4a.9.9,0,0,0,.45-.127,16.556,16.556,0,0,1,2.289-1.1.866.866,0,1,0-.639-1.61,19.325,19.325,0,0,0-2.515,1.148.91.91,0,0,0,.415,1.692Z" style="fill:#eeebfe"/></g><g id="Shape-14" data-name="Shape"><path d="M53.89,37.81a16.906,16.906,0,0,1,1.649-1.944.907.907,0,0,0,0-1.239h0a.9.9,0,0,0-1.279,0,18.91,18.91,0,0,0-1.8,2.161.907.907,0,0,0,.163,1.23.93.93,0,0,0,1.27-.208Z" style="fill:#eeebfe"/></g><g id="Shape-15" data-name="Shape"><path d="M65.235,31.172h.09a17.178,17.178,0,0,1,2.515-.1.9.9,0,0,0,.9-.832h0a.9.9,0,0,0-.9-.9,18.456,18.456,0,0,0-2.821.081.9.9,0,0,0-.685.941.17.17,0,0,1,0,.045A.9.9,0,0,0,65.235,31.172Z" style="fill:#eeebfe"/></g><g id="Shape-16" data-name="Shape"><path d="M51.16,44a15.833,15.833,0,0,1,.721-2.451.906.906,0,0,0-.5-1.14.9.9,0,0,0-1.162.525,19.1,19.1,0,0,0-.8,2.713.907.907,0,0,0,.127.686.9.9,0,0,0,.576.39h.18A.9.9,0,0,0,51.16,44Z" style="fill:#eeebfe"/></g></g><g id="_plus_" data-name=" plus "><path d="M73.943,46.461H68.9V41.4a1.376,1.376,0,1,0-2.751,0v5.062H61.107a1.381,1.381,0,0,0,0,2.761h5.042v5.061a1.376,1.376,0,1,0,2.751,0V49.222h5.043a1.381,1.381,0,0,0,0-2.761Z" style="fill:#5039f7"/></g></g></svg>