<svg id="Layer_1" data-name="Layer 1" xmlns="http://www.w3.org/2000/svg" viewBox="0 0 100 80"><rect x="14" y="29" width="13" height="4" rx="2" style="fill:#5039f7"/><circle cx="10" cy="31" r="2" style="fill:#5039f7"/><circle cx="4" cy="31" r="2" style="fill:#5039f7"/><circle cx="72.187" cy="50.687" r="27.813" style="fill:#eeebfe"/><circle cx="58.776" cy="31.5" r="17.5" style="fill:#5039f7"/><path d="M45.5,42.876A17.488,17.488,0,0,0,74.033,22.943c-.611-.041-1.225-.068-1.846-.068A27.818,27.818,0,0,0,45.5,42.876Z" style="fill:#3a26cb"/><path d="M58.781,61.413h-.189A29.956,29.956,0,0,1,37.724,10.145a29.958,29.958,0,0,1,51.009,21.5A29.766,29.766,0,0,1,79.828,52.77h0A29.759,29.759,0,0,1,58.781,61.413ZM58.771,3.5A27.956,27.956,0,0,0,38.887,51.1,27.771,27.771,0,0,0,58.6,59.413h.177a27.956,27.956,0,0,0,19.885-47.6A27.779,27.779,0,0,0,58.948,3.5ZM79.126,52.058h0Z" style="fill:#221f20"/><path d="M58.78,54.207h-.144a22.75,22.75,0,0,1,.136-45.5h.144a22.75,22.75,0,0,1-.136,45.5Zm-.007-43.5a20.987,20.987,0,1,0,.13,0Z" style="fill:#221f20"/><path d="M67.177,24.159a1,1,0,0,1-.712-.3,10.82,10.82,0,0,0-15.284-.093,1,1,0,0,1-1.406-1.423,12.821,12.821,0,0,1,18.113.111,1,1,0,0,1-.711,1.7Z" style="fill:#221f20"/><path d="M20.646,78.5a9.373,9.373,0,0,1-6.591-16.045L31.9,44.825a1,1,0,0,1,1.4,1.424L15.46,63.874a7.377,7.377,0,1,0,10.369,10.5L43.672,56.746a1,1,0,1,1,1.406,1.424L27.234,75.8A9.345,9.345,0,0,1,20.646,78.5Z" style="fill:#221f20"/><path d="M90,79a9,9,0,1,1,9-9A9.01,9.01,0,0,1,90,79Zm0-16a7,7,0,1,0,7,7A7.008,7.008,0,0,0,90,63Z" style="fill:#5039f7"/><path d="M9,18a9,9,0,1,1,9-9A9.011,9.011,0,0,1,9,18ZM9,2a7,7,0,1,0,7,7A7.008,7.008,0,0,0,9,2Z" style="fill:#5039f7"/></svg>