<svg id="drag-and-drop" xmlns="http://www.w3.org/2000/svg" xmlns:xlink="http://www.w3.org/1999/xlink" viewBox="0 0 339 225"><defs><style>.cls-1{fill:none;}.cls-2{fill:#fff;}.cls-3{fill:#0033a1;}.cls-4{fill:#77a7d6;}.cls-5{fill:#2760ff;}.cls-6{fill:#1248ce;}.cls-7{fill:#0236a8;}.cls-8{clip-path:url(#clip-path);}.cls-9{clip-path:url(#clip-path-2);}.cls-10{fill:#b84b4b;}.cls-11{clip-path:url(#clip-path-3);}.cls-12{fill:#17bb62;}.cls-13{clip-path:url(#clip-path-4);}.cls-14{fill:#e94b4b;}.cls-15{fill:#071540;}</style><clipPath id="clip-path"><path class="cls-1" d="M206.28,38.4l3,3V46a2,2,0,0,1-2,2h-14a2,2,0,0,1-2-2V39.4l3,3,4-4,4,4m7-10.41v6.59l-3-3-4,4-4-4-4,4-3-3V32a2,2,0,0,1,2-2h14a2,2,0,0,1,2,2"/></clipPath><clipPath id="clip-path-2"><path class="cls-1" d="M328.06,106.55v-3.5a1,1,0,0,0-1-1h-12a1,1,0,0,0-1,1v10a1,1,0,0,0,1,1h12a1,1,0,0,0,1-1v-3.5l4,4v-11Z"/></clipPath><clipPath id="clip-path-3"><path class="cls-1" d="M96.61,180.4l2.5,3,3.5-4.51,4.5,6h-14Zm12.5,5.5v-14a2,2,0,0,0-2-2h-14a2,2,0,0,0-2,2v14a2,2,0,0,0,2,2h14A2,2,0,0,0,109.11,185.9Z"/></clipPath><clipPath id="clip-path-4"><path class="cls-1" d="M15.37,105.86c.09-.36.09-.53.18-.8v-.18c.09-.53.09-.8-.09-1h-.09l-.08.09A4.72,4.72,0,0,0,15.37,105.86ZM12.71,112a2,2,0,0,0-.45.27,2.77,2.77,0,0,0-1.06,1.51C11.55,113.68,12.09,113.06,12.71,112Zm8.09-1.33c-.09-.09-.45-.36-1.69-.36-.09,0-.09,0-.18.09a4.69,4.69,0,0,0,1.69.45h.18c.09,0,.09,0,.09-.09Zm1.33-9.78H9.69a1.78,1.78,0,0,0-1.78,1.78V115.1a1.78,1.78,0,0,0,1.78,1.78H22.13a1.78,1.78,0,0,0,1.78-1.78V102.66A1.78,1.78,0,0,0,22.13,100.88Zm-.89,10.49a1.07,1.07,0,0,1-.8.27,6.49,6.49,0,0,1-2.67-.62,14.05,14.05,0,0,0-3.55.71c-.09,0-.09,0-.18.09-1.07,1.86-1.95,2.75-2.67,2.75-.17,0-.26,0-.35-.09l-.45-.26v-.09a1.09,1.09,0,0,1-.08-.45,3.39,3.39,0,0,1,1.68-1.86c.18-.09.45-.27.8-.45.27-.44.54-1,.89-1.6a24.25,24.25,0,0,0,1-2.58,4.18,4.18,0,0,1-.18-2.93c.09-.36.36-.71.71-.71h.18a1.28,1.28,0,0,1,.54.18c.62.62.35,2,0,3.2V107a6.37,6.37,0,0,0,1.42,2.31l.8.53a5,5,0,0,1,1.15-.09c1.07,0,1.78.18,2.05.62a1.14,1.14,0,0,1,.09.54C21.42,110.93,21.33,111.19,21.24,111.37Zm-5.78-3.47a16.19,16.19,0,0,1-.89,2.14,9,9,0,0,0-.44.89h.09a13.12,13.12,0,0,1,2.93-.8,1.18,1.18,0,0,1-.35-.27A5.39,5.39,0,0,1,15.46,107.9Z"/></clipPath></defs><title>drag-and-drop</title><circle class="cls-2" cx="169.5" cy="111.5" r="44"/><circle class="cls-3" cx="120.05" cy="50.84" r="12"/><g id="_graph_" data-name="&lt;graph&gt;"><path class="cls-2" d="M323.06,92.05a16,16,0,0,0-16,16,16.17,16.17,0,0,0,.59,4.26l-86.88,27.25L242.1,11.12h.2a5.5,5.5,0,1,0-1.19-.13L219.7,139.9l-101,31.69a19.93,19.93,0,0,0-4.44-6.81L189.76,56A20,20,0,1,0,183,49.15L31.87,105l.34.94L183.57,50a20,20,0,0,0,5.35,5.47L113.53,164.1a20.09,20.09,0,1,0,5.52,8.43L219.52,141l-11.35,68.35a7.11,7.11,0,0,0-1.14-.1,7.52,7.52,0,1,0,2.12.31l11.44-68.9L308,113.26a16,16,0,1,0,15.11-21.21ZM237.8,5.63a4.5,4.5,0,1,1,4.5,4.5A4.5,4.5,0,0,1,237.8,5.63ZM213.53,216.76a6.5,6.5,0,1,1-6.5-6.5A6.5,6.5,0,0,1,213.53,216.76Z"/><circle class="cls-2" cx="16.04" cy="108.88" r="16"/><path class="cls-2" d="M203.53,216.76a3.5,3.5,0,1,0,3.5-3.5A3.5,3.5,0,0,0,203.53,216.76Zm6,0a2.5,2.5,0,1,1-2.5-2.5A2.5,2.5,0,0,1,209.53,216.76Z"/></g><circle class="cls-4" cx="248.71" cy="161.05" r="4.5"/><g id="_files_" data-name="&lt;files&gt;"><path class="cls-5" d="M184,98.9a2,2,0,0,0-2.19,1.6,1.87,1.87,0,0,0,1.6,2.2l2,.4-3.59,23.8-19.7-3v-.4h15.72v-32H150v32h8.16l-.59,3.6,27.66,4.4L190,99.9Zm-30-3.4h19.9v24h-19.9Z"/><path class="cls-5" d="M167.86,105.5h-8a2,2,0,0,0,0,4h8a2,2,0,0,0,0-4Z"/><path class="cls-5" d="M167.86,111.5h-8a2,2,0,0,0,0,4h8a2,2,0,0,0,0-4Z"/><path class="cls-5" d="M159.9,103.5h6a2,2,0,0,0,0-4h-6a2,2,0,0,0,0,4Z"/></g><circle class="cls-6" cx="271.71" cy="82.04" r="23"/><circle class="cls-7" cx="181.33" cy="186.2" r="7"/><g id="_timeseries_" data-name="&lt;timeseries&gt;"><g class="cls-8"><rect class="cls-5" x="186.28" y="24.98" width="28" height="28"/></g></g><g id="_video_" data-name="&lt;video&gt;"><g class="cls-9"><rect class="cls-10" x="309.06" y="97.05" width="28" height="22"/></g></g><g id="_image_" data-name="&lt;image&gt;"><g class="cls-11"><rect class="cls-12" x="86.11" y="164.9" width="28" height="28"/></g></g><g id="_acrobat_" data-name="&lt;acrobat&gt;"><g class="cls-13"><rect class="cls-14" x="2.91" y="95.88" width="26" height="26"/></g></g><path id="cursor" class="cls-15" d="M215.55,147.27l-35.48-13.11a2,2,0,0,0-2.57,2.58l13.11,35.48a2,2,0,0,0,3.65.25l3.62-6.8a2,2,0,0,1,3.2-.48l12.25,12.25a2,2,0,0,0,2.84,0l4.61-4.61a2,2,0,0,0,0-2.83l-12.26-12.26a2,2,0,0,1,.48-3.19l6.8-3.62A2,2,0,0,0,215.55,147.27Z"/></svg>