<?xml version="1.0" encoding="utf-8"?>
<!-- Generator: Adobe Illustrator 25.2.1, SVG Export Plug-In . SVG Version: 6.00 Build 0)  -->
<svg version="1.1" id="Layer_1" xmlns="http://www.w3.org/2000/svg" xmlns:xlink="http://www.w3.org/1999/xlink" x="0px" y="0px"
	 viewBox="0 0 374.7 373.5" style="enable-background:new 0 0 374.7 373.5;" xml:space="preserve">
<style type="text/css">
	.st0{clip-path:url(#SVGID_2_);}
	.st1{fill:#EEEBFE;}
	.st2{fill:#5039F7;}
	.st3{fill:#71747C;stroke:#71747C;stroke-linecap:round;stroke-linejoin:round;}
	.st4{fill:#FFFFFF;}
	.st5{stroke:#000000;stroke-width:2;stroke-linejoin:round;}
	.st6{fill:none;stroke:#000000;stroke-width:2;stroke-miterlimit:10;}
	.st7{fill:#EEEBFE;stroke:#000000;stroke-width:2;stroke-miterlimit:10;}
	.st8{fill:none;stroke:#5039F7;stroke-width:2;stroke-linecap:round;stroke-linejoin:round;}
	.st9{fill:none;stroke:#5039F7;stroke-width:2;stroke-miterlimit:10;}
	.st10{stroke:#000000;stroke-width:2;stroke-miterlimit:10;}
	.st11{fill:none;stroke:#1C46BD;stroke-linecap:round;stroke-miterlimit:10;}
	.st12{fill:#5039F7;stroke:#5039F7;stroke-width:2;stroke-linejoin:round;}
	.st13{stroke:#000000;stroke-width:2;stroke-linecap:round;stroke-miterlimit:10;}
	.st14{fill:#EEEBFE;stroke:#EEEBFE;stroke-linejoin:round;}
	.st15{fill:#FFFFFF;stroke:#FFFFFF;stroke-linejoin:round;}
	.st16{fill:#CCCCCC;stroke:#CCCCCC;stroke-linecap:round;stroke-linejoin:round;}
</style>
<g>
	<defs>
		<circle id="SVGID_1_" cx="185.9" cy="185.8" r="179.7"/>
	</defs>
	<clipPath id="SVGID_2_">
		<use xlink:href="#SVGID_1_"  style="overflow:visible;"/>
	</clipPath>
	<g class="st0">
		<circle class="st1" cx="185.9" cy="185.8" r="179.7"/>
		<path class="st2" d="M361.5,406.7l-365.3-1.3c0,0-10.3-68.1-13-91.2c-0.2-1.5,390.4-1.5,390.3,0L361.5,406.7z"/>
		<path class="st1" d="M219,331.2c9.6,2.7,19.8-0.3,29.3-3.4c6.9-2.2,13.9-4.5,19.9-8.7s11.8-9.4,10.3-18.1
			c-1.3-7.8-10.4-3.1-15.9-2.4c-6.1,0.8-12.2,2-17.7,4.8s-10.2,7.5-11.8,13.5c-4.8,1.8-9.3,3.5-14,5.3
			C219.6,324.8,219.3,328.5,219,331.2z"/>
		<path class="st1" d="M148.8,329.9c-9.6,2.7-19.8-0.3-29.3-3.4c-6.9-2.2-13.9-4.5-19.9-8.7s-11.8-9.4-10.3-18.1
			c1.3-7.8,10.4-3.1,15.9-2.4c6.1,0.8,12.2,2,17.7,4.8s10.2,7.5,11.8,13.5c4.8,1.8,9.3,3.5,14,5.3
			C148.2,323.6,148.6,327.2,148.8,329.9z"/>
		<path class="st3" d="M249.6,343.9l-128.8-0.1l-4.6-9.6c0-0.2,1.2-0.3,2.7-0.3h132.3c1.5,0,2.7,0.1,2.7,0.3L249.6,343.9z"/>
		<g>
			<path class="st4" d="M281.8,289.2c-0.1-0.4-0.2-0.8-0.4-1.2l0.4-0.1c0,0-26-62.9-42.4-79.2c-5-4.9-26.6-8.5-26.6-8.5
				s-6.5-11.9-10.3-13.6c-10.5-4.9-36.4-4.6-46.7,0.4c-3.6,1.8-12.5,10.6-12.5,10.6s-18.8,6.2-23.8,11.1
				C103,225,90.4,264,87.2,287.9c-1.3,4.4-2.6,9-2,13.6c0.8,5.7,4.3,10.4,8,14.4c0.6,0.9,1.5,1.4,2.5,1.6c0.9-0.1,1.6-0.6,2.2-1.2
				c3.7-3.5,7.1-7.4,11.1-10.4c1.5-1.2,3.2-2.2,5-3c26.9,4,78.8,18,78.8,18l59.9-28.2c-1.5,1-2.9,2-4.4,3c-2.9,2-5,6.2-0.5,6.7
				c4.4,0.4,8.5,2.1,12,4.8c4,3,7.4,6.9,11.1,10.4c0.6,0.7,1.3,1.1,2.2,1.2c1-0.2,1.9-0.7,2.5-1.6c3.7-4,7.2-8.7,8-14.4
				C284.4,298.2,283.1,293.6,281.8,289.2z"/>
			<path class="st5" d="M137.1,126l-7.4,43c-0.8,5.7,3.1,10.9,8.8,11.7c0.5,0.1,1,0.1,1.4,0.1l76.8,0.3c5.7,0,10.4-4.6,10.4-10.3
				c0-0.6,0-1.2-0.2-1.8l-7.2-43"/>
			<rect x="164.7" y="177.8" class="st1" width="26.4" height="21.2"/>
			<line class="st6" x1="164.8" y1="179.8" x2="164.7" y2="194.6"/>
			<line class="st6" x1="190.4" y1="179" x2="190.3" y2="194.8"/>
			<path class="st7" d="M211.4,139.8c0,21.6-14.8,42.4-33.7,42.4s-34.8-20.8-34.8-42.4s15.3-39.1,34.2-39.1S211.4,118.2,211.4,139.8
				z"/>
			<path class="st8" d="M172.6,146.5c0,7.1-6.2,14.8-13.7,14.8s-13.7-7.6-13.7-14.8s6.2-11.1,13.7-11.1
				C166.4,135.4,172.6,139.3,172.6,146.5z"/>
			<path class="st8" d="M209.2,146.5c0,7.1-6.2,14.8-13.7,14.8s-13.7-7.6-13.7-14.8s6.2-11.1,13.7-11.1S209.2,139.3,209.2,146.5z"/>
			<path class="st9" d="M172.7,147.8c0-2,9-2,9,0"/>
			<path class="st10" d="M136.8,128.6c2.4-22.1,18.6-39.1,41.6-39.1s38.8,16.4,41.8,38.3l-8-0.5l-48.7-1.3l-2.6-9.1l-3.4,9.1
				l-12.9,1.3L136.8,128.6z"/>
			<path class="st2" d="M178.2,307.9l-1.2-2.1c-2.4,0-17.8-75.2-17.8-77.5l-3.9-30.2l3.9-1.4v-5.7c0-2.4,1.9-4.3,4.3-4.3h28.7
				c2.4,0,4.3,1.9,4.3,4.3v5.7l5.2,1.7l-5.2,29.9C196.5,230.7,180.6,307.9,178.2,307.9z"/>
			<path class="st11" d="M165.1,197.5c8.6,0.6,17.2,0.7,25.7,0.2"/>
			<rect x="226.6" y="248.6" class="st12" width="1.3" height="7.8"/>
			<rect x="226.6" y="248.6" class="st13" width="1.3" height="2.1"/>
			<path class="st1" d="M215.7,256.6c1.6,0.1,3.2,0.2,4.8,0.2s3.2,0,4.8,0c1.6,0,3.2-0.1,4.8-0.1c1.6,0,3.2,0.1,4.8,0.2
				c0,0,0,0,0,0.1c0,0,0,0,0,0c0,0,0,0,0,0c-1.6,0.4-3.2,0.6-4.8,0.7c-1.6,0.1-3.2,0-4.8-0.1C222.1,257.5,218.9,257.2,215.7,256.6
				C215.7,256.7,215.7,256.7,215.7,256.6C215.7,256.7,215.7,256.7,215.7,256.6C215.7,256.6,215.7,256.6,215.7,256.6z"/>
			<path class="st14" d="M143.3,197.7c0,0-6.7,5.5-9.2,11.8c-2.9,7.2-2.4,30.9-2.1,38.7c0,0.7,0.6,1.3,1.3,1.2
				c0.3,0,0.5-0.1,0.8-0.3l9.4-8.5l-6.5,16.3c-0.2,0.7,0,1.5,0.4,2.1l37.8,53.3L143.3,197.7z"/>
			<path class="st15" d="M153.8,189.1c0,0-14.6,12.3-17.1,18.5c-3.5,8.7-2.9,38.1-2.9,38.1l13.9-14l-7.2,24.6l35.9,56.9L153.8,189.1
				z"/>
			<path class="st14" d="M212,199.7c0,0,5.8,5.5,8,11.8c2.6,7.2,2.1,30.9,1.8,38.7c0.1,0.6-0.4,1.2-1,1.2c-0.3,0-0.6-0.1-0.8-0.3
				l-8.2-8.5l5.7,16.3c0.2,0.7,0,1.5-0.3,2.1l-33.1,53.3L212,199.7z"/>
			<path class="st15" d="M203.1,190c0,0,12.6,13.3,14.8,19.5c3.1,8.7,2.5,38.1,2.5,38.1l-12.2-12.7l6.3,23.3l-31.4,56.9L203.1,190z"
				/>
			<path class="st1" d="M158,187.9c-0.4,0.8-0.7,1.6-1.1,2.5c-0.4,0.8-0.7,1.6-1,2.5l-0.3,1.2c0,0.1-0.1,0.3-0.1,0.2
				c0,0.1,0,0.2,0,0.3l0.1,0.7c0.1,0.9,0.2,1.8,0.3,2.7l-0.1,0c-0.4-0.8-0.8-1.7-1-2.6c-0.1-0.2-0.1-0.4-0.2-0.7
				c0-0.1-0.1-0.2-0.1-0.4c0-0.2,0-0.3,0-0.5c0.1-0.5,0.2-0.9,0.4-1.4C155.9,190.9,156.9,189.3,158,187.9L158,187.9z"/>
			<path class="st1" d="M200.4,187.9c0.5,0.7,0.8,1.5,0.9,2.4c0.2,0.8,0.3,1.7,0.4,2.5c0.1,0.9,0.2,1.7,0.1,2.6
				c0,0.9-0.3,1.8-0.7,2.5l-0.1,0c-0.1-0.9-0.2-1.7-0.2-2.5c-0.1-0.8,0.1-1.7,0.1-2.5s0-1.7-0.1-2.5
				C200.9,189.6,200.7,188.7,200.4,187.9L200.4,187.9z"/>
			<path class="st1" d="M119.3,240.6c2.5,1.1,4,3.7,3.7,6.4c-0.2,2.7-1.5,4.9-1.6,7.1c-0.1,1.1,0.1,2.2,0.4,3.2
				c0.3,1.1,0.9,2,1.6,2.9c0.7,0.9,1.6,1.8,2.3,2.8c0.8,1,1.4,2.1,1.7,3.4c-1.2-2.2-3.4-3.3-5.2-5.1c-1-0.9-1.7-2.1-2.2-3.3
				c-0.5-1.3-0.7-2.6-0.6-4c0.2-2.8,1.6-4.9,2-7.1C121.9,244.5,121.1,242.1,119.3,240.6z"/>
			<path class="st1" d="M250.3,297.1c2.6-0.3,5.1,0.1,7.5,1c2.5,0.9,4.6,2.6,6,4.9c0.6,1.1,1.2,2.3,1.7,3.5c0.5,1.1,1.1,2.2,1.7,3.3
				c0.6,1.1,1.4,2,2.3,2.9c0.9,0.9,1.9,1.6,3,2.2c-1.2-0.4-2.4-1-3.4-1.8c-1-0.8-1.9-1.8-2.6-2.8c-0.7-1-1.4-2.2-1.9-3.3
				c-0.5-1.1-1-2.3-1.6-3.3c-1.3-2.1-3.2-3.7-5.4-4.7c-1.1-0.5-2.3-0.9-3.5-1.2C252.8,297.3,251.6,297.1,250.3,297.1z"/>
			<path class="st1" d="M116.2,295.8c-1.3,0.1-2.5,0.2-3.7,0.5c-1.2,0.3-2.4,0.7-3.5,1.2c-2.2,1-4.1,2.6-5.4,4.7
				c-0.6,1.1-1.2,2.2-1.6,3.3c-0.5,1.2-1.2,2.3-1.9,3.3c-0.7,1.1-1.6,2-2.6,2.8c-1,0.8-2.1,1.4-3.4,1.8c1.1-0.5,2.1-1.3,3-2.2
				c0.9-0.9,1.7-1.8,2.3-2.9c0.7-1.1,1.2-2.2,1.7-3.3c0.5-1.2,1-2.3,1.7-3.5c1.4-2.2,3.5-3.9,6-4.9
				C111.1,295.8,113.6,295.5,116.2,295.8z"/>
		</g>
		<path class="st16" d="M249.1,343.1H121.2l-2.5-78.7c0-1.4,1.1-2.6,2.5-2.7c0,0,0.1,0,0.1,0H249c1.4,0,2.6,1.2,2.6,2.6
			c0,0,0,0.1,0,0.1L249.1,343.1z"/>
		<path class="st4" d="M188.6,294.7h-10.5l0.1,0.1c6.6,4.8,10.5,12.5,10.6,20.6l7.7-10.2L188.6,294.7z M178.2,315.6h9.3
			c0-3.4-0.7-6.7-2-9.7L178.2,315.6z"/>
	</g>
</g>
</svg>
