<?xml version="1.0" encoding="utf-8"?>
<!-- Generator: Adobe Illustrator 22.1.0, SVG Export Plug-In . SVG Version: 6.00 Build 0)  -->
<svg version="1.1" id="Layer_1" xmlns="http://www.w3.org/2000/svg" xmlns:xlink="http://www.w3.org/1999/xlink" x="0px" y="0px"
	 viewBox="0 0 217 96" style="enable-background:new 0 0 217 96;" xml:space="preserve">
<style type="text/css">
	.st0{fill:#DADADA;}
	.st1{fill:#F1F1F3;}
	.st2{fill:#DAE0F0;}
</style>
<title>emptystate - file types copy</title>
<polygon class="st0" points="200,92.6 78.1,92.3 78.1,3.4 79.1,3.4 79.1,91.3 200,91.6 "/>
<g id="_skeleton-text_">
	<path class="st1" d="M26.5,12.3h41c1.7,0,3,1.3,3,3v2.2c0,1.7-1.3,3-3,3h-41c-1.7,0-3-1.3-3-3v-2.2C23.5,13.6,24.8,12.3,26.5,12.3z
		"/>
	<path class="st1" d="M20,32.9h47.4c1.7,0,3,1.3,3,3V38c0,1.7-1.3,3-3,3H20c-1.7,0-3-1.3-3-3v-2.2C17,34.2,18.3,32.9,20,32.9z"/>
	<path class="st1" d="M20,73h47.4c1.7,0,3,1.3,3,3v2.2c0,1.7-1.3,3-3,3H20c-1.7,0-3-1.3-3-3V76C17,74.3,18.3,73,20,73z"/>
	<path class="st1" d="M48.9,53.4h18.5c1.7,0,3,1.3,3,3v2.2c0,1.7-1.3,3-3,3H48.9c-1.7,0-3-1.3-3-3v-2.2
		C45.9,54.8,47.2,53.4,48.9,53.4z"/>
</g>
<g id="_bars_">
	<rect x="79.1" y="10.7" class="st2" width="81.9" height="12"/>
	<rect x="79.1" y="50.3" class="st2" width="45.6" height="12"/>
	<rect x="79.1" y="71.1" class="st2" width="80.7" height="12"/>
	<rect x="79.1" y="31" class="st2" width="92.7" height="12"/>
</g>
</svg>
