<svg id="Layer_1" data-name="Layer 1" xmlns="http://www.w3.org/2000/svg" viewBox="0 0 394 146"><defs><style>.cls-1{fill:#2760ff;}.cls-2{fill:#e8effe;}.cls-3{fill:#2c57dc;}.cls-4{fill:#221f20;}</style></defs><circle class="cls-1" cx="304.175" cy="50.376" r="7.625"/><path class="cls-1" d="M114.767,37.81a17.176,17.176,0,1,1,17.175-17.176A17.2,17.2,0,0,1,114.767,37.81Zm0-32.352a15.176,15.176,0,1,0,15.175,15.176A15.193,15.193,0,0,0,114.767,5.458Z"/><path class="cls-2" d="M52.461,102.649H1.846V78.339c9.125-17.893,19.533-35,37.355-62.235H80.977V79.48H93.6v23.169H80.977v16.325H52.461ZM26.583,80.692H53.316V36.279h-.57C42.409,51.392,34.924,63.369,26.583,79.836Z"/><path class="cls-2" d="M111.408,67.289c0-34.218,18.036-54.108,46.053-54.108S203.442,33,203.442,67.218c0,33.934-17.751,54.608-45.981,54.608S111.408,101.294,111.408,67.289Zm61.238,0c0-21.6-5.917-30.868-15.185-30.868s-15.256,9.268-15.256,30.868c0,21.53,5.988,31.3,15.256,31.3S172.646,88.819,172.646,67.289Z"/><path class="cls-2" d="M272.941,102.649H222.326V78.339c9.125-17.893,19.533-35,37.355-62.235h41.776V79.48h12.618v23.169H301.457v16.325H272.941ZM247.063,80.692H273.8V36.279h-.57c-10.337,15.113-17.822,27.09-26.163,43.557Z"/><rect class="cls-1" x="342.302" y="42.75" width="49.565" height="15.251" rx="7.359"/><circle class="cls-1" cx="327.051" cy="50.376" r="7.625"/><circle class="cls-1" cx="19.116" cy="37.636" r="12.74"/><path class="cls-1" d="M302,125.524a6.6,6.6,0,1,1,6.6-6.6A6.607,6.607,0,0,1,302,125.524Zm0-11.2a4.6,4.6,0,1,0,4.6,4.6A4.6,4.6,0,0,0,302,114.325Z"/><circle class="cls-1" cx="190.34" cy="108.759" r="12.855"/><path class="cls-3" d="M19.116,50.376A12.731,12.731,0,0,0,29.768,30.66c-4.589,7.168-8.609,13.6-12.231,19.608A12.855,12.855,0,0,0,19.116,50.376Z"/><path class="cls-3" d="M197.121,97.853a12.837,12.837,0,0,0-17.138,18.5A41.7,41.7,0,0,0,197.121,97.853Z"/><path class="cls-4" d="M190.336,130.733a21.854,21.854,0,0,1-15.46-6.351h0a22,22,0,0,1,15.329-37.66h.139a22.005,22.005,0,0,1,.131,44.01Zm.008-42.541h-.13a20.536,20.536,0,0,0-14.306,35.145h0a20.4,20.4,0,0,0,14.429,5.925h.129a20.536,20.536,0,0,0-.122-41.071Z"/><path class="cls-4" d="M190.337,125.439a16.974,16.974,0,1,1,.106,0Zm0-31.946a15.234,15.234,0,1,0,10.71,4.391A15.2,15.2,0,0,0,190.341,93.493Z"/><path class="cls-4" d="M184.169,103.367a.734.734,0,0,1-.522-1.251,9.42,9.42,0,0,1,13.3-.082.735.735,0,1,1-1.032,1.046,7.946,7.946,0,0,0-11.227.069A.734.734,0,0,1,184.169,103.367Z"/><path class="cls-4" d="M218.349,143.28a6.863,6.863,0,0,1-4.84-1.984L200.4,128.35a.735.735,0,0,1,1.032-1.046l13.107,12.946a5.419,5.419,0,0,0,7.617-7.711l-13.107-12.946a.735.735,0,0,1,1.033-1.046l13.106,12.947a6.885,6.885,0,0,1-4.841,11.786Z"/></svg>