<?xml version="1.0" encoding="utf-8"?>
<!-- Generator: Adobe Illustrator 21.1.0, SVG Export Plug-In . SVG Version: 6.00 Build 0)  -->
<svg version="1.1" id="sharing" xmlns="http://www.w3.org/2000/svg" xmlns:xlink="http://www.w3.org/1999/xlink" x="0px" y="0px"
	 viewBox="0 0 560.5 464.8" style="enable-background:new 0 0 560.5 464.8;" xml:space="preserve">
<style type="text/css">
	.st0{fill:#E5C6E2;}
	.st1{fill:#E9DBFF;}
	.st2{fill:#DBB7FD;}
	.st3{fill:#2760FF;}
	.st4{fill:#1251FF;}
	.st5{fill:#071640;}
</style>
<g id="lines">
	<path class="st0" d="M541.5,239.7c-4.4,0-8,3.6-8,8c0,1.1,0.2,2.1,0.6,3.1l-0.4-0.7l-75.8,38.2V133.8c15.4-21,29.6-45.3,42.4-72.8
		c0.8,0.2,1.7,0.3,2.6,0.3c1.7,0,3.5-0.4,5.1-1.4c2.3-1.4,3.9-3.5,4.6-6.1c0.7-2.6,0.3-5.3-1.1-7.6s-3.5-3.9-6.1-4.6
		c-2.6-0.7-5.3-0.3-7.6,1.1c-4.8,2.8-6.3,8.9-3.5,13.7c1,1.7,2.5,3,4.2,3.9c-12.3,26.4-25.8,49.8-40.6,70.2V95.9h-164l31.3-74.4
		c1.6,0.8,3.4,1.3,5.3,1.3c6.3,0,11.4-5.1,11.4-11.4S336.8,0,330.5,0s-11.4,5.1-11.4,11.4c0,3.6,1.7,6.8,4.3,8.9L235,95.9h-2.6
		l-71-61c3.1-2.3,4.1-6.7,2-10.2c-2.2-3.7-7-4.9-10.7-2.8l0,0c-3.7,2.2-4.9,7-2.8,10.7c1.4,2.5,4.1,3.8,6.7,3.8
		c0.9,0,1.9-0.2,2.8-0.5l69.8,60h-92.8v84.2l-0.3,0.3C93.8,154.1,53.7,118.3,25,80.8c4-3,5.2-8.6,2.6-13.1
		c-2.8-4.8-8.9-6.3-13.7-3.5l0,0c-2.3,1.4-3.9,3.5-4.6,6.1s-0.3,5.3,1.1,7.6s3.5,3.9,6.1,4.6c0.8,0.2,1.7,0.3,2.5,0.3
		c1.5,0,2.9-0.3,4.3-1c28.8,37.6,68.9,73.6,111.3,100L17.2,282c-1.8-1.9-4.4-3.1-7.2-3.1c-5.5,0-10,4.5-10,10s4.5,10,10,10
		s10-4.5,10-10c0-2-0.6-3.8-1.6-5.4l117.9-100.9l0.1,0.1v137.9H197l-52.8,125.6c-1.5-0.9-3.2-1.4-5-1.4c-5.5,0-10,4.5-10,10
		s4.5,10,10,10s10-4.5,10-10c0-2.8-1.2-5.4-3.1-7.2l251.9-127h59.8v-28.4l34.5,29.7c-3.7,4.8-4.3,11.5-1.1,16.9c2,3.5,5.3,6,9.2,7
		c1.3,0.3,2.5,0.5,3.8,0.5c2.7,0,5.3-0.7,7.6-2.1c3.5-2,6-5.3,7-9.2c1-3.9,0.4-8-1.6-11.5c-4.2-7.2-13.5-9.6-20.7-5.4
		c-1.1,0.6-2.1,1.4-2.9,2.3L458.4,290l76.1-38.4l-0.1-0.2c1.4,2.4,4,4,6.9,4c4.4,0,8-3.6,8-8S545.9,239.7,541.5,239.7z M496,55.3
		c-2.2-3.8-1-8.7,2.8-11c1.2-0.7,2.6-1.1,4-1.1c0.7,0,1.4,0.1,2,0.3c2.1,0.5,3.8,1.8,4.9,3.7c1.1,1.8,1.4,4,0.8,6.1
		s-1.8,3.8-3.7,4.9C503.1,60.4,498.2,59.1,496,55.3z M321.1,11.3c0-5.2,4.2-9.4,9.4-9.4c5.2,0,9.4,4.2,9.4,9.4s-4.2,9.4-9.4,9.4
		C325.3,20.7,321.1,16.5,321.1,11.3z M159.9,33.3l-0.1-0.1l-0.3,0.3c-2.7,1.5-6.1,0.5-7.7-2.2c-1.6-2.7-0.7-6.3,2.1-7.9l0,0
		c2.7-1.6,6.3-0.7,7.9,2.1C163.3,28.2,162.5,31.7,159.9,33.3z M23.1,79.5c-1.8,1.1-4,1.4-6.1,0.8c-2.1-0.5-3.8-1.8-4.9-3.7
		c-2.2-3.8-1-8.7,2.8-11c3.8-2.2,8.7-1,11,2.8C28.2,72.4,26.9,77.3,23.1,79.5z M10,296.9c-4.4,0-8-3.6-8-8s3.6-8,8-8s8,3.6,8,8
		S14.4,296.9,10,296.9z M147.2,454.9c0,4.4-3.6,8-8,8s-8-3.6-8-8s3.6-8,8-8S147.2,450.5,147.2,454.9z M322,24l-30.2,71.7h-53.7
		L322,24z M235.7,97.7h55.2L276,133.2l-40.8-35.1L235.7,97.7z M276.8,136.5l86.9,74.8c-18.1,8.2-37.2,13.3-57,15.5
		c-21.3,2.3-43.6,1.1-66.4-3.6L276.8,136.5z M138.5,97.7h93.2l0.5,0.4l-93.6,80.1L138.5,97.7L138.5,97.7z M138.5,180.9l95.2-81.4
		l41.5,35.7l-36.9,87.7c-30.6-6.5-62.1-19-93.5-37.4c-2.1-1.2-4.2-2.5-6.2-3.7v-0.9H138.5z M138.5,318.7V184
		c1.7,1.1,3.5,2.1,5.2,3.1c31.5,18.4,63.1,31,93.7,37.6l-39.6,94L138.5,318.7L138.5,318.7z M146.9,445.1l52.3-124.4h194.3
		L146.9,445.1z M397.6,318.7H200.1l39.4-93.6c15.6,3.2,30.9,4.8,45.9,4.8c7.3,0,14.4-0.4,21.5-1.1c20.4-2.2,39.9-7.6,58.5-16
		l89.6,77L397.6,318.7z M455.9,318.7H402l53.9-27.2V318.7z M455.9,288l-88.5-76.1c15.1-7.1,29.5-16.2,43.2-27.4
		c16.1-13.1,31.2-29.2,45.3-47.9V288z M455.9,133.1c-14.5,19.6-30,36.2-46.6,49.7c-13.8,11.3-28.4,20.5-43.6,27.5l-88.1-75.8
		l15.5-36.9h162.8V133.1z M497.7,320c6.2-3.7,14.3-1.6,18,4.7c1.8,3,2.3,6.6,1.4,10c-0.9,3.4-3,6.2-6.1,8c-3,1.8-6.6,2.3-10,1.4
		s-6.2-3-8-6.1C489.4,331.7,491.5,323.7,497.7,320z M541.5,253.7c-3.3,0-6-2.7-6-6s2.7-6,6-6s6,2.7,6,6
		C547.5,251,544.8,253.7,541.5,253.7z"/>
	<path class="st0" d="M502.9,337c0.5,0.1,1,0.2,1.5,0.2c1,0,2-0.3,2.9-0.8c2.8-1.6,3.7-5.2,2.1-8c-1.6-2.8-5.2-3.7-8-2.1
		c-1.3,0.8-2.3,2.1-2.7,3.6s-0.2,3.1,0.6,4.4S501.4,336.6,502.9,337z M500.7,330.4c0.3-1,0.9-1.8,1.8-2.3c1.8-1.1,4.2-0.5,5.2,1.4
		c0.5,0.9,0.7,1.9,0.4,2.9s-0.9,1.8-1.8,2.3s-1.9,0.7-2.9,0.4c-1-0.3-1.8-0.9-2.3-1.8C500.5,332.4,500.4,331.4,500.7,330.4z"/>
</g>
<g id="bubbles">
	<g>
		<circle class="st1" cx="19" cy="72.6" r="19"/>
		<path class="st2" d="M16.5,82.3c0.8,0.2,1.7,0.3,2.5,0.3c1.5,0,2.9-0.3,4.3-1c1.8,2.4,3.7,4.8,5.7,7.2c0.6-0.4,1.1-0.7,1.7-1.1
			c-1.9-2.4-3.8-4.7-5.6-7.1c4-3,5.2-8.6,2.6-13.1c-2.8-4.8-8.9-6.3-13.7-3.5l0,0c-2.3,1.4-3.9,3.5-4.6,6.1s-0.3,5.3,1.1,7.6
			C11.8,80,13.9,81.6,16.5,82.3z M15,65.7c3.8-2.2,8.7-1,11,2.8c2.2,3.8,1,8.7-2.8,11c-1.8,1.1-4,1.4-6.1,0.8
			c-2.1-0.5-3.8-1.8-4.9-3.7C9.9,72.9,11.2,68,15,65.7z"/>
	</g>
	<circle class="st1" cx="65.2" cy="175.7" r="19.3"/>
	<g>
		<circle class="st1" cx="541.5" cy="248" r="19"/>
		<path class="st2" d="M541.5,239.7c-4.4,0-8,3.6-8,8c0,1.1,0.2,2.1,0.6,3.1l-0.4-0.7l-9.9,5c0.2,0.6,0.5,1.2,0.8,1.8l10-5l-0.1-0.2
			c1.4,2.4,4,4,6.9,4c4.4,0,8-3.6,8-8S545.9,239.7,541.5,239.7z M541.5,253.7c-3.3,0-6-2.7-6-6s2.7-6,6-6s6,2.7,6,6
			C547.5,251,544.8,253.7,541.5,253.7z"/>
	</g>
	<circle class="st1" cx="65.2" cy="391.6" r="24.2"/>
	<circle class="st1" cx="423.4" cy="128.1" r="9"/>
</g>
<g id="arrow">
	<path id="highlights" class="st3" d="M442.8,339.2l-114-42.1c-3.3-1.2-7.1,0.5-8.3,3.8c-0.5,1.4-0.5,3,0,4.5l42.2,114
		c1.2,3.3,4.9,5,8.3,3.8c1.5-0.5,2.7-1.6,3.5-3l11.6-21.9c1.7-3.1,5.6-4.3,8.7-2.7c0.6,0.3,1.1,0.7,1.5,1.1l39.4,39.4
		c2.5,2.5,6.6,2.5,9.1,0l0,0l14.8-14.8c2.5-2.5,2.5-6.6,0-9.1l0,0l-39.4-39.4c-2.5-2.5-2.5-6.6,0-9.1c0.5-0.5,1-0.8,1.5-1.1
		l21.9-11.6c3.1-1.7,4.3-5.6,2.7-8.7C445.5,340.8,444.3,339.8,442.8,339.2z"/>
	<g>
		<polygon class="st4" points="393.2,320.9 336.8,349.4 337.5,351.2 395.8,321.8 		"/>
		<polygon class="st4" points="326.2,320.7 392.7,320.7 387.3,318.7 325.5,318.7 		"/>
	</g>
</g>
<path id="folder" class="st5" d="M396.5,203.5c-0.8-1.1-2.2-1.8-3.6-1.8H126.5c-2.1,0-4,1.5-4.4,3.6L90.8,355.8
	c-0.3,1.3,0.1,2.7,0.9,3.8s2.1,1.7,3.5,1.7h109.4c1.4,0,2.7-0.7,3.6-1.8c26.9-35.5,29.7-80.4,30-85.9c0.4-1.5,0.7-3,1-4.5
	c0.2-0.7,0.3-1.4,0.5-2.1c1.3-5.9,4.9-11.1,10-14.3c4-2.3,8.6-3.4,13.2-3.3c0.1,0,0.1,0,0.2,0c3.6,0,7.3,0.3,10.7,1
	c8.9,1.9,15.4,9.3,16.2,18.5c0.6,7.1,2.5,10.6,5.1,15.4l1.1,2c-2.6,1.7-4.4,4.3-5,7.4l-0.1,0.5c-2,10-4.8,19-16.8,19
	c-2.5,0-4.5,2-4.5,4.5s2,4.5,4.5,4.5c20.3,0,23.9-17.7,25.6-26.2l0.1-0.5c0.2-0.8,0.7-1.4,1.4-1.8c1.9-1,3.2-2.6,3.9-4.6
	c0.6-2,0.4-4-0.5-5.9l0,0c0,0,0-0.1-0.1-0.1l-1.6-2.9c-2.4-4.4-3.6-6.6-4-11.9c-1.1-13.1-10.4-23.7-23.3-26.5
	c-4.1-0.8-8.4-1.2-12.6-1.2c-6.3-0.1-12.5,1.4-18,4.5l-0.1,0.1c-2.1,1.3-4.1,2.9-5.8,4.7c-5.2-6-17.2-17.9-31.5-19
	c-8.6-0.7-16.6,2.6-23.7,9.6c-18.8,18.8-35.6,26.4-35.8,26.5c-2.3,1-3.3,3.6-2.3,5.9c0.3,0.6,6.9,15.5,22.4,19.9
	c2.9,0.8,5.8,1.2,8.8,1.2c9,0,18.7-3.6,29-10.7l24.4-16.6c-0.1,0.2-0.1,0.5-0.2,0.7c-0.4,1.6-0.7,3.1-1.1,4.7
	c-0.1,0.3-0.1,0.6-0.1,0.9c0,0.5-1.8,44.8-26.9,79.4H100.7l29.5-141.5h256.6L347,342.2c-8.4,26.9-33,45.1-61.2,45.1H69.7V180.2h42.5
	c2.5,0,4.5-2,4.5-4.5v-31h68.5l21.7,30.9c0.8,1.2,2.2,1.9,3.7,1.9h101.3c1.2,0,2.4-0.5,3.3-1.4c0.9-0.9,1.3-2.1,1.2-3.4l-4.2-59.1
	c0-0.1,0-0.2,0-0.2c-0.9-7.3-5-13.7-11.3-17.6l-0.1-0.1c-4.2-2.4-9-3.6-13.8-3.5c-9.6,0-21,4.1-24.4,15.5
	c-1.5,5.3-3.7,10.4-6.4,15.2l-0.6,1c0,0,0,0.1-0.1,0.1c-1.8,3.4-0.6,7.6,2.9,9.5c0.5,0.3,0.9,0.8,0.8,1.4c-0.1,4.1,0.6,9.8,4.7,14
	c3.1,3.2,7.5,4.8,13,4.8c2.5,0,4.5-2,4.5-4.5s-2-4.5-4.5-4.5c-3,0-5.2-0.7-6.6-2.1c-2-2.1-2.2-5.6-2.1-7.5c0.1-3.3-1.4-6.4-3.9-8.5
	c2.9-5.2,5.2-10.8,6.9-16.5c2.6-8.6,13.6-9,15.8-9h0.1c3.2-0.1,6.3,0.7,9,2.2c3.9,2.4,6.4,6.4,7,10.9l3.9,54.1h-94.1l-21.7-30.9
	c-0.8-1.2-2.2-1.9-3.7-1.9h-75.3c-2.5,0-4.5,2-4.5,4.5v31H65.2c-2.5,0-4.5,2-4.5,4.5v215.9c0,2.5,2,4.5,4.5,4.5h220.6
	c32.2,0,60.2-20.6,69.8-51.4l41.6-137.1C397.6,206.1,397.3,204.7,396.5,203.5z M201,275.6c-11.4,7.9-21.6,10.7-30.2,8.3
	c-7.3-2-12-7.5-14.5-11.2c6.6-3.6,19.7-11.8,34.1-26.1c5.2-5.2,10.6-7.5,16.6-7c10.5,0.8,20.1,10,24.7,15.2L201,275.6z"/>
</svg>
