<?xml version="1.0" encoding="utf-8"?>
<!-- Generator: Adobe Illustrator 25.2.0, SVG Export Plug-In . SVG Version: 6.00 Build 0)  -->
<svg version="1.1" id="research-platform" xmlns="http://www.w3.org/2000/svg" xmlns:xlink="http://www.w3.org/1999/xlink" x="0px"
	 y="0px" viewBox="0 0 720 720" style="enable-background:new 0 0 720 720;" xml:space="preserve">
<style type="text/css">
	.st0{fill:#5039F7;}
	.st1{fill:#EEEBFE;}
	.st2{fill:#F9C07D;}
	.st3{fill:#383734;}
</style>
<g id="highlights">
	<g>
		<circle class="st0" cx="375.3" cy="336.9" r="52.7"/>
	</g>
	<g>
		<path class="st0" d="M375.3,590.8c10.1,0,18.4-8.2,18.4-18.4c0-7.7-10.6-25.8-15.7-34c-0.9-1.5-2.8-1.9-4.3-1
			c-0.4,0.3-0.8,0.6-1,1c-5.1,8.2-15.7,26.3-15.7,34C356.9,582.6,365.2,590.8,375.3,590.8z"/>
	</g>
</g>
<g id="bubbles">
	<g>
		<circle class="st1" cx="349" cy="143.8" r="16.8"/>
	</g>
	<g>
		<circle class="st1" cx="450.4" cy="528.1" r="15.6"/>
	</g>
	<g>
		<circle class="st1" cx="617.5" cy="452.4" r="19.8"/>
	</g>
	<g>
		<circle class="st1" cx="191.7" cy="515.6" r="19"/>
	</g>
	<g>
		<circle class="st1" cx="265" cy="215.5" r="7.8"/>
	</g>
	<g>
		<path class="st1" d="M503.6,161.5c-19.8,0-36.7,17.2-42.7,24.1c-1.4,1.7-1.4,4.1,0,5.7c6,7,22.9,24.1,42.7,24.1
			c19.8,0,36.7-17.2,42.7-24.1c1.4-1.6,1.4-4.1,0-5.7C540.3,178.7,523.4,161.5,503.6,161.5z M503.6,202.9c-8,0-14.4-6.5-14.4-14.4
			c0-8,6.5-14.4,14.4-14.4s14.4,6.5,14.4,14.4v0C518,196.5,511.6,202.9,503.6,202.9L503.6,202.9z"/>
	</g>
</g>
<g>
	<rect x="466.1" y="283.4" class="st2" width="99.8" height="2"/>
</g>
<g>
	<path class="st2" d="M192.8,274.8c-2.5,0-4.5-2-4.5-4.5s2-4.5,4.5-4.5s4.5,2,4.5,4.5S195.3,274.8,192.8,274.8z M192.8,267.9
		c-1.4,0-2.5,1.1-2.5,2.5s1.1,2.5,2.5,2.5s2.5-1.1,2.5-2.5S194.2,267.9,192.8,267.9z"/>
</g>
<g>
	<path class="st2" d="M207.2,274.8c-2.5,0-4.5-2-4.5-4.5s2-4.5,4.5-4.5c2.5,0,4.5,2,4.5,4.5S209.6,274.8,207.2,274.8z M207.2,267.9
		c-1.4,0-2.5,1.1-2.5,2.5s1.1,2.5,2.5,2.5s2.5-1.1,2.5-2.5S208.5,267.9,207.2,267.9z"/>
</g>
<g>
	<path class="st2" d="M221.5,274.8c-2.5,0-4.5-2-4.5-4.5s2-4.5,4.5-4.5c2.5,0,4.5,2,4.5,4.5S223.9,274.8,221.5,274.8z M221.5,267.9
		c-1.4,0-2.5,1.1-2.5,2.5s1.1,2.5,2.5,2.5s2.5-1.1,2.5-2.5S222.8,267.9,221.5,267.9z"/>
</g>
<g>
	
		<rect x="543.5" y="269.3" transform="matrix(0.7071 -0.7071 0.7071 0.7071 -30.269 467.5433)" class="st2" width="11.5" height="2"/>
</g>
<g>
	
		<rect x="548.2" y="264.6" transform="matrix(0.7071 -0.7071 0.7071 0.7071 -30.269 467.5433)" class="st2" width="2" height="11.5"/>
</g>
<g>
	<path class="st2" d="M162.6,221.2c-8.9,0-16.1-7.2-16.1-16.1s7.2-16.1,16.1-16.1s16.1,7.2,16.1,16.1S171.4,221.2,162.6,221.2z
		 M162.6,191c-7.8,0-14.1,6.3-14.1,14.1s6.3,14.1,14.1,14.1s14.1-6.3,14.1-14.1S170.3,191,162.6,191z"/>
</g>
<g>
	<path class="st2" d="M155.4,201.2l-1.8-1c1.8-3.3,5.2-5.3,8.9-5.3c0,0,0,0,0,0l0,2c0,0,0,0,0,0
		C159.6,196.9,156.8,198.6,155.4,201.2z"/>
</g>
<g>
	<path class="st2" d="M139,460.5c-8.9,0-16.2-7.3-16.2-16.2s7.3-16.2,16.2-16.2s16.2,7.3,16.2,16.2S147.9,460.5,139,460.5z
		 M139,430.1c-7.8,0-14.2,6.4-14.2,14.2s6.4,14.2,14.2,14.2s14.2-6.4,14.2-14.2S146.8,430.1,139,430.1z"/>
</g>
<g>
	<path class="st2" d="M139,452.4c-4.5,0-8.1-3.6-8.1-8.1s3.6-8.1,8.1-8.1s8.1,3.6,8.1,8.1S143.5,452.4,139,452.4z M139,438.2
		c-3.4,0-6.1,2.7-6.1,6.1c0,3.4,2.7,6.1,6.1,6.1s6.1-2.7,6.1-6.1C145.1,440.9,142.4,438.2,139,438.2z"/>
</g>
<g>
	<path class="st2" d="M330.6,204.6c-4.9,0-8.9-4-8.9-8.9c0-4.9,4-8.9,8.9-8.9c4.9,0,8.9,4,8.9,8.9
		C339.5,200.6,335.5,204.6,330.6,204.6z M330.6,188.8c-3.8,0-6.9,3.1-6.9,6.9s3.1,6.9,6.9,6.9s6.9-3.1,6.9-6.9
		S334.4,188.8,330.6,188.8z"/>
</g>
<g>
	<path class="st2" d="M273.8,593.3c-4.9,0-8.9-4-8.9-8.9s4-8.9,8.9-8.9c4.9,0,8.9,4,8.9,8.9S278.7,593.3,273.8,593.3z M273.8,577.4
		c-3.8,0-6.9,3.1-6.9,6.9c0,3.8,3.1,6.9,6.9,6.9s6.9-3.1,6.9-6.9C280.7,580.5,277.6,577.4,273.8,577.4z"/>
</g>
<g>
	<path class="st2" d="M349,152.7c-4.9,0-8.9-4-8.9-8.9s4-8.9,8.9-8.9s8.9,4,8.9,8.9S353.9,152.7,349,152.7z M349,136.8
		c-3.8,0-6.9,3.1-6.9,6.9s3.1,6.9,6.9,6.9s6.9-3.1,6.9-6.9S352.8,136.8,349,136.8z"/>
</g>
<g>
	<path class="st2" d="M503.6,197.4c-4.9,0-8.9-4-8.9-8.9c0-4.9,4-8.9,8.9-8.9s8.9,4,8.9,8.9C512.5,193.4,508.5,197.4,503.6,197.4z
		 M503.6,181.6c-3.8,0-6.9,3.1-6.9,6.9s3.1,6.9,6.9,6.9s6.9-3.1,6.9-6.9S507.4,181.6,503.6,181.6z"/>
</g>
<g>
	<path class="st2" d="M617.5,461.3c-4.9,0-8.9-4-8.9-8.9s4-8.9,8.9-8.9s8.9,4,8.9,8.9S622.4,461.3,617.5,461.3z M617.5,445.5
		c-3.8,0-6.9,3.1-6.9,6.9c0,3.8,3.1,6.9,6.9,6.9c3.8,0,6.9-3.1,6.9-6.9C624.4,448.6,621.3,445.5,617.5,445.5z"/>
</g>
<g>
	
		<rect x="391.9" y="83.7" transform="matrix(0.4779 -0.8784 0.8784 0.4779 -85.3515 517.7544)" class="st2" width="2" height="494"/>
</g>
<g>
	<path class="st2" d="M181.9,452c-9.3,0-18.8-0.8-28.5-2.4l0.3-2c34.2,5.9,69.4,1,107.4-15c34-14.3,67.2-36.1,99.3-57.1
		C427,332,495.8,286.9,576.7,304l-0.4,2c-35.9-7.6-72.6-3.5-112.1,12.7c-35.3,14.4-69.6,36.8-102.7,58.5
		C305.2,414.1,247.2,452,181.9,452z"/>
</g>
<g>
	<path class="st2" d="M95.5,378.3l-1.4-1.4l27.3-28.7c0.2-0.2,0.5-0.3,0.7-0.3h42.8v2h-42.4L95.5,378.3z"/>
</g>
<g>
	<path class="st2" d="M277.1,577.4c-0.1,0-0.2,0-0.3-0.1c-0.5-0.2-0.7-0.6-0.7-1.1l50.3-370L150.1,378.3c-0.2,0.2-0.4,0.3-0.7,0.3
		H94.7c-0.6,0-1-0.4-1-1v-41.4c0-0.6,0.4-1,1-1h6.9v-4.1c0-0.6,0.4-1,1-1h15.1c0.3,0,0.5,0.1,0.7,0.3l4.3,4.3h29.1c0.6,0,1,0.4,1,1
		V349h-2v-12.2h-28.5c-0.3,0-0.5-0.1-0.7-0.3l-4.3-4.3h-13.6v4.1c0,0.6-0.4,1-1,1h-6.9v39.4H149l178.1-173.9
		c0.3-0.3,0.8-0.4,1.1-0.2c0.4,0.2,0.6,0.6,0.5,1l-50.1,368l220.6-376.5l1.7,1L277.9,576.9C277.7,577.2,277.4,577.4,277.1,577.4z"/>
</g>
<g>
	<path class="st2" d="M405.3,540.8l-29.9-108.6l-25.6,84.7l-21.7-60.3l-12.2,28.8H177.1V263.9c0-5.4,4.4-9.8,9.8-9.8h121.7v2H187
		c-4.3,0-7.8,3.5-7.8,7.8v219.5h135.4l13.7-32.3l21.4,59.4l25.9-85.5l30.1,109.2l25-70.3l9.9,19.6h124.4V263.9
		c0-4.3-3.5-7.8-7.8-7.8H447.9v-2h109.2c5.4,0,9.8,4.4,9.8,9.8v221.5H439.2l-8.4-16.5L405.3,540.8z"/>
</g>
<g>
	<rect x="178.1" y="283.4" class="st2" width="111.8" height="2"/>
</g>
<g>
	<path class="st2" d="M620,331.3c-0.3,0-0.7,0-1-0.1l-30.2-6.3c-4.3-0.9-8-3.4-10.4-7c-2.4-3.7-3.2-8-2.3-12.3
		c1.8-8.8,10.5-14.5,19.3-12.7l30.2,6.3c2.8,0.6,4.6,3.3,4,6.1l-0.2,1.1l-2-0.4l0.2-1.1c0.4-1.7-0.7-3.4-2.4-3.7l-30.2-6.3
		c-7.8-1.6-15.4,3.4-17,11.1c-0.8,3.8,0,7.6,2.1,10.8c2.1,3.2,5.3,5.4,9.1,6.2l30.2,6.3c1.7,0.4,3.4-0.7,3.7-2.4l0.2-1.1l2,0.4
		l-0.2,1.1C624.5,329.7,622.4,331.3,620,331.3z"/>
</g>
<g>
	<path class="st2" d="M627.6,313c-0.2,0-0.4,0-0.7-0.1c-0.8-0.2-1.5-0.7-2-1.4s-0.6-1.6-0.5-2.4l0.9-4.2l6.2,1.3l-0.9,4.2
		c-0.2,0.8-0.7,1.5-1.4,2C628.9,312.8,628.3,313,627.6,313z M627,307.3l-0.5,2.3c-0.1,0.3,0,0.6,0.2,0.9s0.4,0.4,0.7,0.5
		c0.3,0.1,0.6,0,0.9-0.2c0.3-0.2,0.4-0.4,0.5-0.7l0.5-2.3L627,307.3z"/>
</g>
<g>
	<path class="st2" d="M627.3,327.2l-6.2-1.3l0.9-4.2c0.2-0.8,0.7-1.5,1.4-2c0.7-0.5,1.6-0.6,2.4-0.5h0c0.8,0.2,1.5,0.7,2,1.4
		s0.6,1.6,0.5,2.4L627.3,327.2z M623.4,324.4l2.3,0.5l0.5-2.3c0.1-0.3,0-0.6-0.2-0.9s-0.4-0.4-0.7-0.5l0,0c-0.6-0.1-1.3,0.3-1.4,0.9
		L623.4,324.4z"/>
</g>
<g>
	<rect x="578.6" y="306" transform="matrix(0.2026 -0.9793 0.9793 0.2026 171.455 824.4644)" class="st2" width="26.8" height="2"/>
</g>
<g>
	<path class="st2" d="M528.9,579.9l-7.1-13.8c-4.7-9.2-4.7-20.5,0-31.1c4.5-10.2,4.5-20.6,0-29.3L352,151.5l1.8-0.9l169.7,354.1
		c4.7,9.2,4.7,20.5,0,31c-4.5,10.2-4.5,20.6,0,29.3l7.1,13.8L528.9,579.9z"/>
</g>
<g>
	<path class="st2" d="M553.4,567.3l-7.4-14.4c-4.5-8.8-13-14.8-23.8-17.1c-11.3-2.4-20.5-9-25.2-18.2l-6.7-13l1.8-0.9l6.7,13
		c4.5,8.8,13,14.8,23.8,17.1c11.3,2.4,20.5,9,25.2,18.2l7.4,14.4L553.4,567.3z"/>
</g>
<g>
	
		<rect x="496.9" y="502.5" transform="matrix(0.8885 -0.4589 0.4589 0.8885 -174.3595 289.5414)" class="st2" width="23.5" height="2"/>
</g>
<g>
	
		<rect x="500.5" y="509.6" transform="matrix(0.8865 -0.4628 0.4628 0.8865 -178.1455 295.0031)" class="st2" width="23.5" height="2"/>
</g>
<g>
	
		<rect x="505.7" y="516.8" transform="matrix(0.8879 -0.4601 0.4601 0.8879 -180.4131 295.3286)" class="st2" width="20.1" height="2"/>
</g>
<g>
	
		<rect x="512.6" y="523.8" transform="matrix(0.8875 -0.4608 0.4608 0.8875 -183.3656 298.5305)" class="st2" width="14.2" height="2"/>
</g>
<g>
	
		<rect x="524.7" y="565.8" transform="matrix(0.8931 -0.4499 0.4499 0.8931 -197.6035 302.1291)" class="st2" width="24.1" height="2"/>
</g>
<g>
	
		<rect x="521.1" y="558.6" transform="matrix(0.8931 -0.4499 0.4499 0.8931 -194.7958 299.7299)" class="st2" width="24.1" height="2"/>
</g>
<g>
	
		<rect x="519.3" y="551.4" transform="matrix(0.8938 -0.4484 0.4484 0.8938 -191.4694 296.16)" class="st2" width="20.8" height="2"/>
</g>
<g>
	
		<rect x="519.3" y="544.3" transform="matrix(0.8954 -0.4453 0.4453 0.8954 -187.7445 291.322)" class="st2" width="13.7" height="2"/>
</g>
<g id="person">
	<path class="st3" d="M253.1,539.7c-0.2,0-0.4,0-0.6,0c-2.5-0.3-4.2-2.6-3.9-5l30-227.2c3.5-26.3,18.2-49.1,40.2-62.6
		c13.6-8.4,30.4-12.6,49.9-12.6c7.9,0,35.8,0.8,60.3,10.4c25.4,10,38.9,26.6,38.9,47.8c0,20.4,5.1,40.6,14.8,58.6l4.1,7.6
		c1.8,3.5,2.2,7.4,1,11.2c-1.2,3.7-3.7,6.8-7.2,8.6c-6.9,3.6-11.3,11-11.1,18.8c0.4,14.1-2,33.9-15.4,47.8
		c-10.1,10.4-24.8,15.7-43.7,15.7c-2.5,0-4.5-2-4.5-4.5s2-4.5,4.5-4.5c16.3,0,28.9-4.4,37.2-13c11.3-11.6,13.2-28.8,12.9-41.3
		c-0.3-11.2,6-21.8,15.9-27c1.3-0.7,2.3-1.9,2.8-3.3c0.5-1.4,0.3-3-0.4-4.3l-4.1-7.5c-10.4-19.2-15.8-41-15.8-62.8
		c0-38.9-56.7-49.3-90.2-49.3c-17.8,0-33,3.8-45.2,11.3c-19.7,12.1-32.8,32.5-35.9,56.1l-30,227.2
		C257.3,538.1,255.4,539.7,253.1,539.7z"/>
</g>
</svg>
