<svg xmlns="http://www.w3.org/2000/svg" viewBox="0 0 480.65 465.26"><defs><style>.cls-1{isolation:isolate;}.cls-2{fill:#f3eee6;}.cls-3{fill:#2760ff;}.cls-4{fill:#eee6ff;}.cls-5{mix-blend-mode:overlay;}.cls-6{fill:#d9cff4;}.cls-7{opacity:0.5;mix-blend-mode:hard-light;}.cls-8{fill:#6c5679;}.cls-9{fill:#071640;}.cls-10{fill:#e7dcff;}</style></defs><title>spot-blackfynn-view-package</title><g class="cls-1"><g id="Layer_1" data-name="Layer 1"><path class="cls-2" d="M31.14,174.83A11.14,11.14,0,1,0,42.28,186,11.16,11.16,0,0,0,31.14,174.83Zm0,20.79A9.64,9.64,0,1,1,40.78,186,9.65,9.65,0,0,1,31.14,195.62Z"/><path class="cls-2" d="M368.36,317.38a9.75,9.75,0,1,0,9.75,9.75A9.76,9.76,0,0,0,368.36,317.38Zm0,18a8.25,8.25,0,1,1,8.25-8.25A8.26,8.26,0,0,1,368.36,335.38Z"/><path class="cls-2" d="M442.49,194.82a7.77,7.77,0,1,0,7.77,7.77A7.78,7.78,0,0,0,442.49,194.82Zm0,14a6.27,6.27,0,1,1,6.27-6.27A6.28,6.28,0,0,1,442.49,208.86Z"/><path class="cls-2" d="M425.27,439.33a12.88,12.88,0,0,0-7.68,2.54l-32.48-35.26a.71.71,0,0,0,0-.1V376a.71.71,0,0,0,0-.15h27.47a.75.75,0,0,0,.75-.75V101.75a.74.74,0,0,0-.07-.3l0-.07a.74.74,0,0,0-.13-.18l0,0L360.53,55.77l21.13-23.93,0-.05a14.78,14.78,0,0,0,14.52,2.08,14.91,14.91,0,1,0-15.64-3l0,0L359.2,55H214.71V50.38a4.47,4.47,0,0,0-8.94,0V55H189.6a.75.75,0,0,0-.75.75V84.88H155.13a.75.75,0,0,0-.75.75V110L130.52,80.53a4.47,4.47,0,0,0-6.94,5.63l27.54,34H129.49A38.11,38.11,0,0,0,87,83L71.48,66.12a7.79,7.79,0,1,0-1.18.93L85.19,83.22a38.17,38.17,0,1,0,35.07,62.56v13.78q-8.46,5.94-16.85,12.89a298.87,298.87,0,0,0-45,46.15,4.47,4.47,0,0,0,0,5.35,298.87,298.87,0,0,0,45,46.15q8.39,7,16.85,12.89v42.62L64.1,389.21a7.5,7.5,0,1,0,1.06,1.06l55.1-62.4V437.76a.75.75,0,0,0,.75.75H348.26a.75.75,0,0,0,.75-.75v-30.5h34.67l32.77,35.57a12.95,12.95,0,1,0,8.83-3.5Zm-47-414.42a13.38,13.38,0,1,1,7.1,7.38A13.29,13.29,0,0,1,378.31,24.91ZM59.84,60.52a6.27,6.27,0,1,1,6.27,6.27A6.28,6.28,0,0,1,59.84,60.52Zm1.69,340.12a6,6,0,1,1,2.05-9.87.71.71,0,0,0,.06.08l0,0a6,6,0,0,1,1.26,1.95A6,6,0,0,1,61.53,400.64ZM383.63,376v29l-26.83-29.12h26.86A.71.71,0,0,0,383.63,376Zm-28.21-1.65L284,296.82A242,242,0,0,0,323.1,270.1a298.9,298.9,0,0,0,45-46.15,4.47,4.47,0,0,0,0-5.35,298.9,298.9,0,0,0-45-46.15A240,240,0,0,0,282,144.68l76.59-86.74v43.81a.75.75,0,0,0,.75.75h52.46V374.38Zm-64.3-15a29.07,29.07,0,0,0-25.44,15H190.35v-60a124.49,124.49,0,0,0,22.9,2.19c22.36,0,45.83-6.48,69.36-19l70.77,76.83H316.57A29.08,29.08,0,0,0,291.13,359.4Zm-135.25-56a156.54,156.54,0,0,0,33,10.64v61.09a.75.75,0,0,0,.75.75h75.31a29.11,29.11,0,0,0,2.82,29.88H155.88Zm8.39-27.64-8.39,9.51V266.64A74.35,74.35,0,0,0,164.28,275.76Zm-8.39-99.82V160l7.29,7.91A74.32,74.32,0,0,0,155.88,175.95Zm58.37,119.28a73.64,73.64,0,0,0,49.05-18.64l13,14.16c-25.94,13.35-47.61,16.83-63.1,16.83a116.58,116.58,0,0,1-22.9-2.33v-14A73.79,73.79,0,0,0,214.25,295.22Zm50.17-19.64a73.89,73.89,0,0,0-1.17-109.64l12.67-14.35a231.63,231.63,0,0,1,41.32,27.61,304.73,304.73,0,0,1,41.65,42.08,304.73,304.73,0,0,1-41.65,42.08A229.69,229.69,0,0,1,277.74,290ZM262.11,165a73.87,73.87,0,0,0-71.76-13.63v-14a116.39,116.39,0,0,1,22.9-2.36c22,0,42.87,6.67,61.29,15.92Zm-73.26-13.12a73.91,73.91,0,0,0-24.6,15l-8.37-9.09V149a151.45,151.45,0,0,1,33-11.32Zm-34.47,4.29-4.06-4.41q2-1.05,4.06-2Zm0,2.21v19.6a73.86,73.86,0,0,0,0,86.71V287l-3.61,4.09a218.1,218.1,0,0,1-29-18V169.47a215.74,215.74,0,0,1,27.18-17Zm0,130.89v3.62l-2.23-1.1Zm1.5-1.7,9.51-10.78a73.87,73.87,0,0,0,23.45,14v14.18a150.85,150.85,0,0,1-33-11.36ZM360.11,57.4,410.56,101H360.11Zm-169.76-.89h15.42v45.79a4.47,4.47,0,0,0,8.94,0V56.51H357.88L280.65,144C257.77,132.15,235,126,213.25,126a124.49,124.49,0,0,0-22.9,2.19ZM155.88,86.38h33v42.13a156.54,156.54,0,0,0-33,10.64V125a4.45,4.45,0,0,0,5.07-7l-5.07-6.25ZM154,123.7a4.36,4.36,0,0,0,.38.37v15.76q-5.16,2.35-10.33,5.08l-15.28-16.59a38.31,38.31,0,0,0,.71-6.69h22.84Zm-32.25,20.23a38,38,0,0,0,6.62-13.82l14.31,15.54a223.18,223.18,0,0,0-20.93,12.87ZM109.27,263.35a304.75,304.75,0,0,1-41.65-42.08,304.75,304.75,0,0,1,41.65-42.08c3.72-3.08,7.38-5.93,11-8.61V272C116.35,269.07,112.68,266.17,109.27,263.35ZM121.76,284A221.32,221.32,0,0,0,144.67,298l-22.91,25.94ZM347.51,407.28V437H121.76V326.18L146,298.68q4.17,2.15,8.34,4V406.51a.75.75,0,0,0,.75.75H268.92a29.07,29.07,0,0,0,44.42,0h34.17Zm-33-1.52a29.11,29.11,0,0,0,2.82-29.88h37.42l27.52,29.88Zm110.74,58a11.47,11.47,0,1,1,11.47-11.47A11.48,11.48,0,0,1,425.27,463.76Z"/><path class="cls-2" d="M390.77,25.6a5.57,5.57,0,1,0-5.2-3.54A5.56,5.56,0,0,0,390.77,25.6ZM387,18.39a4.08,4.08,0,1,1-.06,3.12A4,4,0,0,1,387,18.39Z"/><path class="cls-2" d="M141.68,19.19a9.75,9.75,0,0,0,11.88-7,9.75,9.75,0,1,0-11.88,7ZM139.95,2.64a8.2,8.2,0,0,1,4.17-1.14,8.32,8.32,0,0,1,2.08.27,8.25,8.25,0,0,1,2.11,15.1,8.25,8.25,0,1,1-8.37-14.22Z"/><path class="cls-2" d="M260.19,124.36a4.47,4.47,0,0,0,6.29-.66l30.43-37.54A4.47,4.47,0,0,0,290,80.53l-30.43,37.54A4.47,4.47,0,0,0,260.19,124.36Z"/><circle class="cls-3" cx="214.25" cy="221.29" r="73.93"/><circle class="cls-4" cx="91.34" cy="120.89" r="38.17"/><g class="cls-5"><circle class="cls-6" cx="291.13" cy="388.49" r="29.09"/></g><circle class="cls-6" cx="291.13" cy="388.49" r="29.09"/><g class="cls-7"><path class="cls-8" d="M412.57,375.88h-223a.75.75,0,0,1-.75-.75V55.76a.75.75,0,0,1,.75-.75H359.36a.75.75,0,0,1,.49.18l53.21,46a.75.75,0,0,1,.26.57V375.13A.75.75,0,0,1,412.57,375.88Zm-222.23-1.5H411.82V102.09L359.08,56.51H190.35Z"/><path class="cls-8" d="M384.38,407.26H155.13a.75.75,0,0,1-.75-.75V85.63a.75.75,0,0,1,.75-.75H189.6a.75.75,0,0,1,0,1.5H155.88V405.76H383.63V376a.75.75,0,0,1,1.5,0v30.48A.75.75,0,0,1,384.38,407.26Z"/><path class="cls-8" d="M348.26,438.51H121a.75.75,0,0,1-.75-.75V120.89a.75.75,0,0,1,.75-.75h32.46a.75.75,0,1,1,0,1.5H121.76V437H347.51V407.28a.75.75,0,0,1,1.5,0v30.48A.75.75,0,0,1,348.26,438.51Z"/><path class="cls-8" d="M31.14,197.12A11.14,11.14,0,1,1,42.28,186,11.16,11.16,0,0,1,31.14,197.12Zm0-20.79A9.64,9.64,0,1,0,40.78,186,9.65,9.65,0,0,0,31.14,176.33Z"/><path class="cls-8" d="M214.25,267.65a46.35,46.35,0,1,1,46.35-46.35A46.41,46.41,0,0,1,214.25,267.65Zm0-91.21a44.85,44.85,0,1,0,44.85,44.85A44.9,44.9,0,0,0,214.25,176.44Z"/><path class="cls-8" d="M368.36,336.88a9.75,9.75,0,1,1,9.75-9.75A9.76,9.76,0,0,1,368.36,336.88Zm0-18a8.25,8.25,0,1,0,8.25,8.25A8.26,8.26,0,0,0,368.36,318.88Z"/><path class="cls-8" d="M442.49,210.36a7.77,7.77,0,1,1,7.77-7.77A7.78,7.78,0,0,1,442.49,210.36Zm0-14a6.27,6.27,0,1,0,6.27,6.27A6.28,6.28,0,0,0,442.49,196.31Z"/><path class="cls-8" d="M425.27,465.26a13,13,0,1,1,13-13A13,13,0,0,1,425.27,465.26Zm0-24.43a11.47,11.47,0,1,0,11.47,11.47A11.48,11.48,0,0,0,425.27,440.83Z"/><path class="cls-8" d="M66.11,68.29a7.77,7.77,0,1,1,7.77-7.77A7.78,7.78,0,0,1,66.11,68.29Zm0-14a6.27,6.27,0,1,0,6.27,6.27A6.28,6.28,0,0,0,66.11,54.25Z"/><path class="cls-8" d="M59.32,402.56a7.55,7.55,0,0,1-7-4.78h0a7.52,7.52,0,1,1,7,4.78Zm0-13.57a6,6,0,0,0-5.62,8.24h0A6,6,0,1,0,59.33,389Z"/><path class="cls-8" d="M390.76,34.91a14.9,14.9,0,1,1,5.44-1A14.85,14.85,0,0,1,390.76,34.91Zm0-28.27a13.38,13.38,0,1,0,12.47,8.49A13.3,13.3,0,0,0,390.75,6.64Z"/><path class="cls-8" d="M390.76,25.6a5.59,5.59,0,1,1,2-.39A5.57,5.57,0,0,1,390.76,25.6Zm0-9.65a4.07,4.07,0,1,0,3.8,2.59A4.05,4.05,0,0,0,390.76,15.95Z"/><path class="cls-8" d="M144.15,19.51a9.81,9.81,0,0,1-2.46-.32,9.69,9.69,0,1,1,2.46.32Zm0-18a8.25,8.25,0,1,0,7.13,4.07A8.2,8.2,0,0,0,144.12,1.51Z"/><path class="cls-8" d="M64.14,391a.75.75,0,0,1-.56-1.25l317-358.95a.75.75,0,0,1,1.13,1L64.7,390.79A.75.75,0,0,1,64.14,391Z"/><path class="cls-8" d="M417.27,443.38a.75.75,0,0,1-.55-.24L70,66.73a.75.75,0,0,1,1.1-1L417.83,442.12a.75.75,0,0,1-.55,1.26Z"/><path class="cls-8" d="M412.57,102.5H359.36a.75.75,0,0,1-.75-.75v-46a.75.75,0,0,1,1.5,0V101h52.46a.75.75,0,0,1,0,1.5Z"/></g><path class="cls-9" d="M210.24,106.79a4.5,4.5,0,0,1-4.5-4.5V50.38a4.5,4.5,0,0,1,9,0v51.91A4.5,4.5,0,0,1,210.24,106.79Z"/><path class="cls-9" d="M157.48,125.39a4.49,4.49,0,0,1-3.5-1.67L123.55,86.18a4.5,4.5,0,0,1,7-5.67L161,118.05a4.5,4.5,0,0,1-3.49,7.33Z"/><path class="cls-9" d="M263,125.39a4.5,4.5,0,0,1-3.49-7.33l30.43-37.54a4.5,4.5,0,0,1,7,5.67L266.5,123.72A4.49,4.49,0,0,1,263,125.39Z"/><path class="cls-9" d="M213.25,316.55c-35.23,0-73.22-16.05-109.86-46.42A299,299,0,0,1,58.34,224a4.5,4.5,0,0,1,0-5.38,299,299,0,0,1,45.05-46.16C140,142.06,178,126,213.25,126s73.22,16.05,109.86,46.42a299,299,0,0,1,45.05,46.16,4.5,4.5,0,0,1,0,5.38,299,299,0,0,1-45.05,46.16C286.47,300.5,248.48,316.55,213.25,316.55ZM67.66,221.28a304.79,304.79,0,0,0,41.63,42.05c24.38,20.17,62.2,44.22,104,44.22,23,0,59.8-7.67,104-44.22a304.79,304.79,0,0,0,41.63-42.05,304.79,304.79,0,0,0-41.63-42.05C292.84,159,255,135,213.25,135c-23,0-59.8,7.67-104,44.22A304.79,304.79,0,0,0,67.66,221.28Z"/><circle class="cls-10" cx="465.54" cy="254.42" r="15.11"/><circle class="cls-10" cx="18.02" cy="334.57" r="18.02"/></g></g></svg>
