<svg width="108" height="80" viewBox="0 0 108 80" fill="none" xmlns="http://www.w3.org/2000/svg">
<path d="M13.4997 75.9819C11.5148 75.9804 9.58009 75.3582 7.9663 74.2026C6.35251 73.0469 5.14044 71.4156 4.49973 69.5369C3.85291 67.6324 3.82728 65.5717 4.42651 63.6517C5.02575 61.7316 6.21893 60.0513 7.83421 58.8528C9.44948 57.6542 11.4035 56.9993 13.4148 56.9823C15.4261 56.9653 17.3909 57.5871 19.0262 58.7581C20.6615 59.9292 21.8829 61.5891 22.5146 63.4987C23.1462 65.4084 23.1554 67.4692 22.5409 69.3844C21.9264 71.2996 20.7198 72.9703 19.095 74.156C17.4703 75.3416 15.5111 75.981 13.4997 75.9819ZM6.39073 68.8939C6.86789 70.2984 7.75081 71.5299 8.92786 72.4326C10.1049 73.3354 11.5232 73.8688 13.0034 73.9654C14.4836 74.0621 15.9592 73.7176 17.2437 72.9757C18.5281 72.2337 19.5637 71.1275 20.2194 69.797C20.8752 68.4664 21.1217 66.9713 20.9277 65.5007C20.7338 64.0301 20.1081 62.65 19.1298 61.535C18.1515 60.42 16.8645 59.6201 15.4316 59.2365C13.9987 58.8529 12.4843 58.9028 11.0797 59.3799C10.1471 59.6967 9.28608 60.1941 8.54572 60.8437C7.80536 61.4933 7.2002 62.2823 6.76478 63.1658C6.32937 64.0493 6.07223 65.0098 6.00805 65.9927C5.94387 66.9755 6.0739 67.9613 6.39073 68.8939Z" fill="#2760FF"/>
<path d="M28.7549 54.957C42.8381 54.957 54.2549 43.5403 54.2549 29.457C54.2549 15.3738 42.8381 3.95703 28.7549 3.95703C14.6716 3.95703 3.25488 15.3738 3.25488 29.457C3.25488 43.5403 14.6716 54.957 28.7549 54.957Z" fill="#E6EFFF"/>
<path d="M94.9902 70.979C98.8562 70.979 101.99 67.845 101.99 63.979C101.99 60.113 98.8562 56.979 94.9902 56.979C91.1242 56.979 87.9902 60.113 87.9902 63.979C87.9902 67.845 91.1242 70.979 94.9902 70.979Z" fill="#2760FF"/>
<path d="M99.4827 15.9771C98.0134 15.9756 96.5879 15.4763 95.4387 14.5606C94.2895 13.645 93.4845 12.367 93.1549 10.935C92.8253 9.5031 92.9906 8.00175 93.6239 6.67583C94.2571 5.34991 95.3209 4.27767 96.6418 3.63397C97.9626 2.99027 99.4626 2.8131 100.897 3.13135C102.332 3.44961 103.616 4.24451 104.541 5.38641C105.465 6.52831 105.976 7.94984 105.989 9.41915C106.002 10.8885 105.517 12.3189 104.613 13.4771C104.006 14.2585 103.228 14.8902 102.338 15.3236C101.449 15.757 100.472 15.9806 99.4827 15.9771ZM99.4937 4.97705C98.4288 4.97665 97.3981 5.35398 96.5852 6.04194C95.7722 6.72989 95.2296 7.68389 95.0538 8.73427C94.878 9.78465 95.0804 10.8633 95.6251 11.7785C96.1698 12.6937 97.0214 13.386 98.0285 13.7324C99.0355 14.0788 100.133 14.0567 101.125 13.6702C102.118 13.2837 102.941 12.5578 103.448 11.6215C103.956 10.6852 104.115 9.59925 103.897 8.55676C103.679 7.51428 103.099 6.58283 102.259 5.92805C101.468 5.31313 100.495 4.97983 99.4937 4.98105V4.97705Z" fill="#2760FF"/>
<g opacity="0.97">
<path opacity="0.97" d="M46.2537 57.3422H33.5537V8.28418H83.0277V22.2932C83.0277 22.5584 82.9224 22.8127 82.7348 23.0003C82.5473 23.1878 82.2929 23.2932 82.0277 23.2932C81.7625 23.2932 81.5081 23.1878 81.3206 23.0003C81.1331 22.8127 81.0277 22.5584 81.0277 22.2932V10.2842H35.5557V55.3422H46.2557C46.5209 55.3422 46.7753 55.4475 46.9628 55.6351C47.1504 55.8226 47.2557 56.077 47.2557 56.3422C47.2557 56.6074 47.1504 56.8617 46.9628 57.0493C46.7753 57.2368 46.5209 57.3422 46.2557 57.3422H46.2537Z" fill="black"/>
</g>
<path d="M94.2602 70.2H45.2002V21.146H94.2602V70.2ZM47.2002 68.2H92.2602V23.146H47.2002V68.2Z" fill="black"/>
<path d="M83.2512 47.855C83.3641 47.1446 83.4202 46.4263 83.4192 45.707C83.4189 45.5048 83.4989 45.3108 83.6416 45.1675C83.7843 45.0243 83.978 44.9435 84.1802 44.943C84.1394 44.1721 84.0391 43.4055 83.8802 42.65C83.8247 42.657 83.7686 42.657 83.7132 42.65C83.5409 42.6556 83.3718 42.6027 83.2335 42.4999C83.0951 42.3971 82.9956 42.2505 82.9512 42.084C82.7672 41.3874 82.5254 40.7073 82.2282 40.051C82.151 39.872 82.145 39.6702 82.2116 39.487C82.2781 39.3037 82.4121 39.1528 82.5862 39.065C82.2379 38.3897 81.8366 37.743 81.3862 37.131C81.2356 37.2484 81.0446 37.3015 80.855 37.2787C80.6654 37.2558 80.4926 37.1589 80.3742 37.009C79.905 36.4621 79.3956 35.951 78.8502 35.48C78.7042 35.3479 78.6148 35.1647 78.6004 34.9684C78.5861 34.7721 78.648 34.5778 78.7732 34.426C78.1839 33.951 77.5576 33.524 76.9002 33.149C76.8344 33.267 76.7385 33.3653 76.6221 33.4338C76.5057 33.5024 76.3732 33.5387 76.2382 33.539C76.1189 33.538 76.0015 33.5092 75.8952 33.455C75.2551 33.1303 74.5904 32.8568 73.9072 32.637C73.7225 32.5747 73.5684 32.4444 73.4765 32.2725C73.3845 32.1007 73.3615 31.9002 73.4122 31.712C72.6806 31.5141 71.9347 31.3737 71.1812 31.292C71.1656 31.483 71.0786 31.6611 70.9376 31.7908C70.7965 31.9205 70.6118 31.9924 70.4202 31.992C69.7013 31.9588 68.981 31.9792 68.2652 32.053H68.1882C68.0043 32.0545 67.8261 31.9896 67.6862 31.8702C67.5464 31.7508 67.4544 31.5849 67.4272 31.403C66.6791 31.5238 65.941 31.7003 65.2192 31.931C65.2838 32.1175 65.2739 32.3218 65.1916 32.5012C65.1092 32.6807 64.9608 32.8214 64.7772 32.894C64.1155 33.148 63.474 33.4519 62.8582 33.803C62.743 33.872 62.6115 33.9089 62.4772 33.91C62.3489 33.909 62.223 33.8755 62.1111 33.8127C61.9992 33.75 61.905 33.6599 61.8372 33.551C61.193 33.9667 60.5843 34.435 60.0172 34.951C60.1503 35.0928 60.2244 35.28 60.2244 35.4745C60.2244 35.669 60.1503 35.8562 60.0172 35.998C59.5041 36.5099 59.0304 37.0598 58.6002 37.643C58.545 37.724 58.4741 37.7931 58.3918 37.8463C58.3095 37.8995 58.2174 37.9357 58.1209 37.9529C58.0244 37.97 57.9254 37.9677 57.8298 37.9461C57.7342 37.9245 57.6439 37.884 57.5642 37.827C57.1531 38.4685 56.7918 39.1404 56.4832 39.837C56.6627 39.9137 56.8061 40.0562 56.884 40.2352C56.9619 40.4143 56.9684 40.6163 56.9022 40.8C56.644 41.4729 56.4403 42.1654 56.2932 42.871C56.2579 43.0461 56.1623 43.2032 56.023 43.315C55.8838 43.4268 55.7097 43.4863 55.5312 43.483H55.4172C55.3014 44.2187 55.2429 44.9622 55.2422 45.707C55.3422 45.7069 55.4413 45.7267 55.5336 45.7651C55.626 45.8036 55.7098 45.86 55.7802 45.931C55.923 46.0744 56.0032 46.2686 56.0032 46.471C56.04 47.1907 56.1343 47.9063 56.2852 48.611C56.3226 48.8018 56.2859 48.9997 56.1827 49.1645C56.0794 49.3293 55.9172 49.4485 55.7292 49.498C55.9233 50.2339 56.1782 50.9523 56.4912 51.646C56.5804 51.5984 56.6783 51.5691 56.779 51.5598C56.8797 51.5506 56.9813 51.5616 57.0777 51.5921C57.1742 51.6227 57.2635 51.6722 57.3405 51.7378C57.4175 51.8034 57.4807 51.8837 57.5262 51.974C57.8562 52.6126 58.2329 53.2259 58.6532 53.809C58.7729 53.973 58.8225 54.1779 58.7912 54.3786C58.7599 54.5792 58.6502 54.7592 58.4862 54.879C58.9614 55.4704 59.4863 56.02 60.0552 56.522C60.1809 56.3724 60.3594 56.277 60.5537 56.2556C60.7479 56.2342 60.9429 56.2884 61.0982 56.407C61.6505 56.8616 62.2387 57.2706 62.8572 57.63C63.0268 57.7299 63.1515 57.8913 63.2053 58.0806C63.2591 58.27 63.2379 58.4728 63.1462 58.647C63.8204 58.9916 64.5205 59.2828 65.2402 59.518C65.2965 59.3287 65.4242 59.1688 65.5962 59.0718C65.7681 58.9748 65.9711 58.9483 66.1622 58.998C66.8551 59.1898 67.5635 59.3203 68.2792 59.388C68.4792 59.4116 68.6617 59.5132 68.7872 59.6707C68.9126 59.8282 68.9709 60.0288 68.9492 60.229H69.7112C70.22 60.228 70.7284 60.1999 71.2342 60.145C71.2095 59.9493 71.2616 59.7516 71.3794 59.5933C71.4972 59.4351 71.6716 59.3285 71.8662 59.296C72.5759 59.1828 73.2759 59.0157 73.9602 58.796C74.1453 58.7388 74.3453 58.7544 74.5193 58.8397C74.6933 58.925 74.8281 59.0736 74.8962 59.255C75.604 58.9832 76.2891 58.6559 76.9452 58.276C76.8441 58.1067 76.8123 57.9049 76.8562 57.7127C76.9002 57.5204 77.0166 57.3526 77.1812 57.244C77.7838 56.8519 78.3543 56.4125 78.8872 55.93C79.0347 55.798 79.2279 55.729 79.4255 55.7376C79.6232 55.7462 79.8097 55.8317 79.9452 55.976C80.4793 55.4359 80.9682 54.8529 81.4072 54.233C81.2487 54.1188 81.1398 53.9484 81.1026 53.7566C81.0654 53.5649 81.1028 53.3661 81.2072 53.201C81.5995 52.5958 81.9432 51.9605 82.2352 51.301C82.3146 51.1233 82.4592 50.9828 82.639 50.9084C82.8189 50.834 83.0204 50.8314 83.2022 50.901C83.4808 50.2075 83.6999 49.4916 83.8572 48.761C83.7563 48.7431 83.6601 48.7051 83.5742 48.6493C83.4883 48.5935 83.4145 48.5209 83.3572 48.436C83.2462 48.264 83.2081 48.0551 83.2512 47.855Z" fill="#FBFBFD"/>
<path d="M84.1799 44.9429C83.9777 44.9434 83.784 45.0242 83.6413 45.1674C83.4986 45.3107 83.4186 45.5047 83.4188 45.7069C83.4199 46.4262 83.3637 47.1445 83.2508 47.8549C83.2194 48.0507 83.2654 48.2511 83.3791 48.4136C83.4927 48.5762 83.6651 48.6881 83.8599 48.7259H84.0048C84.1889 48.7277 84.3674 48.6629 84.5074 48.5434C84.6475 48.424 84.7396 48.2579 84.7668 48.0759C84.8856 47.2918 84.9441 46.4999 84.9419 45.7069V45.6459C84.927 45.4542 84.8402 45.2752 84.6988 45.1448C84.5575 45.0144 84.3721 44.9423 84.1799 44.9429Z" fill="#D9E0F0"/>
<path d="M68.2998 59.3881C67.5824 59.3213 66.8723 59.1914 66.1778 59.0001C66.0343 58.9609 65.8823 58.9653 65.7413 59.0128C65.6004 59.0602 65.4767 59.1485 65.386 59.2664C65.2953 59.3843 65.2417 59.5265 65.232 59.675C65.2224 59.8234 65.2571 59.9714 65.3318 60.1C66.2245 60.5 67.1719 60.7646 68.1428 60.885H68.1878C68.3776 60.8857 68.5609 60.8156 68.7018 60.6884C68.8427 60.5612 68.9311 60.386 68.9498 60.197C68.9634 60.0051 68.904 59.815 68.7835 59.665C68.663 59.515 68.4902 59.4161 68.2998 59.3881Z" fill="#D9E0F0"/>
<path d="M58.6322 53.809C58.2212 53.2251 57.8535 52.6118 57.5322 51.974C57.4901 51.8832 57.43 51.8019 57.3556 51.7349C57.2812 51.668 57.194 51.6167 57.0993 51.5844C57.0046 51.552 56.9043 51.5391 56.8044 51.5465C56.7046 51.5538 56.6073 51.5814 56.5184 51.6273C56.4295 51.6733 56.3508 51.7368 56.287 51.814C56.2233 51.8912 56.1758 51.9805 56.1475 52.0765C56.1192 52.1725 56.1106 52.2733 56.1222 52.3727C56.1339 52.4721 56.1655 52.5682 56.2152 52.655C56.5791 53.3673 56.9991 54.0494 57.4712 54.695C57.5887 54.8497 57.7628 54.9513 57.9552 54.9775C58.1476 55.0038 58.3426 54.9525 58.4972 54.835C58.6518 54.7176 58.7535 54.5434 58.7797 54.351C58.806 54.1586 58.7547 53.9637 58.6372 53.809H58.6322Z" fill="#D9E0F0"/>
<path d="M56.3091 48.6002C56.1528 47.901 56.0525 47.1904 56.0091 46.4752C56.0091 46.2728 55.9289 46.0787 55.7861 45.9352C55.6827 45.828 55.5492 45.7546 55.4032 45.7251C55.2572 45.6955 55.1056 45.711 54.9687 45.7696C54.8317 45.8282 54.7158 45.9271 54.6364 46.0532C54.557 46.1792 54.5178 46.3264 54.5241 46.4752C54.5632 47.2748 54.6679 48.0698 54.8371 48.8522C54.8745 49.0251 54.9709 49.1795 55.1097 49.289C55.2486 49.3985 55.4213 49.4562 55.5981 49.4522C55.6511 49.4602 55.7051 49.4602 55.7581 49.4522C55.9383 49.4023 56.0939 49.2879 56.1954 49.1309C56.297 48.9739 56.3374 48.7851 56.3091 48.6002Z" fill="#D9E0F0"/>
<path d="M73.9612 58.792C73.2769 59.0117 72.5769 59.1789 71.8672 59.292C71.6672 59.3097 71.4824 59.406 71.3535 59.5599C71.2246 59.7138 71.162 59.9126 71.1797 60.1125C71.1973 60.3125 71.2937 60.4973 71.4476 60.6262C71.6014 60.7552 71.8002 60.8177 72.0002 60.8H72.1142C72.9029 60.6763 73.6799 60.4869 74.4372 60.234C74.5315 60.2031 74.6189 60.1538 74.6942 60.089C74.7695 60.0243 74.8313 59.9454 74.8761 59.8567C74.9209 59.7681 74.9478 59.6715 74.9553 59.5725C74.9628 59.4734 74.9507 59.3739 74.9197 59.2795C74.8887 59.1852 74.8394 59.0979 74.7747 59.0226C74.7099 58.9472 74.631 58.8854 74.5424 58.8406C74.4537 58.7958 74.3571 58.7689 74.2581 58.7614C74.1591 58.7539 74.0595 58.7661 73.9652 58.797L73.9612 58.792Z" fill="#D9E0F0"/>
<path d="M82.2383 51.3001C81.9464 51.9596 81.6026 52.5949 81.2103 53.2001C81.1537 53.2826 81.1142 53.3756 81.0942 53.4736C81.0742 53.5716 81.0741 53.6727 81.0938 53.7708C81.1135 53.8689 81.1527 53.962 81.2091 54.0446C81.2655 54.1273 81.3378 54.1978 81.4219 54.252C81.506 54.3062 81.6001 54.343 81.6987 54.3601C81.7973 54.3773 81.8983 54.3745 81.9957 54.352C82.0932 54.3294 82.1852 54.2875 82.2662 54.2288C82.3472 54.1701 82.4156 54.0957 82.4673 54.0101C82.9016 53.3371 83.2834 52.6317 83.6093 51.9001C83.6912 51.7148 83.6964 51.5046 83.6237 51.3155C83.5509 51.1264 83.4063 50.9738 83.2213 50.8911H83.1833C83.0032 50.8287 82.8062 50.8361 82.6313 50.9118C82.4563 50.9875 82.3161 51.1261 82.2383 51.3001Z" fill="#D9E0F0"/>
<path d="M78.8884 55.9261C78.3555 56.4087 77.785 56.8481 77.1824 57.2401C77.1 57.2938 77.0291 57.3632 76.9736 57.4444C76.9181 57.5255 76.8791 57.6168 76.8588 57.713C76.8386 57.8092 76.8375 57.9084 76.8556 58.0051C76.8737 58.1017 76.9107 58.1938 76.9644 58.2761C77.0181 58.3585 77.0875 58.4294 77.1686 58.4849C77.2498 58.5405 77.341 58.5795 77.4372 58.5997C77.5334 58.6199 77.6327 58.621 77.7293 58.6029C77.8259 58.5848 77.918 58.5478 78.0004 58.4941C78.6711 58.0581 79.3064 57.57 79.9004 57.0341C79.9753 56.9665 80.0362 56.8848 80.0795 56.7936C80.1227 56.7023 80.1475 56.6035 80.1525 56.5027C80.1574 56.4018 80.1423 56.301 80.1082 56.206C80.074 56.111 80.0214 56.0237 79.9534 55.9491C79.8144 55.8062 79.6249 55.7237 79.4256 55.7194C79.2263 55.7151 79.0334 55.7894 78.8884 55.9261Z" fill="#D9E0F0"/>
<path d="M62.8578 57.6302C62.2397 57.2707 61.6518 56.8617 61.0998 56.4072C61.023 56.3456 60.9348 56.2998 60.8403 56.2724C60.7458 56.245 60.6468 56.2364 60.5489 56.2472C60.4511 56.258 60.3564 56.288 60.2701 56.3354C60.1839 56.3829 60.1078 56.4468 60.0463 56.5237C59.9848 56.6005 59.939 56.6887 59.9116 56.7832C59.8841 56.8777 59.8756 56.9767 59.8864 57.0745C59.8972 57.1724 59.9272 57.2671 59.9746 57.3533C60.022 57.4396 60.086 57.5156 60.1628 57.5772C60.7731 58.0858 61.4206 58.5481 62.0998 58.9602C62.1873 59.015 62.285 59.0515 62.387 59.0677C62.489 59.0838 62.5932 59.0792 62.6933 59.0541C62.7935 59.029 62.8875 58.9839 62.9699 58.9216C63.0522 58.8593 63.1211 58.781 63.1724 58.6914C63.2237 58.6018 63.2564 58.5028 63.2686 58.4002C63.2807 58.2977 63.272 58.1938 63.243 58.0947C63.214 57.9956 63.1653 57.9033 63.0998 57.8235C63.0343 57.7437 62.9533 57.6779 62.8618 57.6302H62.8578Z" fill="#D9E0F0"/>
<path d="M78.8501 35.4503C79.3954 35.9207 79.9045 36.4315 80.3731 36.9783C80.494 37.1316 80.6703 37.2311 80.864 37.2554C81.0577 37.2798 81.2531 37.2269 81.4081 37.1083C81.5629 36.9797 81.6609 36.7954 81.681 36.5952C81.701 36.395 81.6414 36.1949 81.5151 36.0383C81.0099 35.4171 80.4572 34.836 79.8621 34.3003C79.7877 34.2337 79.7009 34.1825 79.6067 34.1495C79.5125 34.1165 79.4127 34.1025 79.313 34.1082C79.2133 34.1138 79.1157 34.1391 79.0258 34.1825C78.936 34.226 78.8555 34.2867 78.7891 34.3613C78.7213 34.4363 78.6691 34.5241 78.6354 34.6195C78.6017 34.7149 78.5873 34.816 78.593 34.917C78.5987 35.018 78.6243 35.1169 78.6685 35.2079C78.7126 35.2989 78.7743 35.3803 78.8501 35.4473V35.4503Z" fill="#D9E0F0"/>
<path d="M82.2163 40.059C82.5136 40.7153 82.7554 41.3954 82.9393 42.092C82.9836 42.2583 83.0829 42.4048 83.2211 42.5074C83.3594 42.61 83.5283 42.6628 83.7003 42.657C83.7561 42.665 83.8126 42.665 83.8683 42.657C84.0619 42.603 84.2264 42.4748 84.3262 42.3004C84.4259 42.1259 84.4529 41.9192 84.4013 41.725C84.2072 40.9422 83.9528 40.1755 83.6403 39.432C83.5565 39.2475 83.4029 39.1037 83.2133 39.032C83.0221 38.9648 82.8124 38.9728 82.6268 39.0543C82.4411 39.1358 82.2934 39.2847 82.2133 39.471C82.1751 39.5644 82.1557 39.6644 82.1563 39.7653C82.1568 39.8662 82.1772 39.966 82.2163 40.059Z" fill="#D9E0F0"/>
<path d="M73.9075 32.606C74.5906 32.8262 75.2553 33.0997 75.8955 33.424C76.0015 33.4792 76.1191 33.508 76.2386 33.508C76.3735 33.5079 76.506 33.4718 76.6224 33.4034C76.7387 33.335 76.8348 33.2369 76.9006 33.119C76.95 33.028 76.9807 32.928 76.9906 32.8249C77.0006 32.7218 76.9897 32.6178 76.9586 32.519C76.9274 32.4204 76.8765 32.3292 76.809 32.251C76.7414 32.1728 76.6586 32.1091 76.5656 32.064C75.8596 31.7121 75.1261 31.4182 74.3726 31.185C74.277 31.154 74.1763 31.1423 74.0762 31.1505C73.9762 31.1587 73.8787 31.1868 73.7896 31.233C73.657 31.2996 73.5475 31.4045 73.4751 31.534C73.4028 31.6635 73.3709 31.8117 73.3836 31.9595C73.3963 32.1073 73.453 32.2479 73.5464 32.3631C73.6398 32.4784 73.7656 32.563 73.9075 32.606Z" fill="#D9E0F0"/>
<path d="M62.4474 33.9129C62.5813 33.9119 62.7126 33.8749 62.8274 33.8059C63.4479 33.4468 64.0947 33.1352 64.7624 32.8739C64.8537 32.8399 64.9373 32.788 65.0083 32.7212C65.0793 32.6544 65.1362 32.5741 65.1758 32.485C65.2153 32.3959 65.2366 32.2998 65.2385 32.2024C65.2404 32.1049 65.2229 32.0081 65.1868 31.9175C65.1508 31.8269 65.0971 31.7445 65.0287 31.675C64.9604 31.6054 64.8789 31.5503 64.789 31.5127C64.699 31.4751 64.6025 31.4558 64.505 31.4561C64.4076 31.4563 64.3111 31.476 64.2214 31.5139C63.491 31.7866 62.7809 32.1107 62.0964 32.4839C61.9539 32.5677 61.8423 32.6952 61.7781 32.8475C61.7139 32.9997 61.7005 33.1686 61.7399 33.3291C61.7794 33.4896 61.8695 33.6331 61.9969 33.7382C62.1244 33.8434 62.2823 33.9047 62.4474 33.9129Z" fill="#D9E0F0"/>
<path d="M58.6003 37.6429C59.0252 37.0609 59.4931 36.5117 60.0003 35.9999C60.133 35.8578 60.2068 35.6707 60.2068 35.4764C60.2068 35.282 60.133 35.0949 60.0003 34.9529C59.9296 34.8813 59.8453 34.8245 59.7524 34.7858C59.6596 34.747 59.56 34.7271 59.4593 34.7271C59.3587 34.7271 59.2591 34.747 59.1662 34.7858C59.0734 34.8245 58.9891 34.8813 58.9183 34.9529C58.3644 35.5231 57.8537 36.1338 57.3903 36.7799C57.3294 36.8591 57.2851 36.9498 57.2601 37.0466C57.235 37.1434 57.2297 37.2442 57.2445 37.343C57.2593 37.4419 57.2938 37.5367 57.346 37.622C57.3983 37.7072 57.4672 37.781 57.5486 37.839C57.6299 37.897 57.7222 37.938 57.8198 37.9596C57.9174 37.9811 58.0183 37.9828 58.1166 37.9645C58.2149 37.9462 58.3084 37.9083 58.3917 37.853C58.475 37.7978 58.5463 37.7263 58.6013 37.6429H58.6003Z" fill="#D9E0F0"/>
<path d="M68.1876 32.033H68.2646C68.9696 31.9531 69.6795 31.925 70.3886 31.949C70.5803 31.9494 70.7652 31.8776 70.9064 31.7479C71.0476 31.6182 71.1348 31.4401 71.1506 31.249C71.1507 31.1488 71.1311 31.0496 71.0929 30.957C71.0547 30.8644 70.9986 30.7802 70.9278 30.7092C70.8571 30.6383 70.773 30.582 70.6805 30.5435C70.588 30.505 70.4888 30.4852 70.3886 30.485C69.5937 30.4472 68.7971 30.4699 68.0056 30.553C67.831 30.5963 67.6773 30.6998 67.5714 30.8452C67.4655 30.9906 67.4143 31.1686 67.4266 31.348C67.4286 31.361 67.4286 31.3741 67.4266 31.387C67.4545 31.5683 67.5468 31.7333 67.6866 31.852C67.8264 31.9707 68.0043 32.0349 68.1876 32.033Z" fill="#D9E0F0"/>
<path d="M56.2937 42.8709C56.4399 42.1654 56.6425 41.4729 56.8997 40.7999C56.937 40.7073 56.9554 40.6082 56.9537 40.5084C56.952 40.4086 56.9304 40.3102 56.89 40.2189C56.8497 40.1276 56.7914 40.0454 56.7188 39.977C56.6461 39.9086 56.5604 39.8554 56.4669 39.8207C56.3733 39.7859 56.2738 39.7703 56.1741 39.7746C56.0744 39.779 55.9765 39.8033 55.8864 39.8461C55.7962 39.8889 55.7156 39.9494 55.6492 40.0239C55.5828 40.0984 55.5319 40.1854 55.4997 40.2799C55.2176 41.0265 54.991 41.7929 54.8217 42.5729C54.8005 42.6717 54.7991 42.7737 54.8175 42.873C54.8359 42.9724 54.8739 43.0671 54.9291 43.1517C54.9843 43.2363 55.0558 43.3091 55.1393 43.366C55.2228 43.4228 55.3168 43.4626 55.4157 43.4829H55.5677C55.7401 43.4779 55.9057 43.4147 56.0375 43.3036C56.1694 43.1924 56.2597 43.0399 56.2937 42.8709Z" fill="#D9E0F0"/>
<path d="M75.5472 44.9542H71.2852V40.6762C71.2852 40.368 71.1628 40.0724 70.9449 39.8545C70.727 39.6366 70.4314 39.5142 70.1232 39.5142C69.815 39.5142 69.5195 39.6366 69.3016 39.8545C69.0836 40.0724 68.9612 40.368 68.9612 40.6762V44.9542H64.7002C64.3968 44.963 64.1087 45.0898 63.8972 45.3076C63.6857 45.5254 63.5674 45.8171 63.5674 46.1207C63.5674 46.4243 63.6857 46.7159 63.8972 46.9337C64.1087 47.1515 64.3968 47.2783 64.7002 47.2872H68.9622V51.5642C68.9622 51.8723 69.0847 52.1679 69.3026 52.3858C69.5205 52.6037 69.816 52.7262 70.1242 52.7262C70.4324 52.7262 70.728 52.6037 70.9459 52.3858C71.1638 52.1679 71.2862 51.8723 71.2862 51.5642V47.2872H75.5482C75.8517 47.2783 76.1397 47.1515 76.3513 46.9337C76.5628 46.7159 76.6811 46.4243 76.6811 46.1207C76.6811 45.8171 76.5628 45.5254 76.3513 45.3076C76.1397 45.0898 75.8517 44.963 75.5482 44.9542H75.5472Z" fill="#2760FF"/>
<path d="M14.1329 26.2759C16.1949 26.2759 17.5859 27.5019 17.5859 29.1759C17.5882 29.7309 17.4359 30.2756 17.1461 30.7489C16.8562 31.2223 16.4403 31.6056 15.9449 31.8559C14.9379 32.4499 14.6449 32.8639 14.6449 33.6679V34.1449H13.0309L13.0239 33.5199C12.9984 33.0077 13.1287 32.4999 13.3978 32.0634C13.6668 31.6268 14.0619 31.2822 14.5309 31.0749C15.4769 30.5039 15.8129 30.0509 15.8129 29.2469C15.8073 29.027 15.756 28.8107 15.6621 28.6117C15.5682 28.4128 15.4339 28.2356 15.2678 28.0914C15.1016 27.9473 14.9072 27.8394 14.697 27.7745C14.4868 27.7097 14.2654 27.6894 14.0469 27.7149C13.8139 27.6965 13.5795 27.7262 13.3584 27.802C13.1372 27.8778 12.9339 27.9981 12.7611 28.1556C12.5883 28.313 12.4496 28.5042 12.3536 28.7174C12.2576 28.9305 12.2063 29.1611 12.2029 29.3949H10.5859C10.6559 27.6199 11.8669 26.2759 14.1329 26.2759ZM12.7269 36.6509C12.7206 36.4919 12.7479 36.3334 12.8071 36.1857C12.8662 36.0381 12.9559 35.9045 13.0702 35.7939C13.1845 35.6833 13.3209 35.598 13.4704 35.5437C13.62 35.4895 13.7793 35.4674 13.9379 35.4789C14.0954 35.4724 14.2525 35.4977 14.3999 35.5535C14.5473 35.6093 14.6819 35.6943 14.7956 35.8034C14.9093 35.9125 14.9998 36.0434 15.0616 36.1884C15.1234 36.3333 15.1553 36.4893 15.1553 36.6469C15.1553 36.8045 15.1234 36.9604 15.0616 37.1054C14.9998 37.2503 14.9093 37.3813 14.7956 37.4904C14.6819 37.5995 14.5473 37.6845 14.3999 37.7403C14.2525 37.796 14.0954 37.8214 13.9379 37.8149C13.7799 37.8266 13.6212 37.805 13.4721 37.7513C13.3229 37.6976 13.1868 37.6131 13.0726 37.5032C12.9583 37.3934 12.8685 37.2607 12.8089 37.1139C12.7494 36.967 12.7214 36.8093 12.7269 36.6509Z" fill="#2760FF"/>
<path d="M24.1329 37.2759C26.1949 37.2759 27.5859 38.5019 27.5859 40.1759C27.5882 40.7309 27.4359 41.2756 27.1461 41.7489C26.8562 42.2223 26.4403 42.6056 25.9449 42.8559C24.9379 43.4499 24.6449 43.8639 24.6449 44.6679V45.1449H23.0309L23.0239 44.5199C22.9984 44.0077 23.1287 43.4999 23.3978 43.0634C23.6668 42.6268 24.0619 42.2822 24.5309 42.0749C25.4769 41.5039 25.8129 41.0509 25.8129 40.2469C25.8073 40.027 25.756 39.8107 25.6621 39.6117C25.5682 39.4128 25.4339 39.2356 25.2678 39.0914C25.1016 38.9473 24.9072 38.8394 24.697 38.7745C24.4868 38.7097 24.2654 38.6894 24.0469 38.7149C23.8139 38.6965 23.5795 38.7262 23.3584 38.802C23.1372 38.8778 22.9339 38.9981 22.7611 39.1555C22.5883 39.313 22.4496 39.5042 22.3536 39.7174C22.2576 39.9305 22.2063 40.1611 22.2029 40.3949H20.5859C20.6559 38.6199 21.8669 37.2759 24.1329 37.2759ZM22.7269 47.6509C22.7182 47.4104 22.7814 47.1728 22.9086 46.9685C23.0358 46.7642 23.221 46.6026 23.4407 46.5043C23.6603 46.406 23.9043 46.3755 24.1414 46.4168C24.3784 46.4581 24.5978 46.5692 24.7713 46.736C24.9447 46.9027 25.0645 47.1175 25.1151 47.3527C25.1657 47.588 25.1449 47.833 25.0554 48.0563C24.9659 48.2797 24.8117 48.4712 24.6126 48.6064C24.4135 48.7415 24.1786 48.8141 23.9379 48.8149C23.78 48.8263 23.6214 48.8044 23.4724 48.7506C23.3234 48.6968 23.1875 48.6123 23.0733 48.5025C22.9591 48.3928 22.8692 48.2602 22.8096 48.1135C22.7499 47.9668 22.7218 47.8092 22.7269 47.6509Z" fill="#2760FF"/>
<path d="M21.1329 10.2759C23.1949 10.2759 24.5859 11.5019 24.5859 13.1759C24.5882 13.7309 24.4359 14.2756 24.1461 14.7489C23.8562 15.2223 23.4403 15.6056 22.9449 15.8559C21.9379 16.4499 21.6449 16.8639 21.6449 17.6679V18.1449H20.0309L20.0239 17.5199C19.9984 17.0077 20.1287 16.4999 20.3978 16.0634C20.6668 15.6268 21.0619 15.2822 21.5309 15.0749C22.4769 14.5039 22.8129 14.0509 22.8129 13.2469C22.8073 13.027 22.756 12.8107 22.6621 12.6117C22.5682 12.4128 22.4339 12.2356 22.2678 12.0914C22.1016 11.9473 21.9072 11.8394 21.697 11.7745C21.4868 11.7097 21.2654 11.6894 21.0469 11.7149C20.8139 11.6965 20.5795 11.7262 20.3584 11.802C20.1372 11.8778 19.9339 11.9981 19.7611 12.1556C19.5883 12.313 19.4496 12.5042 19.3536 12.7174C19.2576 12.9305 19.2063 13.1611 19.2029 13.3949H17.5859C17.6559 11.6199 18.8669 10.2759 21.1329 10.2759ZM19.7269 20.6509C19.7182 20.4104 19.7814 20.1728 19.9086 19.9685C20.0358 19.7642 20.221 19.6026 20.4407 19.5043C20.6603 19.406 20.9043 19.3755 21.1414 19.4168C21.3784 19.4581 21.5978 19.5692 21.7713 19.736C21.9447 19.9027 22.0645 20.1175 22.1151 20.3527C22.1657 20.588 22.1449 20.833 22.0554 21.0563C21.9659 21.2797 21.8117 21.4712 21.6126 21.6064C21.4135 21.7415 21.1786 21.8141 20.9379 21.8149C20.78 21.8263 20.6214 21.8044 20.4724 21.7506C20.3234 21.6968 20.1875 21.6123 20.0733 21.5025C19.9591 21.3928 19.8692 21.2602 19.8096 21.1135C19.7499 20.9668 19.7218 20.8092 19.7269 20.6509Z" fill="#2760FF"/>
</svg>
