<svg xmlns="http://www.w3.org/2000/svg" viewBox="0 0 90.54 88.39"><title>icon-magnifying-glass</title><g id="clinical-services"><path d="M7.31,62.12a7.35,7.35,0,1,1,1.6-.18A7.27,7.27,0,0,1,7.31,62.12Zm0-13.64a6.32,6.32,0,1,0,3.39,1A6.33,6.33,0,0,0,7.33,48.48Z" fill="#e0c7e0"/><path d="M27.22,19.8A9.9,9.9,0,0,1,18.89,4.58,9.89,9.89,0,1,1,35.58,15.22a9.83,9.83,0,0,1-6.21,4.34A10,10,0,0,1,27.22,19.8ZM27.25,1a8.89,8.89,0,1,0,7.49,13.68h0A8.89,8.89,0,0,0,27.25,1Z" fill="#e0c7e0"/><circle cx="37.34" cy="42.31" r="32.4" transform="translate(-18.41 51.04) rotate(-57.47)" fill="#e5ddf1"/><circle cx="60.75" cy="70.72" r="17.67" transform="translate(-31.54 83.92) rotate(-57.47)" fill="#2760ff"/><path d="M64.66,59.73a32.55,32.55,0,0,0,2.75-5.37,17.64,17.64,0,0,0-24,19.76A32.3,32.3,0,0,0,64.66,59.73Z" fill="#0b23ff"/><path d="M36.12,9.93a8.89,8.89,0,0,1-16.19,5l-.83.55a9.91,9.91,0,0,0,8.12,4.28,10,10,0,0,0,2.16-.24,9.87,9.87,0,0,0,7.75-9.65Z" fill="#bd92ee"/><path d="M11.26,48.63a7.3,7.3,0,0,0-5.87-.88c.06.33.13.66.19,1a6.36,6.36,0,0,1,1.75-.26A6.32,6.32,0,0,1,10.4,60.32l.57.82a7.32,7.32,0,0,0,.29-12.52Z" fill="#bd92ee"/><path d="M86.63,53.17a3.91,3.91,0,1,1,3.3-1.81h0A3.91,3.91,0,0,1,86.63,53.17Zm0-6.82a2.91,2.91,0,1,0,2.45,4.48h0a2.91,2.91,0,0,0-2.45-4.48Z" fill="#e0c7e0"/><path d="M72.63,21A26.35,26.35,0,0,0,30.25,51.13L14.67,66.52a8.33,8.33,0,0,0,5.8,14.26h.05a8.28,8.28,0,0,0,5.85-2.4L42,63A26.34,26.34,0,0,0,72.63,21ZM25,77a6.33,6.33,0,1,1-8.9-9L31.24,53a26.43,26.43,0,0,0,8.91,9ZM71,56.81a24.34,24.34,0,1,1,7.23-17.17A24.37,24.37,0,0,1,71,56.81Z" fill="#071640"/><path d="M68.14,25.41a19.9,19.9,0,0,0-14.13-6h-.13a20,20,0,0,0-.12,40.07h.13A20,20,0,0,0,68.14,25.41ZM66.56,52.32a17.91,17.91,0,0,1-12.67,5.2h-.11a18,18,0,0,1,.11-36.07H54A18,18,0,0,1,66.56,52.32Z" fill="#071640"/><path d="M54,28.16h-.07a11.25,11.25,0,0,0-8,3.27,1,1,0,1,0,1.41,1.42,9.27,9.27,0,0,1,6.56-2.69h.06a9.27,9.27,0,0,1,6.58,2.77A1,1,0,1,0,62,31.52,11.26,11.26,0,0,0,54,28.16Z" fill="#071640"/></g></svg>