<?xml version="1.0" standalone="no"?>
<!DOCTYPE svg PUBLIC "-//W3C//DTD SVG 20010904//EN"
 "http://www.w3.org/TR/2001/REC-SVG-20010904/DTD/svg10.dtd">
<svg version="1.0" xmlns="http://www.w3.org/2000/svg"
 width="912.000000pt" height="912.000000pt" viewBox="0 0 912.000000 912.000000"
 preserveAspectRatio="xMidYMid meet">
<metadata>
Created by potrace 1.11, written by Peter Selinger 2001-2013
</metadata>
<g transform="translate(0.000000,912.000000) scale(0.100000,-0.100000)"
fill="#000000" stroke="none">
<path d="M586 9099 c10 -12 89 -75 174 -140 85 -65 164 -126 175 -136 11 -10
38 -31 60 -48 22 -16 45 -34 51 -40 7 -5 29 -23 49 -40 21 -16 48 -40 61 -52
13 -12 40 -34 61 -50 21 -15 48 -37 59 -48 12 -11 37 -33 56 -50 237 -207 281
-249 558 -525 264 -263 413 -421 550 -584 8 -9 24 -27 36 -39 11 -12 58 -67
104 -122 45 -55 101 -122 124 -149 22 -27 43 -54 45 -60 2 -6 15 -21 28 -33
12 -12 23 -27 23 -32 0 -6 6 -14 13 -18 6 -4 35 -39 62 -76 28 -37 62 -82 77
-100 15 -18 28 -35 28 -38 0 -3 8 -15 18 -27 45 -53 52 -63 52 -69 0 -4 8 -16
19 -27 38 -43 341 -490 341 -505 0 -5 7 -14 15 -21 13 -10 94 -140 120 -191 5
-10 13 -19 17 -19 5 0 8 -4 8 -9 0 -5 24 -49 54 -98 29 -49 64 -109 78 -134
47 -84 53 -94 58 -99 3 -3 11 -16 17 -30 7 -14 37 -70 68 -125 53 -96 311
-611 352 -705 11 -25 30 -65 41 -90 27 -61 123 -288 127 -300 1 -3 9 -23 19
-45 10 -22 40 -98 67 -170 27 -71 52 -137 56 -145 3 -8 7 -19 9 -25 3 -12 57
-157 74 -200 6 -16 13 -37 15 -45 2 -8 26 -85 55 -170 28 -85 53 -162 55 -170
2 -8 13 -46 25 -85 12 -38 23 -79 25 -90 3 -11 16 -56 30 -99 14 -43 25 -85
25 -92 0 -7 7 -35 16 -61 9 -26 18 -56 20 -68 8 -50 21 -102 27 -112 4 -7 9
-24 12 -40 2 -15 9 -48 15 -73 6 -25 13 -56 16 -70 3 -14 10 -43 16 -65 5 -22
12 -49 13 -60 2 -11 6 -31 9 -45 8 -34 54 -268 61 -305 2 -16 7 -41 10 -55 3
-14 8 -43 11 -65 3 -22 7 -46 10 -54 2 -8 9 -44 14 -80 5 -36 12 -77 15 -91 5
-27 13 -87 20 -153 2 -21 7 -55 10 -75 7 -40 15 -98 20 -147 1 -16 3 -30 4
-30 1 0 4 -22 6 -50 7 -74 12 -133 19 -197 11 -107 16 -163 22 -248 15 -233
24 -435 25 -572 0 -49 4 -88 9 -88 4 0 59 69 121 153 62 83 116 154 121 155 4
2 8 10 8 17 0 7 7 15 15 19 8 3 15 12 15 21 0 8 5 15 10 15 6 0 10 4 10 10 0
5 9 20 21 32 12 13 41 50 65 83 25 33 51 69 60 80 8 11 42 56 75 100 33 44 66
88 74 98 8 9 15 19 15 22 0 3 7 13 16 23 9 9 49 62 90 117 40 55 77 105 82
110 4 6 48 64 98 130 49 66 93 124 97 130 5 5 55 73 113 150 57 77 111 148
119 158 8 9 15 20 15 23 0 2 9 15 21 27 12 12 31 38 44 57 13 19 33 45 44 58
12 12 19 22 16 22 -4 0 0 6 7 13 7 8 22 26 33 41 11 15 38 51 60 80 22 29 49
65 60 80 11 16 40 54 65 86 40 52 85 112 160 214 54 74 218 291 273 361 31 41
57 79 57 84 0 5 4 11 8 13 9 3 824 1086 831 1103 2 6 7 12 11 15 3 3 42 52 85
110 43 58 83 107 87 108 4 2 8 8 8 14 0 5 19 34 42 64 109 138 128 163 128
169 0 3 11 18 25 33 27 28 31 42 15 42 -5 0 -10 5 -10 10 0 12 -78 113 -91
118 -5 2 -9 8 -9 13 0 8 -371 511 -390 529 -3 3 -30 39 -60 80 -30 41 -57 77
-60 80 -3 3 -52 68 -109 145 -58 77 -108 142 -113 143 -4 2 -8 10 -8 18 0 8
-7 17 -15 20 -8 4 -15 10 -15 15 0 7 -82 121 -100 139 -3 3 -25 32 -49 65 -25
33 -48 62 -53 63 -4 2 -8 8 -8 13 0 10 -101 142 -112 147 -5 2 -8 7 -8 12 0
10 -221 304 -232 308 -4 2 -8 8 -8 13 0 7 -54 81 -123 169 -7 9 -32 42 -56 75
-25 33 -47 62 -50 65 -3 3 -10 13 -16 22 -11 18 -215 290 -224 298 -3 3 -10
13 -16 22 -21 35 -459 613 -467 616 -4 2 -8 8 -8 13 0 10 -101 142 -112 147
-5 2 -8 10 -8 17 0 7 -3 15 -8 17 -4 2 -108 138 -231 303 -124 165 -227 302
-230 305 -3 3 -10 13 -16 22 -5 9 -97 132 -203 272 l-193 256 -2281 0 -2281 0
19 -21z"/>
<path d="M3744 4234 c-4 -10 -10 -21 -14 -24 -3 -3 -26 -32 -50 -65 -25 -33
-56 -74 -70 -91 -14 -17 -32 -41 -40 -54 -8 -13 -27 -38 -42 -55 -16 -18 -28
-36 -28 -39 0 -4 -9 -17 -21 -29 -12 -12 -28 -33 -38 -47 -19 -29 -325 -439
-342 -459 -33 -38 -79 -102 -79 -110 0 -5 -4 -11 -8 -13 -5 -1 -28 -30 -53
-63 -24 -33 -50 -66 -56 -73 -7 -7 -13 -17 -13 -20 0 -4 -12 -21 -27 -38 -16
-17 -62 -78 -104 -135 -42 -57 -109 -146 -148 -197 -39 -50 -71 -94 -71 -97 0
-3 -12 -19 -27 -35 -14 -16 -33 -41 -42 -55 -9 -13 -41 -57 -72 -97 -31 -40
-98 -129 -149 -198 -52 -69 -115 -153 -142 -187 -26 -34 -48 -67 -48 -72 0 -5
-4 -11 -8 -13 -5 -1 -28 -30 -53 -63 -24 -33 -46 -62 -49 -65 -3 -3 -13 -16
-21 -30 -9 -14 -26 -37 -38 -50 -17 -21 -377 -498 -446 -593 -62 -85 -131
-172 -137 -175 -5 -2 -8 -8 -8 -13 0 -9 -59 -89 -85 -115 -8 -9 -19 -23 -24
-33 -5 -9 -74 -103 -153 -207 -79 -105 -152 -203 -163 -218 -69 -94 -126 -168
-144 -187 -12 -13 -21 -26 -21 -30 0 -4 -6 -14 -12 -21 -32 -34 -78 -98 -78
-107 0 -6 -3 -11 -7 -11 -5 0 -16 -12 -26 -25 l-18 -25 2038 2 2037 3 1 65 c0
36 -4 71 -8 78 -5 6 -6 12 -1 12 5 0 9 11 9 25 0 14 -2 25 -5 25 -3 0 -6 60
-6 133 -2 147 -16 426 -29 541 -3 28 -8 78 -10 111 -5 59 -10 111 -20 190 -3
22 -7 58 -9 80 -6 51 -13 103 -32 235 -23 159 -19 136 -99 585 -2 11 -11 54
-20 95 -9 41 -19 84 -21 95 -3 20 -6 30 -17 75 -4 14 -9 36 -12 50 -11 59 -93
386 -102 410 -3 8 -8 24 -10 35 -6 26 -9 37 -15 55 -10 25 -40 129 -42 142 -1
7 -5 19 -9 26 -5 6 -5 12 -1 12 3 0 2 6 -3 13 -9 10 -21 45 -29 84 -2 13 -52
169 -61 193 -3 8 -7 20 -9 25 -1 6 -17 51 -34 100 -18 50 -33 95 -34 100 -1 6
-5 15 -8 21 -4 6 -15 33 -24 60 -22 67 -155 407 -164 419 -3 6 -15 32 -25 59
-10 27 -24 61 -31 75 -12 23 -14 24 -20 5z"/>
</g>
</svg>
